<svg xmlns="http://www.w3.org/2000/svg" viewBox="0 0 58.4 48">
    <defs>
        <style>
            .cls-1{fill:#fc8435}
        </style>
    </defs>
    <g id="Ресурс_7" data-name="Ресурс 7" transform="translate(-.011)">
        <g id="Слой_1" data-name="Слой 1" transform="translate(.011)">
            <path id="Path_5959" d="M32.881 2.009a22.368 22.368 0 0 1-5.115 44.134 22.826 22.826 0 0 1-3.888-.335l-3.442-4.648 5.051-3.338 1.4-.942-1.02-1.342-8.092-10.974 10.82-6.8 1-.623L29.3 16l-2.458-9.454 6.039-4.536M32.514.3l-7.489 5.607L27.766 16.4 15.48 24.132l9.131 12.428-6.47 4.281 4.78 6.5a24.674 24.674 0 0 0 4.78.479A23.965 23.965 0 0 0 32.483.38z" class="cls-1" data-name="Path 5959" transform="translate(6.77 .179)"/>
            <path id="Path_5960" d="M16.534 2.524l-2.868 4.52-.574.942.621.879 5.609 7.875-7.967 10.67-1.1 1.342 1.45.942 11.489 7.38-3.537 4.936-.972 1.374 1.418.91 2.645 1.693a22.372 22.372 0 0 1-6.214-43.463M20.024 0A23.964 23.964 0 0 0 23.9 47.6a23.115 23.115 0 0 0 3.9-.319L21 42.952l4.494-6.309-12.912-8.306 8.732-11.6-6.294-8.75z" class="cls-1" data-name="Path 5960" transform="translate(-.011)"/>
        </g>
    </g>
</svg>
