<svg xmlns="http://www.w3.org/2000/svg" id="Ресурс_3" data-name="Ресурс 3" viewBox="0 0 28.087 48">
    <defs>
        <style>
            .cls-1{fill:#fc8435}
        </style>
    </defs>
    <g id="Слой_1" data-name="Слой 1">
        <path id="Path_5948" d="M11.777 31.989a8 8 0 0 0 8-8V8A8 8 0 1 0 3.78 8v15.992a8 8 0 0 0 8 8zM5.379 8a6.4 6.4 0 1 1 12.8 0v15.992a6.4 6.4 0 0 1-12.8 0z" class="cls-1" data-name="Path 5948" transform="translate(2.266)"/>
        <path id="Path_5949" d="M28.087 15.52a.816.816 0 0 0-.8-.8.8.8 0 0 0-.8.8 12.444 12.444 0 0 1-24.888 0 .8.8 0 1 0-1.6 0 14.043 14.043 0 0 0 13.245 14.043v8h-5.6a.8.8 0 0 0-.816.8.816.816 0 0 0 .816.816h12.8a.808.808 0 0 0 0-1.615h-5.6v-8A14.059 14.059 0 0 0 28.087 15.52z" class="cls-1" data-name="Path 5949" transform="translate(0 8.824)"/>
    </g>
</svg>
