<svg xmlns="http://www.w3.org/2000/svg" id="Ресурс_4" data-name="Ресурс 4" viewBox="0 0 47.998 48">
    <defs>
        <style>
            .cls-1{fill:#fc8435}
        </style>
    </defs>
    <g id="Слой_1" data-name="Слой 1">
        <path id="Path_5950" d="M28.624 18.61h-7.952v1.6h6.9l-9.332 9.335 1.072 1.073 9.312-9.3v6.9h1.648V18.61z" class="cls-1" data-name="Path 5950" transform="translate(10.945 11.187)"/>
        <path id="Path_5951" d="M36.193 22.416V0h-9.6v25.762a12.712 12.712 0 0 0-2.7 3.474V9.607h-9.6v28.82h-3.3V19.213h-9.6v19.214H0v1.6h23.345a12.8 12.8 0 1 0 12.8-17.612zM9.392 38.427h-6.4V20.815h6.4zm12.9 0h-6.4V11.208h6.4zM28.193 1.6h6.4v20.816a12.7 12.7 0 0 0-6.4 2.065zM35.2 46.432a11.2 11.2 0 0 1-10.112-6.4 10.972 10.972 0 0 1-.608-1.6 11.1 11.1 0 0 1 2.112-10.359 10.6 10.6 0 0 1 1.6-1.6 11.1 11.1 0 0 1 6.4-2.45h1.6a11.219 11.219 0 0 1-.992 22.409z" class="cls-1" data-name="Path 5951"/>
    </g>
</svg>
