<svg xmlns="http://www.w3.org/2000/svg" viewBox="0 0 48 48">
    <defs>
        <style>
            .cls-1{fill:#fc8435}
        </style>
    </defs>
    <g id="Ресурс_6" data-name="Ресурс 6" transform="translate(-.015 -.063)">
        <g id="Слой_1" data-name="Слой 1" transform="translate(.014 .063)">
            <path id="Path_5952" d="M17.277 36.681a16.318 16.318 0 0 1-4.585-.642.791.791 0 0 1-.513-.947.743.743 0 0 1 .917-.53 14.644 14.644 0 0 0 4.181.594 15.553 15.553 0 0 0 15.28-15.782 15.946 15.946 0 0 0-2.767-9.055.8.8 0 0 1 .187-1.076.712.712 0 0 1 .552-.126.729.729 0 0 1 .471.318A17.788 17.788 0 0 1 32.187 27.4a16.7 16.7 0 0 1-14.91 9.33z" class="cls-1" data-name="Path 5952" transform="translate(6.716 5.412)"/>
            <path id="Path_5953" d="M8.018 31.86a.709.709 0 0 1-.606-.337 17.8 17.8 0 0 1-.747-17.716A16.688 16.688 0 0 1 21.4 4.71a15.988 15.988 0 0 1 4.663.674.774.774 0 0 1 .513.947.75.75 0 0 1-.354.456.71.71 0 0 1-.563.058 15.032 15.032 0 0 0-16.536 5.807 16.226 16.226 0 0 0-.483 18.036.776.776 0 0 1 .032.78.727.727 0 0 1-.654.392z" class="cls-1" data-name="Path 5953" transform="translate(2.56 2.751)"/>
            <path id="Path_5954" d="M43.919 4.393a.778.778 0 1 0-1.554 0V8.6A23.615 23.615 0 0 0 11.4 3.836a25.389 25.389 0 0 0-9.512 30.805.761.761 0 0 0 .7.466.647.647 0 0 0 .3 0 .759.759 0 0 0 .406-.419.794.794 0 0 0 0-.593A23.784 23.784 0 0 1 12.312 4.89a22.142 22.142 0 0 1 29.26 5.138h-4.663a.734.734 0 0 0-.543.226.784.784 0 0 0-.218.561.774.774 0 0 0 .762.787h6.39a1.027 1.027 0 0 0 .264-.128.843.843 0 0 0 .233-.273 1.1 1.1 0 0 0 .093-.241.215.215 0 0 0 0-.1z" class="cls-1" data-name="Path 5954" transform="translate(-.014 -.063)"/>
            <path id="Path_5955" d="M2.63 38.83a.778.778 0 1 0 1.554 0v-4.206a23.616 23.616 0 0 0 30.989 4.8 25.389 25.389 0 0 0 9.5-30.843.761.761 0 0 0-.7-.466.648.648 0 0 0-.3 0 .759.759 0 0 0-.406.419.794.794 0 0 0 0 .593 23.784 23.784 0 0 1-9 29.236 22.142 22.142 0 0 1-29.28-5.153h4.669a.8.8 0 0 0 0-1.606H3.205a.854.854 0 0 0-.28.112.587.587 0 0 0-.187.209.769.769 0 0 0-.093.241z" class="cls-1" data-name="Path 5955" transform="translate(1.436 4.804)"/>
            <path id="Path_5956" d="M11.984 26.362a.744.744 0 0 1-.694-.436.791.791 0 0 1 .1-.832L22.6 10.4a.747.747 0 0 1 1.073-.128.806.806 0 0 1 .124 1.108L12.59 25.992a.742.742 0 0 1-.606.369z" class="cls-1" data-name="Path 5956" transform="translate(6.196 6.017)"/>
            <path id="Path_5957" d="M13.441 18.417a4.394 4.394 0 0 1-4.321-4.464 4.394 4.394 0 0 1 4.321-4.463 4.394 4.394 0 0 1 4.321 4.463 4.394 4.394 0 0 1-4.321 4.463zm0-7.353a2.8 2.8 0 0 0-2.6 1.773 2.96 2.96 0 0 0 .6 3.155 2.733 2.733 0 0 0 3.051.634 2.892 2.892 0 0 0 1.731-2.671 2.846 2.846 0 0 0-2.782-2.89z" class="cls-1" data-name="Path 5957" transform="translate(5.034 5.646)"/>
            <path id="Path_5958" d="M20.482 24.179a4.482 4.482 0 1 1 4.321-4.5 4.409 4.409 0 0 1-4.321 4.5zm0-7.369a2.891 2.891 0 1 0 2.8 2.89 2.845 2.845 0 0 0-2.8-2.891z" class="cls-1" data-name="Path 5958" transform="translate(8.92 9.115)"/>
        </g>
    </g>
</svg>
