<svg xmlns="http://www.w3.org/2000/svg" id="Ресурс_2" data-name="Ресурс 2" viewBox="0 0 64 48">
    <defs>
        <style>
            .cls-1{fill:#fc8435}
        </style>
    </defs>
    <g id="Слой_1" data-name="Слой 1">
        <path id="Path_5942" d="M12 17.2H4v-1.6h6.4V6h39.99v1.6H12z" class="cls-1" data-name="Path 5942" transform="translate(2.398 3.6)"/>
        <path id="Rectangle_251" d="M0 0h9.598v1.6H0z" class="cls-1" data-name="Rectangle 251" transform="translate(0 25.6)"/>
        <path id="Rectangle_252" d="M0 0h17.596v1.6H0z" class="cls-1" data-name="Rectangle 252" transform="translate(28.795 1.6)"/>
        <path id="Rectangle_253" d="M0 0h17.596v1.6H0z" class="cls-1" data-name="Rectangle 253" transform="translate(43.193 46.4)"/>
        <path id="Rectangle_254" d="M0 0h3.199v1.6H0z" class="cls-1" data-name="Rectangle 254" transform="translate(23.996 1.6)"/>
        <path id="Rectangle_255" d="M0 0h3.199v1.6H0z" class="cls-1" data-name="Rectangle 255" transform="translate(38.393 46.4)"/>
        <path id="Rectangle_256" d="M0 0h3.199v1.6H0z" class="cls-1" data-name="Rectangle 256" transform="translate(33.594 46.4)"/>
        <path id="Rectangle_257" d="M0 0h3.199v1.6H0z" class="cls-1" data-name="Rectangle 257" transform="translate(28.795 46.4)"/>
        <path id="Rectangle_258" d="M0 0h3.199v1.6H0z" class="cls-1" data-name="Rectangle 258" transform="translate(30.394 24)"/>
        <path id="Path_5943" d="M53.589 40H8V22.4h1.6v16h43.989a4 4 0 0 0 0-8h-4V0h4c3.663 0 5.6 1.936 5.6 5.6v28a6.709 6.709 0 0 1 0 .8 5.423 5.423 0 0 1-5.6 5.6zm.32-11.2a5.47 5.47 0 0 1 3.679 1.6V5.6c0-2.768-1.232-4-4-4h-2.4v27.2z" class="cls-1" data-name="Path 5943" transform="translate(4.801)"/>
        <path id="Path_5944" d="M29.4 24.3a6.4 6.4 0 1 1 6.4-6.4 6.4 6.4 0 0 1-6.4 6.4zm0-11.2a4.8 4.8 0 1 0 4.8 4.8 4.8 4.8 0 0 0-4.8-4.8z" class="cls-1" data-name="Path 5944" transform="translate(13.794 6.9)"/>
        <path id="Path_5945" d="M48.791 29.8H16.8V29c0-2.768-1.232-4-4-4H12V13.8h.8c2.767 0 4-1.232 4-4V9h28.792v1.6H18.4a4.8 4.8 0 0 1-4.8 4.8v8a4.8 4.8 0 0 1 4.8 4.8h30.391z" class="cls-1" data-name="Path 5945" transform="translate(7.199 5.401)"/>
    </g>
</svg>
