<svg id="Layer_1" data-name="Layer 1" xmlns="http://www.w3.org/2000/svg" viewBox="0 0 49.157 49.154">
  <defs>
    <style>
      .cls-1 {
        fill: #0085be;
      }

      .cls-2 {
        fill: #fff;
      }
    </style>
  </defs>
  <title>Sport Assure-instagram icon</title>
  <path class="cls-1" d="M25,49.577A24.577,24.577,0,1,0,.422,25,24.579,24.579,0,0,0,25,49.577" transform="translate(-0.422 -0.423)"/>
  <path class="cls-2" d="M25,11.989c-3.534,0-3.978.014-5.365,0.08a9.531,9.531,0,0,0-3.159.6,6.671,6.671,0,0,0-3.8,3.8,9.621,9.621,0,0,0-.6,3.159C12,21.023,11.988,21.467,11.988,25s0.017,3.974.08,5.365a9.579,9.579,0,0,0,.6,3.156,6.645,6.645,0,0,0,3.8,3.8,9.521,9.521,0,0,0,3.159.607C21.022,38,21.466,38.01,25,38.01s3.978-.014,5.365-0.076a9.521,9.521,0,0,0,3.159-.607,6.645,6.645,0,0,0,3.8-3.8,9.579,9.579,0,0,0,.6-3.156c0.062-1.391.08-1.831,0.08-5.365s-0.017-3.978-.08-5.365a9.621,9.621,0,0,0-.6-3.159,6.671,6.671,0,0,0-3.8-3.8,9.531,9.531,0,0,0-3.159-.6C28.978,12,28.534,11.989,25,11.989m0,2.344c3.475,0,3.884.014,5.258,0.076a7.288,7.288,0,0,1,2.417.447,3.993,3.993,0,0,1,1.495.975,4.034,4.034,0,0,1,.975,1.495,7.268,7.268,0,0,1,.447,2.417c0.062,1.37.076,1.783,0.076,5.258s-0.014,3.884-.076,5.258a7.241,7.241,0,0,1-.447,2.414,4.3,4.3,0,0,1-2.469,2.469,7.172,7.172,0,0,1-2.417.451c-1.373.062-1.783,0.073-5.258,0.073s-3.884-.01-5.258-0.073a7.172,7.172,0,0,1-2.417-.451,4.3,4.3,0,0,1-2.469-2.469,7.241,7.241,0,0,1-.447-2.414c-0.062-1.373-.076-1.786-0.076-5.258s0.014-3.888.076-5.258a7.268,7.268,0,0,1,.447-2.417,4.034,4.034,0,0,1,.975-1.495,3.993,3.993,0,0,1,1.495-.975,7.288,7.288,0,0,1,2.417-.447c1.373-.062,1.783-0.076,5.258-0.076" transform="translate(-0.422 -0.423)"/>
  <path class="cls-2" d="M25,29.337A4.337,4.337,0,1,1,29.339,25,4.337,4.337,0,0,1,25,29.337m0-11.018A6.681,6.681,0,1,0,31.683,25,6.684,6.684,0,0,0,25,18.318" transform="translate(-0.422 -0.423)"/>
  <path class="cls-2" d="M33.507,18.054a1.561,1.561,0,1,1-1.561-1.561,1.561,1.561,0,0,1,1.561,1.561" transform="translate(-0.422 -0.423)"/>
</svg>
