<svg xmlns="http://www.w3.org/2000/svg" width="14" height="15" viewBox="0 0 14 15">
    <path fill="#34343E" fill-rule="evenodd" d="M1.623 11.774c0-1.33 1.548-2.436 3.275-2.417.402.006.778.072 1.118.186.937.673 1.61 1.053 1.8 1.82.036.157.056.316.056.48 0 1.356-.847 2.415-3.274 2.415-1.728 0-2.975-1.129-2.975-2.484zm.968-8.378C2.39 1.825 3.168.622 4.327.657c1.158.036 2.26 1.296 2.46 2.869.2 1.572-.577 2.817-1.736 2.78-1.159-.035-2.26-1.338-2.46-2.91zM6.27 7.19c0-.5.138-.744.863-1.33.744-.6 1.27-1.444 1.27-2.425 0-1.17-.503-2.308-1.45-2.684h1.427L9.388 0h-4.5C2.872 0 .974 1.578.974 3.405.974 5.273 2.349 6.78 4.4 6.78c.144 0 .281-.002.417-.013a1.95 1.95 0 0 0-.229.867c0 .52.271.941.614 1.284-.26 0-.51.008-.78.008C1.923 8.926 0 10.568 0 12.273 0 13.95 2.109 15 4.606 15c2.848 0 4.422-1.669 4.422-3.347 0-1.345-.385-2.151-1.574-3.019-.407-.297-1.183-1.02-1.183-1.444zm5.978-.747V4.635h-1.41v1.808H9.088V7.9h1.75v1.807h1.411V7.9H14V6.443h-1.751z"/>
</svg>
