<svg xmlns="http://www.w3.org/2000/svg" width="14" height="12" viewBox="0 0 14 12">
    <path fill="#ffbb2f" fill-rule="evenodd" d="M1.344 3.89a3.879 3.879 0 0 1-.914-.902C.143 2.606 0 2.25 0 1.922c0-.406.108-.745.324-1.016C.54.636.85.5 1.25.5h11.5c.338 0 .631.122.879.367.247.245.371.54.371.883 0 .411-.128.805-.383 1.18a3.713 3.713 0 0 1-.953.96L9.008 6.43c-.052.036-.163.115-.332.238-.17.122-.31.221-.422.297-.112.075-.247.16-.406.254a2.364 2.364 0 0 1-.45.21c-.14.047-.27.07-.39.07h-.016c-.12 0-.25-.023-.39-.07a2.36 2.36 0 0 1-.45-.21 8.098 8.098 0 0 1-.406-.254 16.21 16.21 0 0 1-.422-.297c-.17-.122-.28-.202-.332-.238-.474-.334-1.156-.809-2.047-1.426-.89-.617-1.424-.988-1.601-1.113zm11.875.837a4.31 4.31 0 0 0 .781-.68v6.203c0 .344-.122.638-.367.883s-.54.367-.883.367H1.25c-.344 0-.638-.122-.883-.367A1.204 1.204 0 0 1 0 10.25V4.047c.23.255.492.482.79.68 1.884 1.28 3.179 2.18 3.882 2.695.297.219.538.39.723.512.184.122.43.247.738.375.307.127.594.191.86.191h.015c.266 0 .552-.064.86-.191a4.46 4.46 0 0 0 .737-.375c.185-.123.426-.293.723-.512.885-.64 2.182-1.54 3.89-2.695z"/>
</svg>
