<svg xmlns="http://www.w3.org/2000/svg" width="16" height="10" viewBox="0 0 16 10">
    <path fill="#34343E" fill-rule="evenodd" d="M8.785 9.462s.288-.031.436-.188c.136-.143.131-.414.131-.414s-.018-1.265.578-1.452c.586-.183 1.34 1.223 2.14 1.764.604.41 1.063.32 1.063.32l2.137-.03s1.117-.068.587-.934c-.043-.071-.309-.641-1.588-1.812-1.34-1.227-1.16-1.028.453-3.15.983-1.291 1.376-2.08 1.253-2.417-.117-.322-.84-.237-.84-.237L12.73.927s-.179-.024-.311.054c-.13.076-.213.255-.213.255s-.38.999-.888 1.85c-1.072 1.792-1.5 1.887-1.675 1.776-.408-.26-.306-1.043-.306-1.6 0-1.738.268-2.462-.52-2.65C8.555.55 8.363.51 7.694.502 6.835.493 6.109.505 5.697.703c-.273.132-.485.427-.356.444.16.02.52.096.71.352.247.33.238 1.073.238 1.073s.142 2.046-.33 2.3c-.325.175-.77-.181-1.725-1.808-.489-.834-.858-1.755-.858-1.755s-.072-.172-.2-.265C3.024.932 2.808.898 2.808.898L.522.912s-.344.01-.47.157c-.112.13-.009.401-.009.401S1.833 5.6 3.86 7.68c1.859 1.907 3.968 1.782 3.968 1.782h.957z"/>
</svg>
