<svg xmlns="http://www.w3.org/2000/svg" width="32" height="38" viewBox="0 0 32 38">
    <path fill="#FFFFFF" fill-rule="evenodd" d="M13.756 23.8l1.19-2.17 2.048-3.597 1.168 1.735 2.218 3.371-6.624.662zm8.351 12.482l-3.07-4.96a2.578 2.578 0 0 0-2.429-1.213L.001 31.667v-3.77l8.622-.808-.008.014 2.266-.225 9.709-.912a2.785 2.785 0 0 1 2.568 1.221l5.697 8.463-6.748.632zm-6.13-29.683l4.231-.396-7.84 14.31-1.057 1.858a3.908 3.908 0 0 1-3.026 1.96L0 25.108v-3.992l6.305-.59a3.922 3.922 0 0 0 3.061-2.007l6.612-11.92zM7.67 15.816a4.085 4.085 0 0 1-3.188 2.09l-4.48.42v-7.091c0-1.868 1.278-3.256 3.16-3.433l9.445-.887-4.937 8.901zm9.744 18.645l1.322 2.137-14.806 1.39C1.985 38.168 0 36.385 0 34.456l14.652-1.374a2.925 2.925 0 0 1 2.761 1.378zm7.643-21.886a3.05 3.05 0 0 0 .031 3.22L32 26.652v8.24L20.708 18.12l-.718-1.093a4.17 4.17 0 0 1-.172-4.292l3.752-6.848 5.9-.554-4.414 7.241zm3.597 3.173a3.47 3.47 0 0 1-.035-3.666L32 6.534v14.47l-3.347-5.256zM2.8 2.972c0-1.849 1.494-3.168 3.337-2.948l23.572 2.81c.37.044.428.584.067.622L2.8 6.233V2.972z"/>
</svg>
