<svg xmlns="http://www.w3.org/2000/svg" width="126" height="38" viewBox="0 0 126 38">
    <g fill="#34343E" fill-rule="evenodd" opacity=".5">
        <path d="M13.756 23.8l1.19-2.17 2.048-3.597 1.168 1.735 2.218 3.371-6.624.662zm8.351 12.482l-3.07-4.96a2.578 2.578 0 0 0-2.429-1.213L.001 31.667v-3.77l8.622-.808-.008.014 2.266-.225 9.709-.912a2.785 2.785 0 0 1 2.568 1.221l5.697 8.463-6.748.632zm-6.13-29.683l4.231-.396-7.84 14.31-1.057 1.858a3.908 3.908 0 0 1-3.026 1.96L0 25.108v-3.992l6.305-.59a3.922 3.922 0 0 0 3.061-2.007l6.612-11.92zM7.67 15.816a4.085 4.085 0 0 1-3.188 2.09l-4.48.42v-7.091c0-1.868 1.278-3.256 3.16-3.433l9.445-.887-4.937 8.901zm9.744 18.645l1.322 2.137-14.806 1.39C1.985 38.168 0 36.385 0 34.456l14.652-1.374a2.925 2.925 0 0 1 2.761 1.378zm7.643-21.886a3.05 3.05 0 0 0 .031 3.22L32 26.652v8.24L20.708 18.12l-.718-1.093a4.17 4.17 0 0 1-.172-4.292l3.752-6.848 5.9-.554-4.414 7.241zm3.597 3.173a3.47 3.47 0 0 1-.035-3.666L32 6.534v14.47l-3.347-5.256zM2.8 2.972c0-1.849 1.494-3.168 3.337-2.948l23.572 2.81c.37.044.428.584.067.622L2.8 6.233V2.972zM59.48 32h-2.96V21.4h-4V32H49.6V8.48a2.85 2.85 0 0 1 2.84-2.84h4.2a2.85 2.85 0 0 1 2.84 2.84V32zm-2.96-13.04V8.08h-4v10.88h4zM71.36 32h-7.6V5.64h2.92v23.92h4.68V32zm11.68 0h-8.28V5.64h8.28v2.44h-5.36v9.48h4.48v2.48h-4.48v9.52h5.36V32zm13.8 0h-2.92V19.8h-4.48V32h-2.92V5.64h2.92v11.72h4.48V5.64h2.92V32zm11.4 0h-4.32c-1.56 0-2.8-1.28-2.8-2.84V5.64h2.92v23.92h4.12V5.64h2.92v23.52a2.85 2.85 0 0 1-2.84 2.84zm14.16 0h-7.04V5.64h6.8A2.85 2.85 0 0 1 125 8.48v7.8c0 1.32-1.24 1.88-1.56 1.96.36.12 1.8.64 1.8 1.96v8.96A2.85 2.85 0 0 1 122.4 32zm-.08-2.44V19.44h-4.04v10.12h4.04zm-.24-12.52V8.08h-3.8v8.96h3.8z"/>
    </g>
</svg>
