<svg xmlns="http://www.w3.org/2000/svg" width="251" height="76" viewBox="0 0 251 76">
    <g fill="#ffd24f" fill-rule="evenodd">
        <path d="M27.512 47.602l2.381-4.343 4.095-7.192 2.337 3.47 4.435 6.741-13.248 1.324zm16.703 24.962l-6.141-9.919a5.155 5.155 0 0 0-4.857-2.426L.001 63.334v-7.54l17.245-1.616-.017.027 4.533-.45 19.418-1.824a5.57 5.57 0 0 1 5.135 2.444L57.71 71.299l-13.495 1.265zm-12.26-59.365l8.461-.794-15.68 28.623-2.115 3.714a7.817 7.817 0 0 1-6.051 3.92L0 50.216v-7.984l12.61-1.181a7.843 7.843 0 0 0 6.122-4.014l13.223-23.838zM15.338 31.632a8.17 8.17 0 0 1-6.376 4.182L0 36.654V22.47c0-3.736 2.558-6.512 6.322-6.866l18.89-1.773-9.874 17.801zm19.488 37.29l2.644 4.274L7.86 75.974C3.97 76.34 0 72.773 0 68.914l29.304-2.747a5.85 5.85 0 0 1 5.522 2.755zM50.112 25.15a6.1 6.1 0 0 0 .063 6.441L64 53.301v16.48L41.416 36.24l-1.435-2.186a8.342 8.342 0 0 1-.345-8.582l7.504-13.698 11.801-1.107-8.829 14.482zm7.194 6.345a6.94 6.94 0 0 1-.07-7.33L64 13.068v28.94l-6.694-10.513zM5.598 5.945c0-3.699 2.987-6.337 6.675-5.897l47.143 5.62c.741.088.855 1.168.135 1.243L5.598 12.466V5.944zM118.96 64h-5.92V42.8h-8V64H99.2V16.96c0-3.12 2.56-5.68 5.68-5.68h8.4c3.12 0 5.68 2.56 5.68 5.68V64zm-5.92-26.08V16.16h-8v21.76h8zM142.72 64h-15.2V11.28h5.84v47.84h9.36V64zm23.36 0h-16.56V11.28h16.56v4.88h-10.72v18.96h8.96v4.96h-8.96v19.04h10.72V64zm27.6 0h-5.84V39.6h-8.96V64h-5.84V11.28h5.84v23.44h8.96V11.28h5.84V64zm22.8 0h-8.64c-3.12 0-5.6-2.56-5.6-5.68V11.28h5.84v47.84h8.24V11.28h5.84v47.04c0 3.12-2.56 5.68-5.68 5.68zm28.32 0h-14.08V11.28h13.6c3.12 0 5.68 2.56 5.68 5.68v15.6c0 2.64-2.48 3.76-3.12 3.92.72.24 3.6 1.28 3.6 3.92v17.92c0 3.12-2.56 5.68-5.68 5.68zm-.16-4.88V38.88h-8.08v20.24h8.08zm-.48-25.04V16.16h-7.6v17.92h7.6z"/>
    </g>
</svg>
