<svg xmlns="http://www.w3.org/2000/svg" width="20" height="12" viewBox="0 0 20 12">
    <path fill="#787878" fill-rule="evenodd" d="M10.204 10.472A6.17 6.17 0 0 1 6.123 12C2.74 12 0 9.314 0 6s2.741-6 6.123-6C7.5 0 8.773.446 9.796 1.2a7.949 7.949 0 0 0-1.022 1.759A4.115 4.115 0 0 0 6.123 2C3.868 2 2.04 3.79 2.04 6s1.827 4 4.082 4c2.254 0 4.081-1.79 4.081-4 0-3.314 2.741-6 6.123-6 1.378 0 2.65.446 3.673 1.2a7.949 7.949 0 0 0-1.022 1.759A4.115 4.115 0 0 0 16.327 2c-2.255 0-4.082 1.79-4.082 4v6h-2.04v-1.528z" opacity=".5"/>
</svg>
