<svg xmlns="http://www.w3.org/2000/svg" width="30" height="38" viewBox="0 0 30 38">
    <path fill="#34343E" fill-rule="nonzero" d="M24.39 9.07C23 5.48 19.43 5.16 15.3 6L13.83.83l-3.12.89 1.43 5c-.82.23-1.65.49-2.48.75l-1.44-5-3.12.89 1.47 5.12-2 .6-4.3 1.23 1 3.33s2.29-.71 2.26-.65a1.67 1.67 0 0 1 2.19.85l1.68 5.84a2.46 2.46 0 0 1 .34-.07l-.33.09 2.34 8.18a1.15 1.15 0 0 1-.88 1.37l-2.27.65.45 3.9 4.06-1.17 2.21-.63 1.49 5.18 3.12-.89-1.47-5.13 2.5-.69 1.46 5.11 3.12-.89-1.48-5.17c5.16-1.81 8.45-4.18 7.49-9.24-.77-4.07-3.14-5.31-6.33-5.17a5 5 0 0 0 1.17-6.04zm-1.18 12.34c1.11 3.88-5.65 5.34-7.76 5.94l-2-6.87c2.11-.61 8.57-3.12 9.73.93h.03zM19 12.13c1 3.53-4.64 4.7-6.4 5.21l-1.79-6.23c1.74-.5 7.11-2.65 8.19 1.02z"/>
</svg>
