<svg xmlns="http://www.w3.org/2000/svg" width="20" height="29" viewBox="0 0 28 37">
    <path fill="#34343e" fill-rule="nonzero" d="M27.38 14.62c.57-3.82-2.34-5.87-6.31-7.24l1.28-5.2-3.15-.78-1.26 5c-.83-.21-1.68-.4-2.52-.59l1.3-5.02L13.57 0l-1.32 5.18c-.69-.16-1.36-.31-2-.47L5.9 3.61l-.84 3.36s2.34.54 2.29.57a1.68 1.68 0 0 1 1.47 1.83l-1.47 5.89.33.1-.33-.08-2.06 8.26a1.15 1.15 0 0 1-1.44.75l-2.29-.57L0 27.32l4.1 1 2.24.58-1.31 5.28 3.15.78 1.29-5.17 2.51.65-1.26 5.13 3.15.78 1.27-5.17c5.37 1 9.41.61 11.11-4.25 1.37-3.91-.07-6.17-2.89-7.64a5 5 0 0 0 4.02-4.67zm-7.2 10.09c-1 3.91-7.56 1.8-9.69 1.27l1.73-6.93c2.13.53 8.98 1.58 7.96 5.66zm1-10.15c-.89 3.56-6.37 1.75-8.14 1.31l1.57-6.29c1.74.45 7.47 1.27 6.55 4.98h.02z"/>
</svg>
