<?xml version="1.0" encoding="UTF-8" standalone="no"?>
<!-- Created with Inkscape (http://www.inkscape.org/) -->

<svg
   xmlns:dc="http://purl.org/dc/elements/1.1/"
   xmlns:cc="http://creativecommons.org/ns#"
   xmlns:rdf="http://www.w3.org/1999/02/22-rdf-syntax-ns#"
   xmlns:svg="http://www.w3.org/2000/svg"
   xmlns="http://www.w3.org/2000/svg"
   xmlns:sodipodi="http://sodipodi.sourceforge.net/DTD/sodipodi-0.dtd"
   xmlns:inkscape="http://www.inkscape.org/namespaces/inkscape"
   width="210mm"
   height="297mm"
   viewBox="0 0 744.09448819 1052.3622047"
   id="svg2"
   version="1.1"
   inkscape:version="0.91 r13725"
   sodipodi:docname="ib 2.svg">
  <defs
     id="defs4" />
  <sodipodi:namedview
     id="base"
     pagecolor="#ffffff"
     bordercolor="#666666"
     borderopacity="1.0"
     inkscape:pageopacity="0.0"
     inkscape:pageshadow="2"
     inkscape:zoom="0.49497475"
     inkscape:cx="195.96992"
     inkscape:cy="1148.8388"
     inkscape:document-units="px"
     inkscape:current-layer="layer1"
     showgrid="false"
     inkscape:window-width="1920"
     inkscape:window-height="1015"
     inkscape:window-x="0"
     inkscape:window-y="0"
     inkscape:window-maximized="1" />
  <metadata
     id="metadata7">
    <rdf:RDF>
      <cc:Work
         rdf:about="">
        <dc:format>image/svg+xml</dc:format>
        <dc:type
           rdf:resource="http://purl.org/dc/dcmitype/StillImage" />
        <dc:title></dc:title>
      </cc:Work>
    </rdf:RDF>
  </metadata>
  <g
     inkscape:label="Layer 1"
     inkscape:groupmode="layer"
     id="layer1">
    <g
       id="g4246"
       transform="matrix(1.3044733,0,0,1.3044733,-413.77253,-831.24543)">
      <g
         transform="translate(-353.60623,266.82284)"
         id="text4186"
         style="font-style:normal;font-weight:normal;font-size:68.61108398px;line-height:125%;font-family:sans-serif;letter-spacing:0px;word-spacing:0px;fill:#000000;fill-opacity:1;stroke:none;stroke-width:1px;stroke-linecap:butt;stroke-linejoin:miter;stroke-opacity:1">
        <path
           inkscape:connector-curvature="0"
           id="path4200"
           style="font-style:normal;font-variant:normal;font-weight:normal;font-stretch:normal;font-family:'Noto Nastaliq Urdu';-inkscape-font-specification:'Noto Nastaliq Urdu'"
           d="m 733.94358,431.58214 6.7673,0 0,50.01774 -6.7673,0 0,-50.01774 z" />
        <path
           sodipodi:nodetypes="scscscscsccscscsccccccc"
           inkscape:connector-curvature="0"
           id="path4202"
           style="font-style:normal;font-variant:normal;font-weight:normal;font-stretch:normal;font-family:'Noto Nastaliq Urdu';-inkscape-font-specification:'Noto Nastaliq Urdu'"
           d="m 784.24967,463.56557 c 0,-4.36615 -0.90334,-7.78595 -2.71003,-10.25939 -1.78517,-2.49494 -4.24785,-3.74241 -7.38804,-3.74241 -3.14019,0 -5.61363,1.24747 -7.42032,3.74241 -1.78517,2.47344 -2.67775,5.89324 -2.67775,10.25939 0,4.36615 0.89258,7.7967 2.67775,10.29164 1.80669,2.47344 4.28013,3.71016 7.42032,3.71016 3.14019,0 5.60287,-1.23672 7.38804,-3.71016 1.80669,-2.49494 2.71003,-5.92549 2.71003,-10.29164 z m -20.19614,-12.61453 c 1.24747,-2.15081 2.81756,-3.74241 4.71028,-4.7748 1.91422,-1.0539 4.19408,-1.58085 6.83958,-1.58085 4.38766,0 7.94726,1.74216 10.67879,5.22648 2.75305,3.48431 4.12957,8.06555 4.12957,13.7437 0,5.67815 -1.37652,10.25938 -4.12957,13.7437 -2.73153,3.48432 -6.29113,5.22648 -10.67879,5.22648 -2.6455,0 -4.92536,-0.51619 -6.83958,-1.54858 -1.89272,-1.05391 -3.46281,-2.65627 -4.71028,-4.80708 l 0,5.42005 -5.96851,0 0,-50.19999 5.96851,0 z" />
      </g>
      <rect
         y="667.02264"
         x="351.80328"
         height="113.5363"
         width="113.5363"
         id="rect4204"
         style="opacity:1;fill:none;fill-opacity:1;stroke:#000000;stroke-width:3.76226354;stroke-linejoin:miter;stroke-miterlimit:4;stroke-dasharray:none;stroke-opacity:1" />
    </g>
  </g>
</svg>
