<svg xmlns="http://www.w3.org/2000/svg" width="38" height="39" viewBox="0 0 38 39">
    <g fill="none" fill-rule="evenodd" stroke-linecap="round" stroke-linejoin="round" stroke-width="4">
        <path stroke="#34343E" d="M12.072 13.036l6.686 7.157 6.694-7.157M18.773 26.865v-7.253"/>
        <path stroke="#FFF" d="M18.773 36.926l4.435-2.525v-5.049l-4.435-2.524-4.457 2.524v5.05l4.457 2.524M28.308 5.79c0-1.924 1.584-3.485 3.536-3.485 1.953 0 3.536 1.56 3.536 3.485 0 1.925-1.583 3.486-3.536 3.486-1.952 0-3.536-1.56-3.536-3.486M5.46 9.268h.235c1.929-.063 3.45-1.639 3.418-3.54C9.081 3.824 7.508 2.3 5.578 2.3c-1.93 0-3.504 1.525-3.536 3.427C2.01 7.63 3.532 9.205 5.46 9.268"/>
    </g>
</svg>
