<svg xmlns="http://www.w3.org/2000/svg" width="34" height="30" viewBox="0 0 34 30">
    <g fill="none" fill-rule="evenodd" stroke-linecap="round" stroke-linejoin="round" stroke-width="4">
        <path stroke="#FFF" d="M26.54 10.901c3.45.895 5.063 2.172 5.063 3.74 0 2.707-6.608 4.901-14.76 4.901-8.153 0-14.76-2.194-14.76-4.901 0-1.599 1.747-2.876 5.325-3.77"/>
        <path stroke="#FFF" d="M26.54 19.13c3.45.894 5.063 2.171 5.063 3.739 0 2.707-6.608 4.902-14.76 4.902-8.153 0-14.76-2.195-14.76-4.902 0-1.598 1.747-2.875 5.325-3.77"/>
        <path stroke="#34343E" d="M16.843 2.046c8.152 0 14.76 2.195 14.76 4.902 0 2.707-6.608 4.901-14.76 4.901C8.69 11.85 2.09 9.647 2.09 6.948c0-2.7 6.608-4.902 14.76-4.902"/>
    </g>
</svg>
