<svg xmlns="http://www.w3.org/2000/svg" width="48" height="35" viewBox="0 0 48 35">
    <g fill="none" fill-rule="evenodd" stroke-linecap="round" stroke-linejoin="round" stroke-width="4">
        <path stroke="#FFF" d="M3.199 21.039l12.358-8.4a1.925 1.925 0 0 1 2.162 0l12.35 8.4a1.911 1.911 0 0 1 0 3.152l-12.35 8.416a1.917 1.917 0 0 1-2.162 0L3.199 24.19a1.904 1.904 0 0 1 0-3.152"/>
        <path stroke="#34343E" d="M32.459 32.607a1.917 1.917 0 0 1-2.162 0L17.93 24.19a1.904 1.904 0 0 1 0-3.152l12.366-8.4a1.925 1.925 0 0 1 2.162 0l12.342 8.4a1.911 1.911 0 0 1 0 3.152L32.46 32.607M16.846 6.264v-3.97h14.505v3.97"/>
    </g>
</svg>
