<svg xmlns="http://www.w3.org/2000/svg" width="41" height="27" viewBox="0 0 41 27">
    <g fill="none" fill-rule="evenodd" stroke-linecap="round" stroke-linejoin="round" stroke-width="4">
        <path stroke="#FFF" d="M29.184 2.537c4.609.725 8.276 4.305 9.17 8.953.893 4.648-1.179 9.366-5.18 11.798a10.936 10.936 0 0 1-12.69-.94"/>
        <path stroke="#34343E" d="M22.848 7.666c2.94 4.734 2.003 10.942-2.197 14.566M20.651 22.21a10.95 10.95 0 0 1-15.12-.735C1.469 17.222 1.355 10.499 5.27 6.107a10.951 10.951 0 0 1 15.087-1.263"/>
        <path stroke="#FFF" d="M20.659 4.806a10.92 10.92 0 0 1 8.525-2.27M18.053 19.518c-2.925-4.865-1.802-11.183 2.613-14.704"/>
    </g>
</svg>
