<svg xmlns="http://www.w3.org/2000/svg" width="32" height="45" viewBox="0 0 32 45">
    <g fill="none" fill-rule="evenodd" stroke-linecap="round" stroke-linejoin="round" stroke-width="4">
        <path stroke="#FFF" d="M8.752 25.12c0-4.194 3.329-7.593 7.436-7.593 4.106 0 7.436 3.4 7.436 7.592 0 4.194-3.33 7.593-7.436 7.593-4.107 0-7.436-3.4-7.436-7.593M11.235 31.452v11.396M16.195 39.052l-4.96 3.796M21.162 31.452v11.396M16.195 39.052l4.967 3.796"/>
        <path stroke="#34343E" d="M2.55 2.319h13.645M2.55 33.988V2.318"/>
        <path stroke="#152038" d="M22.404 2.319h-6.209"/>
        <path stroke="#34343E" d="M29.847 33.988V9.919M22.404 2.319l7.443 7.6M29.847 11.817h-9.31M20.538 2.319v9.498M27.364 33.988h2.483M2.55 33.988h2.484"/>
    </g>
</svg>
