<?xml version="1.0" encoding="UTF-8" standalone="no"?>
<!-- Created with Inkscape (http://www.inkscape.org/) -->

<svg
   xmlns:dc="http://purl.org/dc/elements/1.1/"
   xmlns:cc="http://creativecommons.org/ns#"
   xmlns:rdf="http://www.w3.org/1999/02/22-rdf-syntax-ns#"
   xmlns:svg="http://www.w3.org/2000/svg"
   xmlns="http://www.w3.org/2000/svg"
   xmlns:sodipodi="http://sodipodi.sourceforge.net/DTD/sodipodi-0.dtd"
   xmlns:inkscape="http://www.inkscape.org/namespaces/inkscape"
   width="29.910223mm"
   height="30mm"
   viewBox="0 0 29.910223 30"
   version="1.1"
   id="svg4536"
   inkscape:version="0.92.1 r15371"
   sodipodi:docname="docss.svg">
  <defs
     id="defs4530" />
  <sodipodi:namedview
     id="base"
     pagecolor="#ffffff"
     bordercolor="#666666"
     borderopacity="1.0"
     inkscape:pageopacity="0.0"
     inkscape:pageshadow="2"
     inkscape:zoom="2.8"
     inkscape:cx="30.876622"
     inkscape:cy="32.303646"
     inkscape:document-units="mm"
     inkscape:current-layer="layer1"
     showgrid="false"
     inkscape:window-width="1920"
     inkscape:window-height="1017"
     inkscape:window-x="-8"
     inkscape:window-y="-8"
     inkscape:window-maximized="1" />
  <metadata
     id="metadata4533">
    <rdf:RDF>
      <cc:Work
         rdf:about="">
        <dc:format>image/svg+xml</dc:format>
        <dc:type
           rdf:resource="http://purl.org/dc/dcmitype/StillImage" />
        <dc:title></dc:title>
      </cc:Work>
    </rdf:RDF>
  </metadata>
  <g
     inkscape:label="Layer 1"
     inkscape:groupmode="layer"
     id="layer1"
     transform="translate(21.493649,-214.77715)">
    <g
       id="g4495">
      <path
         inkscape:connector-curvature="0"
         id="path5169"
         d="m -7.650007,244.64289 c -1.1409761,-0.37183 -2.2223938,-1.43328 -2.541918,-2.49498 -0.190329,-0.63241 -0.198262,-1.64998 -0.01811,-2.32354 l 0.13588,-0.50803 -2.242711,-2.26269 -2.24271,-2.26268 0.922012,-0.90546 0.922011,-0.90546 2.220176,2.22018 2.2201748,2.22017 0.39042,-0.11197 c 0.6053588,-0.17361 2.1282607,-0.13577 2.7254921,0.0677 0.6732608,0.2294 1.6069591,1.07971 2.0338177,1.85218 0.3034985,0.54922 0.3301759,0.68758 0.3309036,1.71622 8.86e-4,1.29073 -0.164383,1.71776 -1.0182961,2.63066 -0.9098952,0.97275 -2.6460458,1.45583 -3.8371381,1.06767 z m 1.5764417,-2.1918 c 1.1544454,-0.32064 1.459365,-1.99989 0.496496,-2.73431 -0.5228733,-0.39881 -1.4067445,-0.39881 -1.9296189,0 -0.9050949,0.69035 -0.7101037,2.23386 0.3399614,2.69106 0.4221292,0.18379 0.5665644,0.18951 1.0931615,0.0433 z"
         style="fill:#000000;fill-opacity:1;stroke-width:0.11188349" />
      <path
         inkscape:connector-curvature="0"
         id="path5171"
         d="m -19.173933,233.33728 c -0.679865,-0.2495 -1.633804,-1.16402 -2.007088,-1.92416 -0.271934,-0.55376 -0.312629,-0.7677 -0.312629,-1.64358 0,-0.88414 0.03949,-1.08738 0.323792,-1.6664 0.635287,-1.29384 1.736821,-2.04225 3.168042,-2.15246 0.521051,-0.0401 0.935492,-0.004 1.319156,0.11603 l 0.559418,0.17453 2.293611,-2.28417 2.293611,-2.28417 0.367543,0.49651 c 0.202148,0.27309 0.611853,0.68964 0.910452,0.92567 l 0.5429109,0.42914 -2.2571209,2.33948 -2.257121,2.33947 0.154283,0.44753 c 0.23605,0.68472 0.113969,2.04676 -0.250159,2.79101 -0.329487,0.67345 -1.03577,1.37762 -1.758917,1.75366 -0.636839,0.33116 -2.358594,0.41024 -3.089784,0.14191 z m 2.206319,-2.22243 c 0.721641,-0.37317 1.003769,-1.43831 0.569586,-2.15039 -0.31645,-0.51899 -0.729484,-0.74838 -1.347525,-0.74838 -1.186508,0 -1.877804,1.09498 -1.405276,2.2259 0.307188,0.73521 1.407119,1.07421 2.183215,0.67287 z"
         style="fill:#ffffff;fill-opacity:1;stroke-width:0.11188349" />
      <path
         inkscape:connector-curvature="0"
         id="path5173"
         d="m -2.610457,224.31876 -2.2269316,-2.22693 -0.5321781,0.13401 c -0.8774074,0.22093 -2.2818758,0.0798 -2.9783638,-0.29927 -0.6738201,-0.36673 -1.3330521,-1.07109 -1.7003985,-1.81679 -0.370892,-0.75289 -0.366712,-2.40828 0.008,-3.17887 0.3595401,-0.73935 1.1346803,-1.4988 1.892078,-1.85379 0.5369109,-0.25165 0.7932117,-0.29997 1.5910209,-0.29997 0.796859,0 1.0543183,0.0484 1.5883539,0.29875 0.776672,0.36406 1.5190032,1.08437 1.8858968,1.82996 0.2375803,0.4828 0.2716065,0.69726 0.2569354,1.61939 -0.0093,0.58459 -0.034475,1.19705 -0.055941,1.36102 -0.033471,0.25567 0.2718402,0.62221 2.14344579,2.57332 l 2.18247731,2.27519 -0.91374515,0.90546 -0.91374514,0.90545 z m -3.090144,-4.46171 c 1.0247367,-0.63332 0.9413208,-2.1561 -0.1469684,-2.68293 -0.8476397,-0.41033 -1.6710265,-0.12673 -2.092078,0.72058 -0.318812,0.64157 -0.1814288,1.28887 0.3814861,1.79743 0.3728481,0.33685 0.5233961,0.39949 0.9601023,0.39949 0.3305912,0 0.6551948,-0.0849 0.897458,-0.23457 z"
         style="fill:#000000;fill-opacity:1;stroke-width:0.11188349" />
      <path
         inkscape:connector-curvature="0"
         id="path5175"
         d="m -1.9950324,237.22208 c -0.2246558,-0.30091 -0.6119346,-0.69111 -0.8606196,-0.86709 -0.2486839,-0.17599 -0.453228,-0.36525 -0.4545427,-0.42058 -0.00132,-0.0553 0.9952704,-1.11264 2.2146306,-2.34956 l 2.2170186,-2.24894 -0.15319411,-0.55942 c -0.19586843,-0.71525 -0.10228815,-1.92778 0.20209201,-2.61851 0.3157982,-0.71665 1.1268454,-1.50175 1.9380144,-1.87601 0.5810096,-0.26807 0.8264339,-0.31527 1.6346611,-0.31438 0.8232451,8.8e-4 1.0312383,0.0431 1.5481882,0.314 1.3326368,0.69838 2.0361624,1.7832 2.116877,3.26418 0.06183,1.13447 -0.2105629,1.92409 -0.9458664,2.74192 -0.9435039,1.04941 -2.2586042,1.46537 -3.6876068,1.16638 l -0.7641186,-0.15987 -2.23950268,2.2375 c -1.23172648,1.23063 -2.26606712,2.23751 -2.29853392,2.23751 -0.032467,0 -0.2428413,-0.24621 -0.4674971,-0.54713 z m 7.4422793,-6.13107 c 0.8083192,-0.40737 1.0021054,-1.71277 0.3545927,-2.38862 -1.2059085,-1.2587 -3.1980022,-0.004 -2.5767084,1.62258 0.2172571,0.56888 0.3550922,0.70298 0.9294485,0.9043 0.4445523,0.15581 0.780429,0.11989 1.2926672,-0.13826 z"
         style="fill:#ffffff;fill-opacity:1;stroke-width:0.11188349" />
    </g>
  </g>
</svg>
