<?xml version="1.0" encoding="UTF-8" standalone="no"?>
<!-- Created with Inkscape (http://www.inkscape.org/) -->

<svg
   xmlns:dc="http://purl.org/dc/elements/1.1/"
   xmlns:cc="http://creativecommons.org/ns#"
   xmlns:rdf="http://www.w3.org/1999/02/22-rdf-syntax-ns#"
   xmlns:svg="http://www.w3.org/2000/svg"
   xmlns="http://www.w3.org/2000/svg"
   xmlns:sodipodi="http://sodipodi.sourceforge.net/DTD/sodipodi-0.dtd"
   xmlns:inkscape="http://www.inkscape.org/namespaces/inkscape"
   width="29.910223mm"
   height="30mm"
   viewBox="0 0 29.910223 30"
   version="1.1"
   id="svg4536"
   inkscape:version="0.92.1 r15371"
   sodipodi:docname="docss.svg">
  <defs
     id="defs4530" />
  <sodipodi:namedview
     id="base"
     pagecolor="#ffffff"
     bordercolor="#666666"
     borderopacity="1.0"
     inkscape:pageopacity="0.0"
     inkscape:pageshadow="2"
     inkscape:zoom="0.98994949"
     inkscape:cx="5.5558362"
     inkscape:cy="52.160303"
     inkscape:document-units="mm"
     inkscape:current-layer="layer1"
     showgrid="false"
     inkscape:window-width="1920"
     inkscape:window-height="1017"
     inkscape:window-x="-8"
     inkscape:window-y="-8"
     inkscape:window-maximized="1" />
  <metadata
     id="metadata4533">
    <rdf:RDF>
      <cc:Work
         rdf:about="">
        <dc:format>image/svg+xml</dc:format>
        <dc:type
           rdf:resource="http://purl.org/dc/dcmitype/StillImage" />
        <dc:title></dc:title>
      </cc:Work>
    </rdf:RDF>
  </metadata>
  <g
     inkscape:label="Layer 1"
     inkscape:groupmode="layer"
     id="layer1"
     transform="translate(21.493649,-214.77715)">
    <g
       id="g5181"
       transform="matrix(0.41861671,0,0,0.41861671,-30.50929,149.24612)">
      <path
         transform="matrix(0.26458333,0,0,0.26458333,16.620479,254.66666)"
         inkscape:connector-curvature="0"
         id="path5169"
         d="m 143.57003,-101.21934 c -10.30143,-3.35709 -20.06513,-12.94047 -22.94999,-22.52616 -1.71841,-5.70983 -1.79003,-14.89704 -0.16354,-20.97832 l 1.2268,-4.58685 -20.24856,-20.42892 -20.24856,-20.42891 8.324486,-8.17501 8.324485,-8.17502 20.045099,20.0451 20.0451,20.0451 3.52495,-1.01095 c 5.46555,-1.56749 19.21524,-1.22583 24.60741,0.61146 6.07861,2.07119 14.50861,9.74832 18.36255,16.72262 2.74017,4.95875 2.98103,6.20792 2.9876,15.49509 0.008,11.65354 -1.48415,15.50899 -9.1938,23.75122 -8.21509,8.7826 -23.89012,13.144106 -34.64403,9.63955 z m 14.23308,-19.7889 c 10.42304,-2.89491 13.17604,-18.05625 4.48267,-24.687 -4.72082,-3.60075 -12.70095,-3.60075 -17.42178,0 -8.17175,6.2329 -6.41125,20.16863 3.06938,24.2965 3.81124,1.65941 5.11529,1.71101 9.86973,0.3905 z"
         style="fill:#6c757d;fill-opacity:1;stroke-width:1.01015258" />
      <path
         transform="matrix(0.26458333,0,0,0.26458333,16.620479,254.66666)"
         inkscape:connector-curvature="0"
         id="path5171"
         d="m 39.52498,-203.29331 c -6.138241,-2.25258 -14.750986,-10.50947 -18.121218,-17.37249 -2.455189,-4.99967 -2.822604,-6.93127 -2.822604,-14.83923 0,-7.98256 0.356546,-9.81753 2.923384,-15.04522 5.73576,-11.6816 15.681089,-18.43876 28.603029,-19.43377 4.704364,-0.36225 8.446187,-0.0331 11.910146,1.0476 l 5.050763,1.57579 20.708127,-20.62292 20.708123,-20.62291 3.3184,4.48286 c 1.82512,2.46558 5.52418,6.22643 8.22012,8.35746 l 4.90173,3.87459 -20.37867,21.12219 -20.378668,21.12219 1.392963,4.04061 c 2.131199,6.18203 1.028982,18.47938 -2.25859,25.19894 -2.974806,6.08029 -9.351561,12.43797 -15.880575,15.83308 -5.749774,2.98991 -21.294834,3.70387 -27.89646,1.28123 z m 19.919997,-20.0654 c 6.515412,-3.36925 9.06264,-12.98595 5.142571,-19.41504 -2.85711,-4.6858 -6.586232,-6.75686 -12.16628,-6.75686 -10.712523,0 -16.953963,9.8862 -12.687694,20.09682 2.77348,6.63787 12.704336,9.69857 19.711403,6.07508 z"
         style="fill:#ffffff;fill-opacity:1;stroke-width:1.01015258" />
      <path
         transform="matrix(0.26458333,0,0,0.26458333,16.620479,254.66666)"
         inkscape:connector-curvature="0"
         id="path5173"
         d="m 189.07017,-284.71797 -20.1061,-20.10609 -4.80483,1.20987 c -7.92177,1.99472 -20.60217,0.72062 -26.89049,-2.70192 -6.08366,-3.31114 -12.03561,-9.67051 -15.35224,-16.40312 -3.34864,-6.79757 -3.3109,-21.74344 0.0725,-28.70083 3.24615,-6.67524 10.24459,-13.53204 17.08284,-16.7371 4.84756,-2.27202 7.1616,-2.70831 14.36471,-2.70831 7.19453,0 9.51903,0.43721 14.34063,2.69729 7.01227,3.28694 13.71449,9.79035 17.02703,16.52195 2.14502,4.35902 2.45223,6.2953 2.31977,14.62087 -0.084,5.27804 -0.31126,10.80772 -0.50507,12.28816 -0.3022,2.3083 2.45434,5.61768 19.35234,23.23351 l 19.70474,20.54179 -8.24985,8.17502 -8.24985,8.17501 z m -27.89971,-40.28309 c 9.25195,-5.71802 8.49882,-19.46653 -1.32692,-24.22309 -7.65301,-3.70476 -15.08705,-1.14425 -18.88856,6.50579 -2.87843,5.79247 -1.63805,11.63673 3.44429,16.22832 3.3663,3.04125 4.72554,3.60681 8.66839,3.60681 2.98478,0 5.9155,-0.766 8.1028,-2.11783 z"
         style="fill:#6c757d;fill-opacity:1;stroke-width:1.01015258" />
      <path
         transform="matrix(0.26458333,0,0,0.26458333,16.620479,254.66666)"
         inkscape:connector-curvature="0"
         id="path5175"
         d="m 194.6266,-168.21889 c -2.02833,-2.71687 -5.52492,-6.23978 -7.7702,-7.82868 -2.24527,-1.58891 -4.09202,-3.29768 -4.10389,-3.79727 -0.0119,-0.49959 8.98591,-10.04553 19.99504,-21.2132 l 20.0166,-20.30486 -1.38313,-5.05076 c -1.76842,-6.45772 -0.92352,-17.40515 1.82461,-23.64152 2.85122,-6.47033 10.17385,-13.55868 17.49758,-16.93777 5.24571,-2.42032 7.46155,-2.84647 14.75872,-2.83841 7.43276,0.008 9.31065,0.38909 13.97799,2.83504 12.03186,6.30539 18.38372,16.09981 19.11246,29.47098 0.55824,10.24265 -1.90109,17.37184 -8.53986,24.75576 -8.51853,9.47466 -20.39206,13.23022 -33.29397,10.53079 l -6.89893,-1.44345 -20.2196,20.20156 c -11.12078,11.11085 -20.45944,20.20155 -20.75257,20.20155 -0.29313,0 -2.19252,-2.22289 -4.22085,-4.93976 z m 67.19345,-55.35512 c 7.298,-3.67798 9.04762,-15.46387 3.20148,-21.56593 -10.88768,-11.3643 -28.87352,-0.0384 -23.2641,14.64968 1.96153,5.13619 3.20599,6.34697 8.39163,8.16456 4.01369,1.40681 7.04619,1.08246 11.67099,-1.24831 z"
         style="fill:#ffffff;fill-opacity:1;stroke-width:1.01015258" />
    </g>
  </g>
</svg>
