<svg xmlns="http://www.w3.org/2000/svg" width="26" height="20" viewBox="0 0 26 20">
    <path fill="#F3B300" fill-rule="evenodd" d="M0 12.727C0 7.662 2.371 3.42 7.114 0l3.946 3.247c-1.078.52-2.156 1.385-3.234 2.597-1.078 1.212-1.768 2.381-2.07 3.507.518-.13.992-.195 1.423-.195 1.337 0 2.469.476 3.396 1.428.927.953 1.39 2.187 1.39 3.702 0 1.558-.56 2.9-1.681 4.026C9.163 19.437 7.847 20 6.338 20c-1.724 0-3.212-.66-4.462-1.98C.626 16.7 0 14.934 0 12.726zm14.1 0C14.1 7.662 16.47 3.42 21.214 0l3.945 3.247c-1.078.52-2.156 1.385-3.234 2.597-1.078 1.212-1.767 2.381-2.07 3.507.518-.13.992-.195 1.424-.195 1.336 0 2.457.476 3.363 1.428.905.953 1.358 2.187 1.358 3.702 0 1.558-.55 2.9-1.65 4.026C23.252 19.437 21.948 20 20.439 20c-1.768 0-3.266-.66-4.495-1.98-1.23-1.32-1.843-3.085-1.843-5.293z"/>
</svg>
