<?xml version="1.0" encoding="UTF-8" standalone="no"?>
<svg
xmlns:dc="http://purl.org/dc/elements/1.1/"
xmlns:cc="http://creativecommons.org/ns#"
xmlns:rdf="http://www.w3.org/1999/02/22-rdf-syntax-ns#"
xmlns:svg="http://www.w3.org/2000/svg"
xmlns="http://www.w3.org/2000/svg"
id="svg8"
version="1.1"
viewBox="0 0 7.9375782 6.34899"
height="6.34899mm"
width="7.9375782mm">
<defs
        id="defs2" />
<metadata
        id="metadata5">
  <rdf:RDF>
    <cc:Work
            rdf:about="">
      <dc:format>image/svg+xml</dc:format>
      <dc:type
              rdf:resource="http://purl.org/dc/dcmitype/StillImage" />
      <dc:title></dc:title>
    </cc:Work>
  </rdf:RDF>
</metadata>
<g
        transform="translate(-49.052917,-55.12397)"
        id="layer1">
  <path
          id="path4496"
          d="m 50.055427,60.322337 v -0.349629 l 0.134968,-0.0022 c 0.134838,-0.0022 0.135001,-0.0022 0.169603,-0.01891 0.04536,-0.02227 0.105943,-0.07937 0.125187,-0.117988 l 0.01519,-0.03049 -4e-6,-1.495352 -5e-6,-1.495344 -0.01794,-0.0379 c -0.02248,-0.04754 -0.07973,-0.105102 -0.128093,-0.128848 -0.03487,-0.01712 -0.03502,-0.01712 -0.166902,-0.01891 l -0.132001,-0.0015 V 56.27554 55.925814 l 1.113189,0.0015 1.113189,0.0015 0.357792,1.346712 c 0.196785,0.740688 0.36095,1.358058 0.36481,1.371923 0.0093,0.03334 0.02624,0.03476 0.03459,0.003 0.01661,-0.06323 0.725152,-2.705352 0.727869,-2.714187 0.003,-0.0098 0.06118,-0.01039 1.112198,-0.01039 h 1.109005 v 0.350025 0.350025 l -0.129035,8e-6 -0.129036,7e-6 -0.03764,0.01779 c -0.05055,0.02392 -0.107994,0.08151 -0.131586,0.13192 l -0.01774,0.03789 0.0015,1.500576 0.0015,1.500569 0.0157,0.02668 c 0.02118,0.03602 0.07859,0.08975 0.118104,0.110551 l 0.03231,0.01704 0.137934,0.0015 0.137934,0.0015 v 0.349629 0.349628 H 54.926073 53.864129 V 60.321193 59.97116 h 0.222475 0.222473 v -1.548418 c 0,-1.526467 -1.57e-4,-1.548419 -0.01147,-1.548419 -0.0063,0 -0.01287,0.0045 -0.01459,0.01039 -0.0041,0.01368 -0.01452,0.05165 -0.273599,0.998167 -0.42834,1.564892 -0.749361,2.738172 -0.756022,2.763136 l -0.0067,0.02519 h -0.402217 -0.402216 l -0.02422,-0.09047 c -0.01332,-0.04978 -0.203606,-0.753887 -0.422863,-1.564735 -0.219258,-0.810841 -0.439062,-1.623766 -0.488453,-1.806489 -0.08332,-0.308236 -0.09076,-0.332363 -0.10315,-0.334127 l -0.01335,-0.0022 v 1.548829 1.548838 h 0.222474 0.222474 v 0.350025 0.350025 h -0.889897 -0.889897 z"
          style="fill:#f7f7f7;stroke-width:0.00593264" />
</g>
</svg>
