<svg xmlns="http://www.w3.org/2000/svg" width="24" height="15" viewBox="0 0 24 15">
    <path fill="#34343E" fill-rule="evenodd" d="M13.177 14.194s.433-.048.655-.283c.203-.215.196-.621.196-.621s-.027-1.897.866-2.177c.88-.276 2.011 1.834 3.21 2.645.907.614 1.595.48 1.595.48l3.206-.044s1.676-.102.881-1.402c-.066-.106-.463-.962-2.383-2.719-2.01-1.839-1.74-1.541.68-4.723 1.474-1.937 2.064-3.12 1.88-3.626-.176-.484-1.26-.355-1.26-.355l-3.609.022s-.267-.036-.466.08c-.193.115-.319.383-.319.383s-.57 1.498-1.332 2.774c-1.607 2.69-2.25 2.832-2.512 2.665-.612-.39-.46-1.565-.46-2.399 0-2.608.402-3.694-.78-3.976-.392-.093-.68-.155-1.684-.165-1.288-.013-2.377.005-2.995.302-.41.198-.728.64-.534.665.238.032.778.144 1.065.528.37.497.357 1.61.357 1.61s.212 3.07-.497 3.45c-.486.262-1.153-.272-2.586-2.713-.734-1.25-1.288-2.631-1.288-2.631s-.106-.259-.298-.397a1.49 1.49 0 0 0-.554-.22l-3.429.022s-.515.014-.704.235c-.168.195-.013.601-.013.601S2.75 8.4 5.79 11.52c2.788 2.861 5.953 2.674 5.953 2.674h1.434z"/>
</svg>
