<?xml version="1.0" encoding="UTF-8" standalone="no"?>
<!-- Created with Inkscape (http://www.inkscape.org/) -->

<svg
   xmlns:dc="http://purl.org/dc/elements/1.1/"
   xmlns:cc="http://creativecommons.org/ns#"
   xmlns:rdf="http://www.w3.org/1999/02/22-rdf-syntax-ns#"
   xmlns:svg="http://www.w3.org/2000/svg"
   xmlns="http://www.w3.org/2000/svg"
   xmlns:sodipodi="http://sodipodi.sourceforge.net/DTD/sodipodi-0.dtd"
   xmlns:inkscape="http://www.inkscape.org/namespaces/inkscape"
   width="42.333332mm"
   height="6.9942026mm"
   viewBox="0 0 149.99999 24.782608"
   id="svg2"
   version="1.1"
   inkscape:version="0.91 r13725"
   sodipodi:docname="alehub-dark.svg">
  <defs
     id="defs4" />
  <sodipodi:namedview
     id="base"
     pagecolor="#ffffff"
     bordercolor="#666666"
     borderopacity="1.0"
     inkscape:pageopacity="0.0"
     inkscape:pageshadow="2"
     inkscape:zoom="0.78395062"
     inkscape:cx="187.06197"
     inkscape:cy="-29.251241"
     inkscape:document-units="px"
     inkscape:current-layer="layer1"
     showgrid="false"
     inkscape:window-width="1920"
     inkscape:window-height="1015"
     inkscape:window-x="0"
     inkscape:window-y="0"
     inkscape:window-maximized="1"
     fit-margin-top="0"
     fit-margin-left="0"
     fit-margin-right="0"
     fit-margin-bottom="0" />
  <metadata
     id="metadata7">
    <rdf:RDF>
      <cc:Work
         rdf:about="">
        <dc:format>image/svg+xml</dc:format>
        <dc:type
           rdf:resource="http://purl.org/dc/dcmitype/StillImage" />
        <dc:title></dc:title>
      </cc:Work>
    </rdf:RDF>
  </metadata>
  <g
     inkscape:label="Layer 1"
     inkscape:groupmode="layer"
     id="layer1"
     transform="translate(-184.98527,-472.14725)">
    <g
       id="g4143"
       transform="matrix(1.3043478,0,0,1.3043478,173.24614,462.36464)"
       style="fill:#000000">
      <path
         style="fill:#000000"
         inkscape:connector-curvature="0"
         class="st1"
         d="m 24,26.2 -1.4,-3.6 -8.6,0 -1.4,3.6 -3.6,0 7.3,-18.7 4.1,0 7.3,18.7 -3.7,0 z m -5.7,-15.4 -3.3,8.9 6.7,0 -3.4,-8.9 z"
         id="path4145" />
      <path
         style="fill:#000000"
         inkscape:connector-curvature="0"
         class="st1"
         d="m 31.4,26.2 0,-18.7 3.3,0 0,15.8 8.2,0 0,2.9 -11.5,0 z"
         id="path4147" />
      <path
         style="fill:#000000"
         inkscape:connector-curvature="0"
         class="st1"
         d="m 47.6,26.2 0,-18.7 12.8,0 0,2.9 -9.5,0 0,4.8 9.3,0 0,2.9 -9.3,0 0,5.2 9.5,0 0,2.9 -12.8,0 z"
         id="path4149" />
      <path
         style="fill:#000000"
         inkscape:connector-curvature="0"
         class="st1"
         d="m 78.4,26.2 0,-8.2 -9.7,0 0,8.1 -3.3,0 0,-18.6 3.3,0 0,7.6 9.7,0 0,-7.6 3.3,0 0,18.7 -3.3,0 z"
         id="path4151" />
      <path
         style="fill:#000000"
         inkscape:connector-curvature="0"
         class="st1"
         d="m 87.3,18.8 0,-11.3 3.3,0 0,11.2 c 0,3 1.7,4.9 4.8,4.9 3.1,0 4.8,-1.9 4.8,-4.9 l 0,-11.2 3.3,0 0,11.3 c 0,4.6 -2.7,7.7 -8.1,7.7 -5.5,0 -8.1,-3.1 -8.1,-7.7 z"
         id="path4153" />
      <path
         style="fill:#000000"
         inkscape:connector-curvature="0"
         class="st1"
         d="m 109.1,26.2 0,-18.7 9.2,0 c 3.4,0 5.3,2.1 5.3,4.8 0,2.3 -1.5,3.9 -3.2,4.3 2,0.3 3.6,2.3 3.6,4.6 0,2.9 -1.9,5 -5.4,5 l -9.5,0 z m 11.1,-13.4 c 0,-1.4 -1,-2.4 -2.6,-2.4 l -5.2,0 0,4.8 5.2,0 c 1.6,0 2.6,-1 2.6,-2.4 z m 0.4,7.9 c 0,-1.4 -1,-2.6 -2.9,-2.6 l -5.4,0 0,5.2 5.4,0 c 1.8,0 2.9,-1 2.9,-2.6 z"
         id="path4155" />
    </g>
  </g>
  <style
     id="style4137"
     type="text/css">
	.st0{fill:#010101;}
	.st1{fill:#FFFFFF;}
</style>
</svg>
