<?xml version="1.0" encoding="UTF-8" standalone="no"?>
<!-- Created with Inkscape (http://www.inkscape.org/) -->

<svg
   xmlns:dc="http://purl.org/dc/elements/1.1/"
   xmlns:cc="http://creativecommons.org/ns#"
   xmlns:rdf="http://www.w3.org/1999/02/22-rdf-syntax-ns#"
   xmlns:svg="http://www.w3.org/2000/svg"
   xmlns="http://www.w3.org/2000/svg"
   xmlns:sodipodi="http://sodipodi.sourceforge.net/DTD/sodipodi-0.dtd"
   xmlns:inkscape="http://www.inkscape.org/namespaces/inkscape"
   width="333.27289mm"
   height="102.56316mm"
   viewBox="0 0 1180.8882 363.41279"
   id="svg2"
   version="1.1"
   inkscape:version="0.91 r13725"
   sodipodi:docname="b2b.svg">
  <defs
     id="defs4" />
  <sodipodi:namedview
     id="base"
     pagecolor="#ffffff"
     bordercolor="#666666"
     borderopacity="1.0"
     inkscape:pageopacity="0.0"
     inkscape:pageshadow="2"
     inkscape:zoom="0.22627417"
     inkscape:cx="287.23875"
     inkscape:cy="147.11215"
     inkscape:document-units="px"
     inkscape:current-layer="layer1"
     showgrid="false"
     fit-margin-top="0"
     fit-margin-left="0"
     fit-margin-right="0"
     fit-margin-bottom="0"
     inkscape:window-width="952"
     inkscape:window-height="1047"
     inkscape:window-x="0"
     inkscape:window-y="0"
     inkscape:window-maximized="0" />
  <metadata
     id="metadata7">
    <rdf:RDF>
      <cc:Work
         rdf:about="">
        <dc:format>image/svg+xml</dc:format>
        <dc:type
           rdf:resource="http://purl.org/dc/dcmitype/StillImage" />
        <dc:title></dc:title>
      </cc:Work>
    </rdf:RDF>
  </metadata>
  <g
     inkscape:label="Layer 1"
     inkscape:groupmode="layer"
     id="layer1"
     transform="translate(-494.60679,144.03997)">
    <path
       style="fill:#3c3b40;fill-opacity:1"
       d="m 669.26136,219.3727 c -1.24647,-0.018 -4.51631,-0.9734 -7.26631,-2.1231 -2.75,-1.1498 -6.9076,-2.9352 -9.2391,-3.9674 -2.33151,-1.0323 -4.45774,-1.8769 -4.72496,-1.8769 -0.26722,0 -3.30962,-1.2707 -6.7609,-2.8238 -3.45127,-1.5531 -7.85004,-3.4233 -9.77504,-4.156 -1.925,-0.7328 -5.87584,-2.3871 -8.77964,-3.6763 -2.90379,-1.2891 -5.4962,-2.3439 -5.76089,-2.3439 -0.2647,0 -2.38886,-0.879 -4.72037,-1.9533 -2.3315,-1.0743 -6.7141,-2.9094 -9.7391,-4.078 -3.025,-1.1686 -6.85,-2.7318 -8.5,-3.4737 -1.65,-0.742 -12.33931,-5.20687 -23.75402,-9.92201 -11.41471,-4.71515 -21.02024,-8.57299 -21.34563,-8.57299 -0.32538,0 -1.88952,-0.92419 -3.47585,-2.05376 l -2.88425,-2.05377 -0.27013,-20.69623 -0.27012,-20.69624 -21.69263,-0.26934 -21.69264,-0.26935 -2.07489,-2.6378 c -2.0655,-2.62585 -2.07369,-2.99691 -1.80737,-81.94523 0.25152,-74.56138 0.37427,-79.41428 2.05117,-81.09285 1.58376,-1.58536 4.24516,-1.81951 23.75,-2.08956 l 21.96636,-0.30412 0,-25.79089 c 0,-23.68386 0.1489,-25.92563 1.82255,-27.44027 1.0024,-0.90716 7.8649,-3.93108 15.25,-6.71983 7.3851,-2.78874 17.47745,-6.59936 22.42745,-8.46803 4.95,-1.86868 12.15,-4.57157 16,-6.00643 3.85,-1.43486 9.7,-3.66505 13,-4.95598 3.3,-1.29092 8.925,-3.45519 12.5,-4.80947 3.575,-1.35429 11.45,-4.34833 17.5,-6.65343 6.05,-2.3051 12.35,-4.66152 14,-5.2365 1.65,-0.57497 4.575,-1.76784 6.5,-2.6508 1.925,-0.88297 5.525,-1.60539 8,-1.60539 2.475,0 6.075,0.73182 8,1.62626 1.925,0.89444 12.725,5.08729 24,9.31744 11.275,4.23015 23.2,8.74144 26.5,10.0251 3.3,1.28366 9.15,3.50791 13,4.94277 3.85,1.43486 11.05,4.13775 16,6.00643 4.95,1.86867 15.04235,5.67929 22.42745,8.46803 7.3851,2.78875 14.2476,5.81267 15.25,6.71983 1.67365,1.51464 1.82255,3.75641 1.82255,27.44027 l 0,25.79089 21.96636,0.30412 c 19.50484,0.27005 22.16624,0.5042 23.75,2.08956 1.6769,1.67857 1.79965,6.53147 2.05117,81.09285 0.26632,78.94832 0.25813,79.31938 -1.80737,81.94523 l -2.07489,2.6378 -21.69264,0.26935 -21.69263,0.26934 -0.27012,20.69624 -0.27013,20.69623 -2.88425,2.05377 c -1.58633,1.12957 -3.15047,2.05376 -3.47585,2.05376 -0.32539,0 -9.93092,3.85709 -21.34563,8.5713 -11.41471,4.71422 -23.00402,9.6015 -25.75402,10.8606 -2.75,1.2591 -6.125,2.6298 -7.5,3.046 -1.375,0.4162 -4.87584,1.829 -7.77964,3.1394 -2.90379,1.3105 -5.48003,2.3827 -5.72495,2.3827 -0.24493,0 -3.26909,1.2884 -6.72037,2.8632 -3.45127,1.5747 -7.40004,3.2084 -8.77504,3.6304 -1.375,0.422 -4.3,1.5815 -6.5,2.5765 -2.2,0.9951 -9.50516,4.0864 -16.23369,6.8696 -6.72854,2.7832 -13.25354,5.0456 -14.5,5.0277 z m -0.005,-16.0172 c 1.24349,0.027 4.16849,-0.8172 6.5,-1.8768 2.3315,-1.0597 20.2141,-8.538 39.7391,-16.61852 19.525,-8.08051 37.75,-15.70152 40.5,-16.93559 2.75,-1.23407 6.125,-2.59275 7.5,-3.01929 1.375,-0.42654 4.975,-1.84745 8,-3.15758 3.025,-1.31013 6.625,-2.95279 8,-3.65036 l 2.5,-1.26831 0.26051,-43.71187 c 0.16778,-28.22113 -0.0891,-43.71188 -0.72537,-43.71188 -0.542,0 -3.80923,1.28125 -7.26051,2.84721 -3.45127,1.56597 -8.52504,3.66846 -11.27504,4.6722 -2.75,1.00374 -5.45,2.13764 -6,2.51978 -0.55,0.38214 -3.475,1.60806 -6.5,2.72428 -3.025,1.11621 -19.675,7.93191 -37,15.146 -17.325,7.21409 -33.42454,14.01068 -35.77675,15.10353 -2.35221,1.09285 -5.95221,1.98594 -8,1.98464 -2.10729,-0.001 -7.84644,-1.75287 -13.22325,-4.0356 -5.225,-2.21828 -10.4,-4.43955 -11.5,-4.93617 -1.1,-0.49661 -14.00884,-5.8806 -28.68632,-11.9644 C 601.63126,87.38296 589.3821,82.4053 589.08837,82.4053 c -0.29373,0 -2.90989,-1.05477 -5.81368,-2.34394 -2.9038,-1.28916 -6.85464,-2.94346 -8.77964,-3.67621 -1.925,-0.73276 -6.32377,-2.60298 -9.77504,-4.15607 -3.45128,-1.55308 -6.71851,-2.82378 -7.26051,-2.82378 -0.63624,0 -0.89315,15.49075 -0.72496,43.71188 l 0.26051,43.71187 2.5,1.26831 c 1.375,0.69757 4.975,2.34023 8,3.65036 3.025,1.31013 6.625,2.73063 8,3.15666 1.375,0.42603 5.32377,2.06303 8.77504,3.63776 3.45128,1.57474 6.49368,2.86316 6.7609,2.86316 0.26722,0 2.39345,0.86173 4.72496,1.91496 2.3315,1.05323 17.5141,7.38351 33.7391,14.06734 16.225,6.6838 31.3,12.9996 33.5,14.0352 2.2,1.0355 5.0174,1.9052 6.2609,1.9327 z m 143.48869,-93.17543 16.25,-0.27477 0,-69 0,-69 -16,0 -16,0 -0.5,22.7087197 c -0.46753,21.2341303 -0.62987,22.8049203 -2.5,24.1900403 -1.1,0.81472 -3.06216,1.75433 -4.36035,2.08802 -1.29819,0.3337 -4.22319,1.45051 -6.5,2.48182 -2.27681,1.03131 -9.76465,4.21565 -16.63965,7.07632 -6.875,2.86067 -12.62328,5.30661 -12.77395,5.43543 -0.15067,0.12881 2.54933,1.24781 6,2.48665 3.45067,1.23885 7.62395,2.82531 9.27395,3.52548 1.65,0.70017 4.575,1.84329 6.5,2.54028 1.925,0.69699 4.85,1.8323 6.5,2.52291 1.65,0.69061 5.15872,2.04234 7.79717,3.00386 2.63844,0.96152 5.22594,2.54939 5.75,3.5286 0.53773,1.00477 0.95283,13.80005 0.95283,29.3709 l 0,27.59051 16.25,-0.27477 z m -286.75689,-0.77477 16.50689,0 0,-27.97695 c 0,-27.91781 0.005,-27.98 2.25,-29.42363 1.2375,-0.79568 10.8,-4.67287 21.25,-8.61599 10.45,-3.94312 19.12031,-7.28529 19.26735,-7.42705 0.14704,-0.14175 -8.63262,-3.94422 -19.51035,-8.44993 -10.87772,-4.5057 -20.44803,-8.60576 -21.26734,-9.11125 -1.22413,-0.75525 -1.57878,-4.98095 -1.98966,-23.7071403 l -0.5,-22.7880597 -16,0 -16,0 -0.25689,68.75 -0.2569,68.75 16.5069,0 z M 669.1714,99.34199 c 0.097,0.0348 7.29699,-2.88378 16,-6.48578 8.70301,-3.602 17.62365,-7.3683 19.82365,-8.36955 2.2,-1.00125 5.125,-2.16574 6.5,-2.58775 1.375,-0.42201 5.32377,-2.05572 8.77504,-3.63045 3.45128,-1.57474 6.47321,-2.86316 6.71541,-2.86316 0.24221,0 8.66844,-3.42828 18.72496,-7.61841 10.05653,-4.19012 19.40959,-8.04699 20.78459,-8.57081 2.43578,-0.92794 2.38441,-1.00019 -2,-2.813 -2.475,-1.02332 -10.60569,-4.15268 -18.0682,-6.95412 -13.51954,-5.07526 -13.58231,-5.08783 -17.5,-3.50612 -2.16249,0.87308 -5.38465,2.25084 -7.16036,3.06168 -1.77572,0.81085 -6.27572,2.62113 -10,4.02284 -3.72429,1.40172 -7.22144,2.90511 -7.77144,3.34087 -0.55,0.43576 -2.125,1.13107 -3.5,1.54513 -1.375,0.41407 -4.3,1.54319 -6.5,2.50917 -2.2,0.96598 -8.60363,3.65296 -14.23028,5.97107 l -10.23028,4.21476 -7.76972,-3.15432 c -4.27335,-1.73487 -8.66972,-3.53467 -9.76972,-3.99956 -1.1,-0.4649 -3.64301,-1.56614 -5.65113,-2.44722 -2.00812,-0.88108 -3.94895,-1.60196 -4.31295,-1.60196 -0.364,0 -2.99599,-1.10128 -5.84887,-2.44728 -2.85288,-1.34601 -10.80066,-4.72486 -17.66174,-7.50857 l -12.47468,-5.06128 -13.52532,5.07716 c -7.43892,2.79244 -15.55031,5.91443 -18.02531,6.93775 -4.3863,1.81359 -4.43683,1.88476 -2,2.81696 1.375,0.526 10.70747,4.38287 20.73883,8.57081 10.03135,4.18795 18.45758,7.61445 18.72495,7.61445 0.26738,0 3.3099,1.28842 6.76118,2.86316 3.45127,1.57473 7.40004,3.20844 8.77504,3.63045 1.375,0.42201 4.3,1.58683 6.5,2.58849 2.2,1.00166 10.975,4.73947 19.5,8.30624 8.525,3.56677 15.57936,6.51353 15.67635,6.54835 z m -0.0175,-45.01571 c 0.0873,0.0435 5.48735,-2.11243 12,-4.79088 6.51266,-2.67844 16.00509,-6.59205 21.0943,-8.6969 5.0892,-2.10485 8.9142,-4.11153 8.5,-4.45929 -0.41421,-0.34775 -6.3781,-2.78619 -13.2531,-5.41874 -6.875,-2.63255 -15.425,-5.92716 -19,-7.32134 -3.575,-1.39418 -7.625,-2.53488 -9,-2.53488 -1.375,0 -5.425,1.13907 -9,2.53127 -3.575,1.3922 -11.45,4.41152 -17.5,6.70959 -6.05,2.29808 -12.07065,4.61859 -13.37923,5.1567 -1.30857,0.5381 -2.20857,1.13867 -2,1.33459 0.20858,0.19593 5.55423,2.44977 11.87923,5.00854 6.325,2.55878 12.4,5.07969 13.5,5.60203 1.1,0.52234 5.15,2.26609 9,3.875 3.85,1.60891 7.07146,2.96085 7.1588,3.00431 z M 605.97389,27.33762 c 1.08833,0.0372 5.13833,-1.0934 9,-2.5125 3.86166,-1.4191 7.92121,-2.96242 9.02121,-3.42959 1.1,-0.46717 5.825,-2.27274 10.5,-4.01237 4.675,-1.73963 11.2,-4.20592 14.5,-5.48066 3.3,-1.27473 9.2625,-3.5224303 13.25,-4.9948703 l 7.25,-2.67718 7.25,2.67718 c 3.9875,1.47244 9.95,3.7169703 13.25,4.9878403 3.3,1.27086 10.725,4.11231 16.5,6.31434 5.775,2.20202 13.65955,5.17183 17.52121,6.59958 3.86167,1.42775 7.76951,2.59591 8.68409,2.59591 0.91458,0 4.50503,-1.18067 7.97879,-2.62371 3.47375,-1.44305 7.76895,-3.25967 9.54489,-4.03695 1.77594,-0.77727 5.11209,-2.07762 7.41367,-2.88967 2.30157,-0.81204 4.67353,-1.86057 5.27102,-2.33005 0.59748,-0.46949 3.78633,-1.84755 7.08633,-3.06236 3.3,-1.21482 7.4625,-2.9009403 9.25,-3.7469503 l 3.25,-1.53819 0,-43.9930497 c 0,-41.51143 -0.0987,-43.95159 -1.75,-43.25817 -0.9625,0.40418 -4,1.61406 -6.75,2.68863 -2.75,1.07457 -6.4625,2.59202 -8.25,3.37211 -1.7875,0.7801 -4.7125,2.05662 -6.5,2.83672 -1.7875,0.78009 -5.5,2.29175 -8.25,3.35924 -2.75,1.06748 -17.6,7.20535 -33,13.63971 -15.4,6.43435 -31.825,13.33786 -36.5,15.34112 -4.675,2.00327 -10.075,3.63773 -12,3.63214 -1.94814,-0.006 -8.82067,-2.26502 -15.5,-5.09566 -6.6,-2.79704 -20.325,-8.54859 -30.5,-12.78124 -10.175,-4.23265 -23.9,-9.93159 -30.5,-12.6643 -6.6,-2.73272 -12.9,-5.34587 -14,-5.80701 -1.1,-0.46114 -3.575,-1.52258 -5.5,-2.35876 -1.925,-0.83617 -5.75,-2.3995 -8.5,-3.47407 -2.75,-1.07457 -5.79222,-2.28626 -6.76048,-2.69265 -1.66751,-0.69988 -1.74673,1.60026 -1.5,43.5541 l 0.26048,44.2929997 10.5,4.3887603 c 5.775,2.41382 12.19696,5.0153 14.27102,5.78107 2.07406,0.76577 5.33656,2.08393 7.25,2.92925 1.91344,0.84532 4.94148,2.13586 6.72898,2.86786 1.7875,0.73201 4.375,1.82655 5.75,2.43232 1.375,0.60577 3.39045,1.13186 4.47879,1.16908 z m 63.11346,-77.97711 c 0.60074,0.0246 5.55074,-1.78054 11,-4.0115 5.44926,-2.23097 10.80775,-4.43612 11.90775,-4.90034 1.1,-0.46423 4.1326,-1.7889 6.7391,-2.94371 2.60646,-1.15481 4.97386,-2.09966 5.26085,-2.09966 0.28699,0 2.42939,-0.87897 4.7609,-1.95328 2.3315,-1.0743 6.7141,-2.9094 9.7391,-4.07801 3.025,-1.1686 6.85,-2.74416 8.5,-3.50124 1.65,-0.75708 5.475,-2.33208 8.5,-3.5 3.025,-1.16792 6.85,-2.73793 8.5,-3.48892 1.65,-0.75098 7.5,-3.21498 13,-5.47555 5.5,-2.26057 10.4275,-4.53602 10.95,-5.05656 0.59914,-0.5969 0.41448,-0.95001 -0.5,-0.9561 -0.7975,-0.005 -5.91727,-1.80532 -11.37727,-4 -5.46,-2.19469 -10.34199,-3.99034 -10.84887,-3.99034 -0.50688,0 -2.33961,-0.64351 -4.07273,-1.43002 -1.73312,-0.78651 -6.07613,-2.5415 -9.65113,-3.89998 -3.575,-1.35848 -9.65,-3.65995 -13.5,-5.11437 -3.85,-1.45442 -8.125,-3.11704 -9.5,-3.69471 -1.375,-0.57766 -4.525,-1.71303 -7,-2.52304 -2.475,-0.81 -5.91801,-2.11739 -7.65113,-2.90531 -1.73312,-0.78791 -3.46511,-1.43257 -3.84887,-1.43257 -0.38376,0 -2.11575,-0.62224 -3.84887,-1.38275 -1.73312,-0.76052 -4.72613,-1.93828 -6.65113,-2.61725 -1.925,-0.67897 -4.9625,-1.87784 -6.75,-2.66416 -2.83237,-1.24596 -3.66763,-1.23956 -6.5,0.0498 -1.7875,0.81372 -5.275,2.15079 -7.75,2.97127 -2.475,0.82048 -6.3,2.22099 -8.5,3.11225 -2.2,0.89126 -4.9,2.00489 -6,2.47473 -1.1,0.46984 -3.575,1.39905 -5.5,2.06492 -1.925,0.66587 -6.425,2.33884 -10,3.71771 -3.575,1.37888 -7.4,2.8959 -8.5,3.37116 -1.1,0.47526 -5.825,2.2313 -10.5,3.9023 -4.675,1.671 -9.4,3.46963 -10.5,3.99696 -1.1,0.52732 -6.275,2.51182 -11.5,4.40999 -5.225,1.89818 -10.9625,4.0318 -12.75,4.74138 -1.7875,0.70958 -3.25,1.57809 -3.25,1.93002 0,0.35193 8.4375,4.15114 18.75,8.44268 10.3125,4.29154 23.475,9.78786 29.25,12.21404 5.775,2.42618 12.19696,5.0367 14.27102,5.80114 2.07406,0.76445 5.22406,2.0362 7,2.82612 1.77594,0.78991 4.57898,1.9711 6.22898,2.62486 1.65,0.65376 7.05,2.92894 12,5.05595 4.95,2.127 9.49151,3.88744 10.09225,3.91207 z M 1167.7271,91.4053 c -0.7277,0 -2.4275,-1.10455 -3.7775,-2.45455 l -2.4546,-2.45454 0,-39.32295 c 0,-33.97187 0.2119,-39.6253903 1.5567,-41.5454503 0.9942,-1.41938 2.5945,-2.22251 4.4286,-2.22251 1.5795,0 3.579,0.70714 4.4433,1.57143 0.8643,0.86428 1.5714,2.44675 1.5714,3.51658 0,1.7219503 0.5866,1.5416303 5.1122,-1.57143 4.276,-2.94135 5.9829,-3.51658 10.4349,-3.51658 2.9275,0 6.4331,0.42218 7.7903,0.93818 1.3572,0.51599 5.6603,3.68603 9.5625,7.0445303 3.9021,3.35849 7.771,7.41397 8.5975,9.01216 1.122,2.16982 1.5026,6.37112 1.5026,16.58744 0,11.88074 -0.2601,14.10245 -1.9759,16.87876 -1.0868,1.75843 -4.6692,5.53967 -7.961,8.40275 -3.2917,2.86308 -7.5631,5.86498 -9.4919,6.67089 -1.9288,0.80591 -5.7262,1.46529 -8.4386,1.46529 -3.9603,0 -5.9362,-0.67603 -10.0321,-3.43238 l -5.1005,-3.43237 0,12.37567 c 0,11.65505 -0.1294,12.46632 -2.2225,13.93238 -1.2224,0.85618 -2.8178,1.5567 -3.5454,1.5567 z m 21.9969,-33 c 1.6388,0 4.7544,-1.844 8.5755,-5.07544 3.301,-2.79149 6.2642,-6.05399 6.585,-7.25 0.3207,-1.19601 0.5894,-5.69164 0.5969,-9.9903 0.01,-4.29866 -0.441,-8.66519 -0.9966,-9.70341 -0.5557,-1.03821 -3.5219,-3.93363 -6.5917,-6.43426 -3.6031,-2.93505 -6.5541,-4.54659 -8.3257,-4.54659 -2.0837,0 -4.3483,1.66154 -9.4083,6.90277 l -6.6641,6.90277 0,7.76964 0,7.76965 6.8276,6.82758 c 4.8999,4.89988 7.5543,6.82759 9.4014,6.82759 z m -96.2263,32 c -10.7123,0 -10.9948,-0.0583 -12.6702,-2.61523 -1.5352,-2.34311 -1.5602,-2.88939 -0.2401,-5.25 1.3341,-2.38573 2.1684,-2.68203 8.8271,-3.13477 l 7.3536,-0.5 3.3024,-7.5 3.3024,-7.5 -2.8245,-0.74894 c -1.8079,-0.47938 -3.3757,-1.91901 -4.356,-4 -0.8423,-1.78808 -4.7188,-10.61027 -8.6144,-19.60486 -6.6196,-15.28388 -7.083,-16.82755 -7.083,-23.59502 0,-5.74517 0.3778,-7.5831303 1.8288,-8.8961903 1.0058,-0.91025 2.8058,-1.65499 4,-1.65499 1.1941,0 3.0712,0.9 4.1712,2 1.493,1.49297 1.9994,3.3309603 1.9974,7.2500003 0,4.26396 1.2657,8.20715 6.75,20.9948 4.6601,10.8658 7.2029,15.66749 8.2058,15.49532 0.8098,-0.13903 4.6651,-7.33133 8.7078,-16.24481 5.9403,-13.09771 7.2621,-16.93342 7.2968,-21.17388 0.027,-3.32733 0.604,-5.7403303 1.6136,-6.7500003 0.8643,-0.86429 2.8638,-1.57143 4.4433,-1.57143 1.8341,0 3.4344,0.80313 4.4286,2.22251 0.9689,1.38323 1.5567,4.3844003 1.5567,7.9474903 0,5.17386 -1.3014,8.67347 -13.5186,36.35374 -7.4352,16.84582 -14.4193,32.39445 -15.5203,34.55251 l -2.0017,3.92375 -10.9567,0 z M 953.02254,68.31511 c -7.16512,-0.0496 -14.4162,-0.49335 -16.11351,-0.9861 -1.69731,-0.49275 -6.74059,-4.05915 -11.20728,-7.92534 -6.14643,-5.32009 -8.37347,-7.93754 -9.15841,-10.7639 -0.57042,-2.05396 -1.03965,-7.82619 -1.04271,-12.82719 -0.005,-7.56557 0.37231,-9.77516 2.24442,-13.15604 1.2375,-2.23483 4.95,-6.41248 8.25,-9.28366 3.3,-2.87118 7.44805,-5.8384603 9.21788,-6.5939603 2.23,-0.95192 7.63163,-1.37362 17.59501,-1.37362 12.65834,0 14.57499,0.21863 16.03212,1.82874 0.91025,1.00581 1.65499,2.9986703 1.65499,4.4285703 0,1.42991 -0.70714,3.30698 -1.57143,4.17126 -1.27152,1.27152 -4.11759,1.57143 -14.91255,1.57143 l -13.34113,0 -5.97885,4.99581 c -3.28836,2.74769 -6.25271,5.70949 -6.58744,6.58178 -0.33473,0.87229 -0.6086,4.72548 -0.6086,8.56263 l 0,6.97665 4.56133,4.19156 c 2.50874,2.30537 5.98921,4.97907 7.7344,5.94157 2.54838,1.40547 5.64688,1.75 15.73867,1.75 8.43991,0 12.9596,0.394 13.7656,1.2 0.66,0.66 1.2,2.65948 1.2,4.4433 0,2.21791 -0.70266,3.73545 -2.22251,4.8 -1.75397,1.22853 -4.96888,1.53769 -15.25,1.46651 z m 50.70456,0.0902 c -0.7276,0 -2.4275,-1.10455 -3.7775,-2.45455 l -2.45455,-2.45454 0,-27.04546 c 0,-25.71212 0.0986,-27.1440503 2,-29.0454503 1.09995,-1.1 3.05525,-2 4.34505,-2 1.2897,0 3.0897,0.82293 4,1.82874 0.9287,1.02621 1.6549,3.4960903 1.6549,5.6281603 l 0,3.79942 3.25,-2.66724 c 1.7875,-1.46698 5.275,-4.0297703 7.75,-5.6950803 4.2794,-2.87937 4.9256,-3.01231 13.1784,-2.71093 6.909,0.25231 9.2536,0.74344 11.5,2.40888 1.5519,1.15057 3.8341,3.5796203 5.0716,5.3978803 1.6942,2.48932 2.25,4.73749 2.25,9.10135 0,4.8552 -0.3606,6.04796 -2.2225,7.35212 -1.2224,0.85618 -2.8178,1.5567 -3.5454,1.5567 -0.7277,0 -2.4275,-1.10455 -3.7775,-2.45455 -1.6738,-1.67373 -2.4546,-3.57119 -2.4546,-5.96481 0,-2.44705 -0.5859,-3.82382 -1.9343,-4.54546 -1.0638,-0.56935 -3.9469,-1.03518 -6.407,-1.03518 -4.1333,0 -5.16,0.58817 -13.5282,7.75 l -9.0554,7.75 -0.038,16.1933 c -0.036,15.57905 -0.1218,16.25234 -2.26,17.75 -1.2224,0.85618 -2.8179,1.5567 -3.5455,1.5567 z m 273.306,-0.086 c -4.4209,-0.0473 -9.3411,-0.47589 -10.9338,-0.95248 -1.5926,-0.47659 -4.2355,-2.12541 -5.8731,-3.66405 -1.6376,-1.53863 -3.5971,-4.24557 -4.3544,-6.0154 -1.0038,-2.34605 -1.3768,-8.2385 -1.3768,-21.74995 l 0,-18.53212 -3.9433,0 c -2.9413,0 -4.3388,-0.56476 -5.5,-2.22251 -0.8562,-1.22237 -1.5567,-3.02237 -1.5567,-4 0,-0.97762 0.9,-2.6774903 2,-3.7774903 1.2381,-1.2381 3.3333,-2 5.5,-2 l 3.5,0 0,-7.34501 c 0,-5.84574 0.3733,-7.68283 1.8288,-8.9999997 1.0058,-0.91025 2.9986,-1.65499 4.4285,-1.65499 1.4299,0 3.307,0.70714 4.1713,1.57143 1.1465,1.1465197 1.5714,3.5800897 1.5714,8.9999997 l 0,7.42857 11.845,0 c 10.2053,0 12.0741,0.25316 13.5,1.82874 0.9103,1.00581 1.655,2.9610603 1.655,4.3450103 0,1.38395 -0.8229,3.26102 -1.8287,4.17126 -1.4818,1.34099 -4.0431,1.65499 -13.5,1.65499 l -11.6713,0 0,17.5 c 0,16.16667 0.1524,17.65238 2,19.5 1.5209,1.52088 3.3333,2 7.5658,2 3.0611,0 6.4315,-0.46334 7.4896,-1.02964 1.0582,-0.56631 2.6252,-2.38582 3.4824,-4.04336 0.8571,-1.65754 2.6433,-3.50803 3.9693,-4.11221 1.9113,-0.87081 2.9376,-0.75342 4.9519,0.56641 1.9891,1.30325 2.541,2.49666 2.541,5.49397 0,2.30509 -0.8987,5.18143 -2.2581,7.22695 -1.2419,1.86883 -4.2622,4.41038 -6.7118,5.64788 -3.5822,1.80966 -6.027,2.23318 -12.492,2.16405 z m 175.2613,0.086 c -0.7449,0 -2.3545,-0.70052 -3.5769,-1.5567 l -2.2225,-1.55671 0,-39.78831 c 0,-37.27627 0.1155,-39.89279 1.8287,-41.44329 1.0058,-0.91025 2.8058,-1.65499 4,-1.65499 1.1942,0 3.0713,0.9 4.1713,2 1.7863,1.78629 2,3.33333 2,14.4779797 l 0,12.4779703 4.6958,-2.9779703 c 4.2754,-2.71137 5.4686,-2.97798 13.3285,-2.97798 7.9686,0 8.9906,0.23696 13.2826,3.07987 2.5573,1.6939303 5.7672,4.4079103 7.133,6.0310603 1.3658,1.62315 2.948,4.6247 3.5161,6.67012 0.5681,2.04542 1.0328,9.11895 1.0328,15.71895 0,6.6 -0.4767,13.71672 -1.0593,15.81493 -0.5894,2.12256 -2.8443,5.59988 -5.083,7.83853 -2.2129,2.21298 -5.8962,4.87387 -8.185,5.9131 -2.716,1.23319 -6.4665,1.89714 -10.7973,1.91148 -5.3285,0.0176 -7.6759,-0.52138 -11.9151,-2.73599 l -5.2794,-2.75795 -2.7579,2.75795 c -1.5169,1.51687 -3.3674,2.75795 -4.1124,2.75795 z m 24.4477,-12.00659 c 4.0545,0.006 5.3312,-0.52105 8.75,-3.60977 l 4.0029,-3.61636 0,-11.94938 c 0,-6.57216 -0.4443,-12.77958 -0.9874,-13.79426 -0.543,-1.01469 -2.5086,-2.78511 -4.368,-3.93426 -2.2396,-1.38418 -5.0553,-2.08938 -8.3422,-2.08938 -4.6197,0 -5.3867,0.38475 -11.132,5.5839 l -6.1704,5.58391 0,8.37579 0,8.37579 4.072,3.76753 c 2.2396,2.07214 5.2771,4.56232 6.75,5.53372 1.6079,1.06047 4.5748,1.76881 7.4251,1.77277 z m 81.6971,12.00659 c -13.536,0 -24.9109,-0.3 -25.2775,-0.66667 -0.3667,-0.36666 -0.6667,-9.15612 -0.6667,-19.53212 0,-14.0423 0.3633,-19.73507 1.4212,-22.26691 0.7902,-1.89116 2.7662,-4.09698 4.4504,-4.96788 2.4021,-1.2422 6.558,-1.56642 20.0787,-1.56642 l 17.0497,0 0,-12.5000003 0,-12.5 -19.9286,0 c -16.7835,0 -20.1765,-0.24799 -21.5,-1.57143 -0.8643,-0.86428 -1.5714,-2.81954 -1.5714,-4.3450097 0,-1.52547 0.8498,-3.54263 1.8884,-4.48258 1.6867,-1.52638 4.3135,-1.67651 24.5839,-1.40499 l 22.6954,0.30401 2.9161,3.26578 2.9162,3.26577 0,17.4684497 0,17.4684503 -2.9158,3.26577 -2.9158,3.26578 -18.6145,0.31216 -18.6145,0.31217 0.2803,12.18783 0.2803,12.18784 19.9237,0.27172 c 12.6345,0.17231 20.4089,0.67443 21.25,1.37244 0.7295,0.6054 1.3263,2.59511 1.3263,4.42158 0,2.29806 -0.6845,3.8003 -2.2225,4.87756 -1.8654,1.30656 -6.1771,1.5567 -26.8333,1.5567 z m 68.0558,0 c -1.1,0 -2.9,-0.9 -4,-2 -1.9324,-1.93239 -2,-3.33333 -2,-41.4433 l 0,-39.44329 2.2225,-1.55671 c 1.2224,-0.85618 3.1776,-1.5567 4.345,-1.5567 1.1674,0 2.8673,0.82293 3.7775,1.82874 1.3567,1.49913 1.655,4.11259 1.655,14.4999997 0,6.96919 0.255,12.6712603 0.5667,12.6712603 0.3117,0 2.1824,-1.23232 4.1571,-2.7385003 2.998,-2.28671 4.8032,-2.79974 10.9416,-3.10972 4.0432,-0.20417 8.8897,-0.0826 10.77,0.27012 2.0495,0.38449 5.5079,2.51977 8.6354,5.3316303 2.8692,2.57966 5.827,6.15098 6.5729,7.93626 0.9311,2.22822 1.3563,7.8125 1.3563,17.81021 0,10.03378 -0.424,15.57907 -1.3631,17.82665 -0.7497,1.79432 -3.5126,5.15446 -6.1398,7.46697 -2.6271,2.3125 -6.6262,4.70507 -8.8869,5.31681 -2.2606,0.61174 -7.1896,0.89424 -10.9533,0.62777 -5.5834,-0.3953 -7.6544,-1.05631 -11.25,-3.59074 -3.1568,-2.22512 -4.4069,-2.6866 -4.4069,-1.62685 0,0.81366 -0.9,2.37939 -2,3.47939 -1.1,1.1 -2.9,2 -4,2 z m 23.9069,-12 c 3.7408,0 5.7041,-0.65995 8.9431,-3.00627 l 4.15,-3.00627 0,-13.39014 0,-13.39014 -3.5348,-3.10359 c -3.0165,-2.64851 -4.3233,-3.10359 -8.9126,-3.10359 -4.9881,0 -5.8108,0.3619 -11.3566,4.99581 -3.2883,2.74769 -6.2527,5.70949 -6.5874,6.58178 -0.3347,0.87229 -0.6086,4.896 -0.6086,8.94157 l 0,7.35559 6.5569,5.56263 c 5.9697,5.06445 6.9862,5.56262 11.35,5.56262 z m -297.1072,10.92105 c -6.2148,-0.0434 -11.9747,-0.33404 -12.7997,-0.64583 -0.825,-0.31178 -3.409,-1.92503 -5.7422,-3.58501 -2.6188,-1.86307 -5.202,-4.94406 -6.75,-8.05051 -2.3001,-4.61561 -2.5078,-6.13685 -2.5078,-18.36816 0,-9.78269 0.4132,-14.32634 1.5507,-17.05366 0.8529,-2.04483 2.9904,-5.21981 4.75,-7.05551 1.7596,-1.83569 4.8689,-4.1981903 6.9095,-5.2500003 2.9656,-1.5286 5.8317,-1.91237 14.2821,-1.91237 6.7076,0 11.7748,0.50257 13.8626,1.3749 1.8098,0.7562 4.9683,2.848 7.0189,4.6484503 2.0506,1.80044 4.3804,4.53439 5.1773,6.07543 1.0892,2.10628 1.4489,6.79884 1.4489,18.90122 0,11.93978 -0.3655,16.797 -1.4147,18.79966 -0.778,1.48519 -2.9155,4.11246 -4.75,5.83839 -1.8344,1.72592 -4.7754,3.86342 -6.5356,4.75 -2.4148,1.21628 -5.974,1.59257 -14.5,1.533 z m -0.333,-11.92105 c 7.8086,0 9.0067,-0.2593 12.1,-2.61869 l 3.4333,-2.61869 0,-13.74531 0,-13.74531 -3.8037,-2.636 c -3.2839,-2.27573 -4.8291,-2.636 -11.3058,-2.636 -6.4635,0 -7.9787,0.35166 -10.9462,2.54056 -1.8944,1.39731 -3.7502,3.30981 -4.124,4.25 -0.3738,0.94019 -0.7113,6.81694 -0.75,13.05944 l -0.07,11.35 3.4,3.4 c 3.3436,3.34359 3.5438,3.4 12.0667,3.4 z m 60.8234,-13.38194 c -2.684,0.51499 -3.7081,0.11777 -6.25,-2.42415 -2.2678,-2.26776 -3.0401,-3.9603 -3.0401,-6.66244 0,-2.51265 0.752,-4.37434 2.4546,-6.07692 1.5017,-1.50178 3.6049,-2.45455 5.4182,-2.45455 1.63,0 3.6921,0.27953 4.5824,0.62118 0.8903,0.34165 2.2771,1.8943 3.0818,3.45034 0.8046,1.55604 1.463,3.95141 1.463,5.32306 0,1.37164 -1.0125,3.64447 -2.25,5.05073 -1.2375,1.40625 -3.6945,2.83399 -5.4599,3.17275 z"
       id="path4478"
       inkscape:connector-curvature="0" />
  </g>
</svg>
