<?xml version="1.0" encoding="UTF-8" standalone="no"?>
<!-- Created with Inkscape (http://www.inkscape.org/) -->

<svg
   xmlns:dc="http://purl.org/dc/elements/1.1/"
   xmlns:cc="http://creativecommons.org/ns#"
   xmlns:rdf="http://www.w3.org/1999/02/22-rdf-syntax-ns#"
   xmlns:svg="http://www.w3.org/2000/svg"
   xmlns="http://www.w3.org/2000/svg"
   xmlns:sodipodi="http://sodipodi.sourceforge.net/DTD/sodipodi-0.dtd"
   xmlns:inkscape="http://www.inkscape.org/namespaces/inkscape"
   width="41.167561mm"
   height="42.832722mm"
   viewBox="0 0 145.86931 151.76948"
   id="svg2"
   version="1.1"
   inkscape:version="0.91 r13725"
   sodipodi:docname="Bea.svg">
  <defs
     id="defs4" />
  <sodipodi:namedview
     id="base"
     pagecolor="#ffffff"
     bordercolor="#666666"
     borderopacity="1.0"
     inkscape:pageopacity="0.0"
     inkscape:pageshadow="2"
     inkscape:zoom="0.45254834"
     inkscape:cx="96.723782"
     inkscape:cy="-228.58295"
     inkscape:document-units="px"
     inkscape:current-layer="layer1"
     showgrid="false"
     fit-margin-top="0"
     fit-margin-left="0"
     fit-margin-right="0"
     fit-margin-bottom="0"
     inkscape:window-width="952"
     inkscape:window-height="1047"
     inkscape:window-x="73"
     inkscape:window-y="24"
     inkscape:window-maximized="0"
     borderlayer="false" />
  <metadata
     id="metadata7">
    <rdf:RDF>
      <cc:Work
         rdf:about="">
        <dc:format>image/svg+xml</dc:format>
        <dc:type
           rdf:resource="http://purl.org/dc/dcmitype/StillImage" />
        <dc:title></dc:title>
      </cc:Work>
    </rdf:RDF>
  </metadata>
  <g
     inkscape:label="Layer 1"
     inkscape:groupmode="layer"
     id="layer1"
     transform="translate(-800.00252,86.865489)">
    <path
       style="fill:#3c3b40"
       d="m 872.68758,64.903575 c -0.17366,-0.0167 -1.12557,-0.50158 -2.11536,-1.07746 -0.98979,-0.57588 -5.03979,-1.93179 -9,-3.01315 -3.96021,-1.08136 -9.36778,-3.2965 -12.01683,-4.92254 -2.64904,-1.62604 -5.03193,-2.95644 -5.29531,-2.95644 -0.26338,0 -0.1767,1.6875 0.1926,3.75 l 0.67147,3.75 -3.60612,-4 c -1.98337,-2.2 -4.99624,-6.11287 -6.69527,-8.69526 -2.20339,-3.34896 -4.1446,-5.03649 -6.77004,-5.88532 -2.02448,-0.65454 -5.31452,-2.01085 -7.3112,-3.01401 -1.99668,-1.00317 -5.73031,-3.92393 -8.29695,-6.49058 -2.56665,-2.56665 -5.78159,-6.86688 -7.14431,-9.55608 -1.36272,-2.6892 -3.19873,-7.69504 -4.08004,-11.1241 -1.1484,-4.4683202 -1.44682,-8.6566702 -1.05333,-14.7836802 0.34472,-5.36762 1.58664,-11.6884848 3.33725,-16.9852878 1.53351,-4.639937 4.68496,-11.264807 7.00322,-14.721934 4.00603,-5.97404 4.21696,-6.658385 4.25426,-13.802787 0.0216,-4.134406 0.30677,-7.94997 0.63375,-8.479031 0.32698,-0.529062 0.26588,-0.96193 -0.13577,-0.96193 -0.40165,0 -1.5378,0.730799 -2.52478,1.623997 -1.69764,1.536344 -1.74956,1.46734 -0.96208,-1.278471 0.45783,-1.596358 1.83894,-4.914657 3.06914,-7.373998 1.23019,-2.45934 4.3277,-6.67316 6.88334,-9.364043 2.55564,-2.690883 4.08412,-4.576825 3.39662,-4.190983 -0.6875,0.385843 -1.25,0.247875 -1.25,-0.306594 0,-0.554469 1.48625,-2.141743 3.30278,-3.527276 1.81652,-1.385533 5.67153,-3.027158 8.56668,-3.648055 3.8758,-0.831212 8.22691,-0.839582 16.50017,-0.03174 6.17995,0.60344 15.26245,1.100409 20.18332,1.104375 4.92088,0.004 14.5912,-0.505104 21.4896,-1.131267 11.17373,-1.014232 13.1927,-0.946866 18.5,0.61728 4.6369,1.366572 5.51907,1.915016 3.97975,2.474224 -1.87387,0.680748 -1.84762,0.786805 0.5,2.020204 1.36274,0.715955 4.19415,2.647368 6.29204,4.292028 2.09788,1.64466 5.34771,5.267221 7.22183,8.050136 1.87413,2.782915 3.23372,5.233631 3.02131,5.446035 -0.2124,0.212404 -1.39296,-0.15262 -2.62346,-0.811165 -1.95699,-1.047345 -2.15488,-0.982622 -1.57957,0.51661 0.36174,0.942681 1.14906,4.880826 1.74961,8.751434 0.60054,3.870608 0.82132,8.390357 0.49062,10.043887 -0.47577,2.378818 0.14294,4.127637 2.96379,8.377439 1.9608,2.954061 4.45207,7.37619 5.53615,9.826954 1.08409,2.450763 2.85629,7.917104 3.93823,12.147424 1.08193,4.230319 1.96715,10.8999648 1.96715,14.82142481 0,3.92146999 -0.6984,9.81199019 -1.552,13.09004019 -0.8536,3.27806 -2.71619,7.94703 -4.13909,10.3755 -1.42289,2.42847 -4.51012,6.33844 -6.86049,8.68881 -2.35038,2.35038 -6.45029,5.36157 -9.11092,6.69155 -2.66062,1.32997 -6.03076,2.70497 -7.48918,3.05556 -1.68036,0.40394 -3.59501,2.19629 -5.22691,4.89306 -1.41638,2.34059 -4.39784,6.28062 -6.62548,8.75562 l -4.05025,4.5 0.65343,-3.82981 0.65342,-3.82981 -5.37627,3.01923 c -2.95694,1.66058 -8.58902,3.90404 -12.51573,4.98547 -3.92671,1.08143 -8.05962,2.4587 -9.18426,3.06058 -1.12463,0.60189 -2.18687,1.08066 -2.36053,1.06393 z m -0.5259,-27.01379 c 2.08441,0.0243 5.57414,-0.86608 7.75496,-1.97865 2.46419,-1.25714 5.27278,-4.00151 7.41967,-7.25 1.9,-2.87493 4.14777,-7.90919 4.99504,-11.18725 0.84727,-3.27805 1.53881,-7.7780502 1.53675,-10.0000002 -0.002,-2.23519 -0.87227,-5.46433 -1.94798,-7.22852999 -1.30644,-2.14261001 -3.19149,-3.53499001 -5.74626,-4.24443001 -2.09111,-0.58068 -8.30202,-1.05579 -13.80202,-1.05579 -5.5,0 -11.62004,0.45002 -13.60009,1.00004 -1.98005,0.55002 -4.41861,1.90448 -5.41901,3.00992 -1.11163,1.22833001 -1.99358,4.11599 -2.26808,7.42604 -0.3086,3.7213702 0.19996,7.5496902 1.62526,12.2345002 1.14092,3.75009 3.49391,8.74566 5.22887,11.10126 1.73496,2.3556 4.79215,5.14821 6.79376,6.2058 2.00161,1.0576 5.34472,1.94279 7.42913,1.96709 z m -4.72539,-7.02212 c -1.54136,1.44373 -2.50786,1.68452 -3.81445,0.95031 -0.9625,-0.54085 -1.75,-1.34267 -1.75,-1.78181 0,-0.43914 1.82734,-1.62245 4.06076,-2.62958 2.23342,-1.00713 4.53776,-2.72243 5.12076,-3.81178 0.9624,-1.79825 1.1459,-1.82714 1.99287,-0.31369 0.51307,0.91682 2.6782,2.55734 4.81139,3.64561 2.13319,1.08828 4.14666,2.41253 4.47438,2.9428 0.32772,0.53026 -0.35969,1.47551 -1.52758,2.10054 -1.77732,0.95119 -2.36164,0.79637 -3.58472,-0.94982 -0.95197,-1.35914 -2.55176,-2.08626 -4.59011,-2.08626 -1.72087,0 -4.05785,0.87016 -5.1933,1.93368 z m 4.93555,-14.93368 c -1.16758,0 -3.1353,-0.94321 -4.3727,-2.09603 -1.2374,-1.15281 -2.67225,-3.20711 -3.18856,-4.5651002 -0.51631,-1.35799 -0.93874,-3.99894 -0.93874,-5.86879 0,-2.33774 0.60421,-3.72306999 1.93426,-4.4349 1.06384,-0.56935 4.01842,-1.03518 6.56574,-1.03518 2.54732,0 5.5019,0.46583 6.56574,1.03518 1.33005,0.71183001 1.93426,2.09716 1.93426,4.4349 0,1.86985 -0.42243,4.5108 -0.93874,5.86879 -0.51631,1.3579902 -1.95116,3.4122902 -3.18856,4.5651002 -1.2374,1.15282 -3.20512,2.09603 -4.3727,2.09603 z m -45.82895,13.66228 c 0.10324,-0.10324 -0.29399,-2.43199 -0.88274,-5.17499 -0.96589,-4.50009 -1.16929,-4.76749 -2.0822,-2.73729 -0.55645,1.2375 -1.3044,2.25 -1.66209,2.25 -0.35769,0 -1.61702,-3.0375 -2.7985,-6.75 -1.18148,-3.7125 -2.67854,-9.8580602 -3.32679,-13.6568102 -0.64826,-3.79873999 -0.91676,-9.71135 -0.59667,-13.139118 0.32009,-3.4277718 1.50364,-8.9682188 2.63011,-12.3121038 2.02185,-6.001772 2.02379,-6.128311 0.15061,-9.860879 -1.04363,-2.079599 -2.09024,-4.445695 -2.32578,-5.257991 -0.24129,-0.832093 -1.80475,1.350889 -3.58102,5 -1.73401,3.562296 -3.83747,9.158946 -4.67436,12.437001 -0.83689,3.278054 -1.51911,9.578054 -1.51604,14.0000008 0.003,4.42194 0.47422,9.7274 1.047,11.7899 0.57279,2.0625 1.30817,3.75 1.63418,3.75 0.32602,0 1.19055,-0.7875 1.92119,-1.75 1.15332,-1.5193 1.33858,-0.95904 1.40535,4.2500002 0.0423,3.3 0.69506,7.35 1.45059,9 0.75552,1.65 1.41022,2.39969 1.45489,1.66597 0.0522,-0.85796 1.41946,-0.28906 3.83122,1.59418 2.0625,1.61051 4.64625,3.41457 5.74167,4.00902 1.09542,0.59445 2.07614,0.99635 2.17938,0.89311 z m 95.47007,-1.23526 c 1.55754,-0.80543 4.41296,-2.85262 6.34538,-4.54931 3.49673,-3.07017 3.51393,-3.07366 3.60369,-0.7313 0.0708,1.8474 0.30285,1.61276 1.07901,-1.09098 0.54385,-1.89452 0.84077,-6.03144 0.65981,-9.19317 l -0.32901,-5.7485802 2.13448,2.00894 2.13447,2.0089502 1.25389,-5.2267902 c 0.68964,-2.87474 1.23457,-8.31241 1.21097,-12.08371 -0.0236,-3.7713098 -0.59214,-9.2113568 -1.2634,-12.0889968 -0.67125,-2.87764 -2.77186,-8.607073 -4.66801,-12.732073 l -3.44755,-7.5 -1.31284,3.759476 c -0.72207,2.067712 -1.81342,4.362631 -2.42524,5.099822 -0.83201,1.002513 -0.59226,2.827476 0.9512,7.240524 1.13498,3.245098 2.31826,9.087579 2.62953,12.9832918 0.31126,3.895716 0.0321,10.14854601 -0.62034,13.895186 -0.65245,3.74663 -2.12503,9.6717302 -3.27241,13.1668802 -1.14737,3.49515 -2.40406,6.35482 -2.79263,6.35482 -0.38857,0 -1.14796,-0.98936 -1.68753,-2.19859 -0.86408,-1.93648 -1.1023,-1.58531 -1.99819,2.94572 l -1.01716,5.14432 z m -71.77472,-39.366858 c 1.0815,-0.400071 2.30788,-1.650619 2.72529,-2.778994 0.70348,-1.90168 0.3077,-2.086302 -5.41638,-2.526629 -3.39642,-0.261271 -6.2984,-0.377333 -6.44885,-0.257917 -0.15045,0.119417 0.0294,1.00657 0.39966,1.971452 0.37026,0.964881 2.04586,2.331491 3.72356,3.03691 1.6777,0.70542 3.93523,0.95525 5.01672,0.555178 z m 48.89953,-0.302709 c 1.52696,-0.532301 3.21679,-1.790904 3.75518,-2.796895 0.53839,-1.005991 0.97889,-2.040986 0.97889,-2.299989 0,-0.259002 -2.8125,-0.227683 -6.25,0.0696 -3.4375,0.297282 -6.37309,0.640202 -6.52354,0.762044 -0.15045,0.121843 0.0246,0.998596 0.3891,1.948341 0.36445,0.949744 1.61021,2.077338 2.76836,2.505764 1.15814,0.428426 3.35505,0.343437 4.88201,-0.188865 z m -25.41665,-18.040206 c 0.90789,-0.777171 2.28969,-1.780305 3.07066,-2.229188 1.0558,-0.606851 1.25618,-0.389413 0.78138,0.847896 -0.3512,0.915225 -0.4433,1.664045 -0.20466,1.664045 0.23863,0 2.50238,-1.311803 5.03055,-2.915117 2.52816,-1.603314 6.70629,-3.372483 9.28472,-3.931485 2.57844,-0.559002 6.26307,-1.264664 8.18807,-1.568138 l 3.5,-0.551769 -2.75,2.435288 c -1.5125,1.339409 -2.75,2.681874 -2.75,2.983255 0,0.301381 3.0375,0.522567 6.75,0.491524 3.7125,-0.03104 8.30942,-0.593543 10.21537,-1.25 2.00029,-0.688946 4.47076,-2.673287 5.84342,-4.693558 2.15534,-3.172229 2.34045,-4.319427 1.97665,-12.25 -0.22077,-4.8125 -0.0221,-8.75 0.44138,-8.75 0.46352,0 -0.75469,-1.402594 -2.70715,-3.116875 -1.95246,-1.714281 -4.53245,-4.496707 -5.73332,-6.183168 -1.7962,-2.522527 -1.88218,-2.950709 -0.48487,-2.414511 0.93419,0.358482 1.69852,0.269318 1.69852,-0.198142 0,-0.467459 -1.56783,-2.045768 -3.48406,-3.507352 -1.91624,-1.461583 -5.40374,-3.40704 -7.75,-4.323235 -3.60076,-1.406063 -8.55399,-1.672898 -31.76594,-1.711264 -23.85038,-0.03942 -28.16357,0.18973 -32.5,1.726656 -2.75,0.97466 -6.125,2.652154 -7.5,3.727764 -1.375,1.07561 -1.91206,1.965661 -1.19346,1.977891 0.97125,0.01653 0.84295,0.821879 -0.5,3.138344 -0.9936,1.713859 -3.19404,4.185064 -4.88987,5.491566 -1.69584,1.306502 -3.11749,2.941753 -3.15924,3.633892 -0.0417,0.692139 -0.59916,3.897909 -1.2387,7.123934 -0.87763,4.427036 -0.88155,7.03786 -0.016,10.645934 0.63074,2.629239 2.1661,5.738011 3.4119,6.908382 1.24581,1.170371 3.79669,2.5672 5.66863,3.104066 1.87194,0.536865 6.219,0.976118 9.66013,0.976118 3.44113,0 6.2566,-0.246585 6.2566,-0.547966 0,-0.301381 -1.20967,-1.588482 -2.68816,-2.860224 l -2.68816,-2.312259 6.18631,0.846031 c 3.40247,0.465317 7.78824,1.515362 9.74616,2.333434 1.95793,0.818072 4.84073,2.399459 6.40623,3.514194 1.5655,1.114734 3.10027,2.02679 3.41061,2.02679 0.31033,0 0.28513,-0.72735 -0.056,-1.616334 -0.52435,-1.366432 -0.2962,-1.442906 1.47569,-0.494622 1.15276,0.616941 2.39067,1.598605 2.75091,2.181476 0.43924,0.710713 1.19866,0.594356 2.3057,-0.353273 z m -1.04026,-7.787709 c -2.91996,-0.03875 -7.01719,-0.697355 -9.10496,-1.463558 -2.08777,-0.766202 -5.00294,-2.342517 -6.47815,-3.502921 -1.47522,-1.160404 -3.48385,-3.314303 -4.46364,-4.786442 -0.97979,-1.472139 -2.26463,-4.439014 -2.85521,-6.593055 -0.80181,-2.924466 -0.75367,-5.059779 0.19008,-8.430497 0.77451,-2.766286 2.74271,-5.992911 5.08336,-8.333562 2.10072,-2.100727 3.257,-3.848027 2.5695,-3.882889 -0.6875,-0.03486 -0.125,-0.518502 1.25,-1.074754 1.375,-0.556252 4.22062,-0.742115 6.32359,-0.413028 2.49068,0.389757 3.60307,0.241515 3.19099,-0.425246 -0.40398,-0.653655 1.48619,-1.023586 5.23006,-1.023586 4.32917,0 7.24584,0.689261 11.1506,2.635085 3.13339,1.561437 6.4397,4.22507 8.11477,6.537429 1.55476,2.146288 3.11954,5.63482 3.47729,7.752291 0.35774,2.117472 0.14571,5.724366 -0.47118,8.01532 -0.67511,2.507176 -2.69298,5.736734 -5.06887,8.112622 -2.17099,2.170989 -3.38475,3.975777 -2.69725,4.010639 0.6875,0.03486 0.125,0.518502 -1.25,1.074754 -1.375,0.556252 -4.22062,0.742115 -6.32359,0.413028 -2.49068,-0.389757 -3.60307,-0.241515 -3.19099,0.425246 0.40297,0.65202 -1.29458,0.998008 -4.6764,0.953124 z m -2.80902,-5.929538 c 0.65298,0 1.4226,-0.9 1.71025,-2 0.28766,-1.1 1.09305,-2 1.78975,-2 0.6967,0 1.51449,0.94741 1.8173,2.105356 0.30281,1.157946 1.14279,1.910198 1.86663,1.671672 0.72384,-0.238526 1.44899,-1.32792 1.61145,-2.420876 0.18097,-1.217544 1.61287,-2.463604 3.69708,-3.217265 1.91527,-0.692569 3.69882,-2.166206 4.08166,-3.372406 0.48544,-1.529487 0.0756,-2.631686 -1.43261,-3.852974 -1.72337,-1.395502 -1.83888,-1.815658 -0.62703,-2.28069 0.81704,-0.313526 1.48552,-1.65407 1.48552,-2.978987 0,-1.324918 -0.56502,-2.877863 -1.25559,-3.450991 -0.69058,-0.573128 -2.44806,-1.341341 -3.90552,-1.707139 -1.45746,-0.365799 -2.87531,-1.526976 -3.15079,-2.580394 -0.27547,-1.053418 -1.03512,-1.915306 -1.6881,-1.915306 -0.65298,0 -1.42259,0.9 -1.71025,2 -0.28766,1.1 -1.31804,2 -2.28975,2 -0.97171,0 -2.01393,-0.945277 -2.31606,-2.100616 -0.30248,-1.156684 -1.02893,-1.804203 -1.61663,-1.440983 -0.58702,0.362798 -1.06731,1.49732 -1.06731,2.521161 0,1.2692 -0.98784,2.078494 -3.10452,2.543394 -2.82847,0.621238 -3.05076,0.950623 -2.5,3.704455 0.33249,1.662424 0.60452,5.405584 0.60452,8.318134 0,5.029557 0.14558,5.327519 2.89831,5.932119 1.68531,0.370156 3.11094,1.449707 3.40638,2.579455 0.27944,1.068585 1.04233,1.942881 1.69531,1.942881 z m 0.70078,-7.116001 c -1.21043,-0.0638 -3.02132,-0.32816 -4.02421,-0.587465 -1.12606,-0.291154 -1.60412,-1.042962 -1.25,-1.965786 0.31539,-0.821878 0.57343,-1.682519 0.57343,-1.912535 0,-0.230017 3.1132,-0.418213 6.91821,-0.418213 3.80502,0 7.63002,0.273145 8.5,0.606989 0.86999,0.333844 1.58179,0.971555 1.58179,1.417136 0,0.445581 -2.27215,1.297436 -5.04922,1.893011 -2.77707,0.595575 -6.03957,1.030663 -7.25,0.966863 z m 0.65611,-8.534365 c -2.82871,0.291949 -5.41621,0.257715 -5.75,-0.07608 -0.33379,-0.333786 -0.60689,-1.380793 -0.60689,-2.326677 0,-1.27627 1.18204,-1.897048 4.58349,-2.407126 2.52092,-0.378035 6.34356,-0.389974 8.49476,-0.02653 2.1512,0.363443 4.14277,1.035383 4.42572,1.493201 0.28295,0.457818 -0.9522,1.277896 -2.74476,1.822396 -1.79257,0.5445 -5.57361,1.228867 -8.40232,1.520816 z"
       id="path4529"
       inkscape:connector-curvature="0"
       sodipodi:nodetypes="cssssscssssssssssssssssssssssssssssscssssssssssssssscccssscsssscsssssssssssssssssssssssssssssssssssssssssscsscssssscsssssssscccsssscssssssssscssssssssssssscssssssssscssssssssssssssssssscssssssscsssssscssssssssssssssssssssssssssssssssssssssssssssssssssssssssssssssssss" />
  </g>
</svg>
