<?xml version="1.0" encoding="UTF-8" standalone="no"?>
<!-- Created with Inkscape (http://www.inkscape.org/) -->

<svg
   xmlns:dc="http://purl.org/dc/elements/1.1/"
   xmlns:cc="http://creativecommons.org/ns#"
   xmlns:rdf="http://www.w3.org/1999/02/22-rdf-syntax-ns#"
   xmlns:svg="http://www.w3.org/2000/svg"
   xmlns="http://www.w3.org/2000/svg"
   xmlns:sodipodi="http://sodipodi.sourceforge.net/DTD/sodipodi-0.dtd"
   xmlns:inkscape="http://www.inkscape.org/namespaces/inkscape"
   width="150.76506mm"
   height="33.437984mm"
   viewBox="0 0 150.76506 33.437984"
   version="1.1"
   id="svg8"
   inkscape:version="0.92.1 r15371"
   sodipodi:docname="bitcoin magazine.svg">
  <defs
     id="defs2" />
  <sodipodi:namedview
     id="base"
     pagecolor="#ffffff"
     bordercolor="#666666"
     borderopacity="1.0"
     inkscape:pageopacity="0.0"
     inkscape:pageshadow="2"
     inkscape:zoom="0.7"
     inkscape:cx="112.5286"
     inkscape:cy="78.931083"
     inkscape:document-units="mm"
     inkscape:current-layer="layer1"
     showgrid="false"
     inkscape:window-width="1920"
     inkscape:window-height="1017"
     inkscape:window-x="-8"
     inkscape:window-y="-8"
     inkscape:window-maximized="1" />
  <metadata
     id="metadata5">
    <rdf:RDF>
      <cc:Work
         rdf:about="">
        <dc:format>image/svg+xml</dc:format>
        <dc:type
           rdf:resource="http://purl.org/dc/dcmitype/StillImage" />
        <dc:title></dc:title>
      </cc:Work>
    </rdf:RDF>
  </metadata>
  <g
     inkscape:label="Layer 1"
     inkscape:groupmode="layer"
     id="layer1"
     transform="translate(-97.58243,-100.14456)">
    <g
       id="g4531">
      <path
         sodipodi:nodetypes="scccccssscscccccsccsccscsscccccsccscscscscccccccccscsccccsccccccccccccscccsccscscccccccccscscccccccsccccccccccccccccccccccccccccccccccccccccccccccccccsccccscscccccscsssccscccsccccscccc"
         inkscape:connector-curvature="0"
         id="path4522"
         d="m 106.42015,127.63936 c -2.73983,-2.34038 -5.1941,-4.50192 -5.45392,-4.8034 -0.39286,-0.45585 -0.45969,-0.95343 -0.39688,-2.95465 0.0707,-2.25303 0.11276,-2.41179 0.65936,-2.48954 0.40789,-0.058 1.09625,0.38051 2.2843,1.45521 0.93526,0.84604 2.9305,2.60981 4.43386,3.9195 5.01357,4.36768 4.73655,3.9994 4.73655,6.29724 0,2.32241 -0.14395,2.83089 -0.80147,2.83089 -0.26415,0 -2.72196,-1.91486 -5.4618,-4.25525 z m 7.498,4.07886 c -0.097,-0.097 -0.17639,-4.36439 -0.17639,-9.48306 v -9.30668 l 1.7165,-1.64827 c 1.87935,-1.80464 2.73865,-2.03291 3.07492,-0.81685 0.1006,0.3638 0.19303,4.47145 0.20539,9.12812 0.0166,6.2681 -0.0624,8.61609 -0.30436,9.04208 -0.41859,0.73697 -3.49551,3.26105 -3.97531,3.26105 -0.2004,0 -0.44374,-0.0794 -0.54075,-0.17639 z m 5.38917,-6.94997 c -0.17145,-0.32036 -0.2739,-3.49937 -0.2739,-8.49962 v -7.98785 l 1.32025,-1.27922 c 1.18313,-1.14637 2.10944,-1.82987 2.47992,-1.82987 0.0719,0 0.31789,0.1871 0.54656,0.41577 0.35942,0.35943 0.41578,1.4873 0.41578,8.32193 0,7.43988 -0.15192,9.25397 -0.77493,9.25397 -0.0884,0 -0.73714,0.47625 -1.44155,1.05833 -1.43461,1.1855 -1.87366,1.29111 -2.27213,0.54656 z m -8.78747,-0.745 c -0.50238,-0.40018 -1.50101,-1.27743 -2.21919,-1.94945 -0.71818,-0.67201 -1.78203,-1.61942 -2.36411,-2.10536 -0.58208,-0.48593 -1.77662,-1.54345 -2.65452,-2.35003 -0.8779,-0.80658 -2.16282,-1.96078 -2.85539,-2.56489 l -1.25921,-1.09839 0.07727,-2.20891 c 0.07146,-2.0428 0.12081,-2.2151 0.656311,-2.29132 0.337349,-0.048 0.833309,0.17185 1.188209,0.52675 0.33505,0.33505 2.2176,2.03044 4.18346,3.76753 1.96586,1.7371 4.43749,3.93828 5.49252,4.89152 l 1.91823,1.73316 v 1.76998 c 0,0.97349 -0.0723,1.95832 -0.1606,2.1885 -0.23888,0.62252 -0.97632,0.50872 -2.00298,-0.30909 z m 78.89274,-2.82916 c -3.23643,-0.90911 -4.63439,-2.08162 -6.1628,-5.16892 -0.80055,-1.61707 -0.84857,-1.87951 -0.84716,-4.63021 0.001,-2.63763 0.0727,-3.07031 0.74716,-4.53269 1.7819,-3.86341 6.32922,-6.35925 10.58486,-5.80961 1.52656,0.19717 4.84537,1.69788 5.60075,2.53256 0.48393,0.53474 0.47366,0.56121 -0.66972,1.72623 -0.63865,0.65073 -1.26803,1.18316 -1.39863,1.18316 -0.13059,0 -0.58067,-0.28881 -1.00018,-0.6418 -1.63825,-1.3785 -5.16915,-1.45986 -7.29335,-0.16806 -2.44418,1.48639 -3.57341,4.90757 -2.6417,8.00342 1.2047,4.00288 6.76013,5.51587 10.49314,2.85774 l 0.76281,-0.54318 1.20408,1.15371 c 0.66224,0.63454 1.20408,1.28712 1.20408,1.45018 0,0.53042 -1.78259,1.67301 -3.62389,2.32282 -2.04262,0.72085 -4.94276,0.83114 -6.95945,0.26465 z m 18.54237,-0.0206 c -0.78853,-0.22188 -1.81589,-0.63963 -2.28302,-0.92834 -1.33334,-0.82405 -3.01289,-2.80247 -3.7725,-4.44383 -0.60074,-1.29806 -0.69613,-1.8601 -0.7039,-4.14738 -0.007,-2.20757 0.10058,-2.9267 0.65247,-4.34143 3.18802,-8.172197 14.88152,-8.423907 18.58192,-0.39999 0.51918,1.12577 0.59996,1.73123 0.59735,4.47684 -0.003,3.64021 -0.36523,4.76515 -2.26029,7.0286 -1.6526,1.97384 -3.7527,2.90124 -6.89602,3.04523 -1.72832,0.0792 -2.91781,-0.009 -3.91601,-0.2897 z m 5.98541,-3.73281 c 3.76178,-1.34327 4.71455,-7.55225 1.68673,-10.99203 -1.49352,-1.69673 -4.02125,-2.272 -6.70648,-1.52629 -2.09176,0.58089 -3.89041,3.29464 -3.96332,5.97974 -0.14762,5.43622 3.87352,8.36312 8.98307,6.53858 z m -75.32778,-6.16631 v -9.8069 h 5.681 c 5.40314,0 5.74931,0.0306 7.07761,0.62573 2.24832,1.00732 3.38098,2.6882 3.38098,5.0174 0,1.16064 -0.84662,2.8138 -1.79684,3.50861 -0.3467,0.25352 -0.24737,0.4401 0.68069,1.27855 1.30119,1.17554 1.74632,2.37108 1.58903,4.26781 -0.1562,1.88346 -1.11152,3.3046 -2.77053,4.12141 -1.21447,0.59795 -1.56893,0.63128 -7.55808,0.71082 l -6.28386,0.0835 z m 10.71563,6.07564 c 1.37296,-0.31708 2.35224,-1.40903 2.11639,-2.35988 -0.45076,-1.81723 -2.33252,-2.50318 -6.48202,-2.36286 l -2.51354,0.085 -0.078,2.09328 c -0.0429,1.15131 -0.0169,2.25264 0.0578,2.4474 0.16215,0.42256 5.18407,0.49322 6.89937,0.0971 z m 0.77311,-8.56864 c 0.95926,-0.62853 0.95909,-2.19881 -2.6e-4,-3.10059 -0.63997,-0.60151 -0.90342,-0.64716 -4.23334,-0.73354 l -3.55097,-0.0921 v 2.09853 c 0,1.15419 0.0893,2.19103 0.19844,2.30408 0.10914,0.11306 1.70719,0.15268 3.55123,0.0881 2.5526,-0.0895 3.51559,-0.22417 4.0349,-0.56443 z m 7.56126,2.4641 v -9.80118 l 1.91823,0.0777 1.91823,0.0777 0.0694,9.72344 0.0694,9.72344 h -1.98763 -1.98764 z m 12.96459,1.73138 v -8.06979 h -3.04271 -3.04271 v -1.7198 -1.71979 h 8.06979 8.06979 v 1.71979 1.7198 h -3.04271 -3.0427 v 8.06979 8.06979 h -1.98438 -1.98437 z m 53.18125,-1.71979 v -9.78959 h 1.85208 1.85208 v 9.78959 9.78958 h -1.85208 -1.85208 z m 7.40833,0 v -9.78959 l 1.52135,2e-4 1.52136,1.9e-4 1.73584,2.18262 c 0.95472,1.20044 3.03832,3.83126 4.63021,5.84627 l 2.89436,3.66366 0.1323,-5.88021 0.13229,-5.88021 1.80464,0.008 c 0.99255,0.005 1.85575,0.0595 1.91823,0.12194 0.0625,0.0625 0.11359,4.48544 0.11359,9.82881 v 9.71521 l -1.37939,-0.08 c -1.36773,-0.0793 -1.39138,-0.0956 -2.79835,-1.93206 -0.78044,-1.01864 -1.63042,-2.10067 -1.88887,-2.4045 -0.25844,-0.30384 -1.74887,-2.23853 -3.31205,-4.29931 -1.56319,-2.06079 -2.94997,-3.81352 -3.08175,-3.89496 -0.14053,-0.0869 -0.23959,2.48381 -0.23959,6.21753 v 6.36562 h -1.85209 -1.85208 z m -106.57417,7.88458 c -0.23216,-0.23216 -0.3175,-2.35397 -0.3175,-7.89409 v -7.57659 l 1.82636,-1.7632 c 1.0045,-0.96976 2.01234,-1.7632 2.23965,-1.7632 0.85022,0 0.96108,0.97252 0.96108,8.43102 v 7.40748 l -1.99283,1.73804 c -1.09606,0.95592 -2.08428,1.73804 -2.19604,1.73804 -0.11177,0 -0.34609,-0.14288 -0.52072,-0.3175 z m -13.9708,-1.5562 c -1.05257,-0.83647 -4.41404,-3.87157 -8.18099,-7.38667 -1.1696,-1.0914 -2.752463,-2.53905 -3.517462,-3.21699 l -1.390908,-1.23262 0.07602,-2.60077 c 0.06383,-2.18385 0.146987,-2.61436 0.518718,-2.68548 0.373171,-0.0714 3.524202,2.58321 6.854392,5.77452 0.37539,0.35973 2.25034,2.0828 4.16657,3.82905 l 3.48405,3.175 6.1e-4,2.16117 c 9.5e-4,3.30855 -0.25071,3.58171 -2.01101,2.18279 z"
         style="fill:#3c3b40;stroke-width:0.26458335" />
      <text
         id="text4526"
         y="133.42961"
         x="134.18187"
         style="font-style:normal;font-weight:normal;font-size:13.05041218px;line-height:1.25;font-family:sans-serif;letter-spacing:0px;word-spacing:0px;fill:#000000;fill-opacity:1;stroke:none;stroke-width:0.3262603"
         xml:space="preserve"><tspan
           style="font-style:normal;font-variant:normal;font-weight:normal;font-stretch:normal;font-family:'Nirmala UI';-inkscape-font-specification:'Nirmala UI';stroke-width:0.3262603"
           y="133.42961"
           x="134.18187"
           id="tspan4524"
           sodipodi:role="line">M  A  G  A  Z  I  N  E</tspan></text>
    </g>
  </g>
</svg>
