<?xml version="1.0" encoding="utf-8"?>
<!-- Generator: Adobe Illustrator 15.0.2, SVG Export Plug-In . SVG Version: 6.00 Build 0)  -->
<!DOCTYPE svg PUBLIC "-//W3C//DTD SVG 1.1//EN" "http://www.w3.org/Graphics/SVG/1.1/DTD/svg11.dtd">
<svg version="1.1" id="Layer_1" xmlns="http://www.w3.org/2000/svg" xmlns:xlink="http://www.w3.org/1999/xlink" x="0px" y="0px"
	 width="900px" height="192px" viewBox="0 0 900 192" enable-background="new 0 0 900 192" xml:space="preserve">
<g>
	<path fill="#ebbe6e" d="M323.406,51.045v60.504c0,8.15-2.884,15.11-8.589,20.816c-5.706,5.705-12.666,8.59-20.816,8.59
		c-5.079,0-9.844-1.254-14.295-3.762l9.154-16.365c1.567,0.878,3.323,1.316,5.142,1.316c2.947,0,5.455-1.065,7.523-3.135
		c2.069-2.068,3.135-4.576,3.135-7.523V51.045H323.406z"/>
	<path fill="#ebbe6e" d="M383.599,51.045c27.336,0,45.833,20.565,45.833,44.955c0,26.584-20.69,44.955-45.833,44.955
		c-27.211,0-45.833-20.377-45.833-44.955C337.767,70.481,357.956,51.045,383.599,51.045z M383.599,123.963
		c16.741,0,26.271-12.853,26.271-27.963c0-16.615-11.349-27.963-26.271-27.963c-16.615,0-26.333,12.853-26.333,27.963
		C357.266,111.235,367.611,123.963,383.599,123.963z"/>
	<path fill="#ebbe6e" d="M521.477,50.982v48.779c0,23.136-15.047,41.193-38.998,41.193c-23.26,0-38.935-17.744-38.935-41.193V50.982
		h18.81v47.901c0,12.038,6.018,24.703,20.188,24.703c13.355,0,20.127-11.724,20.127-24.703V50.982H521.477z"/>
	<path fill="#ebbe6e" d="M598.225,140.955l-21.316-36.428H560.23v36.428h-18.748V51.108h45.707
		c15.174,0,27.273,10.471,27.273,26.897c0,11.725-5.705,20.44-17.492,24.766l22.32,38.184H598.225z M560.23,87.598h24.639
		c5.393,0,11.225-3.323,11.225-9.593c0-6.019-5.518-9.593-11.287-9.593H560.23V87.598z"/>
	<path fill="#ebbe6e" d="M718.484,51.108v89.847h-9.404l-54.172-56.993v56.993h-18.746V51.108h9.404l54.109,56.993V51.108H718.484z"
		/>
	<path fill="#ebbe6e" d="M785.766,51.045l35.611,89.91h-18.496l-5.453-13.605h-41.945l-5.393,13.605h-18.559l35.676-89.91H785.766z
		 M762.189,110.357h28.529l-14.232-35.926L762.189,110.357z"/>
	<path fill="#ebbe6e" d="M853.107,50.982v72.604h44.453v17.368h-63.264V50.982H853.107z"/>
</g>
<linearGradient id="SVGID_1_" gradientUnits="userSpaceOnUse" x1="93.3027" y1="50.4707" x2="266.5467" y2="289.666">
	<stop  offset="0" style="stop-color:#47A4C8"/>
	<stop  offset="1" style="stop-color:#1A2227"/>
</linearGradient>
<path fill="url(#SVGID_1_)" d="M129.592,93.5c0,0,29.227-5.19,29.227-41.915c0-51.529-58.646-51.529-58.646-51.529H0l35.762,58.836
	V32.549h61.142c0,0,24.612-1.345,24.612,24.612c0,19.228-19.805,20.189-19.805,20.189H47.492l21.341,32.877h33.457
	c0,0,26.342,0.386,26.342,24.611c0,20.574-29.995,25.572-29.995,25.572l19.996,31.533c0,0,46.338-9.951,46.338-54.798
	C164.971,101.575,129.592,93.5,129.592,93.5z"/>
<g>
	<linearGradient id="SVGID_2_" gradientUnits="userSpaceOnUse" x1="170.6216" y1="56.3765" x2="285.2193" y2="321.0416">
		<stop  offset="0" style="stop-color:#47A4C8"/>
		<stop  offset="1" style="stop-color:#1A2227"/>
	</linearGradient>
	<path fill="url(#SVGID_2_)" d="M178.374,51.045h18.809v89.909h-18.809V51.045z"/>
	<linearGradient id="SVGID_3_" gradientUnits="userSpaceOnUse" x1="235.2612" y1="28.3882" x2="349.8582" y2="293.0515">
		<stop  offset="0" style="stop-color:#47A4C8"/>
		<stop  offset="1" style="stop-color:#1A2227"/>
	</linearGradient>
	<path fill="url(#SVGID_3_)" d="M288.724,50.982V68.35H259.13v72.604h-18.81V68.35H210.79V50.982H288.724z"/>
</g>
<g>
	<g>
		<path fill="#ECB044" d="M202.86,17.945v23.689h-4.443V26.667l-8.145,8.854l-8.144-8.854v14.967h-4.741V17.945h2.494l10.391,11.696
			l10.375-11.696H202.86z"/>
		<path fill="#ECB044" d="M225.538,17.945v4.559h-11.713v3.899h8.723v4.559h-8.723v6.112h11.713v4.56H208.87V17.945H225.538z"/>
		<path fill="#ECB044" d="M249.752,29.806c0,6.674-5.369,11.828-12.076,11.828h-8.738V17.961h8.738
			C244.285,17.961,249.752,23.033,249.752,29.806z M244.615,29.806c0-3.932-2.627-7.384-6.938-7.384h-3.8v14.752h3.8
			C241.641,37.173,244.615,33.985,244.615,29.806z"/>
		<path fill="#ECB044" d="M253.961,17.945h4.956v23.689h-4.956V17.945z"/>
		<path fill="#ECB044" d="M276.741,17.945l9.383,23.689h-4.874l-1.437-3.585h-11.052l-1.42,3.585h-4.891l9.399-23.689H276.741z
			 M270.529,33.572h7.517l-3.75-9.466L270.529,33.572z"/>
	</g>
</g>
</svg>