<?xml version="1.0" encoding="UTF-8" standalone="no"?>
<!-- Created with Inkscape (http://www.inkscape.org/) -->

<svg
   xmlns:dc="http://purl.org/dc/elements/1.1/"
   xmlns:cc="http://creativecommons.org/ns#"
   xmlns:rdf="http://www.w3.org/1999/02/22-rdf-syntax-ns#"
   xmlns:svg="http://www.w3.org/2000/svg"
   xmlns="http://www.w3.org/2000/svg"
   xmlns:sodipodi="http://sodipodi.sourceforge.net/DTD/sodipodi-0.dtd"
   xmlns:inkscape="http://www.inkscape.org/namespaces/inkscape"
   width="368.95071mm"
   height="79.374611mm"
   viewBox="0 0 368.95068 79.374615"
   version="1.1"
   id="svg8"
   inkscape:version="0.92.1 r15371"
   sodipodi:docname="33.svg">
  <defs
     id="defs2" />
  <sodipodi:namedview
     id="base"
     pagecolor="#ffffff"
     bordercolor="#666666"
     borderopacity="1.0"
     inkscape:pageopacity="0.0"
     inkscape:pageshadow="2"
     inkscape:zoom="0.35"
     inkscape:cx="606.01857"
     inkscape:cy="217.61935"
     inkscape:document-units="mm"
     inkscape:current-layer="layer1"
     showgrid="false"
     inkscape:window-width="958"
     inkscape:window-height="1008"
     inkscape:window-x="-7"
     inkscape:window-y="0"
     inkscape:window-maximized="0"
     showguides="false" />
  <metadata
     id="metadata5">
    <rdf:RDF>
      <cc:Work
         rdf:about="">
        <dc:format>image/svg+xml</dc:format>
        <dc:type
           rdf:resource="http://purl.org/dc/dcmitype/StillImage" />
        <dc:title />
      </cc:Work>
    </rdf:RDF>
  </metadata>
  <g
     inkscape:label="Layer 1"
     inkscape:groupmode="layer"
     id="layer1"
     transform="translate(132.84238,-71.129591)">
    <path
       style="fill:#000000;stroke-width:0.26458335"
       d=""
       id="path4498"
       inkscape:connector-curvature="0" />
    <path
       style="fill:#000000;stroke-width:0.26458335"
       d=""
       id="path4496"
       inkscape:connector-curvature="0" />
    <path
       style="fill:#3c3b40;stroke-width:0.90240842;fill-opacity:1"
       d="m -76.549175,147.57136 c -6.213231,-4.20161 -8.784029,-9.37912 -8.239923,-16.59492 0.98971,-13.1247 13.713275,-21.08276 25.700133,-16.07432 11.60159,4.84746 15.171306,20.09626 6.858463,29.29758 -4.163891,4.60892 -8.085111,6.3045 -14.579997,6.3045 -4.602981,0 -6.042969,-0.43367 -9.738676,-2.93284 z m 8.645042,-3.43728 c 0,-0.96335 0.609148,-1.75155 1.35363,-1.75155 0.850556,0 1.353597,0.85819 1.353597,2.30926 0,1.30974 0.390623,2.06786 0.902431,1.75156 0.496321,-0.30662 0.902395,-1.33818 0.902395,-2.29208 0,-1.14749 0.839743,-1.93389 2.481644,-2.32397 5.261311,-1.25001 7.36563,-5.96879 4.214506,-9.45075 -1.140394,-1.2601 -1.217817,-1.96339 -0.387078,-3.51562 1.322694,-2.47148 -0.782272,-6.06238 -3.805224,-6.49134 -1.326891,-0.18827 -2.154592,-1.00915 -2.34102,-2.32168 -0.356997,-2.5137 -1.967654,-2.69836 -1.967654,-0.22544 0,1.00267 -0.601609,1.80479 -1.353597,1.80479 -0.75202,0 -1.35363,-0.80212 -1.35363,-1.80479 0,-1.00268 -0.601607,-1.80483 -1.353595,-1.80483 -0.842232,0 -1.35363,0.85226 -1.35363,2.25602 0,1.90507 -0.421116,2.25603 -2.707224,2.25603 -3.057024,0 -3.646082,1.34879 -0.902397,2.06629 1.604929,0.41968 1.804828,1.23088 1.804828,7.32453 0,5.25562 -0.292977,6.85253 -1.257073,6.85253 -1.361235,0 -2.566978,2.19204 -1.688797,3.07022 0.296729,0.29673 1.486953,0.53944 2.645049,0.53944 1.440226,0 2.105614,0.52282 2.105614,1.65441 0,0.90994 0.259554,1.91408 0.577088,2.23147 0.940835,0.94087 2.130137,-0.25068 2.130137,-2.13433 z m 0.168489,-8.29402 c 0.257506,-2.6695 0.525823,-2.90746 2.990004,-2.65033 1.488966,0.15552 3.281447,0.84564 3.983297,1.53392 1.91182,1.87484 -0.317194,4.04922 -4.150966,4.04922 -2.959616,0 -3.091882,-0.13745 -2.822335,-2.93281 z m -0.168489,-7.95325 c 0,-2.57523 0.20089,-2.74505 2.932843,-2.48165 3.706826,0.35741 4.732486,3.77255 1.400969,4.66489 -3.698606,0.99063 -4.333812,0.67064 -4.333812,-2.18324 z m -63.985457,15.47008 c -0.99729,-0.63139 -1.15445,-2.41101 -0.73593,-8.33348 0.29264,-4.14186 0.79691,-8.21949 1.12048,-9.06142 0.36753,-0.95645 3.86003,-2.61275 9.30876,-4.41464 4.7963,-1.5861 9.83895,-3.6672 11.20588,-4.62457 1.89027,-1.32393 2.56302,-1.45531 2.80968,-0.54861 0.17838,0.65567 0.80878,3.22251 1.40087,5.70415 1.27815,5.35695 7.357241,18.04818 8.645045,18.04818 1.423992,0 7.509561,-12.92053 8.690814,-18.45176 0.588547,-2.756 1.310383,-5.29351 1.604076,-5.63894 0.29366,-0.34547 1.542411,0.13369 2.774859,1.06498 l 2.240849,1.69313 -2.015233,4.14796 c -2.391942,4.92328 -2.680963,12.49092 -0.661637,17.32382 0.744482,1.78181 1.353595,3.39311 1.353595,3.58063 0,0.73971 -46.554518,0.26228 -47.742108,-0.48943 z m 93.764933,-1.33347 c 0,-0.19748 1.010346,-2.12639 2.245146,-4.28644 1.234871,-2.16005 2.250059,-4.67184 2.256028,-5.58174 0.01707,-2.73851 2.140029,-1.21813 4.261334,3.0531 3.93858,7.93023 6.121482,8.04568 5.478296,0.2899 -0.2749,-3.31633 -0.06992,-4.84691 0.648951,-4.84691 0.724086,0 0.920848,1.56809 0.632714,5.04259 l -0.41815,5.04258 3.064132,-0.26399 c 1.685285,-0.14529 3.597378,0.0655 4.249057,0.46832 0.936197,0.57859 1.133573,-0.37664 0.940221,-4.55039 -0.192704,-4.15594 0.04979,-5.33945 1.135483,-5.54855 1.146329,-0.22067 1.308336,0.60062 0.956115,4.84793 l -0.424085,5.11377 3.2795367,-0.38289 c 2.2235584,-0.25955 3.2795369,-0.0205 3.2795369,0.74322 0,0.8377 -2.8623075,1.1333 -11.1768226,1.15435 -10.050802,0.0239 -11.164523,-0.12892 -11.054496,-1.5329 0.09447,-1.20584 -0.596492,-1.56113 -3.036117,-1.56113 -2.454185,0 -3.13049,0.35212 -3.033115,1.57921 0.07879,0.99087 -0.509691,1.57921 -1.579211,1.57921 -0.937492,0 -1.704554,-0.16166 -1.704554,-0.35911 z m 8.121674,-4.88287 c 0,-1.18862 -2.647162,-4.33053 -2.678507,-3.17912 -0.01704,0.57981 -0.27524,1.69654 -0.576471,2.48164 -0.392671,1.02327 -0.01024,1.4274 1.353629,1.4274 1.045747,0 1.901349,-0.32845 1.901349,-0.72992 z m 27.0722648,4.33954 c 0,-0.49632 0.3444425,-0.90239 0.7653893,-0.90239 1.0077873,0 4.2736135,-7.28272 3.9327164,-8.76984 -0.1459786,-0.63616 0.3467285,-1.15666 1.0946553,-1.15666 0.7621852,0 2.465033,2.28034 3.8747674,5.18886 1.3832708,2.85385 2.9210768,4.9858 3.4173978,4.73764 0.496322,-0.2483 0.892199,-2.58315 0.879682,-5.18884 -0.02387,-4.71826 -0.01024,-4.73766 2.822334,-4.73766 3.752257,0 4.647832,1.34008 4.52324,6.76807 l -0.103685,4.51206 -5.524307,0.26569 c -4.9227317,0.2367 -5.5768663,0.0648 -6.0067825,-1.57921 -0.6882395,-2.63189 -6.06585341,-2.66742 -6.06585341,-0.0399 0,1.20322 -0.60160959,1.80483 -1.80482879,1.80483 -0.9926426,0 -1.8048287,-0.40607 -1.8048287,-0.90243 z m 20.3042042,-2.70722 c 0,-0.74448 -0.913685,-1.48337 -2.03041,-1.64197 -1.562706,-0.22203 -2.030444,0.15621 -2.030444,1.64197 0,1.48569 0.467738,1.86394 2.030444,1.642 1.116725,-0.15859 2.03041,-0.89748 2.03041,-1.642 z M 4.9911238,135.53621 c -0.9910049,-2.17503 -1.1435663,-2.22482 -2.236687,-0.72992 -1.7072478,2.33484 -1.4541077,3.06418 1.0635853,3.06418 2.0782624,0 2.1613469,-0.16541 1.1731017,-2.33426 z M 16.922287,133.7044 c 0,-0.6866 -0.812184,-1.24838 -1.804829,-1.24838 -1.173646,0 -1.804826,0.60161 -1.804826,1.72035 0,1.27604 0.466103,1.59845 1.804826,1.24834 0.992645,-0.25955 1.804829,-1.03371 1.804829,-1.72031 z m 4.512019,6.8733 c -2.365169,-2.36521 -2.293067,-5.79164 0.170193,-8.08651 2.421512,-2.256 4.473205,-2.33386 6.87074,-0.26058 2.830555,2.4475 3.173976,5.03007 1.031116,7.75428 -2.263426,2.87742 -5.546374,3.11862 -8.072015,0.59298 z m 7.264027,-1.40752 c 0.833739,-1.00461 0.924769,-2.10248 0.317873,-3.83524 -1.504244,-4.2953 -7.581969,-3.40396 -7.581969,1.11192 0,3.86743 4.816047,5.67298 7.264027,2.72332 z m 5.173075,1.63313 c -0.758296,-0.86856 -1.583542,-3.50811 -1.833819,-5.86564 -0.380495,-3.58405 -0.20805,-4.28647 1.051819,-4.28647 1.221124,0 1.499606,0.89844 1.468366,4.73766 -0.03786,4.671 -5.29e-4,4.73764 2.668683,4.73764 2.669162,0 2.70668,-0.0665 2.66872,-4.73764 -0.0307,-3.86978 0.242157,-4.73766 1.493329,-4.73766 1.274435,0 1.45278,0.64454 1.061165,3.83523 -0.258871,2.1094 -1.041792,4.74893 -1.739752,5.86569 -1.522458,2.4359 -4.910558,2.65944 -6.838511,0.45119 z m 13.598165,-3.51187 c 0.298093,-4.79879 0.207029,-5.06482 -1.57921,-4.59773 -1.286269,0.3363 -1.895827,0.0726 -1.895827,-0.82054 0,-1.72993 9.140171,-1.35694 9.718283,0.39663 0.282745,0.85717 -0.270809,1.00284 -2.081913,0.54823 l -2.466737,-0.6191 0.42224,5.0918 c 0.349936,4.21969 0.177697,5.092 -1.005601,5.09302 -1.171057,8e-4 -1.370889,-0.91484 -1.111235,-5.09231 z m 14.395683,-7.9e-4 0.422244,-5.0918 -2.46674,0.61911 c -1.811274,0.4546 -2.364486,0.309 -2.081877,-0.54824 0.599086,-1.81724 9.349518,-2.07631 10.032302,-0.29707 0.434896,1.13337 0.08117,1.29275 -1.814105,0.8171 l -2.35439,-0.5909 0.422275,5.0918 c 0.358019,4.31727 0.193728,5.0918 -1.079854,5.0918 -1.273614,0 -1.437873,-0.77453 -1.079855,-5.0918 z m 7.248099,-0.77197 c 0.219647,-4.26178 0.645811,-5.86756 1.556668,-5.86756 0.912083,0 1.106424,0.73821 0.712592,2.70722 -0.524597,2.62302 -0.436158,2.70723 2.842596,2.70723 3.278751,0 3.367191,-0.0842 2.842594,-2.70723 -0.39383,-1.96901 -0.199525,-2.70722 0.712591,-2.70722 0.910858,0 1.336884,1.60578 1.556668,5.86756 0.261599,5.07164 0.09141,5.86728 -1.254072,5.86565 -1.248103,-0.002 -1.449332,-0.53848 -1.015187,-2.7091 0.524597,-2.62302 0.436157,-2.70723 -2.842594,-2.70723 -3.278754,0 -3.367193,0.0842 -2.842596,2.70723 0.434144,2.17062 0.23295,2.7076 -1.015188,2.7091 -1.345512,0.002 -1.515602,-0.79401 -1.254072,-5.86565 z m 12.331134,-0.002 v -5.8656 h 3.835236 c 2.544025,0 3.835239,0.39471 3.835239,1.17242 0,0.81453 -0.990767,1.05676 -3.245565,0.79349 -2.781101,-0.3247 -3.199251,-0.13813 -2.921825,1.30226 0.19509,1.01325 1.395,1.91043 3.019949,2.25818 l 2.69621,0.57698 -2.932809,0.10676 c -2.348182,0.0856 -2.93284,0.48622 -2.93284,2.01032 0,1.64412 0.430462,1.85329 3.158424,1.53484 2.178159,-0.25444 3.158456,-0.003 3.158456,0.80365 0,0.77771 -1.291214,1.17243 -3.835239,1.17243 h -3.835236 z m 12.633693,0 v -5.8656 h 2.822334 c 3.578484,0 4.510654,1.25963 4.653594,6.28829 0.12688,4.45752 -0.70856,5.40848 -4.768703,5.42922 l -2.707225,0.0137 v -5.8657 z m 6.316878,2.25599 c 0,-0.74448 -0.913684,-1.48337 -2.030443,-1.64197 -1.562669,-0.22203 -2.03041,0.15621 -2.03041,1.64197 0,1.48569 0.467741,1.86394 2.03041,1.642 1.116759,-0.15859 2.030443,-0.89748 2.030443,-1.642 z m -0.451195,-5.06847 c 0,-0.6866 -0.812186,-1.24838 -1.804829,-1.24838 -1.173681,0 -1.804829,0.60161 -1.804829,1.72035 0,1.27604 0.466104,1.59845 1.804829,1.24834 0.992643,-0.25955 1.804829,-1.03371 1.804829,-1.72031 z m 3.158425,2.81248 c 0,-8.00135 1.99194,-7.99978 2.40459,0.002 0.24489,4.74909 0.0447,5.86718 -1.051,5.86565 -1.06416,-0.002 -1.35359,-1.25609 -1.35359,-5.86756 z m 7.49377,0.76494 c 0.40259,-4.85479 0.33015,-5.07638 -1.505,-4.59653 -1.31826,0.34475 -1.92795,0.088 -1.92795,-0.81212 0,-1.72993 9.1402,-1.35693 9.71828,0.39663 0.28274,0.85717 -0.27047,1.00284 -2.08188,0.54823 l -2.46677,-0.6191 0.42228,5.0918 c 0.35801,4.31727 0.19372,5.0918 -1.07986,5.0918 -1.27392,0 -1.43784,-0.77484 -1.0791,-5.10071 z m 8.52396,3.72569 c -3.82511,-2.70255 -1.45162,-10.35631 3.21156,-10.35631 2.22158,0 5.33018,2.37434 4.33395,3.31026 -0.4394,0.41283 -0.98023,0.24284 -1.20178,-0.37742 -0.54994,-1.53979 -4.29637,-1.4258 -5.62162,0.17121 -0.59298,0.71447 -0.94725,2.44031 -0.78732,3.83524 0.26126,2.27748 0.63606,2.53618 3.67552,2.53618 1.86158,0 3.25153,0.40608 3.08881,0.9024 -0.49592,1.51274 -4.54609,1.49981 -6.69912,-0.0205 z m 9.76641,-1.0027 c -2.42322,-3.08063 -2.35777,-4.43613 0.34468,-7.13858 2.69723,-2.69727 4.92956,-2.80829 7.54131,-0.37504 2.46326,2.29487 2.53537,5.72131 0.1702,8.08651 -2.51848,2.51848 -5.80852,2.2845 -8.05616,-0.57289 z m 6.97326,-0.51 c 2.74795,-2.74792 0.30321,-7.43879 -3.5869,-6.88244 -2.65054,0.37903 -4.28763,4.51737 -2.59423,6.55781 1.38797,1.67239 4.66147,1.84429 6.18113,0.3247 z m 3.33892,-2.9809 c 0,-4.61096 0.28922,-5.86374 1.35363,-5.86329 1.0643,4.5e-4 1.35359,1.2542 1.35359,5.86626 0,4.61335 -0.28888,5.86513 -1.35359,5.86326 -1.0641,-0.002 -1.35363,-1.25656 -1.35363,-5.86623 z m 4.51205,0.003 c 0,-3.22609 0.27285,-5.86564 0.60659,-5.86564 0.33356,0 2.3004,1.9289 4.37064,4.28643 l 3.76406,4.28644 -0.42456,-4.28644 c -0.3557,-3.5911 -0.17701,-4.28643 1.10138,-4.28643 1.31198,0 1.47106,0.7909 1.13456,5.64006 -0.21522,3.10201 -0.5807,5.84311 -0.81205,6.09127 -0.40219,0.43135 -1.56591,-0.82822 -5.69242,-6.16122 l -1.86608,-2.41169 0.2691,4.28647 c 0.20941,3.33667 -0.0307,4.28644 -1.09104,4.28644 -1.07239,0 -1.36011,-1.24091 -1.36011,-5.86569 z m 15.34092,0 c 0,-4.61205 0.28922,-5.86578 1.35363,-5.86622 1.0644,-4.5e-4 1.35359,1.25233 1.35359,5.86329 0,4.60967 -0.28956,5.86435 -1.35359,5.86623 -1.06465,0.002 -1.35363,-1.24991 -1.35363,-5.8633 z m 4.51205,0 c 0,-3.22609 0.29503,-5.86564 0.65584,-5.86564 0.36068,0 2.34719,2.13194 4.4144,4.73767 l 3.75861,4.73763 -0.44675,-4.73763 c -0.31242,-3.31355 -0.12379,-4.73767 0.62815,-4.73767 1.28884,0 1.72104,7.0086 0.61635,9.99488 -0.72477,1.95927 -0.89757,1.86329 -3.83916,-2.13163 -1.69413,-2.30078 -3.32039,-4.19906 -3.61395,-4.21843 -0.29366,-0.0205 -0.25648,1.7922 0.0825,4.02565 0.51143,3.36992 0.37193,4.06086 -0.81986,4.06086 -1.16598,0 -1.43617,-1.10353 -1.43617,-5.86569 z m 12.03394,0.002 0.30252,-5.86755 h 3.08139 c 3.83749,0 6.6911,2.67219 6.6911,6.26572 0,3.31289 -2.83178,5.46489 -7.19447,5.46752 l -3.18325,0.002 0.30252,-5.86753 z m 8.11159,0.54394 c 0.31684,-3.31832 -0.8083,-4.57024 -4.12776,-4.59285 -1.81105,-0.0137 -2.03044,0.43117 -2.03044,4.1042 0,4.10236 0.0103,4.11696 2.93283,3.83524 2.60797,-0.25137 2.96523,-0.62215 3.22537,-3.34659 z m 5.15107,4.09915 c -2.17392,-1.5893 -2.95828,-10.5103 -0.92408,-10.5103 0.96067,0 1.16112,0.69949 0.7662,2.67404 -0.85473,4.27361 0.27176,7.25246 2.74265,7.25246 3.1429,0 4.46725,-2.14443 3.90646,-6.32548 -0.34168,-2.54743 -0.15086,-3.60102 0.65228,-3.60102 1.67849,0 0.70692,9.1577 -1.12495,10.60331 -1.85346,1.46264 -3.93536,1.43058 -6.01856,-0.0928 z m 9.75752,-0.17189 c -0.29388,-0.76587 -0.28112,-1.64573 0.0283,-1.95521 0.30948,-0.30935 0.56269,-0.089 0.56269,0.49012 0,0.57906 1.0152,1.0528 2.25602,1.0528 2.93571,0 2.9202,-2.11489 -0.0251,-3.45696 -1.25473,-0.57169 -2.51841,-1.65728 -2.80818,-2.41237 -0.6672,-1.73839 1.20984,-4.05683 3.28472,-4.05683 1.87807,0 4.1705,2.46807 3.16349,3.40587 -0.38684,0.36024 -0.88463,0.14734 -1.10619,-0.47303 -0.54137,-1.5158 -3.8621,-1.44636 -3.8621,0.0808 0,0.66481 1.02661,1.67651 2.28135,2.24821 2.80482,1.27798 3.7003,3.34513 2.22115,5.12741 -1.45852,1.75742 -5.31464,1.72498 -5.99591,-0.0505 z m 11.28532,-3.69851 c 0.29827,-4.79882 0.20691,-5.06485 -1.57922,-4.59776 -1.28627,0.33629 -1.89582,0.0726 -1.89582,-0.82054 0,-1.72993 9.14019,-1.35691 9.71828,0.39663 0.28258,0.85717 -0.27064,1.00284 -2.0819,0.54823 l -2.46673,-0.61911 0.42224,5.0918 c 0.34992,4.21969 0.1777,5.092 -1.0056,5.09303 -1.17107,7.9e-4 -1.37091,-0.91485 -1.11125,-5.09228 z m 7.35772,3.73278 c 0.71834,-0.86553 0.97017,-2.99344 0.69419,-5.86564 -0.41177,-4.28538 -0.3256,-4.50742 1.74977,-4.50742 4.92738,0 7.69752,4.1923 4.10032,6.20539 -1.45094,0.81198 -1.40353,1.06153 0.60852,3.20327 2.01816,2.14825 2.05076,2.32267 0.43389,2.32267 -0.96147,0 -2.14897,-0.88742 -2.63893,-1.97205 -1.37083,-3.03479 -3.54475,-3.34598 -2.80577,-0.40161 0.50443,2.00981 0.29953,2.37366 -1.33673,2.37366 -1.61843,0 -1.74929,-0.22067 -0.80526,-1.35827 z m 6.31301,-6.76306 c 0,-1.32355 -0.60161,-1.80483 -2.25602,-1.80483 -1.65441,0 -2.25602,0.48128 -2.25602,1.80483 0,1.32351 0.60161,1.80479 2.25602,1.80479 1.65441,0 2.25602,-0.48128 2.25602,-1.80479 z m 6.08275,5.93495 c 0.40947,-2.14197 -2.17263,-7.73978 -3.57011,-7.73978 -0.3893,0 -0.70784,-0.40608 -0.70784,-0.9024 0,-0.49635 0.85561,-0.90243 1.90138,-0.90243 1.26288,0 1.73786,0.42606 1.41446,1.26884 -0.26781,0.69786 0.3065,1.98682 1.27614,2.86436 1.7068,1.54462 1.79753,1.50417 2.84422,-1.26884 0.59462,-1.57539 1.60126,-2.86436 2.23694,-2.86436 1.64362,0 1.46238,0.62085 -1.20038,4.11191 -1.71435,2.24764 -2.20128,3.70608 -1.78763,5.35426 0.45606,1.81707 0.23286,2.26516 -1.12835,2.26516 -1.30905,0 -1.60133,-0.49976 -1.27883,-2.18672 z m -330.37948,-6.60226 c -2.03464,-4.01516 -2.10473,-4.57324 -0.9263,-7.37587 0.95062,-2.26087 1.0176,-3.34208 0.2633,-4.251 -1.8359,-2.21213 -0.21999,-3.94912 3.674015,-3.94912 2.999486,0 3.637965,0.30731 3.637965,1.75156 0,0.96338 -0.352187,1.96922 -0.78258,2.23525 -0.432543,0.2674 -0.357371,2.07676 0.168146,4.0453 0.786059,2.94499 0.660068,4.20608 -0.727736,7.28368 -0.9231,2.04708 -1.999476,3.92047 -2.391942,4.163 -0.392467,0.2425 -1.704111,-1.51369 -2.914768,-3.9028 z m 54.92783,-14.67356 c 0.367705,-0.59499 45.73139619,-0.90243 133.158477,-0.90243 87.798893,0 132.600763,0.30492 132.600763,0.90243 0,0.59752 -44.98776,0.9024 -133.158478,0.9024 -88.5425062,0 -132.971639,-0.30253 -132.600762,-0.9024 z m -56.40053,-3.71651 c -2.54542,-1.00966 -8.12167,-6.10965 -8.12167,-7.42794 0,-0.47514 -1.07157,-3.12903 -2.38127,-5.89747 -2.33512,-4.93607 -2.36233,-5.20756 -1.40499,-14.015975 1.08258,-9.960847 2.37755,-12.597507 7.46004,-15.189143 3.46228,-1.765435 10.25829,-2.071577 14.043186,-0.63258 2.709886,1.030299 7.576036,5.653916 9.25784,8.796444 0.579201,1.082209 1.142645,5.785123 1.25206,10.450895 0.157573,6.722479 -0.103685,8.831639 -1.259018,10.161699 -0.801918,0.92314 -1.715502,2.76385 -2.030171,4.0905 -0.799667,3.37138 -4.898483,7.97992 -8.397633,9.44195 -3.403071,1.42191 -5.268643,1.47099 -8.418374,0.22169 z m 8.03249,-3.90785 c 2.93499,-1.51775 5.503639,-5.0743 5.503639,-7.62037 0,-0.97467 0.649257,-2.42138 1.442785,-3.21491 0.793562,-0.79356 1.660284,-3.064218 1.926078,-5.045924 0.412009,-3.071656 0.265691,-3.519648 -0.991586,-3.03714 -1.227674,0.471083 -1.47488,-0.101979 -1.47488,-3.418965 0,-2.191701 -0.571152,-4.766012 -1.269249,-5.720729 -1.162257,-1.589445 -1.627029,-1.640126 -5.512814,-0.600824 -3.388303,0.906251 -4.868332,0.909048 -7.343633,0.01365 -4.5497,-1.645174 -6.11347,-0.304914 -6.45392,5.532118 -0.22545,3.865252 -0.53346,4.623105 -1.69729,4.17651 -1.21048,-0.4645 -1.33091,0.02388 -0.81014,3.279571 0.3363,2.103842 0.91799,4.040391 1.29238,4.303422 0.37442,0.262971 1.41723,2.441541 2.31741,4.841081 1.09064,2.9072 2.58063,4.93839 4.46574,6.08789 3.393215,2.06908 5.247941,2.16055 8.60548,0.42428 z m 23.551782,-7.17559 c 0,-1.29019 0.406109,-2.34583 0.902433,-2.34583 0.526402,0 0.902396,-3.008009 0.902396,-7.219241 0,-4.211265 -0.375994,-7.219278 -0.902396,-7.219278 -0.496324,0 -0.902433,-1.056866 -0.902433,-2.348626 v -2.348627 l 7.743262,0.318217 c 6.396112,0.262964 7.966046,0.622959 9.024072,2.069906 1.483985,2.029523 1.704248,6.453001 0.362554,7.282205 -0.562489,0.34765 -0.212826,1.46434 0.902398,2.882192 2.284333,2.904055 2.316737,5.770592 0.09618,8.513732 -1.541184,1.90387 -2.596618,2.16394 -9.926502,2.4458 l -8.201999,0.31548 z m 13.084927,-5.50425 c 0,-1.376584 -0.695846,-1.871916 -2.932806,-2.087573 -2.63625,-0.254096 -2.932843,-0.04297 -2.932843,2.087573 0,2.13068 0.296731,2.34177 2.932843,2.08761 2.23696,-0.21556 2.932806,-0.711027 2.932806,-2.08761 z m -0.848884,-7.757074 c 0.867815,-1.404107 -1.889138,-3.877428 -3.593182,-3.223533 -0.782955,0.30048 -1.423583,1.371194 -1.423583,2.379425 0,1.341897 0.590254,1.833136 2.202752,1.833136 1.211543,0 2.477823,-0.445059 2.814013,-0.989028 z m 13.334452,14.013274 c -0.298434,-0.77783 -0.08254,-1.87426 0.479542,-2.43648 0.586637,-0.58664 1.022215,-4.021666 1.022215,-8.061034 0,-5.526968 -0.279337,-7.038785 -1.300356,-7.038785 -0.715184,0 -1.551313,0.406075 -1.858068,0.902397 -0.30662,0.496322 -1.548961,0.902431 -2.760467,0.902431 -1.915845,0 -2.202786,-0.41143 -2.202786,-3.158423 v -3.158458 h 11.280133 11.2801 v 3.158458 c 0,2.746993 -0.28684,3.158423 -2.202752,3.158423 -1.211543,0 -2.453745,-0.406109 -2.760501,-0.902431 -0.30662,-0.496322 -1.142883,-0.902397 -1.858068,-0.902397 -1.021053,0 -1.300356,1.511817 -1.300356,7.038785 0,4.039368 0.435579,7.474394 1.022215,8.061034 2.064925,2.06489 0.126196,3.85076 -4.180638,3.85076 -2.906033,0 -4.277159,-0.41611 -4.660213,-1.41428 z m 21.533515,-0.0952 c -7.462015,-3.6775 -7.84541,-15.688845 -0.642877,-20.140256 3.031649,-1.873657 9.213683,-2.342216 12.646634,-0.958503 0.996804,0.401778 2.2800015,0.348673 2.8661621,-0.118692 0.5837026,-0.465317 2.7970613,-0.719685 4.9185381,-0.565285 l 3.85727045,0.280699 2.81796865,6.533322 c 1.5498815,3.593319 3.0408245,6.756176 3.3131998,7.028587 0.2725129,0.272513 1.8111047,-2.769128 3.4194089,-6.758938 l 2.924143,-7.25417 h 4.438928 c 4.622321,0 6.633051,1.719834 4.502129,3.850791 -0.588275,0.58824 -1.022247,4.038515 -1.022247,8.127166 0,6.194709 0.196112,7.067199 1.530472,6.810199 2.124305,-0.40907 7.70854,-13.381005 6.425784,-14.926655 -1.852033,-2.231572 -0.08322,-3.861501 4.190289,-3.861501 4.702098,0 4.552982,-0.172239 9.370189,10.822181 2.086788,4.76267 3.944652,7.776715 4.907929,7.962225 1.359088,0.2616 1.549982,-0.57657 1.549982,-6.806449 0,-4.088651 -0.433975,-7.538926 -1.022213,-8.127166 -1.907079,-1.907114 -0.145296,-3.851677 3.475549,-3.836125 3.202352,0.01365 3.689977,0.41085 7.924366,6.453581 l 4.512053,6.438915 0.280699,-3.813035 c 0.154504,-2.097191 -0.195432,-4.387017 -0.777737,-5.088491 -1.971405,-2.375366 -0.300138,-4.005636 4.106627,-4.005636 4.306729,0 6.245598,1.785865 4.180671,3.850791 -1.467888,1.467887 -1.372286,15.104385 0.10573,15.084915 1.79289,-0.0239 7.181487,-13.561229 5.97612,-15.013598 -1.961719,-2.363735 -0.173601,-3.922108 4.500628,-3.922108 h 4.442101 l 3.809589,8.79849 c 2.095281,4.839171 4.335892,9.222236 4.979147,9.740146 0.643252,0.51794 1.308129,1.73617 1.477504,2.70722 0.268761,1.54091 -0.294682,1.80026 -4.429686,2.03833 -4.509632,0.25955 -4.737634,0.16541 -4.737634,-1.95524 0,-1.22539 0.507611,-2.43281 1.128011,-2.68312 0.620403,-0.25034 -1.339678,-0.48724 -4.355774,-0.5264 l -5.483755,-0.0713 0.398468,2.7149 0.398471,2.71493 -7.498647,-0.23329 -7.498646,-0.23329 -4.787397,-6.678277 -4.787432,-6.678276 v 4.467373 c 0,2.457052 0.459999,4.92737 1.022215,5.48959 0.56225,0.56225 0.778045,1.65868 0.479542,2.43652 -0.440217,1.14714 -2.166906,1.41423 -9.143924,1.41423 -8.493916,0 -8.601183,-0.0273 -8.601183,-2.18085 0,-1.19943 0.507611,-2.38563 1.128014,-2.63598 0.620403,-0.25034 -1.714582,-0.45515 -5.188868,-0.45515 -3.474252,0 -5.809234,0.20464 -5.188834,0.45515 0.620403,0.25035 1.128014,1.43655 1.128014,2.63598 0,2.15364 -0.107437,2.18085 -8.601215,2.18085 -6.976983,0 -8.703676,-0.26705 -9.143889,-1.41427 -0.298434,-0.77787 -0.08254,-1.8743 0.479507,-2.43652 0.56225,-0.56221 1.015426,-3.072949 1.00707,-5.579387 l -0.01365,-4.557177 -2.930385,6.76808 c -4.0286572,9.304664 -5.8055512,9.530044 -9.2625124,1.174844 -3.3191001,-8.021949 -3.5813471,-8.237879 -3.5746294,-2.943041 0.00273,2.458416 0.3103722,4.471091 0.68251127,4.472621 0.3722423,0.002 0.67681476,1.01799 0.67681476,2.25883 0,2.07451 -0.32912844,2.25602 -4.08916193,2.25602 -2.7718914,0 -4.2537301,-0.42889 -4.6000141,-1.33129 -0.4503129,-1.17344 -0.8161073,-1.17344 -3.0852982,0 -3.343693,1.72908 -7.778562,1.66039 -11.509412,-0.17837 z m 9.903939,-3.98848 c 1.332415,-0.71307 2.115335,-0.71307 2.828406,0 0.542298,0.54229 1.5138956,0.98599 2.1591297,0.98599 1.4354837,0 1.6902615,-14.012426 0.2708064,-14.889721 -0.4963213,-0.30662 -0.9023959,0.278311 -0.9023959,1.300355 0,1.358166 -0.5809747,1.858069 -2.1594712,1.858069 -1.187698,0 -2.393204,-0.609147 -2.678917,-1.35363 -0.80011,-2.085083 -4.919083,-1.604655 -7.385153,0.861401 -1.396227,1.396229 -2.214994,3.246044 -2.214994,5.004248 0,1.758238 0.818767,3.608053 2.214994,5.004282 2.391069,2.391056 4.94959,2.790716 7.867698,1.229006 z M 36.357383,93.426962 C 34.876126,89.904074 34.148969,89.93593 32.61205,93.591016 l -1.164098,2.768583 h 3.07128 3.071316 z m 50.050356,2.436793 c 0,-0.272854 -0.657304,-1.767072 -1.460656,-3.320635 l -1.46069,-2.824587 -1.214578,2.192588 c -1.885148,3.403106 -1.549368,4.448649 1.4287,4.448649 1.488966,0 2.707224,-0.223059 2.707224,-0.496015 z m 13.443969,8.362675 c -1.971508,-1.3244 -3.539636,-3.41866 -4.392065,-5.86565 -3.508087,-10.070263 6.133727,-18.328605 16.983267,-14.546436 2.30718,0.804272 2.84187,1.48344 2.84187,3.609622 0,2.160732 -0.37783,2.618957 -2.15947,2.618957 -1.1877,0 -2.3932,-0.609147 -2.67891,-1.35363 -0.75608,-1.970348 -5.65746,-1.686648 -7.79531,0.451199 -2.783592,2.78359 -2.46053,8.377339 0.62391,10.803558 3.03888,2.39037 6.04372,2.08607 6.43251,-0.651439 0.23499,-1.653667 -0.14189,-2.03041 -2.03041,-2.03041 -1.87178,0 -2.31879,-0.43493 -2.31879,-2.256027 0,-2.132969 0.27081,-2.256026 4.96322,-2.256026 h 4.96325 v 5.460494 c 0,5.377958 -0.0474,5.480238 -3.12943,6.768078 -4.49343,1.87748 -8.77905,1.61543 -12.303642,-0.75229 z m 16.651162,0.67842 c -0.3056,-0.79592 -0.0955,-1.90712 0.46692,-2.46937 0.58204,-0.58203 1.02222,-3.975586 1.02222,-7.880538 0,-3.904919 -0.44018,-7.298474 -1.02222,-7.880506 -0.56225,-0.562251 -0.77804,-1.658681 -0.47954,-2.43652 0.44022,-1.147216 2.16691,-1.41427 9.14393,-1.41427 h 8.60118 v 3.158422 c 0,2.767389 -0.27934,3.158424 -2.25603,3.158424 -1.2408,0 -2.25599,-0.406076 -2.25599,-0.902397 0,-0.496322 -1.21826,-0.902397 -2.70723,-0.902397 -2.2861,0 -2.70722,0.350924 -2.70722,2.256026 0,2.072191 0.33083,2.255993 4.06082,2.255993 3.72995,0 4.06085,0.183835 4.06085,2.256026 0,2.072225 -0.33083,2.256027 -4.06085,2.256027 -3.82838,0 -4.06082,0.142225 -4.06082,2.481642 0,2.155748 0.35549,2.481608 2.70722,2.481608 1.48897,0 2.70723,-0.30457 2.70723,-0.67681 0,-0.37224 1.24398,-0.676784 2.76439,-0.676784 2.57519,0 2.74505,0.200884 2.48161,2.932804 l -0.28275,2.93284 -8.81418,0.25853 c -7.41184,0.21726 -8.90255,0.0273 -9.3695,-1.18869 z m 19.53732,-0.8746 c 0,-1.24081 0.36804,-2.25603 0.81791,-2.25603 0.44987,0 0.6776,-0.71065 0.50608,-1.57921 -0.17156,-0.868565 -0.52272,-5.173419 -0.78043,-9.566338 l -0.46856,-7.987157 7.71276,0.316851 c 6.81191,0.279676 7.91424,0.565592 9.43779,2.447059 2.36537,2.921143 2.19859,6.953279 -0.39492,9.546792 -2.00415,2.004148 -2.04204,2.248387 -0.69339,4.471023 0.78459,1.29312 1.96983,2.35108 2.63389,2.35108 0.73592,0 1.09476,0.79285 0.91901,2.03045 -0.25512,1.79643 -0.8083,2.03041 -4.80043,2.03041 -4.40356,0 -4.5129,-0.0651 -4.54888,-2.70723 -0.042,-3.09891 -1.1345,-5.865647 -2.31572,-5.865647 -1.15963,0 -0.99387,3.963037 0.21624,5.173277 2.05889,2.05889 0.12653,3.8508 -4.15233,3.8508 -3.76017,0 -4.08916,-0.18145 -4.08916,-2.25603 z m 12.63372,-12.633732 c 1.50489,-1.81332 -0.30423,-4.06082 -3.26893,-4.06082 -1.78232,0 -2.14552,0.458292 -2.14552,2.707225 0,2.248898 0.3632,2.707225 2.14552,2.707225 1.18003,0 2.65105,-0.609147 3.26893,-1.35363 z m 8.12167,13.084922 c 0,-1.00267 0.60161,-1.80479 1.3536,-1.80479 0.75202,0 1.35363,0.80212 1.35363,1.80479 0,1.00268 -0.60161,1.80483 -1.35363,1.80483 -0.75199,0 -1.3536,-0.80215 -1.3536,-1.80483 z m 6.6454,0.74936 c -4.16522,-2.0168 -5.06205,-7.829205 -1.72317,-11.168053 3.1515,-3.151534 10.41869,-2.94587 10.41869,0.294682 0,1.126445 0.42518,1.01495 2.08859,-0.547754 3.51147,-3.298842 8.60825,-2.354493 11.32671,2.098726 0.97036,1.58958 1.03471,1.455029 0.53959,-1.128014 -0.54499,-2.843243 -0.46858,-2.932841 2.50098,-2.932841 2.79418,0 3.22479,0.376334 4.9046,4.286437 l 1.8415,4.286437 1.90307,-4.286437 c 1.61266,-3.632303 2.28669,-4.286437 4.41677,-4.286437 h 2.5137 v 7.219278 7.219276 h -2.49229 c -2.40411,0 -2.47568,-0.13574 -2.02301,-3.83524 l 0.46929,-3.835234 -1.7603,3.609624 c -0.96816,1.98528 -2.28806,3.60962 -2.93314,3.60962 -0.64505,0 -1.96199,-1.62434 -2.92653,-3.60962 -1.29339,-2.662207 -1.84774,-3.183733 -2.11204,-1.98706 -0.19711,0.8924 0.14529,2.22939 0.76081,2.97107 1.48011,1.78341 -0.0503,3.33032 -2.89644,2.92762 -1.83087,-0.25887 -2.10402,-0.7513 -1.92027,-3.46043 0.17785,-2.62162 0.0738,-2.82974 -0.61201,-1.22457 -1.05942,2.47959 -4.42055,4.83422 -6.9006,4.83422 -3.27781,0 -6.68898,-3.37258 -6.68898,-6.613267 0,-2.343715 -0.5144,-3.100373 -2.79379,-4.10932 -2.54572,-1.126854 -2.96077,-1.069657 -4.67433,0.643868 -1.63661,1.636613 -1.73825,2.192724 -0.78374,4.287669 0.95588,2.09794 1.48931,2.34344 4.1527,1.91124 3.53922,-0.57433 5.13114,1.45919 2.32007,2.96364 -2.11084,1.12968 -4.39051,1.08381 -6.91643,-0.13916 z m 18.65441,-4.41948 c 0.77655,-1.451041 0.67876,-2.352995 -0.44027,-4.060857 -1.63549,-2.496104 -1.77652,-2.538806 -4.16348,-1.261337 -1.70455,0.912254 -2.46121,5.268574 -1.14387,6.585914 1.29132,1.29132 4.79213,0.5216 5.74762,-1.26372 z"
       id="path4726"
       inkscape:connector-curvature="0" />
  </g>
</svg>
