<?xml version="1.0" encoding="UTF-8" standalone="no"?>
<!-- Created with Inkscape (http://www.inkscape.org/) -->

<svg
   xmlns:dc="http://purl.org/dc/elements/1.1/"
   xmlns:cc="http://creativecommons.org/ns#"
   xmlns:rdf="http://www.w3.org/1999/02/22-rdf-syntax-ns#"
   xmlns:svg="http://www.w3.org/2000/svg"
   xmlns="http://www.w3.org/2000/svg"
   xmlns:sodipodi="http://sodipodi.sourceforge.net/DTD/sodipodi-0.dtd"
   xmlns:inkscape="http://www.inkscape.org/namespaces/inkscape"
   width="319.76157mm"
   height="79.375mm"
   viewBox="0 0 1133.0135 281.24999"
   id="svg2"
   version="1.1"
   inkscape:version="0.91 r13725"
   sodipodi:docname="ccn color.svg">
  <defs
     id="defs4" />
  <sodipodi:namedview
     id="base"
     pagecolor="#ffffff"
     bordercolor="#666666"
     borderopacity="1.0"
     inkscape:pageopacity="0.0"
     inkscape:pageshadow="2"
     inkscape:zoom="0.11313708"
     inkscape:cx="165.68273"
     inkscape:cy="-268.69766"
     inkscape:document-units="px"
     inkscape:current-layer="layer1"
     showgrid="false"
     fit-margin-top="0"
     fit-margin-left="0"
     fit-margin-right="0"
     fit-margin-bottom="0"
     inkscape:window-width="1025"
     inkscape:window-height="1047"
     inkscape:window-x="-4"
     inkscape:window-y="24"
     inkscape:window-maximized="0"
     borderlayer="false" />
  <metadata
     id="metadata7">
    <rdf:RDF>
      <cc:Work
         rdf:about="">
        <dc:format>image/svg+xml</dc:format>
        <dc:type
           rdf:resource="http://purl.org/dc/dcmitype/StillImage" />
        <dc:title></dc:title>
      </cc:Work>
    </rdf:RDF>
  </metadata>
  <g
     inkscape:label="Layer 1"
     inkscape:groupmode="layer"
     id="layer1"
     transform="translate(186.51597,-1582.1674)">
    <path
       style="opacity:1;fill:#ffffff;fill-opacity:1;stroke:#3c3b40;stroke-width:1.17059314;stroke-linecap:square;stroke-linejoin:round;stroke-miterlimit:4;stroke-dasharray:none;stroke-opacity:1"
       d=""
       id="path4797"
       inkscape:connector-curvature="0"
       transform="translate(697.33569,111.27954)" />
    <path
       style="opacity:1;fill:#ffffff;fill-opacity:1;stroke:#3c3b40;stroke-width:1.17059314;stroke-linecap:square;stroke-linejoin:round;stroke-miterlimit:4;stroke-dasharray:none;stroke-opacity:1"
       d=""
       id="path4799"
       inkscape:connector-curvature="0"
       transform="translate(697.33569,111.27954)" />
    <g
       transform="matrix(3.5433075,0,0,3.5433075,-625.57599,1528.568)"
       id="layer1-7"
       inkscape:label="Layer 1">
      <path
         inkscape:connector-curvature="0"
         id="path5108"
         d="m 263.64401,87.922117 c -4.0318,-1.259501 -9.47848,-4.859893 -12.24952,-8.097226 -2.9479,-3.443977 -5.79809,-9.278493 -6.78847,-13.896373 -1.24674,-5.813453 -0.45891,-20.355447 1.35438,-24.999045 2.98712,-7.649623 9.18974,-13.917464 16.46708,-16.640268 3.56883,-1.335262 5.33177,-1.449944 22.28739,-1.449944 l 18.41201,0 0,7.305656 0,7.305683 -16.8726,0.01578 c -18.93612,0.01841 -20.94619,0.425777 -24.36518,4.953379 -2.68883,3.560657 -3.459,7.174355 -3.1875,14.956568 0.22037,6.320671 0.43976,7.29306 2.33071,10.335532 3.68491,5.928923 4.85605,6.233786 24.87408,6.475535 l 17.22049,0.208011 0,7.271654 0,7.271654 -18.26417,-0.04655 c -13.10954,-0.0334 -19.09802,-0.307019 -21.2187,-0.969496 z m 66.12146,0.0079 c -7.15447,-2.236228 -13.71876,-8.062803 -17.28875,-15.346002 -2.0318,-4.14511 -2.04416,-4.246196 -2.04416,-16.708982 l 0,-12.538637 2.31502,-4.702504 c 2.84193,-5.772719 7.78079,-10.83694 13.13073,-13.46397 l 4.03603,-1.98183 19.26077,-0.214058 19.26078,-0.214059 0.2209,7.058753 c 0.12149,3.882297 0.0905,7.187845 -0.0689,7.34568 -0.15936,0.157783 -7.7622,0.286928 -16.89498,0.286928 -18.28894,0 -19.45438,0.209325 -23.32855,4.187922 -3.22466,3.311702 -4.0218,6.236442 -3.97873,14.598086 0.0423,8.193474 1.19321,11.497208 5.17178,14.844963 3.36619,2.832437 6.25064,3.237228 23.09734,3.241383 l 15.78272,0.0026 0.2201,7.018755 c 0.12097,3.860312 0.0897,7.147847 -0.0697,7.305656 -0.15936,0.157783 -8.30006,0.265996 -18.09024,0.240356 -12.65867,-0.03313 -18.64724,-0.311226 -20.73231,-0.962843 z m 48.64757,-22.47339 c 0.26366,-27.361368 0.45097,-28.287658 7.19332,-35.570173 7.08258,-7.650044 14.80591,-10.274549 28.46227,-9.671898 6.99972,0.308912 8.44903,0.600284 12.56453,2.526154 6.06022,2.835935 9.4063,5.54559 12.37906,10.024621 4.3923,6.617829 4.66184,8.565605 4.66184,33.687299 l 0,22.486487 -7.30568,0 -7.30566,0 0,-21.697347 c 0,-20.400257 -0.0847,-21.872186 -1.41602,-24.622444 -2.74239,-5.665032 -9.67768,-8.470409 -19.16594,-7.752813 -7.94768,0.601074 -13.2334,4.185845 -14.87211,10.086236 -0.41978,1.511532 -0.72025,11.195421 -0.72251,23.28697 l -0.003,20.699387 -7.34776,0 -7.34773,0 z"
         style="fill:#3c3b40;stroke-width:0.69577807"
         sodipodi:nodetypes="csssssccccscsscccscccsscsscccscsccsccccscccssssscccscssccccc" />
    </g>
    <g
       inkscape:label="Layer 1"
       id="g4964"
       transform="matrix(3.5433075,0,0,3.5433075,-625.57599,1528.568)"
       style="fill:#3c3b40;fill-opacity:1">
      <path
         style="fill:#3c3b40;fill-opacity:1;stroke-width:0.69577807"
         d="M 147.34046,91.298536 C 136.63043,86.058124 129.14661,77.467248 125.2823,65.977457 c -1.91372,-5.690067 -1.80664,-16.885909 0.22326,-23.337462 3.19003,-10.139066 11.05615,-19.243104 20.81822,-24.094344 4.92014,-2.445081 6.03809,-2.749549 8.54194,-2.326533 3.6918,0.623715 7.33069,3.987985 8.30779,7.680785 0.6051,2.28685 0.3989,4.363403 -1.19003,11.98515 -1.05703,5.070507 -1.81873,9.219062 -1.69264,9.219062 0.12597,0 1.4692,-0.782734 2.9847,-1.73945 1.5155,-0.956689 2.99651,-1.735557 3.29111,-1.730824 0.29464,0.0053 1.2448,1.103296 2.11153,2.441241 l 1.57583,2.432642 -6.34849,4.168646 c -6.59464,4.330269 -8.38521,4.855238 -10.79739,3.165674 -1.50512,-1.054225 -8.6248,-11.477458 -8.60997,-12.605026 0.005,-0.360508 1.10787,-1.367582 2.45139,-2.237964 l 2.44279,-1.582509 1.89721,3.126018 c 1.04347,1.719306 2.06495,3.135906 2.26997,3.148003 0.61248,0.03603 3.63171,-16.186274 3.35843,-18.044981 -0.14464,-0.983092 -1.07114,-2.171932 -2.16917,-2.783104 -1.82142,-1.01378 -2.14824,-0.947249 -6.56221,1.335736 -22.19832,11.481456 -24.57837,43.215352 -4.35765,58.101023 2.15818,1.58874 5.45968,3.460517 7.33666,4.159495 1.87701,0.698951 3.65938,1.491967 3.96085,1.762222 0.61117,0.54798 -0.12964,6.284803 -0.81098,6.280989 -0.23798,-0.0014 -3.37684,-1.44287 -6.97494,-3.20341 z m 25.42958,1.717413 c -5.3481,-1.211114 -8.79878,-5.115133 -8.79878,-9.954803 0,-1.356984 0.77547,-6.128492 1.72328,-10.603368 0.94782,-4.474876 1.63854,-8.220849 1.53498,-8.324433 -0.10361,-0.103611 -1.5651,0.723223 -3.2479,1.837274 l -3.05962,2.025536 -1.60636,-2.36398 c -0.8835,-1.300208 -1.60147,-2.615433 -1.59544,-2.922741 0.0158,-0.848976 12.07677,-8.560187 13.38797,-8.560187 2.63715,0 4.5981,1.813397 8.40285,7.770616 2.21201,3.463384 3.92558,6.364246 3.80798,6.446319 -5.39859,3.767957 -4.824,3.808139 -7.70303,-0.538381 -2.05347,-3.100194 -1.77603,-3.608938 -4.03569,7.400221 -1.20491,5.870307 -1.37361,7.879986 -0.77222,9.199865 1.9492,4.278068 8.73157,2.087386 16.19419,-5.23063 7.26592,-7.125179 10.34308,-14.492897 10.3581,-24.800791 0.0237,-15.338691 -9.25023,-27.880552 -24.53501,-33.185497 -1.18529,-0.411366 -1.21327,-1.608674 -0.1207,-5.155577 0.40916,-1.328136 23.12322,-1.194863 28.34924,0.166461 6.6993,1.744945 12.2739,5.027615 17.60545,10.367194 7.74259,7.754232 11.42313,16.719053 11.40044,27.7685 -0.035,17.020182 -10.35084,31.51818 -26.39705,37.098483 -4.43964,1.543956 -6.36154,1.770269 -16.61579,1.956584 -6.3775,0.115971 -12.80215,-0.06259 -14.27702,-0.39656 z m 21.05855,-9.395095 c 11.25633,-6.482635 17.45558,-16.949337 17.45558,-29.471607 0,-12.4722 -6.43185,-23.32355 -17.23842,-29.083382 -2.29768,-1.224657 -4.40232,-2.22663 -4.67697,-2.22663 -0.27467,0 1.22298,1.860337 3.32806,4.134091 7.51259,8.114504 10.93377,16.726707 10.93377,27.523806 0,10.602737 -3.37427,19.275502 -10.55725,27.134818 -1.92387,2.105006 -3.25921,3.82731 -2.96742,3.82731 0.2918,0 1.96698,-0.827281 3.72265,-1.838406 z m 13.1347,-0.177505 c 3.85385,-1.970865 9.11953,-6.883798 11.61271,-10.834757 6.60281,-10.463494 7.35473,-21.843495 2.1621,-32.722773 -2.83094,-5.931185 -6.13052,-9.828787 -11.12997,-13.147247 -5.8721,-3.897654 -6.62693,-3.798698 -2.83344,0.371447 6.37232,7.005001 9.82469,15.087948 10.50881,24.604009 0.76251,10.60634 -2.80541,20.933615 -9.96593,28.846235 -2.09204,2.311781 -3.60841,4.203227 -3.36971,4.203227 0.23877,0 1.59563,-0.594052 3.01543,-1.320141 z"
         id="path4966"
         inkscape:connector-curvature="0"
         sodipodi:nodetypes="csssssssccccsscscscccssccccccsscscscsscsscsccccssscccssssssssssssssssss" />
    </g>
  </g>
</svg>
