<?xml version="1.0" encoding="UTF-8" standalone="no"?>
<!-- Created with Inkscape (http://www.inkscape.org/) -->

<svg
   xmlns:dc="http://purl.org/dc/elements/1.1/"
   xmlns:cc="http://creativecommons.org/ns#"
   xmlns:rdf="http://www.w3.org/1999/02/22-rdf-syntax-ns#"
   xmlns:svg="http://www.w3.org/2000/svg"
   xmlns="http://www.w3.org/2000/svg"
   xmlns:sodipodi="http://sodipodi.sourceforge.net/DTD/sodipodi-0.dtd"
   xmlns:inkscape="http://www.inkscape.org/namespaces/inkscape"
   width="321.12149mm"
   height="79.375mm"
   viewBox="0 0 321.12146 79.375004"
   version="1.1"
   id="svg8"
   inkscape:version="0.92.1 r15371"
   sodipodi:docname="44.svg">
  <defs
     id="defs2" />
  <sodipodi:namedview
     id="base"
     pagecolor="#ffffff"
     bordercolor="#666666"
     borderopacity="1.0"
     inkscape:pageopacity="0.0"
     inkscape:pageshadow="2"
     inkscape:zoom="0.7"
     inkscape:cx="23.199007"
     inkscape:cy="24.69289"
     inkscape:document-units="mm"
     inkscape:current-layer="layer1"
     showgrid="false"
     inkscape:window-width="958"
     inkscape:window-height="1008"
     inkscape:window-x="-7"
     inkscape:window-y="0"
     inkscape:window-maximized="0"
     showguides="false" />
  <metadata
     id="metadata5">
    <rdf:RDF>
      <cc:Work
         rdf:about="">
        <dc:format>image/svg+xml</dc:format>
        <dc:type
           rdf:resource="http://purl.org/dc/dcmitype/StillImage" />
        <dc:title></dc:title>
      </cc:Work>
    </rdf:RDF>
  </metadata>
  <g
     inkscape:label="Layer 1"
     inkscape:groupmode="layer"
     id="layer1"
     transform="translate(130.17821,-58.476571)">
    <path
       style="fill:#000000;stroke-width:0.26458335"
       d=""
       id="path4498"
       inkscape:connector-curvature="0" />
    <path
       style="fill:#000000;stroke-width:0.26458335"
       d=""
       id="path4496"
       inkscape:connector-curvature="0" />
    <path
       style="fill:#3c3b40;stroke-width:0.60805565;fill-opacity:1"
       d="m -102.19784,137.13855 c -20.32558,-7.49373 -31.90374,-28.5249 -26.76498,-48.617248 1.87575,-7.334092 5.00529,-12.670611 10.9508,-18.673419 4.1106,-4.150208 6.22965,-5.750388 10.26657,-7.75271 3.52054,-1.746195 5.86092,-2.520018 7.60069,-2.513083 5.442983,0.02171 10.100667,4.78942 10.088517,10.326939 -0.0028,1.504938 -0.780434,6.361776 -1.726955,10.792989 -0.94652,4.431201 -1.604282,8.056736 -1.461678,8.056736 0.142603,0 1.45239,-0.820874 2.910615,-1.824171 1.45824,-1.003282 2.907711,-1.824156 3.221052,-1.824156 0.577432,0 4.028874,4.839148 3.665128,5.138746 -0.108675,0.08951 -2.931731,1.97977 -6.273481,4.200599 -6.148541,4.086144 -8.204721,4.736139 -10.721398,3.389253 -1.11368,-0.596024 -9.04505,-12.177694 -9.04505,-13.207912 0,-0.642118 4.80325,-3.526995 5.3342,-3.203788 0.24328,0.148101 1.28837,1.611091 2.32241,3.251092 l 1.880087,2.981811 1.362052,-6.29137 c 0.749129,-3.460252 1.510224,-7.818254 1.691322,-9.684471 0.306983,-3.163304 0.215688,-3.48248 -1.347943,-4.712431 -2.182238,-1.716552 -2.663408,-1.676902 -7.155098,0.589512 -7.738,3.904468 -14.78952,12.868255 -17.17521,21.832918 -1.13361,4.2597 -1.13361,13.318754 0,17.578474 2.51012,9.43223 9.60059,18.17812 18.00125,22.20402 2.46262,1.18018 4.811082,2.14578 5.218819,2.14578 1.223199,0 1.517328,1.07179 1.085092,3.95414 -0.441524,2.94428 -0.681738,3.05816 -3.926811,1.86175 z m 19.768307,-0.66579 c -3.320115,-1.15167 -6.743788,-4.91787 -7.26271,-7.98935 -0.286588,-1.69635 0.150623,-5.12596 1.450022,-11.37428 1.023169,-4.92011 1.860323,-9.08367 1.860323,-9.25236 0,-0.16868 -1.162913,0.48075 -2.584235,1.44318 -1.421324,0.96245 -2.900227,1.93334 -3.286455,2.15754 -0.864077,0.5016 -4.208408,-4.97309 -3.463255,-5.66936 0.284432,-0.26576 3.078112,-2.15391 6.208207,-4.19587 7.847585,-5.119516 10.01994,-4.959703 13.710059,1.00867 0.881823,1.42623 2.555031,4.08093 3.71824,5.89933 l 2.114945,3.30619 -2.711772,1.86576 -2.711772,1.86573 -2.12966,-3.16237 c -1.376205,-2.04355 -2.233698,-2.85463 -2.423761,-2.29258 -0.161758,0.47839 -1.036773,4.47656 -1.94446,8.88482 -1.53709,7.46498 -1.583478,8.11707 -0.675903,9.5022 1.640987,2.50447 3.771845,2.58315 8.293579,0.30626 7.438312,-3.74551 13.762313,-11.46637 16.840086,-20.55973 1.703964,-5.03444 1.586113,-15.411096 -0.234816,-20.673895 -3.654923,-10.563335 -10.839095,-18.148197 -20.504269,-21.647874 -2.009878,-0.727759 -3.648947,-1.55881 -3.642379,-1.846765 0.06075,-2.65897 1.102035,-5.110654 2.294887,-5.403401 0.737809,-0.18107 6.677174,-0.222341 13.198567,-0.09176 9.971213,0.199717 12.487186,0.441594 15.818746,1.520781 11.742893,3.803855 21.52613,13.563229 25.272027,25.210359 7.113186,22.117075 -5.303368,45.249285 -27.309193,50.877435 -5.772771,1.47642 -25.930942,1.68633 -29.895048,0.31131 z m 25.609835,-11.00072 c 8.866501,-5.88524 14.778069,-17.03831 14.81531,-27.951219 0.01409,-4.069398 -1.972948,-11.707922 -4.070146,-15.64801 -2.087332,-3.921567 -9.343179,-11.348363 -12.813551,-13.115447 -5.745779,-2.925684 -5.939168,-2.735889 -1.784577,1.751452 4.444844,4.800838 8.300077,11.66496 9.90856,17.641876 1.294691,4.810887 1.462341,14.177568 0.337387,18.849738 -1.324023,5.49897 -5.749387,13.90566 -9.525305,18.09483 -2.88048,3.19574 -3.168153,3.70592 -1.795247,3.18394 0.899174,-0.34187 3.116578,-1.60509 4.927569,-2.80716 z m 11.694785,0.80464 c 9.124432,-5.45942 15.879126,-17.53902 15.879126,-28.397089 0,-4.288878 -1.615102,-10.880113 -3.724901,-15.201397 -2.35506,-4.823588 -9.058903,-11.702665 -13.887593,-14.250606 l -3.344303,-1.764688 2.761487,2.991185 c 5.843882,6.329963 8.844568,11.965544 10.619334,19.944134 2.871134,12.907481 -1.954046,28.690981 -11.372423,37.199901 -2.858999,2.58294 -1.825764,2.4074 3.069273,-0.52144 z m 56.943999,6.02738 C 5.3201026,130.72362 -1.6666451,125.45097 -5.1594263,119.491 -8.281676,114.16329 -9.2414685,110.32597 -9.5763301,101.83196 -10.087601,88.863299 -7.8537932,81.621306 -1.1229037,74.425956 3.0857236,69.92693 8.0734757,67.167389 13.643254,66.256403 15.649837,65.928206 24.611057,65.658096 33.557075,65.656165 l 16.265488,-0.0042 v 7.904715 7.904729 h -17.35381 c -16.127022,0 -17.521542,0.08556 -19.726583,1.210499 -5.2026281,2.654179 -7.3196953,7.584314 -7.2809809,16.955613 0.038311,9.267929 2.0526498,13.764909 7.4572179,16.647939 2.435349,1.29912 3.314981,1.36886 19.726585,1.56397 l 17.177571,0.20423 v 7.55124 7.55125 l -17.481599,-0.0517 c -11.479343,-0.034 -18.525473,-0.30556 -20.521878,-0.79107 z m 66.609637,0.17854 C 69.374459,130.70774 60.75429,122.4341 57.71831,112.60475 56.157566,107.55166 55.997592,92.810195 57.443268,87.259877 60.26601,76.42264 69.452339,67.880912 80.032524,66.255698 82.372031,65.896336 91.064428,65.692517 99.987152,65.787816 l 15.809448,0.168848 v 7.600692 7.600705 l -17.937642,0.304024 c -12.307478,0.208597 -18.335808,0.53258 -19.206197,1.032206 -2.15718,1.238267 -5.536042,5.380399 -6.409289,7.857144 -0.524484,1.487558 -0.824993,4.944089 -0.813073,9.352327 0.02104,7.777418 0.96347,10.896648 4.297207,14.222428 3.518983,3.51057 4.465299,3.66984 23.195449,3.90368 l 17.177575,0.21446 v 7.55125 7.55124 l -17.481603,-0.0667 c -9.61488,-0.0367 -18.700513,-0.30556 -20.190304,-0.5976 z m 46.912527,-23.52033 0.18424,-24.222496 2.33296,-4.718662 c 3.01882,-6.105874 7.40054,-10.522499 13.28493,-13.390772 9.49959,-4.630452 24.74723,-4.610507 34.33454,0.04496 4.94517,2.401279 10.46948,8.018846 13.03225,13.252257 l 2.07727,4.241954 0.17793,24.488679 0.17792,24.48866 h -7.32257 -7.32259 V 112.2793 c 0,-23.283264 -0.26877,-25.339318 -3.78494,-28.953648 -3.44036,-3.53641 -5.88512,-4.267298 -14.32424,-4.282395 -8.08394,-0.01452 -9.9968,0.458947 -13.37954,3.311236 -4.10088,3.457843 -4.05071,3.137694 -4.38656,27.990277 l -0.30403,22.49807 -7.4809,0.17099 -7.48091,0.17099 z"
       id="path4739"
       inkscape:connector-curvature="0" />
  </g>
</svg>
