<?xml version="1.0" encoding="UTF-8" standalone="no"?>
<!-- Created with Inkscape (http://www.inkscape.org/) -->

<svg
   xmlns:dc="http://purl.org/dc/elements/1.1/"
   xmlns:cc="http://creativecommons.org/ns#"
   xmlns:rdf="http://www.w3.org/1999/02/22-rdf-syntax-ns#"
   xmlns:svg="http://www.w3.org/2000/svg"
   xmlns="http://www.w3.org/2000/svg"
   xmlns:sodipodi="http://sodipodi.sourceforge.net/DTD/sodipodi-0.dtd"
   xmlns:inkscape="http://www.inkscape.org/namespaces/inkscape"
   width="576.71667mm"
   height="79.375mm"
   viewBox="0 0 576.71665 79.375004"
   version="1.1"
   id="svg8"
   inkscape:version="0.92.1 r15371"
   sodipodi:docname="11.svg">
  <defs
     id="defs2" />
  <sodipodi:namedview
     id="base"
     pagecolor="#ffffff"
     bordercolor="#666666"
     borderopacity="1.0"
     inkscape:pageopacity="0.0"
     inkscape:pageshadow="2"
     inkscape:zoom="0.12374369"
     inkscape:cx="-2777.3881"
     inkscape:cy="-142.54791"
     inkscape:document-units="mm"
     inkscape:current-layer="layer1"
     showgrid="false"
     inkscape:window-width="1920"
     inkscape:window-height="1017"
     inkscape:window-x="-8"
     inkscape:window-y="-8"
     inkscape:window-maximized="1"
     showguides="false" />
  <metadata
     id="metadata5">
    <rdf:RDF>
      <cc:Work
         rdf:about="">
        <dc:format>image/svg+xml</dc:format>
        <dc:type
           rdf:resource="http://purl.org/dc/dcmitype/StillImage" />
        <dc:title />
      </cc:Work>
    </rdf:RDF>
  </metadata>
  <g
     inkscape:label="Layer 1"
     inkscape:groupmode="layer"
     id="layer1"
     transform="translate(-212.09793,23.174731)">
    <path
       style="fill:#000000;stroke-width:0.26458335"
       d=""
       id="path4498"
       inkscape:connector-curvature="0" />
    <path
       style="fill:#000000;stroke-width:0.26458335"
       d=""
       id="path4496"
       inkscape:connector-curvature="0" />
    <path
       style="fill:#3c3b40;stroke-width:0.6352461;fill-opacity:1"
       d="m 317.82613,54.196937 c -1.28015,-2.566141 -1.26877,-4.109833 0.0341,-4.609745 1.2633,-0.484784 2.77809,0.669586 2.77809,2.117085 0,0.586115 0.29522,1.360893 0.65606,1.721721 0.93238,0.932378 0.0607,2.774275 -1.31276,2.774275 -0.66217,0 -1.58288,-0.855763 -2.15539,-2.003336 z m -19.00857,0.563474 c -1.39379,-1.019171 -0.7688,-3.006865 0.94544,-3.006865 1.59268,0 2.24326,1.752571 1.08173,2.914069 -0.74894,0.74897 -1.10735,0.765393 -2.02717,0.09292 z m 12.60959,-0.278772 c -10.67946,-0.349047 -11.41976,-1.695044 -1.27048,-2.309968 l 5.71721,-0.346394 -5.08197,0.827771 -5.08198,0.827764 5.87604,0.08931 c 3.43436,0.0521 5.87601,0.353201 5.87601,0.724481 0,0.349383 -0.0716,0.576463 -0.1587,0.504627 -0.0874,-0.07179 -2.73156,-0.214643 -5.87604,-0.317499 z m 11.11681,-1.314696 c 0,-0.299499 1.71184,-1.36273 3.80408,-2.362734 4.5197,-2.160218 4.54174,-2.780092 0.0459,-1.286754 -1.77112,0.588275 -3.52659,0.967466 -3.90101,0.842647 -0.37445,-0.124825 2.21152,-1.113098 5.74658,-2.196186 3.53508,-1.083089 6.33977,-1.706387 6.23269,-1.385109 -0.27164,0.814874 -11.92808,7.057534 -11.92808,6.388136 z m -30.94209,-5.098207 c -2.868,-1.991286 -5.22636,-3.841352 -5.24077,-4.111247 -0.0144,-0.269906 2.33219,1.136358 5.2146,3.125029 6.03441,4.163294 6.69034,4.683948 5.84428,4.638885 -0.33193,-0.01777 -2.95005,-1.661379 -5.81811,-3.652667 z m 5.53225,0.508579 c -0.71298,-1.39754 -1.15338,-2.540986 -0.97869,-2.540986 0.17479,0 0.90095,1.143446 1.61393,2.540986 0.71298,1.397541 1.15338,2.540984 0.97869,2.540984 -0.17479,0 -0.90097,-1.143443 -1.61393,-2.540984 z m 10.48155,-0.36599 c -10.347,-3.520326 -10.08456,-3.418985 -9.74194,-3.761598 0.38823,-0.388237 17.16701,5.263713 17.94966,6.046368 0.81279,0.812792 1.27432,0.941263 -8.20772,-2.28477 z m 15.29275,-0.904503 c 1.39571,-1.572234 3.08978,-3.520966 3.76458,-4.330509 l 1.22695,-1.471905 -3.25518,1.634983 c -1.79035,0.899242 -4.15988,1.815922 -5.26558,2.037064 -1.76782,0.353566 -1.96849,0.602144 -1.66305,2.060282 0.31841,1.520225 0.29102,1.546494 -0.32938,0.315672 -0.57529,-1.14129 -1.4142,-1.393083 -5.59652,-1.679744 -3.13734,-0.215027 -6.37778,-0.926118 -8.94404,-1.962674 -2.21332,-0.894001 -4.30523,-1.451787 -4.64868,-1.239526 -0.34346,0.212267 -0.42936,0.07025 -0.19088,-0.31559 0.41945,-0.678652 -1.97001,-2.444651 -2.93705,-2.170719 -0.26204,0.07424 -0.47645,-0.187729 -0.47645,-0.582106 0,-0.394386 -0.98812,-1.81081 -2.19584,-3.147607 -2.65139,-2.934789 -4.47507,-6.384349 -5.47539,-10.356969 -0.73735,-2.928302 -0.76791,-2.954942 -3.04805,-2.65723 l -2.30324,0.300729 2.38215,-0.716409 2.38218,-0.716411 v -3.901766 c 0,-5.229823 1.36044,-9.4957456 4.42208,-13.8664059 l 2.53949,-3.6252388 -1.86113,0.9624272 c -1.02361,0.5293331 -2.23265,0.9459569 -2.68671,0.9258323 -0.45409,-0.020168 0.60369,-0.6948268 2.35063,-1.4993328 3.57338,-1.64563834 9.51498,-5.3962681 11.43443,-7.2179522 1.11675,-1.0598858 2.15448,-1.1888301 8.57581,-1.0655808 4.42009,0.084849 8.50078,0.5228457 10.33216,1.1090208 2.86633,0.9174338 3.06119,0.9045841 3.67501,-0.2423475 0.75685,-1.4141478 2.67517,-1.5891948 3.7129,-0.3388 0.80632,0.971546 0.30616,2.939125 -0.74713,2.939125 -0.37288,0 -0.007,0.7146512 0.81394,1.5881144 1.85611,1.97573979 3.17082,2.11020628 1.55276,0.1588215 -0.65186,-0.7861173 1.29609,0.985469 4.32875,3.9368579 3.03264,2.951389 5.41124,5.4688386 5.28575,5.5943328 -0.12557,0.1254967 -1.73343,-1.3634065 -3.57316,-3.3086665 -3.39955,-3.5945285 -5.18611,-4.43017703 -2.43236,-1.1377216 0.82959,0.9918795 2.08007,2.9335141 2.77886,4.3147403 0.69877,1.3812263 1.48666,2.6072009 1.75088,2.7243879 0.26422,0.11719 0.35711,0.412535 0.20648,0.656326 -0.15078,0.24379 0.0324,1.863074 0.40691,3.598408 l 0.6809,3.155154 0.84563,-2.540986 c 0.96189,-2.890302 0.75846,-1.626282 -1.1104,6.899058 -0.67863,3.095711 -1.63609,6.591264 -2.12773,7.767892 -0.53106,1.271017 -0.65154,2.289088 -0.29683,2.508312 1.15009,0.710791 0.64588,3.36912 -0.72131,3.803054 -0.7251,0.230129 -1.44041,0.296402 -1.58956,0.147249 -0.1491,-0.149146 -3.47518,2.897755 -7.39117,6.770892 -3.91601,3.873142 -5.97807,5.755699 -4.58236,4.183465 z m -8.03829,-6.828896 c 0.43236,-0.742331 0.65392,-0.824371 0.66681,-0.246926 0.041,1.835977 9.27573,-1.416635 11.44576,-4.031375 0.76806,-0.925434 0.69231,-1.00676 -0.67514,-0.724961 -2.67601,0.551467 -9.11292,1.088587 -8.75487,0.730541 0.18871,-0.188761 2.73771,-0.643459 5.66434,-1.010429 5.65208,-0.708709 6.51159,-1.124546 8.26379,-3.998082 l 1.108,-1.817091 -3.47803,-5.39138 c -1.91292,-2.965261 -3.63573,-5.86376 -3.8285,-6.441109 -0.1928,-0.57735 1.42649,1.653016 3.59832,4.956372 4.33927,6.599981 4.53077,6.622634 5.61294,0.663984 0.5707,-3.142328 0.0948,-9.765733 -0.76335,-10.623885 -0.1647,-0.164656 -1.79013,0.02041 -3.61215,0.411082 -1.82202,0.390754 -3.43664,0.586576 -3.58807,0.435159 -0.1515,-0.151426 1.3196,-0.606403 3.26892,-1.011082 1.94933,-0.404679 3.54425,-0.86983 3.54425,-1.033672 0,-1.8087986 -6.45548,-9.953541 -7.21048,-9.0973021 -0.13301,0.1508024 -0.68503,2.275227 -1.22682,4.7209249 -0.90477,4.0842802 -0.89999,4.5414332 0.0586,5.6087172 0.97235,1.082562 0.9482,1.327923 -0.35332,3.589371 -1.20844,2.099697 -1.27223,2.530959 -0.47248,3.194675 1.45429,1.206974 2.19584,4.781356 1.50843,7.270972 -0.75303,2.727269 -3.00781,4.558134 -6.29807,5.114022 -2.46837,0.417025 -2.5223,0.482798 -2.5223,3.076103 0,1.988774 -0.32691,2.854122 -1.31023,3.468213 -1.49833,0.935726 -3.4863,0.512214 -4.01073,-0.854443 -0.42629,-1.110889 0.1467,-2.834425 0.94222,-2.834425 0.312,0 0.56727,-0.571722 0.56727,-1.270491 0,-0.730106 -0.4235,-1.270493 -0.99567,-1.270493 -0.69202,0 -0.87787,0.371172 -0.6094,1.217032 0.21248,0.669367 0.0888,1.400889 -0.27484,1.625604 -0.36359,0.224728 -0.66107,1.078393 -0.66107,1.897057 0,1.098413 -0.52427,1.671239 -2.00053,2.185872 -2.79458,0.974194 -3.79015,0.819166 -1.49333,-0.232531 1.04815,-0.479941 1.54841,-0.895839 1.11168,-0.924216 -0.50842,-0.03304 -0.79406,-1.067367 -0.79406,-2.875395 v -2.823801 l -3.01741,-0.193611 c -2.76326,-0.177308 -3.03435,-0.340759 -3.21843,-1.940544 -0.14189,-1.232679 0.0852,-1.746927 0.77171,-1.746927 1.49141,0 2.28789,-2.096413 2.28789,-6.021861 v -3.564399 l -2.38215,0.315535 -2.38218,0.315537 2.38218,-0.716411 c 2.26693,-0.681754 2.38215,-0.847082 2.38215,-3.417607 0,-5.137229 -3.39549,-6.2656252 -4.93667,-1.640562 -0.50208,1.506723 -1.05566,2.596709 -1.23019,2.42219 -0.24821,-0.248225 2.88278,-10.4588212 4.78037,-15.58943833 0.58691,-1.58684917 -5.60934,3.14464223 -7.45529,5.69290543 -3.22678,4.4544579 -3.56135,5.9289359 -1.96968,8.6806609 l 1.39206,2.406642 -1.41508,-1.797677 c -1.75539,-2.229984 -2.48196,-1.400369 -2.49596,2.849887 -0.01,2.727913 0.10132,2.936477 1.4196,2.681878 1.41196,-0.272725 1.41136,-0.268175 -0.0509,0.375431 -1.27149,0.559661 -1.41717,0.942768 -1.03341,2.717713 0.57197,2.645463 3.43208,8.347141 3.93491,7.844312 0.21056,-0.210682 0.60335,-2.311606 0.87257,-4.6687 0.4664,-4.083413 0.47786,-4.025075 0.24295,1.236376 l -0.24653,5.522002 2.31639,2.033833 c 4.89802,4.300515 15.13626,7.103029 16.62313,4.55024 z M 300.98536,24.425312 c -1.20097,-1.026712 -2.03902,-2.011326 -1.86231,-2.188027 0.17671,-0.176709 1.28685,0.674957 2.46701,1.892571 2.607,2.689743 2.34544,2.81754 -0.6047,0.295456 z m -6.36691,-2.815441 c -1.68749,-2.033316 0.79103,-5.156782 2.99209,-3.770656 1.51515,0.954159 1.70096,2.424882 0.4628,3.663035 -1.27573,1.27572 -2.45495,1.312454 -3.45489,0.107633 z m 23.24765,4.419856 c 0.20024,-0.522073 0.55719,-0.829992 0.79296,-0.68427 0.56914,0.351743 0.43418,-2.350842 -0.1659,-3.321747 -0.2728,-0.441408 -1.92505,-0.761978 -3.9273,-0.761978 h -3.45636 v 2.858607 2.858608 h 3.19617 c 2.24957,0 3.30404,-0.281128 3.56041,-0.94922 z m -0.40443,-9.531952 c 0.68481,-0.82514 0.50412,-0.896111 -1.35153,-0.530853 -4.76028,0.936997 -5.48294,1.371073 -2.37861,1.428731 1.89304,0.03515 3.22109,-0.284515 3.73014,-0.897878 z m -2.18672,-1.028671 c 1.55225,-0.390862 2.82229,-0.905413 2.82229,-1.143443 0,-1.138015 -1.78163,-1.957375 -4.25615,-1.957375 -2.61156,0 -2.73156,0.08372 -2.73156,1.905738 0,2.135939 0.20047,2.193461 4.16542,1.19508 z m 9.749,-12.8240402 c 0.0521,-1.5264969 -0.35409,-1.9662585 -2.82772,-3.06045838 -3.64612,-1.61285602 -8.26861,-2.35658492 -11.68093,-1.87938322 l -2.64592,0.3700265 2.89057,2.83206032 c 2.54991,2.49829018 2.89055,2.66673948 2.89055,1.42930248 0,-1.072774 0.37359,-1.40275539 1.58812,-1.40275539 1.48224,0 1.58812,0.21173799 1.58812,3.17623129 0,3.0621054 0.0646,3.1762312 1.79501,3.1762312 1.11206,0 2.38093,0.6264579 3.33504,1.6465675 l 1.54005,1.6465699 0.73305,-3.0758724 c 0.40321,-1.6917314 0.76054,-3.878064 0.79406,-4.8585198 z m -17.7259,1.4650236 c 0,-2.5819675 0.2048,-3.17623129 1.09403,-3.17623129 0.94633,0 0.90707,-0.18698444 -0.29068,-1.38472923 -2.04158,-2.04156368 -4.16016,-0.86965048 -5.4915,3.03767592 -1.52152,4.4653915 -1.43038,4.6995158 1.82955,4.6995158 h 2.8586 z m 5.71722,1.6865693 c 0,-0.8193126 -0.62019,-2.0342192 -1.37821,-2.6997955 -1.302,-1.1432124 -1.35468,-1.1457838 -0.95288,-0.046506 0.23385,0.6399992 0.42535,1.8549082 0.42535,2.6997955 0,0.9419785 0.36856,1.5361607 0.95288,1.5361607 0.5761,0 0.95286,-0.5890178 0.95286,-1.4896619 z m 22.44442,40.5080393 c -0.21152,-0.55117 0.025,-1.411548 0.52527,-1.91195 1.22625,-1.226241 3.34908,0.191234 2.72439,1.819154 -0.52619,1.371204 -2.73488,1.434272 -3.24966,0.0928 z m -103.2719,-2.137172 c -9.74841,-3.11632 -17.45025,-11.607911 -19.5938,-21.60292 -0.4054,-1.890241 -0.59164,-7.390925 -0.44787,-13.2273893 0.21008,-8.53062709 0.45761,-10.5268468 1.6927,-13.6531627 2.93821,-7.43738 9.60682,-14.10594 17.07695,-17.076834 3.37914,-1.343899 4.79113,-1.467057 19.25155,-1.67921 13.14773,-0.192891 15.72693,-0.08199 16.37953,0.704344 0.61872,0.745517 0.56931,1.138538 -0.24562,1.953459 -0.87747,0.87747 -3.05977,1.020169 -15.60134,1.020169 -12.8062,0 -15.00828,0.150131 -18.09014,1.233315 -7.00229,2.461102 -12.92891,8.2695668 -15.55875,15.2485232 -1.61751,4.2925341 -2.33341,16.1936108 -1.34995,22.4418198 1.76025,11.183221 9.69258,19.767048 20.32189,21.990919 1.85654,0.38842 9.44725,0.704296 16.92487,0.704296 10.2676,0 13.62943,0.192746 13.85058,0.794059 0.8326,2.264061 0.0427,2.382851 -15.61375,2.348009 -13.07739,-0.0291 -15.8918,-0.206792 -18.99685,-1.199397 z m 60.75445,0.346205 c -0.206,-0.537064 -0.25154,-1.343229 -0.10108,-1.791483 0.15054,-0.448256 -2.56801,-4.191712 -6.04117,-8.318786 -3.47314,-4.127074 -6.20633,-7.612259 -6.07373,-7.744855 0.13253,-0.132604 3.07672,3.160049 6.54246,7.316995 3.68769,4.423121 6.84292,7.635556 7.60694,7.744856 1.92459,0.275334 1.81755,3.290302 -0.12653,3.566372 -0.84841,0.120479 -1.58487,-0.194643 -1.80686,-0.773099 z m 68.80201,0.490656 c -0.24765,-0.247663 -0.45029,-11.516219 -0.45029,-25.041237 0,-21.0836453 0.13589,-24.7037317 0.95288,-25.381752 0.76054,-0.6311925 1.14666,-0.6299704 1.91304,0.006 0.83209,0.6905796 0.93802,4.1113551 0.79406,25.64644 -0.16351,24.469903 -0.18583,24.852405 -1.46274,25.035176 -0.71315,0.102087 -1.49927,-0.01705 -1.74695,-0.264681 z m 19.50161,-0.479192 c -0.18487,-0.481737 -0.24735,-8.557306 -0.13878,-17.945701 0.18439,-15.96747 0.28663,-17.2633287 1.58162,-20.0664145 2.0646,-4.4690505 6.57451,-8.9319906 11.17169,-11.0553468 3.76665,-1.73975 4.39524,-1.8292038 12.85377,-1.8292038 6.98713,0 9.60989,0.2497519 12.23583,1.1651666 4.20312,1.46523 9.79873,6.4799614 12.10256,10.8462089 l 1.7067,3.2345306 v 18.104514 c 0,17.681015 -0.0298,18.104513 -1.2705,18.104513 -1.231,0 -1.28068,-0.532963 -1.5989,-17.151644 -0.27488,-14.355922 -0.50638,-17.549073 -1.42029,-19.5898445 -1.74951,-3.9066782 -4.57721,-7.0164493 -8.20969,-9.02865437 -3.33648,-1.84823123 -3.51362,-1.87331373 -13.2281,-1.87331373 -11.11873,0 -12.74905,0.4894944 -17.2757,5.1869526 -4.65509,4.830765 -4.92714,6.1510413 -4.95261,24.034369 -0.012,8.734632 -0.19496,16.524339 -0.40569,17.310456 -0.42558,1.588141 -2.60772,1.971289 -3.15182,0.553412 z m 74.20878,-0.759308 c -2.11704,-1.054974 -4.05289,-2.689176 -5.4556,-4.605534 -3.75684,-5.132439 -4.72124,-11.021227 -1.87136,-11.426787 1.17432,-0.167105 1.45227,0.18211 1.7697,2.223362 0.86674,5.573973 4.31805,9.923647 9.16046,11.544954 2.88969,0.967498 33.7456,0.97666 37.22383,0.01104 1.4893,-0.41345 3.62564,-1.791581 5.16764,-3.333595 5.30005,-5.300039 5.36718,-13.358154 0.1527,-18.331985 -3.20637,-3.058411 -7.838,-4.443522 -21.83466,-6.529759 -12.8904,-1.921342 -17.15157,-2.940888 -22.27696,-5.3300508 -4.98562,-2.3240187 -8.2784,-5.7285736 -9.49159,-9.8138378 -1.18616,-3.9942785 -1.1876,-5.7264703 -0.007,-9.6984104 1.22868,-4.137377 4.8652,-8.306918 8.87245,-10.172907 3.13175,-1.45831 3.64567,-1.494934 20.68082,-1.473796 18.78622,0.02329 20.28118,0.231665 24.44411,3.406879 4.32054,3.295452 7.74377,11.9238469 5.58653,14.0810994 -1.1021,1.102087 -2.71264,0.177981 -2.71862,-1.5598843 -0.0144,-4.2722751 -2.96268,-8.7887581 -7.22286,-11.0656471 -2.45106,-1.309976 -3.59062,-1.413761 -17.68247,-1.610387 -9.79267,-0.136637 -16.30692,0.04814 -18.61919,0.528173 -10.77074,2.236001 -14.12803,15.756255 -5.64819,22.7460588 3.49206,2.8784535 8.42083,4.2983731 22.49593,6.4808018 13.48818,2.0914234 17.7949,3.1363734 22.20649,5.3879994 5.73354,2.92635 8.29444,7.198793 8.27137,13.799408 -0.024,6.669959 -3.18142,11.831433 -9.01912,14.740484 l -3.28606,1.637506 h -18.80795 -18.80792 z m 80.75851,0.312457 c -4.7088,-1.810875 -8.69488,-5.598815 -11.16116,-10.606366 L 522.96409,29.2327 522.7725,3.7538614 c -0.16855,-22.4043754 -0.0728,-25.5775474 0.79406,-26.2968804 0.78789,-0.653882 1.17689,-0.659346 1.93856,-0.02723 0.74911,0.621718 0.95286,2.404133 0.95286,8.335984 v 7.5451698 h 10.7214 c 8.75518,0 10.86644,0.1747397 11.51222,0.9528692 0.63091,0.7602089 0.63091,1.1455293 0,1.9057382 -0.64578,0.7781199 -2.75704,0.9528692 -11.51222,0.9528692 h -10.7214 V 12.25513 c 0,17.215206 0.36297,19.144726 4.48148,23.823608 3.38735,3.848223 7.29664,5.569603 13.60573,5.991012 5.07067,0.338695 6.23226,0.852323 5.60778,2.479678 -0.53058,1.382658 -9.94701,1.064443 -13.9398,-0.471081 z m 35.98737,0.511228 c -3.66444,-1.207565 -8.60861,-6.549647 -9.79135,-10.579401 -1.26606,-4.313646 -1.26798,-5.940912 -0.012,-10.170189 0.72014,-2.424956 1.8558,-4.224696 4.05107,-6.419974 4.70517,-4.705189 6.52647,-5.05172 26.55104,-5.05172 h 16.76154 l -0.41922,-1.429303 c -1.05586,-3.5997071 -3.18085,-7.0186412 -5.78968,-9.3150179 -4.547,-4.0024298 -6.88005,-4.5001522 -21.14665,-4.5113141 -6.83811,-0.00528 -12.86173,-0.2830721 -13.38581,-0.6171615 -0.73912,-0.4711681 -0.79427,-0.8608799 -0.24587,-1.7372002 0.64179,-1.0256005 1.95961,-1.1297624 14.29302,-1.1297624 13.35092,0 13.64782,0.028955 17.15613,1.6739765 5.02349,2.3554613 8.46576,5.7140984 10.87562,10.6113835 2.05872,4.1837121 2.0707,4.2632761 2.0707,13.7482421 0,8.991553 -0.0967,9.746506 -1.68211,13.128026 -2.04987,4.372248 -5.72975,8.16613 -10.20705,10.523243 -3.28928,1.731657 -3.59299,1.769594 -15.10879,1.887208 -7.47647,0.07637 -12.55919,-0.145952 -13.97058,-0.611036 z m 24.62641,-3.333874 c 4.43317,-1.316507 8.19819,-4.369676 10.54959,-8.554999 1.76449,-3.140662 1.98449,-4.140383 2.20158,-10.005125 l 0.2412,-6.51581 h -17.56662 c -16.01783,0 -17.77442,0.106554 -19.92349,1.208672 -5.01713,2.57293 -7.36856,6.760032 -7.00479,12.47312 0.36465,5.726518 3.7908,10.093104 9.18894,11.711144 3.23967,0.971056 18.71664,0.751183 22.31359,-0.317002 z m 29.67403,3.398281 c -0.17719,-0.462554 -0.24773,-15.848698 -0.15702,-34.19143 0.16279,-32.871871 0.18343,-33.350419 1.43564,-33.350419 1.24077,0 1.27441,0.479367 1.43811,20.4866873 l 0.16758,20.4866857 h 9.81368 c 12.20556,0 15.25777,-0.902037 19.67452,-5.81452 3.42478,-3.809191 4.79749,-7.8188307 4.79749,-14.0133432 0,-3.4519181 0.21585,-4.4342322 1.04474,-4.7522642 2.08391,-0.7996682 2.90705,1.5817879 2.45786,7.11085866 -0.6361,7.82972834 -4.06953,14.08991574 -9.60346,17.51007974 l -2.20055,1.360016 2.72141,1.729193 c 3.27492,2.080896 6.34587,5.479115 8.23822,9.11613 1.07657,2.069141 1.45782,4.110051 1.66807,8.929933 l 0.27255,6.247796 -1.50536,-0.212962 c -1.40147,-0.198269 -1.53223,-0.563698 -1.89453,-5.294927 -0.21416,-2.795084 -0.87117,-6.225413 -1.46031,-7.622953 -1.46567,-3.476862 -5.14025,-7.156959 -8.94971,-8.963174 C 651.5023,22.013048 650.53038,21.90896 640.34,21.903181 l -10.94366,-0.0062 -0.17311,11.585056 c -0.1563,10.455965 -0.28167,11.605907 -1.28675,11.799002 -0.61248,0.117669 -1.25852,-0.164512 -1.43564,-0.627059 z m 68.85767,-0.123816 c -5.48469,-1.974467 -9.60526,-5.68891 -12.4232,-11.198747 -1.67974,-3.284324 -1.80025,-4.059963 -2.00944,-12.933494 -0.18439,-7.816566 -0.0319,-9.946465 0.88654,-12.3872984 2.61731,-6.9560035 8.23675,-11.9567303 15.51025,-13.8024862 6.36309,-1.6147335 17.5909,-1.0473889 22.32623,1.1281539 4.99489,2.2947897 8.45567,5.66013985 10.87561,10.5757177 1.89275,3.8447222 2.08857,4.807815 2.27875,11.207258 0.15174,5.106174 -0.0192,7.30278 -0.63524,8.115771 -0.77766,1.027924 -2.69101,1.114459 -24.58031,1.111681 -23.64266,-0.0029 -23.73565,0.0022 -23.39536,1.303426 0.75831,2.899798 3.43678,7.401523 5.71973,9.613221 4.21229,4.080782 6.56342,4.602586 22.35525,4.961493 13.44605,0.305593 13.97541,0.365751 13.97541,1.588117 0,1.228789 -0.46917,1.27499 -14.29303,1.407502 -10.44063,0.100095 -14.91246,-0.08598 -16.59119,-0.690315 z m 33.73662,-27.556334 c -0.007,-7.5744522 -1.44447,-11.2368838 -5.97226,-15.2224038 -4.32338,-3.8055894 -7.33826,-4.6290388 -16.94805,-4.6290388 -7.88871,0 -8.18876,0.051356 -12.08645,2.06908072 -6.99804,3.62265538 -10.0895,9.44719178 -10.0895,19.00933988 v 4.96667 h 22.55124 22.55124 l -0.007,-6.193648 z m 16.28585,27.456021 c -0.65579,-1.70892 -0.45001,-29.075506 0.24624,-32.746711 1.38231,-7.2889812 5.9859,-13.3042619 12.44505,-16.2613602 4.74188,-2.1708994 13.9876,-2.7369811 19.94301,-1.2210362 4.81187,1.2248537 10.79919,5.01179989 10.79919,6.8304156 0,2.0680964 -1.56202,1.9538313 -5.00999,-0.36648997 -4.38201,-2.94887753 -6.7688,-3.53451003 -14.42237,-3.53873813 -5.88177,-0.00336 -6.73004,0.1564927 -10.2973,1.93905602 -4.11985,2.05872558 -6.29694,4.20804058 -8.57427,8.46497368 -1.31816,2.4639641 -1.41729,3.6237722 -1.71657,20.0842412 -0.31284,17.20646 -0.33791,17.472164 -1.66608,17.661664 -0.79533,0.113492 -1.51189,-0.233538 -1.74691,-0.846015 z M 282.25044,43.064941 c -0.23121,-0.602874 0.0144,-1.489588 0.56729,-2.041864 0.87812,-0.878116 1.08069,-0.871732 2.01595,0.06353 0.57185,0.571856 0.86668,1.490695 0.65519,2.041867 -0.50948,1.327683 -2.72122,1.284295 -3.23843,-0.06353 z m 5.67261,-0.234499 c -0.88546,-0.401172 -0.50045,-0.458357 1.2705,-0.188689 1.39753,0.212794 2.66009,0.491917 2.80565,0.620261 0.54581,0.48118 -2.85667,0.120935 -4.07615,-0.43156 z m 50.51144,0.491998 c -0.0144,-0.722516 5.03993,-10.67351 6.39468,-12.591346 0.76748,-1.086508 0.94974,-1.861453 0.53524,-2.27595 -0.9306,-0.930603 -4.3e-4,-2.746683 1.4068,-2.746683 2.00353,0 2.23707,1.940381 0.41364,3.436617 -0.88996,0.730252 -3.22073,4.329268 -5.17953,7.997815 -1.95882,3.668544 -3.56567,6.449342 -3.57083,6.179547 z m -1.82214,-1.732825 c -0.0607,-0.873464 -0.26902,-2.302768 -0.46299,-3.176232 -0.30387,-1.368429 -0.2533,-1.43244 0.36554,-0.462743 0.395,0.618955 0.60333,2.048258 0.46299,3.176229 -0.19855,1.595416 -0.27971,1.698178 -0.36554,0.462746 z m -55.34432,-5.67693 c -0.77569,-2.074156 -1.19516,-4.11935 -0.93218,-4.544874 0.28943,-0.468282 0.2132,-0.60986 -0.19328,-0.358661 -0.37908,0.234283 -0.96402,-0.424052 -1.34318,-1.511719 -0.39819,-1.142226 -0.42338,-1.773289 -0.0619,-1.549872 0.33539,0.207272 0.60979,0.02648 0.60979,-0.401743 0,-1.726199 0.83423,0.272513 2.52597,6.051955 1.97455,6.745562 1.59489,8.197836 -0.60518,2.314914 z m 57.15707,-3.473776 c 0,-0.352606 5.50701,-3.554217 6.11351,-3.554217 0.26823,0 -0.86457,0.857583 -2.51735,1.905738 -2.94428,1.867218 -3.59616,2.166033 -3.59616,1.648479 z m -62.22745,-7.015952 c -1.15487,-1.391541 0.29102,-3.016154 2.45995,-2.76403 1.27758,0.148521 1.6425,0.54376 1.6425,1.779043 0,1.235284 -0.36492,1.630534 -1.6425,1.779044 -0.91401,0.106241 -2.00505,-0.245935 -2.45995,-0.794057 z m 69.65394,-0.788987 c -0.56151,-0.908517 -3.06434,-11.122345 -2.79217,-11.394516 0.13878,-0.138702 0.84263,1.823953 1.56428,4.361476 l 1.31209,4.613678 0.14189,-4.764346 0.1419,-4.764345 0.54645,5.688394 c 0.48933,5.093743 0.0831,7.874016 -0.91464,6.259659 z m -68.27833,-6.866084 c -0.0322,-2.445698 0.17791,-5.590167 0.46703,-6.987708 0.51601,-2.4947508 0.52777,-2.4716322 0.64571,1.270493 0.066,2.096313 0.315,5.09785 0.55312,6.670084 l 0.43296,2.858608 2.13049,-6.987708 c 1.17178,-3.843238 2.41721,-7.2735673 2.76758,-7.622953 0.74429,-0.7421275 0.66354,-0.4452309 -2.20785,8.119487 -1.13422,3.383079 -2.33519,6.227578 -2.66882,6.321111 -0.33364,0.09354 -0.79202,-0.544591 -1.01865,-1.418054 -0.4076,-1.570998 -0.41543,-1.567577 -0.7275,0.317624 -0.17359,1.048157 -0.34185,-0.09529 -0.37407,-2.540984 z m 62.7643,-6.344371 c -1.62368,-1.9564052 0.99207,-4.3739713 3.22421,-2.9799625 0.66628,0.4161028 1.30848,0.4772329 1.51434,0.1441518 0.19664,-0.3180872 0.09,-0.7435704 -0.23673,-0.945515 -0.32677,-0.2019423 -1.66781,-2.2871165 -2.98008,-4.6337135 -2.75815,-4.932017 -3.38277,-4.6054425 -1.52409,0.7968639 0.71226,2.0702212 1.03814,3.4859584 0.72417,3.1460804 -0.87192,-0.9438969 -4.08881,-11.1272955 -3.6528,-11.5633092 0.49867,-0.4986563 0.28516,-0.8018602 4.43733,6.3016348 1.97891,3.3855084 4.13675,6.3264653 4.79523,6.5354542 1.63081,0.5176021 2.04026,1.8743701 0.99202,3.2872931 -0.70991,0.956901 -1.09332,1.037661 -2.07775,0.437668 -0.74546,-0.45433 -1.54994,-0.518797 -2.10323,-0.168545 -1.2979,0.821618 -2.22183,0.715324 -3.11269,-0.358103 z M 276.41782,7.013256 c -0.63251,-1.6482553 0.25401,-3.0105478 1.81488,-2.7889036 1.04991,0.1490738 1.43216,0.6272478 1.43216,1.7914804 0,1.1642326 -0.38225,1.6423947 -1.43216,1.7914804 -0.85903,0.1219913 -1.58531,-0.1957718 -1.81488,-0.7940572 z m 10.86999,0.2730698 c -0.21584,-0.3493857 -0.0898,-0.6352477 0.28012,-0.6352477 0.37,0 0.67274,0.285862 0.67274,0.6352477 0,0.3493833 -0.12605,0.6352453 -0.28014,0.6352453 -0.15414,0 -0.4568,-0.285862 -0.67272,-0.6352453 z m -3.42704,-2.1428469 c -1.04395,-1.2578809 -0.17383,-2.9391226 1.5213,-2.9391226 0.7987,0 1.63062,0.4650241 1.84872,1.0333843 0.44491,1.159438 -0.63224,2.7780922 -1.84872,2.7780922 -0.43853,0 -1.1231,-0.3925593 -1.5213,-0.8723539 z m -3.48214,-1.8274416 c 0.25913,-0.4367315 2.5823,-3.29533894 5.16258,-6.3524624 4.25447,-5.040676 5.85586,-6.4231747 5.88662,-5.0819696 0.0216,0.9313208 -4.1483,9.6443034 -4.62561,9.6657173 -0.26708,0.012005 0.3921,-1.71689075 1.46483,-3.8419396 1.07272,-2.1250512 1.86296,-4.1163274 1.75607,-4.425063 -0.10684,-0.3087332 -2.30093,2.001665 -4.87567,5.1342185 -4.27055,5.1958073 -5.99519,6.968438 -4.76882,4.9014988 z m 53.84657,-9.6429492 c -0.6325,-1.6482553 0.25402,-3.0105502 1.81489,-2.7889059 1.0499,0.1490977 1.43215,0.6272477 1.43215,1.7914828 0,1.1642326 -0.38225,1.6423946 -1.43215,1.7914804 -0.85903,0.1219912 -1.58531,-0.1957719 -1.81489,-0.7940573 z m -36.04154,-1.3883738 c -1.69373,-0.8812566 -2.93108,-1.7507318 -2.74966,-1.9321653 0.32477,-0.3247666 6.14684,2.8353016 6.14684,3.3363469 0,0.3642331 0.007,0.3675872 -3.39718,-1.4041816 z m 33.09493,1.2407311 c 0.43673,-0.1762283 1.15139,-0.1762283 1.58812,0 0.43673,0.1762282 0.0795,0.3204089 -0.79406,0.3204089 -0.87346,0 -1.23079,-0.1441759 -0.79406,-0.3204089 z m -21.65056,-4.3031584 c 1.67458,-1.899356 3.15233,-3.345737 3.2839,-3.214175 0.33615,0.336163 -5.18286,6.6668591 -5.81244,6.6672408 -0.28388,1.705e-4 0.85394,-1.5537091 2.52854,-3.4530658 z m 11.06462,0.118342 c -2.12612,-1.834272 -3.57808,-3.430922 -3.22659,-3.548109 0.3515,-0.117189 0.48813,-0.457327 0.30362,-0.755863 -0.18439,-0.298539 3.26123,0.935054 7.65722,2.741315 4.39596,1.80626 7.7448,3.3667327 7.44182,3.4677206 -0.30295,0.1009831 -3.63414,-1.1081925 -7.40266,-2.6870586 -3.76853,-1.578868 -7.03963,-2.859527 -7.26916,-2.845904 -0.22952,0.01368 1.29788,1.578916 3.3942,3.478439 4.88239,4.4240687 4.18981,4.5392822 -0.89845,0.149458 z m -29.88556,0.507091 c -0.66484,-0.801082 -0.66484,-1.165969 0,-1.967049 1.27365,-1.53464 3.46841,-0.912276 3.46841,0.983525 0,1.895798 -2.19476,2.5181623 -3.46841,0.983524 z m 4.77068,-2.16732 c 0.3319,-0.301701 1.46106,-0.844184 2.50921,-1.205516 1.04815,-0.361336 2.45288,-0.877718 3.12164,-1.147523 0.85507,-0.34498 1.07958,-0.270008 0.75656,0.25265 -0.28317,0.458163 -0.0192,0.764985 0.68986,0.8 1.4159,0.06999 -4.72095,1.81966 -6.44204,1.836683 -0.73723,0.0072 -0.99439,-0.209842 -0.63523,-0.536294 z m 7.91553,-2.301968 c -1.05552,-1.271826 -0.35244,-2.866699 1.26377,-2.866699 0.72069,0 1.47631,0.432432 1.67912,0.96096 0.36501,0.951244 -0.75375,2.850517 -1.67912,2.850517 -0.26383,0 -0.83252,-0.42515 -1.26377,-0.944778 z m 4.69101,-0.146121 c 0.96731,-0.247689 1.02973,-0.418549 0.31764,-0.869454 -0.60436,-0.382679 -0.12221,-0.564276 1.51583,-0.57091 1.54231,-0.0062 2.533,-0.350797 2.76776,-0.962595 0.49596,-1.292452 3.1712,-1.210441 3.67895,0.112772 0.23217,0.605015 -0.0168,1.492067 -0.57754,2.052132 -0.79082,0.790816 -1.22563,0.837138 -2.19215,0.233539 -0.84573,-0.528173 -1.837,-0.571875 -3.32056,-0.146385 -1.16322,0.333602 -2.40268,0.57339 -2.75437,0.532863 -0.35169,-0.04053 -0.0977,-0.212411 0.56444,-0.38196 z m 53.77024,-1.737198 c -1.14916,-1.384652 -0.53063,-3.178255 1.17982,-3.421135 2.35061,-0.333792 3.30394,1.649379 1.60807,3.345244 -1.23782,1.237843 -1.81064,1.253435 -2.78789,0.07589 z"
       id="path4700"
       inkscape:connector-curvature="0" />
  </g>
</svg>
