<?xml version="1.0" encoding="UTF-8" standalone="no"?>
<!-- Created with Inkscape (http://www.inkscape.org/) -->

<svg
   xmlns:dc="http://purl.org/dc/elements/1.1/"
   xmlns:cc="http://creativecommons.org/ns#"
   xmlns:rdf="http://www.w3.org/1999/02/22-rdf-syntax-ns#"
   xmlns:svg="http://www.w3.org/2000/svg"
   xmlns="http://www.w3.org/2000/svg"
   xmlns:sodipodi="http://sodipodi.sourceforge.net/DTD/sodipodi-0.dtd"
   xmlns:inkscape="http://www.inkscape.org/namespaces/inkscape"
   width="609.02411mm"
   height="79.375mm"
   viewBox="0 0 2157.9594 281.25"
   id="svg2"
   version="1.1"
   inkscape:version="0.91 r13725"
   sodipodi:docname="coinstacker color.svg">
  <defs
     id="defs4" />
  <sodipodi:namedview
     id="base"
     pagecolor="#ffffff"
     bordercolor="#666666"
     borderopacity="1.0"
     inkscape:pageopacity="0.0"
     inkscape:pageshadow="2"
     inkscape:zoom="0.061871843"
     inkscape:cx="662.07399"
     inkscape:cy="3550.9727"
     inkscape:document-units="px"
     inkscape:current-layer="layer1"
     showgrid="false"
     fit-margin-top="0"
     fit-margin-left="0"
     fit-margin-right="0"
     fit-margin-bottom="0"
     inkscape:window-width="952"
     inkscape:window-height="1047"
     inkscape:window-x="0"
     inkscape:window-y="0"
     inkscape:window-maximized="0" />
  <metadata
     id="metadata7">
    <rdf:RDF>
      <cc:Work
         rdf:about="">
        <dc:format>image/svg+xml</dc:format>
        <dc:type
           rdf:resource="http://purl.org/dc/dcmitype/StillImage" />
        <dc:title></dc:title>
      </cc:Work>
    </rdf:RDF>
  </metadata>
  <g
     inkscape:label="Layer 1"
     inkscape:groupmode="layer"
     id="layer1"
     transform="translate(441.83693,-763.1658)">
    <g
       id="g4168">
      <path
         inkscape:connector-curvature="0"
         id="path5245"
         d="m -101.15003,1043.3029 c -0.42936,-0.6117 -0.77968,-1.9866 -0.77968,-3.0546 0,-1.5403 0.35122,-2.2933 1.70245,-3.644 1.450764,-1.4507 2.048638,-1.7024 4.044365,-1.7024 1.90698,0 2.606805,0.265 3.768689,1.4268 1.84536,1.8452 2.356194,4.446 1.28162,6.524 -0.807525,1.5624 -0.81022,1.5631 -5.023182,1.5631 -3.788001,0 -4.293892,-0.1123 -4.994442,-1.1129 z m 65.622672,0.3252 c -0.166176,-0.433 -0.08084,-1.207 0.196716,-1.7197 0.703328,-1.3145 0.6665,-1.3824 -0.940465,-1.7354 -4.655529,-1.0225 -5.817772,-8.0111 -1.837187,-11.0472 3.032305,-2.3129 7.886437,-1.4194 9.527177,1.7535 0.858725,1.6609 0.997953,4.6441 0.279355,5.9873 -0.392534,0.733 -0.139229,1.1183 1.377014,2.099 1.735235,1.1222 3.362142,4.0971 2.775047,5.0743 -0.123958,0.2066 -2.666808,0.3755 -5.650518,0.3755 -4.471299,0 -5.478055,-0.1383 -5.727049,-0.7878 z m -29.598436,-0.9962 c -11.566918,-0.6323 -21.060859,-1.1661 -21.097508,-1.1856 -0.08084,-0.045 -0.565896,-2.539 -0.489545,-2.539 0.03593,0 5.576233,-0.5703 12.323602,-1.2687 13.831491,-1.4306 20.295642,-2.0751 25.036594,-2.4964 1.790118,-0.159 3.874323,-0.3854 4.631726,-0.5022 0.921512,-0.1428 1.377014,0.01 1.377014,0.4554 0,0.7905 0.308099,0.7492 -22.532908,3.0657 -18.317431,1.8578 -19.950266,2.0752 -16.77451,2.2319 36.160227,1.7843 44.500818,2.3249 44.690887,2.8965 0.268576,0.8067 -0.939837,0.777 -27.165262,-0.6566 z m 43.910848,-3.264 c 0.09881,-0.2973 3.441547,-2.2282 7.427523,-4.2902 3.9858848,-2.0621 10.4018001,-5.4016 14.25734952,-7.421 3.85563928,-2.0194 9.32444198,-4.8536 12.15302448,-6.2983 2.828493,-1.4447 5.068005,-2.7013 4.976743,-2.7927 -0.09072,-0.091 -4.546123,1.2644 -9.8996803,3.0127 -13.0707645,4.2683 -30.6606137,9.9023 -31.2025267,9.9941 -0.240731,0.036 -0.535356,-0.1904 -0.654823,-0.5138 -0.139229,-0.3772 2.972392,-1.5995 8.70016,-3.4168 4.904343,-1.5561 11.5082618,-3.6884 14.67539407,-4.7386 10.10088743,-3.3493 19.11588293,-6.1072 19.31439593,-5.9087 0.105993,0.106 0.254204,0.7222 0.328759,1.3695 0.123958,1.0736 -1.577414,2.0687 -19.39254377,11.3418 -10.74070923,5.5908 -19.82891223,10.1734 -20.19620623,10.1838 -0.367383,0.01 -0.586555,-0.2246 -0.487748,-0.5219 z m -101.112714,-16.6614 c -16.1425,-11.3345 -20.02724,-14.38 -18.28338,-14.3338 0.20659,0.01 4.31877,2.7781 9.13832,6.1613 4.81955,3.3833 13.28581,9.3007 18.81398,13.15 5.64989,3.9341 9.96202,7.2658 9.84758,7.6088 -0.11228,0.3359 -0.35301,0.5865 -0.53715,0.5578 -0.18324,-0.027 -8.72423,-5.9436 -18.97935,-13.1441 z m 21.25955,8.5377 c -2.229,-3.4019 -7.39563,-14.5446 -6.95055,-14.9897 0.32247,-0.3225 1.84662,2.1621 4.41723,7.1997 2.15884,4.2305 3.998007,7.9734 4.087023,8.3177 0.270373,1.0462 -0.749143,0.6998 -1.553703,-0.5281 z m 47.459112,-3.1246 c -5.783459,-1.9607 -19.077888,-6.427 -29.543104,-9.9253 -10.465307,-3.4983 -19.359308,-6.5659 -19.764418,-6.817 -0.40511,-0.2515 -0.5632,-0.6297 -0.35122,-0.8426 0.31619,-0.3161 58.301144,18.7292 60.275942,19.7982 0.332352,0.1797 0.444633,0.5569 0.250611,0.839 -0.223664,0.3252 -4.200926,-0.7923 -10.868261,-3.0525 z m 26.789075,-1.1505 c 0,-0.2318 7.548516,-8.0972 16.77451,-17.4787 9.22599448,-9.3813 16.7745105,-17.21847 16.7745105,-17.41555 0,-0.19671 -1.4083628,0.86861 -3.1295855,2.36734 -10.6150445,9.24571 -25.255587,16.39151 -38.93186,19.00171 -1.790119,0.3413 -3.330255,0.6719 -3.422684,0.7339 -0.09252,0.063 0.428464,2.1025 1.156943,4.5346 0.728479,2.4322 1.438993,4.8165 1.578671,5.2984 0.150905,0.5219 -0.009,0.8722 -0.40511,0.8668 -0.396127,-0.01 -1.319167,-2.1107 -2.311372,-5.2716 l -1.651608,-5.2621 -2.60456,0.3889 c -4.038073,0.6045 -18.675472,0.4159 -23.134464,-0.2964 -9.114162,-1.4574 -18.784519,-4.5491 -26.908812,-8.6028 -5.830438,-2.9093 -5.129984,-2.8302 -9.769796,-1.1018 -0.34403,0.1284 -0.62608,-0.081 -0.62608,-0.4617 0,-0.3818 0.67638,-0.95 1.50223,-1.2619 0.82639,-0.3117 1.50178,-0.7554 1.50125,-0.9861 -4.5e-4,-0.2299 -1.07081,-1.0935 -2.37839,-1.9178 -1.30775,-0.8246 -3.55742,-2.45797 -4.99937,-3.63028 -1.44196,-1.1723 -2.73759,-2.13154 -2.87925,-2.13154 -0.14102,0 -0.2578,0.43206 -0.2578,0.9605 0,1.36201 -0.52008,2.54464 -1.11867,2.54464 -0.3108,0 -0.41769,-0.96894 -0.27307,-2.4682 l 0.23714,-2.46821 -3.47272,-3.41541 c -12.33734,-12.13362 -20.84447,-27.91511 -24.04214,-44.60052 -0.59375,-3.09823 -1.31468,-5.62932 -1.60221,-5.62455 -0.28744,0.006 -3.56344,0.79315 -7.28012,1.75257 -7.68981,1.98459 -7.51339,1.95836 -7.51339,1.11319 0,-0.39343 2.85023,-1.3683 7.56028,-2.58704 l 7.56028,-1.9562 -0.33864,-5.29949 c -0.77069,-12.05493 1.46289,-25.13216 6.51275,-38.13753 l 0.89016,-2.29332 -2.131,-3.13803 c -1.44456,-2.12732 -1.96689,-3.30214 -1.6217,-3.64733 0.34493,-0.34493 1.1106,0.39612 2.37578,2.30176 1.02661,1.54615 2.01055,2.81115 2.18661,2.81115 0.17605,0 0.56769,-0.65662 0.8704,-1.45884 1.58217,-4.19159 8.23702,-13.87784 14.10518,-20.53035 l 2.66897,-3.02575 -4.92231,2.19505 c -2.70723,1.20724 -6.88848,3.10488 -9.29175,4.217 -2.64372,1.22332 -4.49285,1.82219 -4.68193,1.51633 -0.17157,-0.27756 -0.23265,-0.58476 -0.13564,-0.68177 0.097,-0.097 5.24586,-2.48823 11.44179,-5.31367 8.20397,-3.74121 12.14979,-5.83637 14.52009,-7.71011 5.14498,-4.06718 9.377349,-6.80118 14.732613,-9.51703 4.103736,-2.08115 5.051118,-2.77954 5.444281,-4.01355 1.567353,-4.91899 7.795265,-7.11915 11.91418,-4.2091 1.259613,0.89016 1.450491,0.88567 6.759855,-0.13564 4.429979,-0.85243 7.453391,-1.05723 15.979111,-1.08086 11.807738,-0.0359 18.144877,0.84076 26.538824,3.65875 3.082967,1.03496 5.495122,1.5148 7.636006,1.51893 1.748529,0.004 3.129585,0.22726 3.129585,0.50751 0,0.27577 -0.337741,0.50033 -0.750935,0.50033 -1.479684,0 -0.710514,0.97271 1.565826,1.97947 1.274254,0.5632 2.3632,1.0249 2.41961,1.0249 0.06288,0 -0.0038,-1.27686 -0.132941,-2.83748 -0.308099,-3.72054 0.761715,-5.77492 3.7643777,-7.22865 4.7871224,-2.31739 10.15163847,0.96274 10.15675848,6.21031 0.003773,3.36124 -1.84293518,5.83708 -5.22636558,7.00849 l -1.9070701,0.66021 4.8195491,3.4164 c 13.3389814,9.45522 23.8410264,23.02667 30.7048974,39.67857 0.894655,2.17034 1.237876,2.54887 2.105404,2.32197 0.570387,-0.14911 1.434232,-0.10779 1.920364,0.0925 0.718598,0.29552 0.556914,0.48236 -0.868606,0.99804 -1.058855,0.38355 -1.678376,0.90597 -1.565107,1.32025 2.476739,9.05766 3.424301,14.26363 3.885641,21.34865 0.184141,2.82715 0.392534,5.0804 0.462597,5.00728 0.115874,-0.11946 4.145235,-15.69131 4.925722,-19.03539 0.184141,-0.78956 0.661111,-1.37702 1.116523,-1.37702 0.437446,0 0.688057,0.28205 0.556913,0.62608 -0.960137,2.52444 -7.082505,27.98662 -7.928295,32.97261 -1.349707,7.95659 -6.410705,24.90141 -7.588847,25.40775 -0.218275,0.0934 -0.725785,0.80663 -1.127212,1.5837 -0.71231,1.3772 -0.686261,1.43935 1.007385,2.43884 5.063154,2.9873 4.915931,10.04726 -0.265881,12.7341 -2.309126,1.19736 -5.420567,0.87309 -7.539893,-0.78507 l -1.616397,-1.26501 -1.061999,1.32447 c -0.583861,0.72848 -1.390667,1.77512 -1.792543,2.32592 -0.709616,0.97272 -0.700633,0.97622 0.300913,0.12486 1.103498,-0.93678 2.397693,-1.18389 2.121751,-0.40511 -0.370078,1.04574 -41.921678,43.09247 -42.584675,43.09247 -0.216478,0 -0.394331,-0.1895 -0.394331,-0.4222 z m -18.329467,-26.5325 c 0.141025,-0.2282 -0.06288,-1.46212 -0.443734,-2.74159 -0.393433,-1.30749 -0.503917,-2.44763 -0.252408,-2.60321 0.547033,-0.33864 1.263386,0.95529 1.729217,3.12545 0.191327,0.89196 0.53356,1.73632 0.760816,1.87665 0.675483,0.4177 8.256515,-1.18724 13.128881,-2.77948 8.844958,-2.89038 18.855481,-8.52239 25.3133449,-14.24145 2.943738,-2.60698 3.3014203,-3.47496 1.2517084,-3.0376 -0.757223,0.16168 -2.6977079,0.40241 -4.3119492,0.53535 -3.1633601,0.2605 -12.9551601,1.356 -22.5873421,2.52731 -7.279311,0.88568 -7.275538,0.88568 -7.275538,0.0898 0,-0.47338 4.744994,-1.14769 18.151524,-2.57905 9.9833068,-1.06586 18.6504109,-2.12067 19.26014161,-2.34416 C 1.9146684,977.40772 12.554325,962.56445 12.093254,960.80128 11.983668,960.38449 6.2049699,951.1752 -0.74935518,940.33641 -8.7522948,927.86334 -13.218743,920.45459 -12.917111,920.15296 c 0.467089,-0.46709 1.501601,1.0734 18.926173,28.20516 3.8313866,5.96589 7.123196,10.74996 7.315151,10.6313 0.523679,-0.32337 3.232794,-7.55328 4.40905,-11.76561 1.710354,-6.12506 2.511232,-12.34121 2.509345,-19.47689 -0.0019,-7.65127 -0.417685,-10.97218 -2.336342,-18.6522 -1.491002,-5.96913 -1.549927,-6.02006 -5.669561,-4.90129 -0.96391,0.26139 -2.3158632,0.57667 -3.0043702,0.69973 -0.6889562,0.12306 -4.6142995,0.92152 -8.7240531,1.77458 -8.4924848,1.76272 -8.4533212,1.75814 -8.1877093,0.96131 0.108688,-0.32697 5.2940935,-1.66293 11.6358135,-2.99827 6.2915981,-1.32473 11.5411381,-2.51033 11.6655451,-2.63474 0.466191,-0.46619 -4.854491,-10.79164 -7.8733221,-15.28144 -3.4470263,-5.12639 -9.0140075,-11.2351 -14.0239852,-15.38878 -2.9369113,-2.43488 -3.2736644,-2.59432 -3.602513,-1.70541 -0.3377417,0.91405 -4.8413767,21.61507 -5.7738477,26.54169 -0.40511,2.13972 -1.654662,3.49185 -1.654662,1.79039 0,-0.7186 2.216606,-11.32214 5.475988,-26.19398 l 0.912351,-4.16293 -2.067587,-1.31486 c -16.435781,-10.45237 -35.392584,-14.11471 -54.817644,-10.59061 l -3.177732,0.57668 2.92739,3.05979 c 8.114322,8.48143 16.459405,16.84556 16.807206,16.84556 0.214681,0 0.391636,-1.7947 0.391636,-3.98822 0,-4.74563 0.284745,-5.02498 5.113276,-5.02498 5.448413,0 5.402063,-0.0925 5.402063,10.79406 l 0,9.23516 2.628813,0.009 c 8.085309,0.0359 16.139448,5.02794 19.63013,12.16273 0.89196,1.82227 1.958809,3.15123 3.045419,3.7924 4.461418,2.63222 4.841556,9.55448 0.728479,13.27008 -1.098916,0.99293 -1.998152,2.03759 -1.998152,2.32153 0,0.28384 -0.686262,1.87661 -1.525854,3.53909 l -1.525943,3.02279 2.731032,2.94984 c 4.766194,5.14813 6.6446097,10.60049 6.19863,17.99334 -0.320675,5.31332 -1.700024,9.09701 -4.801135,13.16823 -4.571992,6.00245 -9.641344,8.34184 -18.977823,8.75827 l -6.133955,0.27307 -0.06288,8.68992 c -0.03593,4.7794 -0.09072,8.89661 -0.124857,9.14928 -0.146414,1.07592 -5.923585,5.52333 -7.577619,5.83358 -3.821326,0.7168 -7.31057,-1.03181 -8.949244,-4.48504 -1.835839,-3.86875 -0.23085,-8.14863 3.840549,-10.24344 l 2.398052,-1.23392 -0.144618,-3.80282 -0.144618,-3.803 -4.631815,-0.14372 -4.631725,-0.14372 0,2.1257 c 0,1.76667 0.305404,2.43892 1.810059,3.97951 2.170706,2.22298 1.883177,3.79276 -0.309896,1.69167 l -1.39435,-1.33588 -0.36379,6.3101 c -0.200309,3.47057 -0.535356,6.41601 -0.744648,6.54545 -0.209291,0.12934 -2.238523,0.28115 -4.508845,0.33684 -3.292528,0.0808 -4.246916,-0.0629 -4.715442,-0.70243 -0.383552,-0.52368 -0.636858,-3.90603 -0.730276,-9.73341 -0.08084,-4.91153 -0.180547,-8.95994 -0.22546,-8.9964 -0.04491,-0.0359 -4.545943,-0.16977 -10.000463,-0.29643 -12.02718,-0.27845 -11.669049,-0.0997 -10.794335,-5.39577 0.646738,-3.916 1.663465,-5.50815 3.517718,-5.50815 1.437916,0 5.221695,-2.2484 5.646477,-3.35531 0.259593,-0.67638 -1.50771,-2.64274 -7.702656,-8.56884 -7.496777,-7.17134 -8.759085,-8.60584 -7.573038,-8.60584 0.256001,0 4.024061,3.39115 8.37194,7.53594 6.53116,6.22585 7.967099,7.3792 8.261006,6.63464 0.195818,-0.49494 0.371875,-6.67362 0.390738,-13.72873 l 0.03593,-12.82752 -7.020257,1.62223 c -4.348148,1.00479 -7.13613,1.43478 -7.324762,1.12955 -0.476071,-0.7707 0.27666,-1.03173 7.578787,-2.62692 l 6.84393,-1.49505 -0.164379,-8.76995 c -0.15899,-8.51306 -0.203902,-8.83813 -1.533848,-11.09992 -1.016817,-1.72993 -2.041807,-2.66501 -3.978969,-3.63036 -1.435041,-0.715 -3.078116,-1.30021 -3.651288,-1.30021 -1.800358,0 -3.195696,-1.37181 -3.36322,-3.30654 -0.12306,-1.4213 -1.023014,0.84525 -4.376892,11.02375 -2.681265,8.13731 -4.462765,12.81278 -4.882155,12.81278 -0.36289,0 -0.66021,-0.0629 -0.66021,-0.12665 0,-0.0719 4.168585,-12.69206 9.263536,-28.05048 5.094952,-15.35852 9.263541,-28.1493 9.263541,-28.42407 0,-0.7159 -4.123497,1.47367 -9.324172,4.9524 -9.978005,6.67416 -19.301185,17.37714 -24.769005,28.43475 -4.38551,8.86858 -4.45513,8.11019 1.52029,16.56055 2.76795,3.91439 5.03261,7.3695 5.03261,7.67786 0,1.43433 -1.60292,-0.35391 -5.75831,-6.42355 -2.47862,-3.62038 -4.73197,-6.51687 -5.00728,-6.43666 -1.17491,0.34223 -2.79535,10.03289 -3.10174,18.54819 l -0.30451,8.46554 1.2024,-0.31709 c 6.2871,-1.65834 7.96826,-2.00318 8.27439,-1.69706 0.60811,0.60812 -0.17157,0.98179 -4.4404,2.12274 l -4.13374,1.10494 0.11049,2.95928 c 0.23444,6.27776 3.90908,17.27097 8.4861,25.38753 2.33015,4.13221 6.19504,9.79971 6.70102,9.82648 0.15181,0.007 0.54973,-3.98499 0.88478,-8.87343 1.49324,-21.77847 1.73218,-24.16018 2.42392,-24.16018 0.83986,0 0.89465,-1.59017 -0.60901,17.49796 -0.70423,8.939 -1.15784,16.74235 -1.00766,17.34077 0.79675,3.17602 15.250722,14.504 23.677275,18.55699 l 3.872976,1.86278 5.019858,-1.79739 c 2.760945,-0.98861 7.595854,-2.72268 10.744213,-3.85366 3.742101,-1.34414 5.894392,-1.88605 6.215516,-1.56502 0.320674,0.32067 0.07186,0.64853 -0.716802,0.94532 -4.854491,1.82461 -16.438655,6.04278 -17.356754,6.32034 -0.619791,0.18773 -1.126673,0.512 -1.126673,0.72129 0,0.49493 8.693513,2.92847 13.519709,3.78438 4.155475,0.7366 19.821367,1.0151 20.226746,0.3593 z m -65.18307,-63.80645 c -5.2393,-1.67901 -6.74045,-8.88143 -2.69447,-12.9275 3.85546,-3.85537 10.01439,-2.85786 12.47433,2.02043 0.61979,1.2288 1.126761,2.81466 1.126761,3.52419 0,2.47719 -2.082501,5.67225 -4.487561,6.88507 -2.40568,1.21308 -3.8401,1.32428 -6.41906,0.49763 z m 71.236992,16.24059 1.995278,-0.35391 2.868644,-6.97957 2.868735,-6.97956 -1.300753,-1.70533 c -2.469823,-3.23818 -4.028732,-3.57583 -16.564051,-3.58814 l -11.141328,-0.009 0,10.01465 0,10.01457 9.639188,-0.027 c 5.301459,-0.009 10.536897,-0.18773 11.634287,-0.38265 z m 5.896189,-2.96826 c 0.725784,-0.75723 1.668855,-2.21481 2.0966,-3.23873 0.869504,-2.08178 1.048795,-5.89969 0.277559,-5.89969 -0.274864,0 -0.500324,0.32696 -0.500324,0.72579 0,0.39972 -0.884774,2.76525 -1.965456,5.25771 -1.080952,2.49237 -1.799191,4.53166 -1.595917,4.53166 0.203004,0 0.963191,-0.61979 1.688616,-1.37701 z m -7.833351,-28.12262 c 2.338948,-1.06217 4.546841,-3.66476 4.990306,-5.88253 l 0.300015,-1.49918 -12.313272,2.7569 -12.313182,2.757 0,1.41285 0,1.41285 8.637642,-0.009 c 7.35153,-0.007 8.944393,-0.15001 10.698581,-0.94693 z m -6.493434,-6.11159 c 6.568797,-1.40953 12.014515,-2.62611 12.101465,-2.70345 0.424872,-0.37816 -1.148409,-4.69209 -2.236188,-6.12991 -2.415029,-3.1922 -4.079842,-3.62569 -13.925357,-3.62569 l -8.782799,0 0,7.51106 c 0,4.13095 0.202106,7.51088 0.450022,7.51088 0.247019,0 5.82415,-1.15326 12.393037,-2.56289 z m -23.764675,-37.78722 c 0.183243,-10.89583 0.09881,-10.72445 5.259152,-10.72445 1.737481,0 3.159048,-0.12665 3.159048,-0.28115 0,-0.74285 -9.288692,-9.73359 -10.056424,-9.73359 -1.017176,0 -9.531848,2.91697 -10.11023,3.46355 -0.386246,0.36469 -8.875767,25.40137 -8.875767,26.17476 0,0.22367 4.605317,0.40511 10.234008,0.40511 l 10.234008,0 z m 20.333368,5.08085 0.147313,-3.97358 -4.644481,-4.66406 c -2.554617,-2.56521 -4.817842,-4.66406 -5.029469,-4.66406 -0.211987,0 -0.294626,1.521 -0.184141,3.38002 0.110484,1.85901 0.222765,5.81067 0.249713,8.78154 l 0.05389,5.4017 4.631815,-0.14372 4.631725,-0.14372 0.148211,-3.97358 z m 74.703506,136.4907 c -4.648523,-2.4717 -3.392323,-9.7276 1.804849,-10.4248 3.492118,-0.4688 6.715391,2.1083 6.715391,5.3683 0,1.9329 -1.528548,4.3804 -3.243932,5.1944 -2.152382,1.0214 -3.144766,0.9955 -5.276308,-0.1383 z m -141.130735,-6.9588 c -4.41273,-3.6892 -1.92414,-11.1412 3.72063,-11.1412 4.1959,0 6.72707,2.3637 6.72707,6.2822 0,5.3097 -6.36678,8.2707 -10.4477,4.859 z m -34.81088,-4.1752 c -4.78748,-3.7658 -2.08151,-11.07002 3.80669,-10.27543 3.0526,0.4123 4.89859,2.53013 4.89859,5.62073 0,4.6219 -5.20732,7.4063 -8.70528,4.6547 z m 21.47388,-1.9912 c -4.13105,-0.5022 -7.79266,-0.9252 -8.13687,-0.9408 -0.34403,-0.01 -0.62608,-0.3701 -0.62608,-0.7886 0,-0.5282 0.34493,-0.6854 1.12658,-0.5138 0.61979,0.1356 3.71794,0.4832 6.88507,0.7742 7.63008,0.6998 9.0132,0.9774 9.0132,1.8083 0,0.3827 -0.16887,0.6683 -0.37547,0.6351 -0.20659,-0.036 -3.75557,-0.4716 -7.88661,-0.9733 z m 161.823397,0.203 c -0.181446,-0.1815 0.939118,-2.7165 2.490123,-5.6333 1.551184,-2.91672 3.659551,-6.8805 4.68544,-8.80832 1.025889,-1.92782 4.852785,-9.25097 8.504252,-16.27374 6.706229,-12.89794 7.66457,-14.4961 8.186452,-13.65166 0.291032,0.47158 -22.705821,44.69072 -23.244141,44.69472 -0.160786,0 -0.441039,-0.1464 -0.622486,-0.3278 z m -5.575335,-1.2975 c -0.109586,-0.344 -0.450022,-3.6678 -0.756325,-7.38573 -0.306302,-3.71784 -0.686261,-7.71747 -0.843455,-8.88789 -0.220969,-1.63993 -0.12306,-2.12813 0.424872,-2.12813 0.552422,0 0.90193,1.87177 1.564388,8.38721 0.468886,4.61295 0.850641,8.89424 0.847048,9.51384 -0.0057,1.1945 -0.901392,1.5571 -1.237247,0.5004 z M -124.79829,994.1825 c -2.801,-3.35477 -11.77854,-14.06674 -19.95008,-23.80437 -9.29166,-11.07244 -14.68079,-17.88151 -14.38589,-18.17641 0.29462,-0.29462 1.78401,1.08535 3.9751,3.68443 2.98371,3.53928 24.49244,29.12309 33.76397,40.1612 2.55291,3.03923 3.19417,4.38425 2.03561,4.26915 -0.19043,-0.018 -2.6377,-2.77922 -5.43871,-6.134 z m -29.0708,-3.22516 c -2.1161,-5.73046 -12.9566,-34.66626 -13.4112,-35.79751 -0.23984,-0.59644 -0.11767,-0.87669 0.38175,-0.87669 0.64315,0 5.5068,12.03059 9.66677,23.90992 0.50661,1.44582 1.1255,2.62881 1.37602,2.62881 0.25061,0 0.30091,-0.39433 0.11318,-0.87669 -0.81651,-2.08941 -7.27572,-24.57992 -7.27572,-25.33211 0,-0.45721 0.21558,-0.83088 0.47967,-0.83088 0.512,0 0.9348,1.3312 5.24882,16.52417 1.52486,5.37035 3.76285,13.07381 4.97324,17.11889 1.82254,6.09084 2.07459,7.403 1.46702,7.6361 -1.27561,0.48954 -1.36983,0.36109 -3.01901,-4.10464 z m -1.38834,-9.13356 c 0.16977,-0.27576 0.0719,-0.50032 -0.22096,-0.50032 -0.29194,0 -0.53087,0.22546 -0.53087,0.50032 0,0.27486 0.0997,0.50032 0.22097,0.50032 0.12216,0 0.3602,-0.22546 0.52997,-0.50032 z m 187.311549,-10.9544 c -0.22546,-0.36469 18.693797,-12.57996 19.484704,-12.57996 0.141025,0 0.256,0.28205 0.256,0.62697 0,0.53536 -18.347342,12.39196 -19.175706,12.39196 -0.161685,0 -0.415889,-0.19761 -0.564998,-0.43924 z M 56.40059,959.4548 c -3.513587,-1.73173 -4.106161,-6.63706 -1.123619,-9.30225 2.791216,-2.49417 7.426534,-1.45274 8.865797,1.99195 1.356893,3.24753 -0.04491,6.3084 -3.492568,7.61382 -1.843025,0.69794 -2.279932,0.6674 -4.24961,-0.30361 z m -224.92738,-8.67204 c -0.68896,-0.22995 -1.8362,-0.54524 -2.5504,-0.70153 -1.81823,-0.39793 -3.87737,-2.61408 -4.24395,-4.56795 -0.39613,-2.11466 0.95556,-5.05345 2.75286,-5.98287 0.73207,-0.37906 2.89892,-0.83178 4.81461,-1.00775 4.12044,-0.37726 6.03371,0.49763 7.40381,3.38433 1.07556,2.26655 1.05598,3.72037 -0.0808,5.83619 -1.53574,2.86361 -4.87111,4.1155 -8.09807,3.03949 z m 224.32753,-5.16043 c 0,-0.35751 -1.266979,-5.37072 -2.815558,-11.14115 -5.99329,-22.33332 -7.134514,-27.02172 -6.687546,-27.473 0.612605,-0.6189 0.950077,0.39433 3.73734,11.2228 1.311442,5.09495 3.475321,13.29739 4.808591,18.22778 1.333269,4.9303 2.306071,9.1553 2.161903,9.38867 -0.403314,0.65302 -1.20473,0.50302 -1.20473,-0.22546 z m 2.001745,-7.73769 c -5.39e-4,-4.06215 -0.149109,-12.6247 -0.329657,-19.02777 -0.300913,-10.64477 -0.257797,-11.64201 0.502121,-11.64201 0.723089,0 0.830879,0.70513 0.830879,5.42668 0,2.9847 0.149109,11.54715 0.330555,19.02776 0.303608,12.4737 0.26139,13.60109 -0.500324,13.60109 -0.737461,0 -0.831777,-0.83717 -0.832676,-7.38575 z m -227.612695,-2.78098 c -0.28115,-0.73297 -0.018,-7.92506 1.2359,-34.02176 0.20929,-4.3371 0.52098,-8.02657 0.69255,-8.19876 0.17246,-0.17246 0.63506,-0.18953 1.02858,-0.0359 0.58027,0.22277 0.77429,2.53225 1.0249,12.20458 0.16977,6.56152 0.44374,16.0684 0.60632,21.12634 0.24522,7.58607 0.17875,9.15728 -0.37726,8.97269 -0.65483,-0.21648 -1.14141,-8.95517 -1.35923,-24.38635 -0.0359,-2.59342 -0.1545,-4.6214 -0.26319,-4.5066 -0.10779,0.11498 -0.47338,6.63042 -0.81112,14.47949 -0.57038,13.23568 -0.97073,16.47251 -1.7779,14.369 z m 7.46085,0.256 c -0.4105,-0.2542 0.48056,-3.57915 3.04623,-11.37271 1.99465,-6.0577 5.60677,-17.04156 8.02683,-24.40863 2.93493,-8.93361 4.63056,-13.39449 5.09172,-13.39449 0.37996,0 0.68536,0.0629 0.67907,0.12485 -0.007,0.0719 -3.66889,11.21409 -8.13794,24.76721 -5.63588,17.09204 -8.30332,24.53223 -8.70582,24.2835 z M 39.579101,903.10403 c -6.716738,-3.94977 -3.568829,-14.03207 4.136072,-13.24709 2.790318,0.28475 4.540105,1.57319 5.930952,4.36872 0.608113,1.2227 1.115354,1.83234 1.126672,1.35474 0.009,-0.47787 0.653924,-1.57688 1.427406,-2.44279 1.131433,-1.26635 1.899075,-1.62169 3.922918,-1.81625 4.372491,-0.41949 7.188588,1.9898 7.188588,6.15192 0,6.68179 -9.280518,8.71983 -12.004275,2.63626 l -0.909386,-2.03129 -0.865911,1.82398 c -1.830989,3.85842 -6.359595,5.3152 -9.953485,3.2018 z M -170.84679,888.75776 c -2.31577,-1.45534 -3.18806,-2.99368 -3.18806,-5.62223 0,-7.40955 10.2005,-8.73168 12.54556,-1.62609 1.69302,5.13007 -4.76655,10.13358 -9.3575,7.24832 z M 18.507912,871.83486 C 5.9217523,858.86883 1.3279329,853.83083 1.7286413,853.43299 c 0.4006186,-0.39792 1.0375661,0.002 2.3222403,1.45516 0.9737905,1.10153 5.6364157,5.95476 10.3612894,10.78491 4.724874,4.83006 11.707134,11.97625 15.516245,15.88057 5.770973,5.91514 7.434977,8.13525 6.097576,8.13525 -0.103299,0 -7.985963,-8.03429 -17.51808,-17.85402 z m 33.396408,16.72187 c -0.620689,-0.76261 -23.643771,-40.40472 -23.643771,-40.71021 0,-0.12037 0.292829,-0.21827 0.650331,-0.21827 0.535356,0 5.665879,8.59308 23.515412,39.38843 0.900044,1.55289 0.485054,2.77837 -0.521882,1.54077 z m -12.392498,-1.99734 c -0.403313,-1.07934 -11.824176,-34.09022 -12.390611,-35.81467 -0.379959,-1.15497 -0.381755,-1.79659 -0.0066,-2.17044 0.373671,-0.37367 1.277758,1.66526 3.057456,6.89738 1.389769,4.08541 4.345005,12.69493 6.56736,19.13205 2.222355,6.43702 4.040589,11.90133 4.040589,12.14269 0,0.67009 -1.001726,0.52278 -1.267069,-0.18683 z M -145.82726,883.1358 c -3.43113,-1.00442 -5.40018,-5.25888 -3.9928,-8.62731 1.47932,-3.54053 6.65341,-5.06207 9.527,-2.80172 5.88244,4.62714 1.58037,13.51162 -5.5342,11.42903 z m -11.68342,-2.43048 c 0,-0.68536 0.59284,-0.95384 2.92694,-1.32707 2.66357,-0.42577 2.81834,0.54524 0.20211,1.2712 -2.33159,0.64764 -3.12959,0.66201 -3.12959,0.0629 z m -3.22399,-4.98716 c -0.20929,-0.33774 -0.0629,-0.99364 0.32966,-1.4583 11.39885,-13.58367 15.20437,-18.12844 20.41735,-24.38321 3.4411,-4.12871 6.37738,-7.61948 6.52514,-7.75718 0.14731,-0.13833 1.70595,-2.00354 3.46248,-4.14613 2.90026,-3.53784 4.11451,-4.48567 3.99002,-3.1145 -0.0269,0.27577 -7.40453,9.28088 -16.39896,20.01216 -8.99442,10.73127 -16.7119,19.94999 -17.14998,20.48607 -0.58565,0.7168 -0.89645,0.81291 -1.17562,0.36109 z m 21.2503,-7.99898 c 0,-0.24073 1.33057,-3.22669 2.95685,-6.63473 5.23274,-10.96563 10.94596,-23.31367 11.29367,-24.40926 0.30451,-0.95861 1.77287,-1.55819 1.77287,-0.72399 0,1.07943 -14.88001,32.19976 -15.39749,32.20264 -0.34403,0.002 -0.62608,-0.19402 -0.62608,-0.43475 z M 18.864427,843.91049 c -1.725175,-1.5811 -1.870332,-1.92764 -1.870332,-4.46627 0,-2.23996 0.232646,-3.00455 1.251798,-4.10886 3.326482,-3.60511 8.025755,-3.19138 10.537436,0.92771 2.559288,4.19743 -0.698837,9.35508 -5.913076,9.35966 -1.734696,10e-4 -2.48635,-0.31978 -4.005826,-1.71224 z M 4.4735971,843.61856 c -0.3853484,-0.62249 -0.062877,-0.74016 5.3885891,-1.93312 2.6878268,-0.58835 4.4998628,-0.77429 4.6819378,-0.48056 0.467089,0.75542 0.03593,0.94594 -4.397553,1.94901 -4.8727249,1.10197 -5.259241,1.13359 -5.6729739,0.4644 z M -100.82845,837.74222 c -6.97804,-3.78827 -10.49334,-5.9588 -10.17158,-6.28064 0.32157,-0.32157 3.31525,1.02823 8.66171,3.90612 12.526338,6.74261 12.908094,6.97409 12.524182,7.59523 -0.232646,0.37726 -3.938817,-1.37944 -11.014312,-5.22071 z m 28.218365,1.91731 c -0.382654,-0.61889 -0.633265,-0.30451 10.725079,-13.48396 5.23463,-6.07404 8.422691,-9.39612 8.72594,-9.09287 0.303608,0.30361 0.202106,0.80213 -0.277559,1.36587 -2.743339,3.22256 -17.691172,20.54239 -18.202275,21.09059 -0.441938,0.47428 -0.729377,0.51021 -0.970557,0.12037 z m 46.791619,-10.66355 c -6.471876,-5.77304 -12.312733,-10.93419 -12.979503,-11.46928 -0.813812,-0.65302 -1.046818,-1.13844 -0.707819,-1.47726 0.33864,-0.33864 4.272696,2.80945 11.978226,9.58575 14.138332,12.43345 14.569491,12.84772 13.95994,13.41075 -0.296422,0.27306 -5.042494,-3.6203 -12.250575,-10.04996 z m 21.5314513,-0.72039 c -10.0521123,-4.25932 -21.5439373,-9.12297 -25.5372773,-10.80826 -7.502077,-3.16606 -8.415775,-3.65174 -7.878712,-4.18889 0.403313,-0.40331 1.022475,-0.16887 13.386768,5.05004 5.645757,2.38305 16.2361899,6.823 23.53436424,9.86653 15.26742976,6.36705 16.16055776,6.78851 15.75984876,7.43687 -0.162582,0.26408 -0.451818,0.459 -0.642247,0.43385 -0.190428,-0.027 -8.5705423,-3.53065 -18.6226549,-7.78987 z m -119.7258453,3.68829 c -1.94246,-1.30488 -3.29145,-4.45163 -2.78071,-6.48661 0.5147,-2.05114 2.72538,-4.3159 4.82746,-4.94566 1.67568,-0.50212 2.21041,-0.43655 4.17281,0.5138 4.61052,2.23197 5.13277,7.79221 1.03469,11.01584 -1.82614,1.43639 -5.03522,1.39336 -7.25425,-0.097 z m 13.62597,-7.96054 c -0.24163,-0.63866 -0.39164,-1.21686 -0.33235,-1.28459 0.0629,-0.0719 5.15864,-2.02429 11.333283,-4.34769 6.835936,-2.57232 11.409455,-4.04517 11.69402,-3.76582 0.610808,0.59913 0.611707,0.59823 -3.471728,2.11097 -1.92773,0.71411 -5.983768,2.22757 -9.013105,3.3634 -3.02944,1.13584 -5.822,2.17089 -6.20564,2.30033 -0.38355,0.12934 -0.58835,0.34402 -0.45541,0.47786 0.13384,0.13294 4.93003,-0.89735 10.659327,-2.29098 9.479749,-2.30535 12.756108,-2.73453 11.482841,-1.50411 -0.252407,0.24432 -5.641805,1.59609 -11.976069,3.00455 -6.334269,1.40845 -11.912649,2.68162 -12.396359,2.8293 -0.60273,0.18414 -1.01772,-0.097 -1.31863,-0.89286 z m 28.486496,-7.24823 c -1.406117,-0.56141 -2.974009,-2.31865 -3.505502,-3.92939 -1.403513,-4.25239 3.329984,-8.49033 7.536749,-6.74781 5.319244,2.20331 4.371952,10.19313 -1.277129,10.77187 -1.101611,0.11228 -2.340924,0.0719 -2.754118,-0.0943 z m 10.616751,-1.2465 c 0.127551,-0.39343 3.14261,-1.46109 7.194607,-2.54599 3.836147,-1.02724 6.073593,-1.76874 4.971981,-1.64793 -1.101611,0.12126 -4.087207,0.36559 -6.634638,0.54344 -3.910253,0.27307 -4.631816,0.20839 -4.631816,-0.42038 0,-0.59195 1.105564,-0.81381 5.382841,-1.08383 2.960625,-0.18683 6.086707,-0.459 6.947049,-0.60362 1.431358,-0.24253 1.582893,-0.13743 1.785447,1.24318 0.216478,1.47869 0.158092,1.52423 -2.972751,2.31074 -1.756703,0.44104 -4.813531,1.14006 -6.79282,1.5528 -1.979289,0.4123 -4.019659,0.88118 -4.534176,1.04044 -0.644044,0.19941 -0.866809,0.0808 -0.715903,-0.38894 z m 20.578141,-0.37906 c -3.12734,-1.96402 -4.001605,-6.17905 -1.935634,-9.33217 0.758121,-1.15631 1.078706,-1.23177 5.17759,-1.21703 4.073644,0.009 4.431596,0.0997 5.279812,1.26554 2.012794,2.76418 1.329766,7.23413 -1.376026,9.00709 -2.044951,1.33991 -5.25484,1.46414 -7.145742,0.27666 z"
         style="fill:#3f9ccd;fill-opacity:1;stroke-width:0.05574532" />
      <path
         sodipodi:nodetypes="csccccccccsccscccccccccscccccccccccssccssccscccccssccccsccccsccccccssssccccccccscscscccssccccccccccsccscscscccccscscscccccccscccccsscscsscccscccccccccccsccsssccsccccscccscccccccsccscsccccsccc"
         inkscape:connector-curvature="0"
         id="path5264"
         d="m -361.03865,1016.4465 c -38.0682,-10.6859 -67.18194,-40.37708 -77.16174,-78.69211 -4.35058,-16.70301 -4.9401,-68.37974 -0.99418,-87.14055 8.87783,-42.20911 45.19246,-77.39681 87.87217,-85.14518 7.30456,-1.32608 35.64571,-2.12157 62.98021,-1.76757 49.509,0.64135 49.70212,0.6638 50.45862,5.99086 l 0.75902,5.34745 -48.29169,0.018 c -26.56047,0.008 -54.51691,1.03326 -62.12552,2.2794 -40.55401,6.64173 -72.24374,37.40394 -80.11213,77.76742 -4.48791,23.02192 -1.96725,74.71599 4.43986,91.05566 9.40125,23.9754 30.75772,45.39089 55.04508,55.19732 11.88823,4.8 18.34178,5.3911 71.29843,6.5303 56.22511,1.2095 58.22713,1.416 58.22713,6.0058 0,4.6069 -1.7188,4.7656 -55.85045,5.1564 -38.88965,0.2802 -59.09825,-0.5084 -66.54526,-2.599 z m 480.07613,-91.84937 0,-95.2299 5.34736,0.75991 5.34736,0.75902 0.66201,89.12299 c 0.36379,49.01765 0.0719,91.52935 -0.63955,94.47045 -0.80483,3.3079 -3.09707,5.3473 -6.00937,5.3473 -4.61448,0 -4.7079,-1.8896 -4.7079,-95.22977 z m 72.30276,92.04257 c -0.74644,-1.9462 -1.01098,-31.73008 -0.58656,-66.18651 l 0.7707,-62.64793 7.81134,-15.85722 c 9.45505,-19.19412 24.28,-33.00118 42.93625,-39.9882 11.99134,-4.49097 17.34508,-4.93884 50.2585,-4.20488 32.9842,0.73567 37.91882,1.39498 47.17436,6.30426 15.70174,8.32829 30.42555,23.18486 37.74097,38.08131 l 6.58433,13.4077 0,66.54525 c 0,64.96072 -0.11318,66.54512 -4.75325,66.54512 -4.60918,0 -4.78919,-1.9805 -5.94156,-65.35683 l -1.18829,-65.35687 -7.05412,-12.73581 c -15.64263,-28.2419 -32.54397,-35.98479 -78.54773,-35.98479 -30.13757,0 -31.81343,0.26588 -45.83328,7.27167 -15.27785,7.63439 -26.0844,18.95133 -33.1387,34.70363 -3.419,7.63457 -4.28537,19.57992 -5.31368,73.26154 -1.12398,58.67356 -1.58379,64.20776 -5.39497,64.93836 -2.29143,0.4393 -4.77724,-0.794 -5.52413,-2.7398 z m 281.8127,-1.7527 c -21.14448,-9.5601 -35.83919,-29.49969 -36.48521,-49.50753 -0.30001,-9.28753 0.32427,-10.9094 4.20048,-10.9094 3.52715,0 5.40116,3.09644 8.31822,13.74463 4.6099,16.82759 14.25052,29.27686 27.23919,35.1751 8.79879,3.9956 16.41521,4.4551 74.63784,4.5019 53.3279,0.045 66.40774,-0.6028 73.67501,-3.6389 31.85187,-13.30525 41.73592,-54.48506 18.89896,-78.73829 -12.95453,-13.75784 -23.10913,-16.74783 -95.62109,-28.15504 -54.91933,-8.63962 -78.6876,-17.10022 -94.34433,-33.58288 -27.9109,-29.38313 -13.22697,-83.52223 26.3069,-96.99272 8.47093,-2.88634 23.12422,-3.62856 71.43155,-3.61796 34.02895,0.007 64.62058,1.0814 69.51396,2.44054 24.46325,6.79462 44.73437,31.18878 44.73437,53.83325 0,9.59014 -0.49853,10.51705 -5.29041,9.82926 -4.16356,-0.59734 -5.64918,-2.87224 -6.9749,-10.67846 -2.27948,-13.42234 -7.25721,-22.41021 -17.28983,-31.21897 -13.2029,-11.59233 -21.51726,-12.70176 -89.07224,-11.88624 l -61.19503,0.73836 -11.50458,7.12984 c -14.86654,9.21333 -22.56839,23.15504 -22.56839,40.85258 0,38.23114 24.06937,52.7329 105.75935,63.71973 56.45964,7.59352 84.83997,17.29361 98.27111,33.58791 19.71016,23.91181 14.6656,66.01044 -10.18074,84.96169 -16.40336,12.5114 -22.42871,13.3556 -94.92487,13.299 -62.06704,-0.045 -67.60429,-0.3979 -77.53532,-4.8877 z m 303.83631,1.6277 c -16.05502,-5.735 -30.63996,-15.9226 -38.85515,-27.14034 -16.13909,-22.03788 -16.20817,-22.54054 -17.21367,-125.21566 -0.768,-78.45413 -0.37636,-93.40412 2.55417,-97.35147 2.94473,-3.96702 4.0326,-4.18979 7.28389,-1.49145 3.11908,2.58866 3.82205,8.36376 3.82205,31.40041 l 0,28.22842 40.11144,0 c 32.21898,0 40.67662,0.68087 42.98368,3.46077 6.00335,7.23359 0.12575,8.42224 -41.64466,8.42224 l -41.45046,0 0.0269,60.00952 c 0.018,58.18697 0.19402,60.37043 5.65743,71.89261 6.72716,14.18819 20.45553,27.93452 33.53348,33.57745 5.22852,2.2561 18.06224,4.7146 28.51937,5.4635 17.42359,1.2477 19.07636,1.8085 19.77232,6.7089 0.73297,5.1616 0.11408,5.3437 -17.82456,5.2431 -10.22125,-0.054 -22.49392,-1.501 -27.27251,-3.208 z m 130.48515,0.018 c -20.08339,-7.3856 -35.20557,-24.56653 -39.77927,-45.19498 -3.48682,-15.72598 -0.99086,-29.72032 7.97734,-44.72816 8.35703,-13.98518 25.99781,-26.3104 41.27018,-28.83456 4.92545,-0.81381 35.95965,-1.49181 68.96487,-1.50618 46.42168,-0.018 60.00418,-0.69884 59.98628,-2.99701 -0.054,-6.76416 -11.919,-27.33593 -20.4881,-35.51914 -17.7007,-16.90359 -24.3035,-18.43771 -79.60962,-18.49663 -39.97554,-0.0449 -49.55391,-0.69076 -51.89601,-3.51296 -6.1644,-7.42833 -0.17426,-8.42287 50.72775,-8.42287 56.22178,0 63.47458,1.34153 82.46858,15.25449 12.3485,9.04509 24.6184,26.20315 28.93,40.45529 4.7327,15.64442 3.8463,68.90244 -1.3972,83.94378 -5.7996,16.63645 -24.0789,36.45193 -41.533,45.02303 -13.0516,6.4093 -14.9735,6.6613 -55.11386,7.2277 -30.69969,0.4329 -43.92585,-0.2722 -50.50794,-2.6923 z m 101.9327,-16.2444 c 14.864,-7.80825 27.8593,-22.46541 32.816,-37.01262 2.3013,-6.75464 3.6939,-19.19385 3.6939,-32.99615 l 0,-22.15447 -60.17225,0 c -69.44004,0 -78.41515,1.55082 -92.42512,15.97013 -10.9015,11.21992 -13.76556,18.71122 -13.76556,36.00482 0,11.00309 1.34737,15.76434 6.97031,24.63077 12.77246,20.14002 22.44246,23.18642 71.45796,22.51132 37.47696,-0.5165 39.75501,-0.8246 51.42476,-6.9545 z m 99.9685,18.036 c -2.5212,-2.5212 -2.0337,-252.28804 0.4958,-253.85126 1.1892,-0.73477 3.8629,-0.68357 5.9415,0.11408 3.3455,1.28315 3.7794,10.15235 3.7794,77.24707 l 0,75.79739 38.62,-0.0269 c 35.4674,-0.018 39.5941,-0.47697 50.5529,-5.57992 25.5009,-11.87501 37.1115,-30.3261 38.6899,-61.48434 1.0304,-20.33948 4.1323,-28.02669 9.8768,-24.47645 1.4058,0.86861 2.4807,10.21469 2.4807,21.56864 0,31.05898 -10.6346,53.11887 -33.1193,68.70078 l -9.6028,6.65476 12.334,8.61689 c 24.7138,17.26576 35.9887,40.29531 34.6602,70.79526 -0.6279,14.4136 -1.2402,16.2337 -5.4604,16.2337 -4.2748,0 -4.8937,-2.0493 -6.1478,-20.35517 -1.6354,-23.87138 -9.3903,-40.9089 -23.8231,-52.33991 -16.9519,-13.42611 -23.3561,-14.85522 -67.4703,-15.0558 l -40.4025,-0.18325 -1.1883,43.93807 c -1.0049,37.16026 -1.7561,44.04696 -4.8691,44.64366 -2.0244,0.3881 -4.4307,-0.045 -5.3474,-0.961 z m 255.4949,-2.9765 c -22.9172,-7.9578 -41.8154,-28.40886 -49.1856,-53.22673 -5.6486,-19.02102 -4.9063,-66.92755 1.2939,-83.49896 6.7151,-17.94762 23.5958,-36.09879 41.4098,-44.52633 13.7145,-6.48813 15.7748,-6.77126 49.2788,-6.77306 42.1208,-0.002 54.3666,3.51072 72.8869,20.90933 18.391,17.27699 24.7589,33.51533 25.8173,65.83519 0.5003,15.2685 -0.1473,27.62561 -1.5558,29.70766 -2.0488,3.02808 -16.0455,3.7439 -92.951,4.75326 l -90.5389,1.18829 8.5587,17.10452 c 8.9327,17.8516 16.6058,25.91194 33.0336,34.70043 9.0421,4.8372 13.9248,5.3238 64.4454,6.4221 52.6817,1.1452 54.6621,1.3605 54.6621,5.9415 0,4.5929 -1.7642,4.7714 -52.2855,5.293 -45.5238,0.4697 -53.9129,-0.027 -64.8697,-3.8302 z m 130.2266,-92.63861 c 0,-40.17117 -13.358,-64.94476 -42.1182,-78.11154 -12.0036,-5.49548 -14.7143,-5.78059 -47.6905,-5.01636 -33.1112,0.76711 -35.551,1.15569 -46.0529,7.32926 -14.2037,8.34966 -26.8638,23.17587 -31.5606,36.96056 -2.2425,6.5811 -3.694,19.07959 -3.694,31.80723 l 0,20.96609 85.5581,0 85.5581,0 z m 60.4548,94.02091 c -0.7276,-1.8959 -0.9917,-32.72241 -0.5866,-68.5033 l 0.7357,-65.05614 6.2881,-11.8831 c 7.9128,-14.95341 23.3461,-30.32665 37.4748,-37.32885 9.4096,-4.66334 15.3642,-5.51066 43.5664,-6.19953 31.1005,-0.75991 33.3229,-0.49763 46.3439,5.45749 14.1792,6.48508 26.7483,16.64669 26.7483,21.62496 0,6.15272 -7.6751,5.53733 -16.1993,-1.29869 -13.9699,-11.20331 -26.2866,-14.3461 -55.9921,-14.28744 -20.713,0.0449 -28.5672,1.01897 -36.2701,4.51675 -13.8392,6.28414 -28.1539,19.9464 -34.5907,33.01384 -5.2212,10.59986 -5.5436,14.2931 -6.6745,76.46496 -1.0882,59.82375 -1.5393,65.39465 -5.3545,66.12675 -2.2915,0.4393 -4.7615,-0.7518 -5.4891,-2.6477 z M 117.52034,785.73008 c -2.11061,-5.50007 0.85783,-10.69472 6.11213,-10.69472 5.12172,0 9.6841,6.47268 7.95722,11.28891 -1.49666,4.17389 -12.41666,3.71272 -14.06935,-0.59464 z"
         style="fill:#3f9ccd;fill-opacity:1;stroke-width:0.26458335" />
      <path
         inkscape:connector-curvature="0"
         id="path4164"
         d="m -54.984696,989.4609 c -2.830621,-2.83062 -1.944519,-7.89724 1.911637,-10.93049 2.838762,-2.23297 3.425404,-3.65107 2.702274,-6.53226 -0.762134,-3.03658 -1.758978,-3.6801 -5.700612,-3.6801 l -4.776963,0 -0.425312,8.92857 c -0.422698,8.87374 -0.451628,8.92857 -4.711024,8.92857 -4.249259,0 -4.289291,-0.0744 -4.70621,-8.74308 l -0.420496,-8.74308 -6.564605,-0.89978 c -3.610535,-0.49488 -8.473145,-0.89978 -10.805802,-0.89978 -3.912643,0 -4.16487,-0.3041 -3.255922,-3.92564 0.541901,-2.1591 1.093734,-3.94825 1.226297,-3.97589 3.136783,-0.65391 8.018874,-4.53027 7.478665,-5.93803 -0.39567,-1.03109 -0.09672,-1.87472 0.664337,-1.87472 0.836692,0 1.383736,-9.3187 1.383736,-23.57143 0,-25.94313 0.08089,-25.68622 -9.758569,-30.99483 -3.806398,-2.05364 -4.307557,-2.92132 -3.284563,-5.68673 1.135044,-3.06832 1.85965,-3.23611 12.125159,-2.80769 l 10.917973,0.45564 0,-9.32746 c 0,-5.1301 0.482143,-9.62216 1.071429,-9.98236 0.589285,-0.3602 2.945028,-0.88028 5.234982,-1.15574 l 4.163556,-0.50083 -0.330833,10.35714 -0.330833,10.35715 5.09585,0 c 5.385539,0 5.120022,0.45699 5.810135,-10 0.678875,-10.28671 0.53552,-10 5,-10 l 4.285714,0 0,10 0,10 4.356657,0 c 6.333656,0 11.310894,3.06649 18.158812,11.18772 6.250258,7.41243 7.648664,12.85489 4.066798,15.82758 -1.094038,0.90797 -2.76324,3.51964 -3.709334,5.80372 -1.542682,3.72436 -1.319223,4.67853 2.165671,9.24746 10.460806,13.71483 1.552119,36.42707 -14.324318,36.51911 -9.880787,0.0573 -10.714286,0.89634 -10.714286,10.78573 0,7.72025 -0.462946,9.36235 -3.175009,11.26196 -3.790435,2.65492 -8.459835,2.87473 -10.824991,0.50957 z m 19.051577,-37.47764 c 7.366139,-3.8216 8.523277,-10.22023 2.870502,-15.87301 -3.175832,-3.17583 -4.657689,-3.50649 -15.714286,-3.50649 l -12.207793,0 0,10.71429 0,10.71428 10.55099,0 c 6.37594,0 12.113854,-0.81082 14.500587,-2.04907 z m -1.909494,-31.78022 c 3.494954,-3.1629 3.341236,-11.11596 -0.28494,-14.74214 -2.31458,-2.31458 -4.761904,-2.85714 -12.88764,-2.85714 l -10.030496,0 0.211077,10.90264 0.211079,10.90265 10.104358,-0.9391 c 6.202936,-0.5765 11.09752,-1.8379 12.676562,-3.26691 z"
         style="opacity:1;fill:#fe9800;fill-opacity:1;stroke:none;stroke-width:1.35500002;stroke-linecap:square;stroke-linejoin:round;stroke-miterlimit:4;stroke-dasharray:none;stroke-opacity:1" />
      <path
         sodipodi:nodetypes="sssscssccsccsssssssssssssss"
         inkscape:connector-curvature="0"
         id="path4166"
         d="m -74.659453,1011.9724 c -32.570167,-9.1574 -54.528427,-31.46611 -63.639867,-64.65552 -2.49646,-9.09363 -2.89936,-13.39149 -2.19185,-23.38083 1.44287,-20.37186 6.45777,-33.53123 19.15392,-50.26086 3.42861,-4.51786 5.71412,-8.22486 5.07891,-8.23779 -0.63521,-0.0129 1.21468,-1.45935 4.11086,-3.21428 15.845911,-9.60178 23.549243,-14.81767 25.609291,-17.33992 2.058636,-2.52052 4.484294,-2.87571 22.806276,-3.33952 47.175876,-3.17576 59.69224,13.19355 70.6602313,24.59317 15.0820427,15.03898 22.3261427,27.90178 24.9625287,44.32405 0.882957,5.5 2.1218,12.01652 2.753,14.48114 -1.694648,25.87143 -6.981648,54.2173 -29.8297716,68.32023 -1.3573714,0.81639 -6.1446271,3.93682 -10.6383514,6.93423 -14.471383,9.6529 -24.889696,12.7774 -44.446134,13.3294 -11.836386,0.3341 -19.385872,-0.1468 -24.389043,-1.5535 z m 42.960471,-13.7733 c 24.9136117,-7.65721 45.602515,-29.70909 50.8563,-54.20669 2.390957,-11.14865 0.9407,-31.84974 -2.933614,-41.87461 -11.3286714,-29.31316 -38.495597,-48.08547 -69.588381,-48.08547 -10.764178,0 -28.708802,4.31013 -30.641468,7.3598 -0.671282,1.05925 -1.230358,1.43071 -1.24239,0.82545 -0.05424,-2.72868 -12.981602,5.91149 -20.878305,13.9543 -8.59693,8.75599 -18.51498,25.41032 -16.79234,28.19761 0.47958,0.77597 0.0982,1.88906 -0.84751,2.47354 -2.2643,1.39942 -4.62957,20.45124 -3.55287,28.61787 4.07173,30.88369 25.92756,55.76487 56.334864,64.1329 8.325771,2.2912 29.770116,1.5299 39.285714,-1.3947 z"
         style="opacity:1;fill:#fe9800;fill-opacity:1;stroke:none;stroke-width:1.35500002;stroke-linecap:square;stroke-linejoin:round;stroke-miterlimit:4;stroke-dasharray:none;stroke-opacity:1" />
    </g>
  </g>
</svg>
