<?xml version="1.0" encoding="UTF-8" standalone="no"?>
<!-- Created with Inkscape (http://www.inkscape.org/) -->

<svg
   xmlns:dc="http://purl.org/dc/elements/1.1/"
   xmlns:cc="http://creativecommons.org/ns#"
   xmlns:rdf="http://www.w3.org/1999/02/22-rdf-syntax-ns#"
   xmlns:svg="http://www.w3.org/2000/svg"
   xmlns="http://www.w3.org/2000/svg"
   xmlns:sodipodi="http://sodipodi.sourceforge.net/DTD/sodipodi-0.dtd"
   xmlns:inkscape="http://www.inkscape.org/namespaces/inkscape"
   width="84.666664mm"
   height="36.724529mm"
   viewBox="0 0 299.99999 130.12628"
   id="svg2"
   version="1.1"
   inkscape:version="0.91 r13725"
   sodipodi:docname="coin news color.svg">
  <defs
     id="defs4" />
  <sodipodi:namedview
     id="base"
     pagecolor="#ffffff"
     bordercolor="#666666"
     borderopacity="1.0"
     inkscape:pageopacity="0.0"
     inkscape:pageshadow="2"
     inkscape:zoom="0.64"
     inkscape:cx="148.17481"
     inkscape:cy="-239.13356"
     inkscape:document-units="px"
     inkscape:current-layer="layer1"
     showgrid="false"
     fit-margin-top="0"
     fit-margin-left="0"
     fit-margin-right="0"
     fit-margin-bottom="0"
     inkscape:window-width="952"
     inkscape:window-height="1047"
     inkscape:window-x="73"
     inkscape:window-y="24"
     inkscape:window-maximized="0"
     borderlayer="false" />
  <metadata
     id="metadata7">
    <rdf:RDF>
      <cc:Work
         rdf:about="">
        <dc:format>image/svg+xml</dc:format>
        <dc:type
           rdf:resource="http://purl.org/dc/dcmitype/StillImage" />
        <dc:title></dc:title>
      </cc:Work>
    </rdf:RDF>
  </metadata>
  <g
     inkscape:label="Layer 1"
     inkscape:groupmode="layer"
     id="layer1"
     transform="translate(-697.33569,-111.27954)">
    <g
       transform="translate(432.475,-585.57324)"
       id="layer1-6"
       inkscape:label="Layer 1">
      <path
         inkscape:connector-curvature="0"
         id="path4159"
         d="m 402.84074,977.84172 c -3.6497,-1.14062 -6.60449,-3.74804 -8.26816,-7.29615 -0.80985,-1.72717 -0.94114,-2.48043 -0.94114,-5.40001 0,-3.05581 0.11032,-3.62566 1.11049,-5.73634 1.37071,-2.89263 4.04101,-5.63287 6.81781,-6.99638 1.81141,-0.88946 2.47556,-1.01728 5.28599,-1.01728 3.89565,0 5.59214,0.70513 8.76585,3.64342 2.76678,2.56155 3.96784,5.00817 4.19483,8.54507 0.42866,6.67944 -3.27661,12.55083 -8.99149,14.24796 -2.16309,0.64237 -5.93511,0.64697 -7.97418,0.01 z"
         style="opacity:1;fill:#ffffff;fill-opacity:1;stroke:none;stroke-width:5.86999989;stroke-linejoin:miter;stroke-miterlimit:4;stroke-dasharray:none;stroke-opacity:1" />
    </g>
    <g
       id="g4716">
      <path
         style="fill:#3c3b40;fill-opacity:1"
         d="m 782.49949,237.48866 c -2.14203,-2.03995 -4.53527,-4.98447 -5.31834,-6.54338 -0.78306,-1.55891 -2.75342,-3.79668 -4.37858,-4.97282 -1.62518,-1.17614 -3.80393,-2.93816 -4.84168,-3.91561 -1.03776,-0.97745 -2.85326,-1.77718 -4.03444,-1.77718 -1.18118,0 -3.17905,-1.11723 -4.43972,-2.48272 -1.38517,-1.50037 -3.3924,-2.48956 -5.07287,-2.5 -2.00467,-0.0125 -2.63201,-0.41551 -2.24782,-1.44417 0.56079,-1.50145 -0.64529,-2.84534 -3.48794,-3.88649 -2.79257,-1.0228 -1.92864,0.27075 0.97331,1.45733 1.47214,0.60194 2.19547,1.28058 1.60742,1.50809 -1.6114,0.62339 -6.42902,-1.51328 -5.79363,-2.56955 0.3048,-0.50669 -0.0325,-1.52405 -0.74964,-2.2608 -1.53932,-1.58154 -1.05696,-3.82169 0.82293,-3.82169 1.65068,0 2.75715,-1.64912 1.15016,-1.71422 -0.64561,-0.0262 -1.94031,-0.37431 -2.87713,-0.77366 -1.11039,-0.47334 -1.7033,-0.27423 -1.7033,0.57202 0,0.79429 -0.50934,0.58246 -1.31233,-0.54579 -0.75235,-1.05711 -1.80882,-1.52863 -2.47592,-1.10504 -1.34938,0.85684 -3.99828,-1.09036 -3.99828,-2.93912 0,-1.52192 3.66699,-2.67937 4.43639,-1.40031 0.29979,0.49837 1.06672,0.89115 1.70428,0.87285 0.63756,-0.0183 0.0772,-0.95824 -1.24529,-2.08877 -1.50985,-1.2907 -2.54088,-1.6351 -2.77107,-0.92561 -0.21423,0.66031 -1.13636,0.218 -2.21876,-1.06424 -1.0187,-1.20677 -1.85218,-1.88527 -1.85218,-1.50779 0,0.37749 -1.46696,-0.82083 -3.25992,-2.66294 -2.36797,-2.43289 -3.76609,-3.15985 -5.10991,-2.65692 -2.42435,0.90733 -4.95292,-0.96354 -3.1127,-2.30307 0.82436,-0.60007 0.24905,-0.71274 -1.65723,-0.32454 -2.43775,0.49643 -2.62435,0.41078 -1.12994,-0.51866 0.98451,-0.6123 2.92772,-0.88984 4.31824,-0.61673 3.8138,0.74904 5.55447,-0.21257 3.41018,-1.88392 -2.04964,-1.59758 -3.55599,-1.82785 -2.70522,-0.41354 1.08324,1.80077 -1.1165,1.04742 -2.91995,-1 -0.96893,-1.1 -2.16307,-2 -2.65367,-2 -0.49059,0 -0.2037,0.70714 0.63752,1.57143 2.13299,2.19147 1.92216,3.10364 -0.25045,1.08356 -0.97897,-0.91025 -2.48609,-1.65499 -3.34916,-1.65499 -0.86308,0 -1.81468,-0.40803 -2.11466,-0.90674 -0.3,-0.49871 0.33114,-0.67123 1.40253,-0.38337 1.13266,0.30432 1.94797,0.0313 1.94797,-0.65228 0,-0.6466 0.43799,-0.89753 0.97332,-0.55761 0.53532,0.33992 0.97331,-0.32591 0.97331,-1.47962 0,-2.34723 -6.23076,-9.47847 -10.06928,-11.52452 -1.37402,-0.73239 -3.28396,-1.13782 -4.24432,-0.90096 -1.28375,0.31662 -2.32601,-0.76135 -3.93607,-4.07092 -2.06256,-4.23971 -2.18996,-5.72385 -2.18996,-25.51278 l 0,-21.0112 44.28587,0 c 24.35723,0 44.28587,0.35546 44.28587,0.7899 0,1.08598 -2.92819,12.5519 -3.30419,12.9382 -0.16687,0.17146 -3.98112,-0.59407 -8.4761,-1.70117 -4.49497,-1.10711 -8.45244,-2.01607 -8.79435,-2.01992 -0.34192,-0.004 -0.9151,1.59995 -1.27371,3.564 -0.35863,1.96406 -0.8699,4.15429 -1.13617,4.86718 -0.32019,0.85727 0.97142,1.67272 3.81437,2.40821 7.38905,1.9116 7.36885,1.60548 1.65815,25.12194 -2.80123,11.53537 -5.67987,21.47369 -6.39697,22.08515 -0.71711,0.61146 -2.31033,0.81386 -3.54049,0.44978 -1.23018,-0.36408 -2.94453,-0.86246 -3.80969,-1.10752 -1.13516,-0.32153 -2.16999,0.98018 -3.71765,4.67645 -1.17955,2.8171 -1.96572,5.30582 -1.74703,5.53049 0.21867,0.22467 3.59699,1.2715 7.50737,2.32628 3.91038,1.05478 7.4841,2.51477 7.94157,3.24441 0.93296,1.48795 0.0614,7.15512 -1.17507,7.64123 -0.44014,0.17303 -0.55901,0.96053 -0.26415,1.75 0.39492,1.05738 -0.26027,1.43539 -2.48797,1.43539 -1.66325,0 -3.02408,0.49814 -3.02408,1.10699 0,0.60884 0.60671,0.86779 1.34824,0.57544 0.74153,-0.29236 2.21897,0.0951 3.28321,0.86092 1.06425,0.76586 3.64915,1.67409 5.74425,2.0183 l 3.80926,0.62582 1.26382,-5.34373 c 2.20726,-9.33292 1.95798,-8.90787 4.81373,-8.20746 1.43572,0.35213 2.89548,0.80201 3.2439,0.99973 0.34843,0.19772 -0.15564,3.51151 -1.12015,7.36399 -0.96451,3.85248 -1.4268,7.21205 -1.02731,7.46571 0.39947,0.25366 2.50102,0.75277 4.67008,1.10913 4.36873,0.71774 3.90952,1.33381 6.18427,-8.29671 l 1.23341,-5.22188 7.07809,0.61472 c 14.56004,1.26452 22.60824,-4.43899 25.03226,-17.73956 1.02464,-5.62218 -0.29688,-9.88575 -4.30186,-13.87901 l -3.6545,-3.6438 2.77138,-1.26036 c 1.52426,-0.6932 3.66745,-2.69764 4.76265,-4.4543 l 1.99127,-3.19394 0.0163,42.25 0.0164,42.25 -16.3517,0 c -11.73341,0 -16.72192,-0.35304 -17.66247,-1.25 -1.04863,-1 -1.17339,-1 -0.62389,0 1.54664,2.81456 -4.00045,0.98461 -7.7025,-2.54101 z m 3.89459,-2.20899 c -0.96892,-1.1 -2.24128,-1.98503 -2.82747,-1.96673 -0.58618,0.0183 -0.0318,0.9183 1.232,2 2.97234,2.54409 3.8496,2.5258 1.59547,-0.0333 z m -5.59656,-5.227 c -1.20448,-1.22484 -3.00406,-3.13734 -3.99906,-4.25 -1.77,-1.97926 -1.77276,-1.95814 -0.12786,0.977 1.73531,3.09645 4.15179,5.5 5.52959,5.5 0.43301,0 -0.19819,-1.00215 -1.40267,-2.227 z m -2.66675,-9.25659 c -1.65572,-2.75246 -2.45528,-3.336 -3.43098,-2.50404 -0.88173,0.75183 -1.46574,0.76294 -1.90292,0.0362 -0.34691,-0.57672 -1.0801,-1.04857 -1.62931,-1.04857 -0.96883,0 0.97162,1.91242 5.98002,5.89361 3.28148,2.60846 3.567,1.91811 0.98319,-2.3772 z m -15.61111,-5.55547 c -2.308,-1.49964 -3.55496,-1.03455 -1.50284,0.56053 1.03157,0.80183 2.11387,1.21305 2.4051,0.91382 0.29124,-0.29922 -0.11478,-0.96268 -0.90226,-1.47435 z m -10.67829,-14.06793 c 0,-0.49115 -0.65698,-0.89301 -1.45997,-0.89301 -0.80299,0 -1.45997,0.66088 -1.45997,1.46861 0,0.8946 0.57064,1.24364 1.45997,0.89302 0.80299,-0.31659 1.45997,-0.97746 1.45997,-1.46862 z m 2.58061,-1.35916 c -0.31889,-0.85382 -1.13949,-1.43573 -1.82353,-1.29313 -0.68406,0.14261 -1.14805,-0.26064 -1.0311,-0.89609 0.11694,-0.63545 -1.30653,-2.34585 -3.16328,-3.80089 -1.85675,-1.45504 -3.37591,-2.18845 -3.37591,-1.62981 0,0.55863 0.87599,1.49737 1.94664,2.08607 1.07064,0.5887 1.94663,1.60013 1.94663,2.24762 0,1.225 5.07902,5.85009 5.71681,5.20587 0.19995,-0.20198 0.10265,-1.06582 -0.21626,-1.91964 z m -16.20703,0.0252 c 0,-0.24254 -0.43799,-0.7191 -0.97331,-1.05902 -0.53533,-0.33992 -0.97332,-0.14148 -0.97332,0.44098 0,0.58246 0.43799,1.05902 0.97332,1.05902 0.53532,0 0.97331,-0.19844 0.97331,-0.44098 z m 19.46632,-2.02764 c 0,-0.92914 -0.56628,-1.24535 -1.54159,-0.86083 -1.24119,0.48935 -1.2886,0.77253 -0.24333,1.4533 1.72873,1.12588 1.78492,1.10723 1.78492,-0.59247 z m -14.78318,-9.20005 c 1.51664,-1.55822 1.44226,-1.62177 -1.1238,-0.96007 -2.26454,0.58395 -2.83928,0.34975 -3.26716,-1.33133 -0.28557,-1.12196 -0.90613,-2.03993 -1.37901,-2.03993 -0.47289,0 -0.8598,-0.45 -0.8598,-1 0,-0.55 0.71062,-1 1.57915,-1 2.40123,0 0.0684,-2.44826 -4.58833,-4.8154 -4.04883,-2.05812 -4.01991,-1.74812 0.29891,3.20386 0.9183,1.05294 1.40857,2.34843 1.08948,2.87888 -0.57923,0.96291 4.31268,6.56725 5.82691,6.6755 0.43972,0.0314 1.53037,-0.69374 2.42365,-1.61151 z m -7.92752,-6.998 c -0.35689,-0.36666 -0.64888,-1.13166 -0.64888,-1.7 0,-0.6266 0.45334,-0.56756 1.15175,0.15 0.63348,0.65084 0.92547,1.41584 0.64888,1.7 -0.27658,0.28417 -0.79487,0.21667 -1.15175,-0.15 z m 11.03091,4.98476 c 0,-0.10004 -1.31398,-1.14319 -2.91995,-2.31809 l -2.91995,-2.13619 0,2.3181 c 0,1.90899 0.51532,2.31809 2.91995,2.31809 1.60597,0 2.91995,-0.0819 2.91995,-0.18191 z m -15.57305,-12.6994 c 0,-0.20972 -1.60794,-1.64137 -3.57319,-3.18143 -3.41887,-2.6792 -3.63065,-1.92324 -0.50784,1.81274 1.26944,1.5187 4.08103,2.46164 4.08103,1.36869 z m 119.38223,59.92266 c -7.23709,-2.65112 -11.34418,-8.8812 -11.34418,-17.20808 0,-15.39576 17.73257,-24.10422 28.78334,-14.1355 5.57462,5.02877 6.25603,7.28913 6.25603,20.75257 0,11.38299 -0.1077,12.04966 -1.94663,12.04966 -1.58503,0 -1.94664,-0.66667 -1.94664,-3.58889 l 0,-3.5889 -2.95016,2.55047 c -5.44996,4.12049 -11.11114,5.24854 -16.85176,3.16867 z m 14.94865,-7.05444 c 5.37936,-5.29505 5.53121,-14.51766 0.32706,-19.86449 -6.55089,-6.73048 -16.60135,-4.991 -20.6358,3.57154 -2.54519,5.40181 -2.57346,7.11718 -0.20556,12.47536 3.6677,8.29947 14.00644,10.22345 20.5143,3.81759 z m 19.93929,7.17484 c -4.33115,-2.01005 -5.50392,-3.63652 -3.64082,-5.22514 1.21735,-1.03802 1.55296,-1.42972 2.92947,-0.16757 3.19909,2.93334 8.40066,2.57673 10.50317,-0.72008 2.3107,-3.62326 0.96587,-6.2202 -5.01789,-9.68981 -2.9111,-1.68797 -5.94254,-4.02193 -6.73653,-5.18659 -1.63894,-2.40407 -1.9031,-7.92197 -0.50751,-10.60115 2.27538,-4.36813 10.63497,-5.03758 15.44265,-1.23667 1.95445,1.54518 1.39541,1.69115 0.15971,2.74479 -1.14189,0.97367 -1.46567,1.14303 -4.24303,-0.21767 -4.77498,-2.33946 -8.4022,-0.76749 -8.4022,3.64135 0,2.57909 0.70386,3.46386 4.59135,5.77144 2.52525,1.49896 5.81019,3.92826 7.29987,5.39846 7.72146,7.62043 -2.30339,20.16434 -12.37826,15.48867 z m 45.89727,-0.1204 c -7.54007,-2.76211 -11.34418,-8.47668 -11.34418,-17.04135 0,-6.22312 1.39379,-9.68537 5.50967,-13.68638 7.49917,-7.28987 19.72911,-6.00997 26.23608,2.74567 2.7054,3.64028 2.8186,4.24139 3.1276,16.60884 0.3108,12.43429 0.258,12.83187 -1.7033,12.83187 -1.6738,0 -2.024,-0.62095 -2.024,-3.58889 l 0,-3.5889 -2.95011,2.55047 c -5.44996,4.12049 -11.11114,5.24854 -16.85176,3.16867 z m 14.30501,-6.38838 c 5.23316,-4.78412 6.14306,-14.0221 1.89242,-19.21222 -5.56765,-6.79819 -13.44387,-7.35832 -19.27185,-1.37056 -7.30419,7.50443 -4.79809,19.47887 4.78103,22.84441 4.278,1.50303 9.50724,0.5643 12.5984,-2.26163 z m -38.3023,-10.65297 0,-17.5 2.43329,0 2.43329,0 0,17.5 0,17.5 -2.43329,0 -2.43329,0 z m 71.04576,-19.43434 c -1.3418,-0.41934 -3.9078,-1.5425 -5.7023,-2.49592 l -3.2628,-1.73348 2.7168,-2.91347 c 2.4277,-2.60345 2.931,-2.77119 4.729,-1.57632 5.8143,3.86371 13.2054,2.57061 13.2054,-2.31032 0,-2.88063 -1.2486,-3.78715 -10.9239,-7.93107 -10.57,-4.52714 -11.3022,-16.51897 -1.3321,-21.81605 3.6648,-1.94712 13.0042,-1.32578 16.61567,1.10542 l 2.6508,1.7845 -2.6725,2.86604 c -2.44737,2.62447 -2.84307,2.74336 -4.69517,1.41052 -2.8684,-2.06417 -7.7733,-1.82751 -9.7995,0.47283 -2.3758,2.69718 -1.1984,5.54082 3.1359,7.57409 10.31877,4.84062 12.11177,5.91992 13.53047,8.14446 1.8337,2.8752 2.0145,9.06843 0.3577,12.24907 -2.3738,4.55712 -11.96357,7.2292 -18.55347,5.1697 z M 730.91508,196.2797 c -0.33084,-0.55 -0.1377,-1 0.42922,-1 0.56691,0 1.03076,0.45 1.03076,1 0,0.55 -0.19315,1 -0.42921,1 -0.23607,0 -0.69992,-0.45 -1.03077,-1 z m 108.52471,-19.5 0,-20.5 4.28681,0 4.28679,0 8.12299,12.95969 c 4.46763,7.12783 8.45146,12.97783 8.85295,13 0.4015,0.0222 0.72999,-5.80969 0.72999,-12.95969 l 0,-13 3.40661,0 3.4066,0 0,20.5 0,20.5 -3.64993,-0.007 c -3.63221,-0.007 -3.69484,-0.0787 -12.89644,-14.73772 l -9.2465,-14.73063 -0.26934,14.73773 -0.26936,14.73772 -3.38058,0 -3.38059,0 0,-20.5 z m 41.85258,0 0,-20.5 13.13977,0 13.13976,0 0,3 0,3 -9.73316,0 -9.73316,0 0,4.96379 0,4.96379 9.48983,0.28621 9.48983,0.28621 0,3 0,3 -9.53733,0.2868 -9.53733,0.2868 0.29083,5.7132 0.29083,5.7132 9.48983,0.28621 9.48983,0.28621 0,2.96379 0,2.96379 -13.13976,0 -13.13977,0 z m 42.38569,19.25 c -0.20852,-0.6875 -3.04172,-9.57531 -6.29601,-19.75069 -3.25428,-10.17538 -5.91689,-18.83788 -5.91689,-19.25 0,-0.41212 1.7386,-0.74931 3.86355,-0.74931 l 3.86355,0 4.04813,13.07142 c 2.22647,7.18928 4.35632,12.70178 4.73301,12.25 0.37669,-0.45178 2.14326,-6.33392 3.9257,-13.07142 l 3.24081,-12.25 3.20781,0 c 3.50694,0 3.41529,-0.20684 8.75202,19.75213 0.9194,3.43866 1.9281,5.99481 2.2416,5.68031 0.3134,-0.31449 2.356,-6.05295 4.5392,-12.75212 l 3.9694,-12.18032 3.9888,-0.3039 3.9888,-0.3039 -3.17,10.3039 c -1.7435,5.66714 -4.6581,14.93745 -6.4768,20.60067 l -3.3068,10.29678 -3.406,-0.29678 -3.40602,-0.29677 -3.42863,-11.68129 c -1.88575,-6.42471 -3.68694,-11.94011 -4.00267,-12.25645 -0.31572,-0.31634 -1.11708,1.34025 -1.78081,3.68129 -0.66372,2.34105 -2.29337,7.96895 -3.62144,12.50645 l -2.41469,8.25 -3.37825,0 c -1.85804,0 -3.54886,-0.5625 -3.75737,-1.25 z m -198.11621,-4.25 c -0.6984,-0.86459 -0.793,-1.5 -0.22331,-1.5 0.5436,0 1.24046,0.675 1.5486,1.5 0.30814,0.825 0.40862,1.5 0.22331,1.5 -0.18531,0 -0.88218,-0.675 -1.5486,-1.5 z m 56.82603,-5.73391 -4.00621,-0.99373 2.2212,-8.9689 c 1.22165,-4.93289 2.47426,-9.2289 2.78356,-9.54668 0.95384,-0.97999 10.58406,1.67163 14.59593,4.0189 7.58105,4.4355 9.19634,9.9871 4.27612,14.69664 -1.7449,1.6702 -3.3301,2.00651 -8.99138,1.90759 -3.78016,-0.0661 -8.67581,-0.56727 -10.87922,-1.11382 z m -70.52612,-13.50894 c -1.71253,-1.99066 -1.80477,-2.26489 -0.33635,-1 2.30632,1.98667 3.78131,2.30219 2.75036,0.58834 -0.42054,-0.6991 -0.268,-0.8837 0.38671,-0.46797 0.59466,0.37759 0.83447,1.34712 0.53291,2.15451 -0.70344,1.8834 -0.57405,1.93288 -3.33363,-1.27488 z m -5.84733,-6.34048 c -1.11527,-1.14584 -1.84336,-2.27279 -1.61798,-2.50434 0.77108,-0.79222 6.5872,2.74285 6.03179,3.66615 -0.87118,1.44825 -2.21862,1.09357 -4.41381,-1.16181 z m 83.98019,-8.90311 c -1.76696,-0.42995 -3.46323,-1.03916 -3.76949,-1.35381 -0.30626,-0.31466 0.28339,-4.07932 1.31032,-8.36592 2.18726,-9.12995 2.89626,-9.51978 11.38168,-6.25794 8.63472,3.31923 11.36553,9.94945 6.03735,14.65821 -2.76684,2.44518 -8.32037,2.935 -14.95986,1.31946 z m 55.57272,-6.01716 c -12.21671,-7.19856 -14.22747,-22.79437 -4.25421,-32.99639 7.20957,-7.37494 16.26325,-8.98009 25.10839,-4.45153 7.33363,3.7547 7.96248,4.90036 4.64346,8.45966 -2.19798,2.35709 -2.94674,2.67449 -3.79833,1.61014 -2.3177,-2.89675 -6.07717,-4.61828 -10.08542,-4.61828 -8.42985,0 -13.83784,5.55279 -13.84453,14.2152 -0.003,3.84713 0.55029,5.3634 3.00522,8.23606 5.23597,6.12693 12.66279,6.81829 19.23146,1.79023 l 3.26067,-2.49591 2.52018,2.58926 c 2.50655,2.57528 2.50997,2.60104 0.63259,4.76845 -3.09596,3.57422 -9.11964,5.85159 -15.514,5.86536 -4.71585,0.0102 -6.81489,-0.56193 -10.90548,-2.97225 z m 39.90595,0.055 c -12.22596,-7.33685 -14.21781,-22.83462 -4.25094,-33.07474 10.64039,-10.9321 27.50368,-8.4642 34.43001,5.03874 2.44133,4.75939 2.748,6.25364 2.31941,11.3012 -0.59659,7.02636 -3.76868,12.4552 -9.5904,16.41346 -3.27192,2.22461 -5.35317,2.80557 -10.94149,3.05419 -6.21503,0.2765 -7.40453,0.005 -11.96659,-2.73285 z m 16.25157,-5.66518 c 13.07459,-5.37484 10.34662,-24.7552 -3.67943,-26.13988 -8.78906,-0.86767 -14.79567,4.78352 -14.80278,13.92689 -0.004,5.36532 3.16903,10.15918 8.22128,12.42013 3.91908,1.75384 5.57189,1.72047 10.26093,-0.20714 z m 23.04229,7.94707 c -0.35689,-0.36666 -0.64888,-9.81666 -0.64888,-21 l 0,-20.33333 3.89326,0 3.89326,0 0,21 0,21 -3.24438,0 c -1.78442,0 -3.53639,-0.3 -3.89326,-0.66667 z m 15.57305,0 c -0.35688,-0.36666 -0.64888,-9.81666 -0.64888,-21 l 0,-20.33333 4.77061,0 4.77061,0 8.3534,13.25 8.3534,13.25 0.016,-13.25 0.016,-13.25 3.8932,0 3.8933,0 0,21.06036 0,21.06037 -3.65,-0.31037 c -3.5363,-0.3007 -3.9375,-0.75989 -12.8964,-14.76019 l -9.2465,-14.44982 -0.26933,14.69982 -0.26936,14.69983 -3.21836,0 c -1.7701,0 -3.51036,-0.3 -3.86723,-0.66667 z M 821.4929,140.60395 c -1.57326,-1.94222 -5.1867,-4.70348 -8.02985,-6.13612 -2.84315,-1.43264 -5.16936,-3.0086 -5.16936,-3.50213 0,-0.49354 0.68454,-3.61149 1.5212,-6.92878 0.86329,-3.42289 1.15475,-6.40794 0.67391,-6.90196 -0.46601,-0.47879 -2.52631,-0.97959 -4.57844,-1.11291 -4.058,-0.26361 -4.03749,-0.29231 -6.31651,8.83557 -0.94741,3.79457 -1.22161,4.04727 -3.94569,3.6365 -3.37971,-0.50964 -3.51661,-1.35096 -1.49184,-9.16795 0.77691,-2.99942 1.30316,-5.5659 1.16944,-5.70329 -0.13372,-0.13739 -1.32207,-0.69229 -2.64077,-1.23312 -1.71432,-0.70307 2.52609,-1.00138 14.87871,-1.0467 l 17.27636,-0.0634 0,16.5 c 0,9.075 -0.1095,16.46751 -0.24333,16.4278 -0.13383,-0.0397 -1.53055,-1.66129 -3.10383,-3.60352 z"
         id="path4147"
         inkscape:connector-curvature="0"
         sodipodi:nodetypes="cssssscssscscscsssssssssssssssssssssssscsssssssscsscscscsssssscsscsssccscsscsssscssscsscccssscccscccssssssscssssscsssscsscssssssssssssssssssssssssscscssccsscssssssscssssscccssssscssssssssssssscsssssscccscssscscccccccsscsssssscsssssssscsssccccscscccccssccccccccscccccccccccccccccccccccsssscssscsscscccsscccsssscssssssssssssscsssssssssssssssssscsssscsscsssscssssscsccsscccccccsccccccccccccccsscccscccssssssscsscscccc" />
      <path
         style="fill:#3c3b40;fill-opacity:1"
         d="m 782.4995,237.48876 c -2.14203,-2.04 -4.53527,-4.9845 -5.31834,-6.5434 -0.78306,-1.55889 -2.75342,-3.79669 -4.37858,-4.9728 -1.62518,-1.1762 -3.80394,-2.9382 -4.84168,-3.9156 -1.03777,-0.9775 -2.85326,-1.7772 -4.03444,-1.7772 -1.18119,0 -3.17905,-1.1172 -4.43972,-2.4827 -1.38517,-1.5004 -3.3924,-2.4896 -5.07287,-2.5 -2.00467,-0.013 -2.63201,-0.4155 -2.24782,-1.4442 0.56079,-1.50139 -0.6453,-2.8453 -3.48794,-3.8865 -2.79257,-1.0228 -1.92864,0.2708 0.97331,1.4573 1.47213,0.602 2.19547,1.2806 1.60742,1.50811 -1.6114,0.6234 -6.42902,-1.51321 -5.79363,-2.56951 0.3048,-0.50669 -0.0325,-1.5241 -0.74964,-2.26079 -1.53932,-1.58161 -1.05696,-3.8217 0.82293,-3.8217 1.65068,0 2.75715,-1.6491 1.15016,-1.7142 -0.64561,-0.026 -1.94031,-0.3743 -2.87713,-0.7737 -1.11039,-0.4733 -1.7033,-0.2742 -1.7033,0.572 0,0.7943 -0.50934,0.5825 -1.31233,-0.5458 -0.75235,-1.0571 -1.80882,-1.52861 -2.47592,-1.105 -1.34938,0.8568 -3.99828,-1.0904 -3.99828,-2.9391 0,-1.5219 3.66699,-2.6794 4.43639,-1.4003 0.29979,0.4983 1.06672,0.8911 1.70428,0.8728 0.63756,-0.018 0.0772,-0.9582 -1.24529,-2.0887 -1.50985,-1.2907 -2.54088,-1.6351 -2.77107,-0.9257 -0.21423,0.6604 -1.13636,0.218 -2.21876,-1.0642 -1.0187,-1.2068 -1.85218,-1.8853 -1.85218,-1.5078 0,0.3775 -1.46696,-0.8208 -3.25992,-2.6629 -2.36797,-2.43292 -3.76609,-3.15988 -5.10991,-2.65695 -2.42435,0.90733 -4.95292,-0.96354 -3.1127,-2.30307 0.82436,-0.60007 0.24905,-0.71274 -1.65723,-0.32454 -2.43775,0.49643 -2.62435,0.41078 -1.12994,-0.51866 0.98451,-0.6123 2.92772,-0.88984 4.31824,-0.61673 3.8138,0.74904 5.55447,-0.21257 3.41018,-1.88392 -2.04964,-1.59758 -3.55599,-1.82785 -2.70522,-0.41354 1.08324,1.80077 -1.1165,1.04742 -2.91995,-1 -0.96893,-1.1 -2.16307,-2 -2.65367,-2 -0.49059,0 -0.2037,0.70714 0.63752,1.57143 2.13299,2.19147 1.92216,3.10364 -0.25045,1.08356 -0.97897,-0.91025 -2.48609,-1.65499 -3.34916,-1.65499 -0.86308,0 -1.81468,-0.40803 -2.11466,-0.90674 -0.3,-0.49871 0.33114,-0.67123 1.40253,-0.38337 1.13266,0.30432 1.94797,0.0313 1.94797,-0.65228 0,-0.6466 0.43799,-0.89753 0.97332,-0.55761 0.53532,0.33992 0.97331,-0.32591 0.97331,-1.47963 0,-2.34722 -6.23076,-9.47846 -10.06928,-11.52451 -1.37402,-0.7324 -3.28396,-1.13783 -4.24433,-0.90096 -1.28375,0.31662 -2.32601,-0.76135 -3.93606,-4.07092 -2.06256,-4.23971 -2.18997,-5.72385 -2.18997,-25.51278 l 0,-21.0112 44.28588,0 c 24.35722,0 44.28587,0.35546 44.28587,0.7899 0,1.08598 -2.92819,12.5519 -3.30419,12.9382 -0.16687,0.17146 -3.98112,-0.59407 -8.4761,-1.70117 -4.49497,-1.10711 -8.45244,-2.01607 -8.79435,-2.01992 -0.34192,-0.004 -0.9151,1.59995 -1.27371,3.564 -0.35863,1.96406 -0.8699,4.15429 -1.13617,4.86718 -0.32019,0.85727 0.97142,1.67272 3.81437,2.4082 7.38905,1.9116 7.36885,1.60548 1.65815,25.12194 -2.80123,11.53537 -5.67987,21.47369 -6.39697,22.08515 -0.71711,0.61146 -2.31033,0.81386 -3.54049,0.44978 -1.23018,-0.36408 -2.94453,-0.86246 -3.80969,-1.10751 -1.13516,-0.32153 -2.16999,0.98017 -3.71765,4.67644 -1.17955,2.81711 -1.96572,5.30581 -1.74703,5.53051 0.21867,0.2247 3.59699,1.2715 7.50737,2.3263 3.91038,1.0547 7.4841,2.5147 7.94157,3.24441 0.93296,1.48789 0.0614,7.1551 -1.17507,7.64119 -0.44015,0.173 -0.55901,0.9605 -0.26415,1.75 0.39492,1.0574 -0.26027,1.4354 -2.48797,1.4354 -1.66325,0 -3.02408,0.4981 -3.02408,1.107 0,0.6088 0.60671,0.8678 1.34824,0.5754 0.74153,-0.2923 2.21897,0.095 3.28321,0.8609 1.06425,0.7659 3.64915,1.6741 5.74425,2.0183 l 3.80926,0.6259 1.26382,-5.3438 c 2.20726,-9.33289 1.95798,-8.9078 4.81373,-8.2074 1.43571,0.3521 2.89548,0.802 3.2439,0.9997 0.34843,0.1977 -0.15564,3.5115 -1.12015,7.364 -0.96451,3.8525 -1.4268,7.212 -1.02731,7.4657 0.39947,0.2537 2.50102,0.7528 4.67008,1.1091 4.36873,0.71781 3.90952,1.3338 6.18427,-8.29669 l 1.23341,-5.2219 7.07809,0.6148 c 14.56003,1.2645 22.60823,-4.439 25.03223,-17.7396 1.0247,-5.62218 -0.2969,-9.88575 -4.3018,-13.87901 l -3.6545,-3.6438 2.7713,-1.26036 c 1.5243,-0.6932 3.6675,-2.69764 4.7627,-4.4543 l 1.9913,-3.19394 0.016,42.25001 0.016,42.25 -16.3517,0 c -11.73344,0 -16.72195,-0.353 -17.6625,-1.25 -1.04863,-1 -1.17339,-1 -0.62389,0 1.54664,2.8146 -4.00045,0.9846 -7.7025,-2.541 z m 3.89459,-2.209 c -0.96892,-1.1 -2.24128,-1.985 -2.82747,-1.9667 -0.58618,0.018 -0.0318,0.9183 1.232,2 2.97234,2.5441 3.8496,2.5258 1.59547,-0.033 z m -5.59656,-5.227 c -1.20448,-1.2248 -3.00406,-3.1373 -3.99906,-4.25 -1.77,-1.9793 -1.77276,-1.9581 -0.12786,0.977 1.73531,3.0964 4.15179,5.5 5.52959,5.5 0.43301,0 -0.19819,-1.0022 -1.40267,-2.227 z m -2.66675,-9.2566 c -1.65572,-2.7525 -2.45528,-3.336 -3.43098,-2.504 -0.88173,0.75181 -1.46574,0.76291 -1.90292,0.036 -0.34691,-0.5768 -1.0801,-1.0486 -1.62931,-1.0486 -0.96883,0 0.97162,1.91239 5.98002,5.89359 3.28148,2.6085 3.567,1.91811 0.98319,-2.37719 z m -15.61111,-5.5555 c -2.308,-1.49959 -3.55496,-1.0345 -1.50284,0.5606 1.03157,0.8018 2.11387,1.213 2.4051,0.9138 0.29124,-0.2992 -0.11478,-0.9627 -0.90226,-1.4744 z m -10.67829,-14.0679 c 0,-0.4911 -0.65698,-0.893 -1.45997,-0.893 -0.80299,0 -1.45997,0.6609 -1.45997,1.4686 0,0.8946 0.57064,1.2436 1.45997,0.893 0.80299,-0.31659 1.45997,-0.97739 1.45997,-1.4686 z m 2.58061,-1.3592 c -0.31889,-0.8538 -1.13949,-1.43569 -1.82353,-1.2931 -0.68406,0.1426 -1.14805,-0.2606 -1.0311,-0.8961 0.11694,-0.6354 -1.30653,-2.34579 -3.16328,-3.8009 -1.85675,-1.455 -3.37591,-2.1884 -3.37591,-1.6298 0,0.5587 0.87599,1.4974 1.94664,2.0861 1.07064,0.5887 1.94663,1.6001 1.94663,2.2476 0,1.225 5.07902,5.8501 5.71681,5.20591 0.19995,-0.202 0.10265,-1.0658 -0.21626,-1.91971 z m -16.20703,0.025 c 0,-0.24251 -0.43799,-0.7191 -0.97331,-1.059 -0.53533,-0.3399 -0.97332,-0.14151 -0.97332,0.441 0,0.5825 0.43799,1.059 0.97332,1.059 0.53532,0 0.97331,-0.1984 0.97331,-0.441 z m 19.46632,-2.02761 c 0,-0.9291 -0.56628,-1.24529 -1.54159,-0.8608 -1.24119,0.4893 -1.2886,0.7725 -0.24333,1.4533 1.72873,1.12591 1.78492,1.10721 1.78492,-0.5925 z m -14.78318,-9.19999 c 1.51664,-1.55827 1.44226,-1.62183 -1.1238,-0.96012 -2.26454,0.58395 -2.83928,0.34975 -3.26716,-1.33133 -0.28557,-1.12196 -0.90613,-2.03993 -1.37901,-2.03993 -0.47289,0 -0.8598,-0.45 -0.8598,-1 0,-0.55 0.71062,-1 1.57915,-1 2.40123,0 0.0684,-2.44826 -4.58833,-4.8154 -4.04883,-2.05813 -4.01991,-1.74812 0.29891,3.20385 0.9183,1.05295 1.40857,2.34844 1.08948,2.87889 -0.57923,0.9629 4.31268,6.56724 5.82691,6.67554 0.43972,0.031 1.53037,-0.6938 2.42365,-1.6115 z m -7.92752,-6.99805 c -0.35689,-0.36666 -0.64888,-1.13167 -0.64888,-1.7 0,-0.6266 0.45334,-0.56756 1.15175,0.15 0.63348,0.65084 0.92547,1.41584 0.64888,1.7 -0.27658,0.28416 -0.79487,0.21667 -1.15175,-0.15 z m 11.03091,4.98475 c 0,-0.10004 -1.31398,-1.14319 -2.91995,-2.31809 l -2.91995,-2.13619 0,2.3181 c 0,1.90899 0.51532,2.31809 2.91995,2.31809 1.60597,0 2.91995,-0.0819 2.91995,-0.18191 z m -15.57305,-12.6994 c 0,-0.20972 -1.60794,-1.64136 -3.57319,-3.18143 -3.41887,-2.6792 -3.63065,-1.92323 -0.50784,1.81274 1.26944,1.5187 4.08103,2.46164 4.08103,1.36869 z m 247.21587,23.44699 c -1.3418,-0.41939 -3.9078,-1.54249 -5.7023,-2.4959 l -3.2628,-1.73349 2.7168,-2.9135 c 2.4277,-2.60345 2.931,-2.77118 4.729,-1.57631 5.8143,3.8637 13.2054,2.57061 13.2054,-2.31032 0,-2.88063 -1.2486,-3.78715 -10.9239,-7.93108 -10.57,-4.52714 -11.3022,-16.51896 -1.3321,-21.81604 3.6648,-1.94713 13.0042,-1.32578 16.6157,1.10542 l 2.6508,1.7845 -2.6725,2.86604 c -2.4474,2.62447 -2.8431,2.74336 -4.6952,1.41052 -2.8684,-2.06417 -7.7733,-1.82751 -9.7995,0.47283 -2.3758,2.69718 -1.1984,5.54082 3.1359,7.57409 10.3188,4.84062 12.1118,5.91992 13.5305,8.14446 1.8337,2.8752 2.0145,9.06839 0.3577,12.24909 -2.3738,4.5571 -11.9636,7.2292 -18.5535,5.1697 z m -246.72922,-1.06569 c -0.33084,-0.55001 -0.1377,-1 0.42922,-1 0.56691,0 1.03076,0.44999 1.03076,1 0,0.55 -0.19315,1 -0.42921,1 -0.23608,0 -0.69992,-0.45 -1.03077,-1 z m 108.52472,-19.49998 0,-20.5 4.2868,0 4.2868,0 8.123,12.95969 c 4.4676,7.12782 8.4514,12.97783 8.8529,13 0.4015,0.0222 0.73,-5.80969 0.73,-12.95969 l 0,-13 3.4066,0 3.4066,0 0,20.5 0,20.49998 -3.6499,-0.01 c -3.6322,-0.01 -3.6948,-0.079 -12.8964,-14.7377 l -9.2465,-14.73063 -0.2694,14.73773 -0.2693,14.7377 -3.3806,0 -3.3806,0 0,-20.49998 z m 41.8526,0 0,-20.5 13.1397,0 13.1398,0 0,3 0,3 -9.7332,0 -9.7331,0 0,4.96379 0,4.96378 9.4898,0.28622 9.48979,0.28621 0,3 0,3 -9.53729,0.2868 -9.5373,0.2868 0.2908,5.7132 0.2908,5.71318 9.4899,0.2862 9.4898,0.2862 0,2.9638 0,2.9638 -13.13981,0 -13.13969,0 z m 42.3857,19.24998 c -0.2086,-0.6875 -3.0418,-9.57529 -6.2961,-19.75067 -3.2542,-10.17538 -5.9168,-18.83788 -5.9168,-19.25 0,-0.41212 1.7386,-0.74931 3.8635,-0.74931 l 3.8636,0 4.0481,13.07142 c 2.2265,7.18927 4.3563,12.70178 4.733,12.25 0.3767,-0.45179 2.1433,-6.33393 3.9257,-13.07142 l 3.2408,-12.25 3.2078,0 c 3.507,0 3.4153,-0.20684 8.752,19.75213 0.9194,3.43866 1.9281,5.99481 2.2416,5.6803 0.3134,-0.31449 2.356,-6.05295 4.5392,-12.75211 l 3.9694,-12.18032 3.9888,-0.3039 3.9888,-0.3039 -3.17,10.3039 c -1.7435,5.66714 -4.6581,14.93745 -6.4768,20.60067 l -3.3068,10.29681 -3.406,-0.2968 -3.406,-0.2968 -3.4286,-11.68127 c -1.8858,-6.42471 -3.687,-11.94011 -4.0027,-12.25645 -0.3157,-0.31634 -1.1171,1.34025 -1.7808,3.68129 -0.6637,2.34105 -2.2934,7.96895 -3.6214,12.50643 l -2.4147,8.25 -3.3783,0 c -1.858,0 -3.5488,-0.5625 -3.7573,-1.25 z m -198.11625,-4.25 c -0.6984,-0.8646 -0.793,-1.5 -0.22331,-1.5 0.5436,0 1.24046,0.675 1.5486,1.5 0.30814,0.82499 0.40862,1.5 0.22331,1.5 -0.18531,0 -0.88218,-0.67501 -1.5486,-1.5 z m 56.82603,-5.73389 -4.00621,-0.99373 2.2212,-8.9689 c 1.22164,-4.93289 2.47425,-9.2289 2.78355,-9.54668 0.95385,-0.97999 10.58407,1.67162 14.59593,4.0189 7.58104,4.43549 9.19634,9.9871 4.27612,14.69664 -1.7449,1.6702 -3.3301,2.00651 -8.99138,1.90759 -3.78016,-0.0661 -8.67581,-0.56727 -10.87922,-1.11382 z m -70.52612,-13.50894 c -1.71253,-1.99066 -1.80477,-2.26489 -0.33635,-1 2.30632,1.98667 3.78131,2.30219 2.75036,0.58833 -0.42054,-0.69909 -0.268,-0.8837 0.38671,-0.46797 0.59466,0.37759 0.83447,1.34712 0.53291,2.15451 -0.70344,1.8834 -0.57405,1.93288 -3.33363,-1.27488 z m -5.84733,-6.34049 c -1.11527,-1.14583 -1.84336,-2.27278 -1.61798,-2.50434 0.77108,-0.79222 6.5872,2.74285 6.03179,3.66615 -0.87118,1.44825 -2.21862,1.09357 -4.41381,-1.16181 z m 83.98019,-8.90311 c -1.76697,-0.42994 -3.46323,-1.03916 -3.76949,-1.35381 -0.30626,-0.31466 0.28339,-4.07932 1.31032,-8.36592 2.18726,-9.12995 2.89626,-9.51977 11.38168,-6.25793 8.63467,3.31923 11.36557,9.94945 6.03737,14.65821 -2.76686,2.44517 -8.32039,2.935 -14.95988,1.31945 z m 31.49828,-16.68931 c -1.5733,-1.94222 -5.1867,-4.70348 -8.0299,-6.13612 -2.8431,-1.43264 -5.1693,-3.0086 -5.1693,-3.50213 0,-0.49354 0.68449,-3.61148 1.5212,-6.92877 0.8633,-3.42289 1.1547,-6.40794 0.6739,-6.90196 -0.466,-0.4788 -2.5263,-0.9796 -4.5784,-1.11291 -4.05804,-0.26361 -4.03753,-0.29231 -6.31655,8.83557 -0.94741,3.79456 -1.22161,4.04726 -3.94569,3.6365 -3.37971,-0.50964 -3.51661,-1.35096 -1.49184,-9.16795 0.77691,-2.99942 1.30316,-5.5659 1.16944,-5.70329 -0.13373,-0.13739 -1.32208,-0.69229 -2.64077,-1.23312 -1.71432,-0.70307 2.52609,-1.00138 14.87871,-1.0467 l 17.27639,-0.0634 0,16.5 c 0,9.07499 -0.1095,16.46751 -0.24339,16.42779 -0.1338,-0.0397 -1.5305,-1.66129 -3.1038,-3.60352 z"
         id="path4147-1"
         inkscape:connector-curvature="0"
         sodipodi:nodetypes="cssssscssscscscsssssssssssssssssssssssscsssssssscsscscscsssssscsscsssccscsscsssscssscsscccssscccscccssssssscssssscsssscsscssssssssssssssssssssssssscscssccsscsssssssscsssssscsssssssscsssccccscscccccssccccccccscccccccccccccccccccccccsssscssscsscscccsscccsssscssssssssssssscsssssssssssssssssscsssssscsscsccccc" />
    </g>
  </g>
</svg>
