<?xml version="1.0" encoding="UTF-8" standalone="no"?>
<!-- Created with Inkscape (http://www.inkscape.org/) -->

<svg
   xmlns:dc="http://purl.org/dc/elements/1.1/"
   xmlns:cc="http://creativecommons.org/ns#"
   xmlns:rdf="http://www.w3.org/1999/02/22-rdf-syntax-ns#"
   xmlns:svg="http://www.w3.org/2000/svg"
   xmlns="http://www.w3.org/2000/svg"
   xmlns:sodipodi="http://sodipodi.sourceforge.net/DTD/sodipodi-0.dtd"
   xmlns:inkscape="http://www.inkscape.org/namespaces/inkscape"
   width="126.93507mm"
   height="31.077026mm"
   viewBox="0 0 449.76997 110.11545"
   id="svg2"
   version="1.1"
   inkscape:version="0.91 r13725"
   sodipodi:docname="cointelegr сщдщк.svg">
  <defs
     id="defs4" />
  <sodipodi:namedview
     id="base"
     pagecolor="#ffffff"
     bordercolor="#666666"
     borderopacity="1.0"
     inkscape:pageopacity="0.0"
     inkscape:pageshadow="2"
     inkscape:zoom="0.24748737"
     inkscape:cx="27.646391"
     inkscape:cy="203.64533"
     inkscape:document-units="px"
     inkscape:current-layer="layer1"
     showgrid="false"
     fit-margin-top="0"
     fit-margin-left="0"
     fit-margin-right="0"
     fit-margin-bottom="0"
     inkscape:window-width="952"
     inkscape:window-height="1047"
     inkscape:window-x="0"
     inkscape:window-y="0"
     inkscape:window-maximized="0" />
  <metadata
     id="metadata7">
    <rdf:RDF>
      <cc:Work
         rdf:about="">
        <dc:format>image/svg+xml</dc:format>
        <dc:type
           rdf:resource="http://purl.org/dc/dcmitype/StillImage" />
        <dc:title></dc:title>
      </cc:Work>
    </rdf:RDF>
  </metadata>
  <g
     inkscape:label="Layer 1"
     inkscape:groupmode="layer"
     id="layer1"
     transform="translate(-760.23836,-227.75676)">
    <g
       id="g4390"
       transform="translate(15.152288,-131.31983)">
      <path
         sodipodi:nodetypes="csssssssssccsssssscscscccssssssssccsssscsscccssscsscsssscscsssssssscsscssssssssssssscsssssssscssssscssssscsscccssscscsssssssssscc"
         inkscape:connector-curvature="0"
         id="path4380"
         d="m 809.84301,467.97372 c -1.41935,1.86249 -1.45972,1.75936 -0.58719,-1.5 0.51532,-1.925 2.0025,-7.8875 3.30483,-13.25 1.30234,-5.3625 2.25026,-9.75 2.1065,-9.75 -0.14377,0 -2.53979,1.53325 -5.32449,3.40722 -2.78471,1.87396 -7.44243,4.23646 -10.35049,5.25 -4.00026,1.39418 -8.08688,1.82986 -16.78739,1.7897 -9.51533,-0.0439 -12.4927,-0.44475 -17.25209,-2.32263 -3.16364,-1.24825 -7.94432,-4.00242 -10.62373,-6.12037 -2.80645,-2.21837 -5.79811,-5.76463 -7.05711,-8.36537 -2.11052,-4.35975 -2.17486,-5.45418 -1.87627,-31.91464 1.32149,-10.74346 -3.13835,-22.42835 3.18988,-31.55432 1.58438,-2.28483 4.912,-5.49972 7.39472,-7.14421 2.48272,-1.64448 7.03641,-3.96293 10.11932,-5.15211 4.37373,-1.68709 7.91226,-2.18414 16.10528,-2.26229 7.92215,-0.0756 11.8503,0.36631 16,1.79982 3.025,1.04498 7.075,2.90403 9,4.13123 1.925,1.2272 4.82169,3.63228 6.43709,5.34462 l 2.93709,3.11335 23.81291,0 c 13.0971,0 23.81687,0.3375 23.82172,0.75 0.005,0.4125 -1.23266,6.03421 -2.75,12.49269 l -2.75881,11.74269 -12.5,0.0201 -12.5,0.0201 -2.70822,7.19568 c -1.48952,3.95763 -2.55644,7.34747 -2.37092,7.53299 0.18552,0.18552 2.30422,-0.56646 4.70822,-1.67105 2.40401,-1.1046 8.10522,-3.60019 12.66936,-5.54575 4.56414,-1.94556 8.47168,-3.53739 8.68343,-3.53739 0.21175,0 -4.50758,7.0875 -10.4874,15.75 -5.97983,8.6625 -13.26237,19.25107 -16.18344,23.53015 -2.92107,4.27908 -7.862,11.47908 -10.97985,16 -3.11784,4.52092 -6.35467,9.11985 -7.19295,10.21985 z m 7.23716,-15.05 c 0.48147,-0.5225 7.23669,-10.5125 15.01161,-22.2 7.77491,-11.6875 13.67494,-21.25 13.11117,-21.25 -0.56378,0 -5.9069,2.18543 -11.87361,4.8565 l -10.84856,4.8565 3.94812,-9.1065 c 2.17147,-5.00857 4.40339,-10.344 4.95983,-11.8565 l 1.0117,-2.75 12.23187,0 12.23188,0 1.89335,-8.25 c 1.04134,-4.5375 2.04928,-9.0375 2.23985,-10 0.32471,-1.63995 -1.85631,-1.75 -34.68451,-1.75 l -35.031,0 -1.00073,3.75 c -0.55039,2.0625 -1.65283,6.5625 -2.44985,10 l -1.44914,6.25 11.91132,0 c 6.55122,0 11.91131,0.15684 11.91131,0.34853 0,0.19169 -1.11045,5.25418 -2.46766,11.24999 -1.35722,5.99582 -3.83597,16.74022 -5.50835,23.87645 -1.67237,7.13623 -2.92442,13.27881 -2.78233,13.65018 0.14208,0.37136 4.64584,-1.26095 10.00834,-3.62736 5.3625,-2.36641 9.74992,-4.23399 9.74983,-4.15018 -10e-5,0.0838 -0.6751,3.67948 -1.5,7.99036 -0.82491,4.31088 -1.49983,8.11338 -1.49983,8.45 0,0.33662 0.39393,0.18453 0.87539,-0.33797 z m -35.75039,-2.50378 c 4.19375,0.0296 9.00489,-0.2222 10.69143,-0.55951 2.72338,-0.54467 3.18486,-1.16548 4.125,-5.54922 0.58221,-2.71476 1.05857,-5.09631 1.05857,-5.29233 0,-0.19602 -4.3875,-0.11658 -9.75,0.17653 -5.69658,0.31136 -12.03655,0.0558 -15.25,-0.6146 -3.025,-0.63114 -7.75637,-2.19355 -10.51417,-3.47204 -2.75779,-1.27848 -6.75197,-3.96348 -8.87596,-5.96666 l -3.86181,-3.64215 0.46172,4.80521 c 0.2767,2.87966 1.39945,6.07357 2.80182,7.97037 1.28705,1.74083 4.17346,4.37993 6.41425,5.86467 2.24078,1.48473 6.54915,3.49296 9.57415,4.46273 3.16661,1.01518 8.73492,1.78604 13.125,1.817 z m 3.375,-15.27653 c 6.05,-0.22058 11.71489,-0.70678 12.58866,-1.08045 0.87434,-0.37391 2.11083,-2.94161 2.75,-5.71061 0.63873,-2.76716 1.16134,-5.3976 1.16134,-5.8454 0,-0.44781 -2.32164,-0.13363 -5.15921,0.69818 -3.76402,1.10339 -8.02324,1.38096 -15.75,1.02642 -7.5272,-0.34538 -12.22432,-1.11346 -16.23788,-2.65523 -3.10591,-1.19311 -7.71841,-3.99253 -10.25,-6.22093 l -4.60291,-4.05164 0,3.12482 c 0,1.71866 0.87037,4.83089 1.93415,6.91607 1.06378,2.08519 3.65128,5.10476 5.75,6.71017 2.09872,1.6054 6.74085,3.94733 10.31585,5.20428 5.63924,1.98273 7.95667,2.23226 17.5,1.88432 z m 1.5,-14.34061 c 3.575,-0.28924 8.75,-1.26911 11.5,-2.17749 4.8638,-1.6066 5.03567,-1.79753 6.30933,-7.00893 0.72013,-2.94653 1.16592,-5.50074 0.99064,-5.67603 -0.17529,-0.17528 -3.01385,0.59118 -6.30792,1.70325 -3.29407,1.11207 -9.13985,2.25021 -12.99063,2.52919 -4.57873,0.33173 -9.34021,-0.0432 -13.76035,-1.08359 -3.71742,-0.87496 -8.95011,-2.70119 -11.62821,-4.05829 -2.6781,-1.35709 -6.34443,-3.94261 -8.14741,-5.74558 l -3.27814,-3.27814 0.54193,4.80796 c 0.36801,3.265 1.48954,5.98743 3.49475,8.48327 1.6378,2.03852 5.8082,5.12517 9.36442,6.93092 3.52637,1.79058 8.88659,3.67045 11.91159,4.17749 3.025,0.50703 8.425,0.68522 12,0.39597 z m -3.85534,-14.38525 c 4.97457,0.0365 9.91722,-0.64575 14.15112,-1.95347 3.57855,-1.1053 7.56346,-2.89033 8.85534,-3.96673 l 2.34888,-1.95709 -12.26905,-0.0333 -12.26905,-0.0333 0.62346,-2.75 c 0.3429,-1.5125 1.27872,-5.45 2.07959,-8.75 0.80088,-3.3 1.89624,-7.6875 2.43414,-9.75 l 0.978,-3.75 11.11644,0 c 10.75923,0 11.06256,-0.0595 9.43947,-1.85304 -0.92234,-1.01917 -3.80459,-2.9897 -6.40499,-4.37895 -2.60041,-1.38925 -7.14957,-3.08943 -10.10924,-3.77818 -3.25843,-0.75827 -8.82839,-1.05572 -14.11966,-0.75403 -6.60436,0.37656 -10.17449,1.15448 -14.61877,3.18536 -3.23419,1.47792 -7.38123,4.12526 -9.21566,5.88298 -1.83442,1.75773 -3.97192,4.41102 -4.75,5.8962 -0.77807,1.48519 -1.41468,4.68114 -1.41468,7.10212 0,2.91546 0.7636,5.53488 2.26141,7.75749 1.24378,1.84564 4.19151,4.82785 6.55052,6.62712 2.35901,1.79927 7.07887,4.15547 10.48859,5.236 3.79648,1.2031 9.16264,1.98637 13.84414,2.02076 z"
         style="fill:#3c3b40;fill-opacity:1" />
      <text
         transform="scale(0.89904345,1.1122933)"
         sodipodi:linespacing="125%"
         id="text4382"
         y="406.26407"
         x="986.32269"
         style="font-style:normal;font-weight:normal;font-size:29.44544983px;line-height:125%;font-family:sans-serif;letter-spacing:0px;word-spacing:0px;fill:#3c3b40;fill-opacity:1;stroke:none;stroke-width:1px;stroke-linecap:butt;stroke-linejoin:miter;stroke-opacity:1"
         xml:space="preserve"><tspan
           style="font-style:normal;font-variant:normal;font-weight:bold;font-stretch:normal;font-family:sans-serif;-inkscape-font-specification:'sans-serif Bold';fill:#3c3b40;fill-opacity:1"
           y="406.26407"
           x="986.32269"
           id="tspan4384"
           sodipodi:role="line">The future of money</tspan></text>
      <text
         transform="scale(0.93256276,1.0723139)"
         sodipodi:linespacing="125%"
         id="text4386"
         y="372.06021"
         x="949.20947"
         style="font-style:normal;font-variant:normal;font-weight:bold;font-stretch:normal;font-size:33.77970505px;line-height:125%;font-family:sans-serif;-inkscape-font-specification:'sans-serif Bold';letter-spacing:0px;word-spacing:0px;fill:#3c3b40;fill-opacity:1;stroke:none;stroke-width:1px;stroke-linecap:butt;stroke-linejoin:miter;stroke-opacity:1;"
         xml:space="preserve"><tspan
           y="372.06021"
           x="949.20947"
           id="tspan4388"
           sodipodi:role="line">COINTELEGRAPH</tspan></text>
    </g>
  </g>
</svg>
