<?xml version="1.0" encoding="UTF-8" standalone="no"?>
<!-- Created with Inkscape (http://www.inkscape.org/) -->

<svg
   xmlns:dc="http://purl.org/dc/elements/1.1/"
   xmlns:cc="http://creativecommons.org/ns#"
   xmlns:rdf="http://www.w3.org/1999/02/22-rdf-syntax-ns#"
   xmlns:svg="http://www.w3.org/2000/svg"
   xmlns="http://www.w3.org/2000/svg"
   xmlns:sodipodi="http://sodipodi.sourceforge.net/DTD/sodipodi-0.dtd"
   xmlns:inkscape="http://www.inkscape.org/namespaces/inkscape"
   width="307.07422mm"
   height="79.375mm"
   viewBox="0 0 307.07419 79.375004"
   version="1.1"
   id="svg8"
   inkscape:version="0.92.1 r15371"
   sodipodi:docname="77.svg">
  <defs
     id="defs2" />
  <sodipodi:namedview
     id="base"
     pagecolor="#ffffff"
     bordercolor="#666666"
     borderopacity="1.0"
     inkscape:pageopacity="0.0"
     inkscape:pageshadow="2"
     inkscape:zoom="0.7"
     inkscape:cx="84.419378"
     inkscape:cy="78.321151"
     inkscape:document-units="mm"
     inkscape:current-layer="layer1"
     showgrid="false"
     inkscape:window-width="958"
     inkscape:window-height="1008"
     inkscape:window-x="-7"
     inkscape:window-y="0"
     inkscape:window-maximized="0"
     showguides="false" />
  <metadata
     id="metadata5">
    <rdf:RDF>
      <cc:Work
         rdf:about="">
        <dc:format>image/svg+xml</dc:format>
        <dc:type
           rdf:resource="http://purl.org/dc/dcmitype/StillImage" />
        <dc:title></dc:title>
      </cc:Work>
    </rdf:RDF>
  </metadata>
  <g
     inkscape:label="Layer 1"
     inkscape:groupmode="layer"
     id="layer1"
     transform="translate(241.31784,64.331727)">
    <path
       style="fill:#000000;stroke-width:0.26458335"
       d=""
       id="path4498"
       inkscape:connector-curvature="0" />
    <path
       style="fill:#000000;stroke-width:0.26458335"
       d=""
       id="path4496"
       inkscape:connector-curvature="0" />
    <path
       style="fill:#3c3b40;stroke-width:0.69770771;fill-opacity:1"
       d="m -198.01651,14.716978 c 0,-0.37418 0.94842,-4.564348 2.10765,-9.3114956 1.1592,-4.74714149 1.96881,-8.7700094 1.7991,-8.9397059 -0.16956,-0.1696913 -1.19662,0.3418376 -2.28207,1.1367366 -1.08544,0.7949015 -4.01434,2.28359922 -6.50866,3.30821824 -6.28907,2.58344686 -16.26995,2.74729976 -23.15037,0.38005046 -6.55544,-2.25543073 -11.4758,-5.9931276 -14.32669,-10.8830824 -1.29438,-2.2201744 -1.23433,-39.4362084 0.0686,-42.4662524 1.45887,-3.392919 5.8065,-7.141921 11.2025,-9.660061 4.2715,-1.99337 5.71621,-2.295589 12.26344,-2.565344 10.4281,-0.429656 18.09047,2.036319 23.33423,7.50964 l 2.03279,2.121772 h 16.9633 c 10.96219,0 16.96331,0.249434 16.96331,0.705093 0,1.089761 -2.74697,13.32163 -3.55838,15.844973 l -0.72257,2.247058 -8.78291,0.194927 -8.78292,0.194928 -1.2843,3.78146 c -0.70635,2.079804 -1.17702,3.888697 -1.04597,4.019765 0.13106,0.131059 4.06756,-1.374571 8.74774,-3.345862 4.68019,-1.971291 8.66502,-3.428584 8.85517,-3.23843 0.29195,0.291956 -31.46509,47.040013 -33.27539,48.983135 -0.3892,0.417746 -0.61751,0.411278 -0.61751,-0.0174 z m 25.36978,-41.982389 c 0.62608,-1.037261 -0.005,-0.811652 -8.95854,3.206069 -3.44533,1.545907 -6.34337,2.731594 -6.44012,2.634856 -0.0968,-0.09672 1.48445,-4.080479 3.51376,-8.852762 l 3.68962,-8.676874 8.43654,-0.19535 8.43657,-0.195349 1.18075,-5.037469 c 0.64939,-2.770607 1.33132,-5.591061 1.51538,-6.267674 0.31562,-1.160273 -1.02345,-1.219766 -23.55526,-1.046563 l -23.88993,0.183641 -1.48505,6.104943 -1.48509,6.104942 h 8.23121 c 5.4111,0 8.2312,0.257267 8.2312,0.750909 0,0.704642 -0.69923,3.770145 -5.63265,24.69385 -1.08296,4.5930066 -1.86003,8.4598929 -1.72684,8.5930828 0.13317,0.1331952 3.17751,-1.0087469 6.76513,-2.5376325 3.58765,-1.5288831 6.63729,-2.6654933 6.77698,-2.5257973 0.13976,0.139708 -0.1134,1.9192728 -0.56229,3.9546165 -0.44898,2.0353436 -0.97177,4.44876 -1.16176,5.363147 -0.25632,1.23399458 13.97149,-19.3807485 18.12039,-26.2546095 z m -38.34649,26.58650007 c 3.51487,-0.48176247 4.19529,-1.19833437 4.94803,-5.21075707 l 0.46767,-2.4929459 -4.39249,0.7073899 c -8.82674,1.4215068 -19.71029,-1.5189863 -25.74825,-6.956605 l -2.9907,-2.693356 0.48594,3.066237 c 0.59945,3.782454 2.43615,6.4434485 6.23961,9.0398362 5.58027,3.8093443 13.62583,5.54960173 20.99019,4.54020087 z m 3.08925,-10.82028207 c 2.95501,-0.682096 3.53259,-1.087839 3.85691,-2.709434 0.20965,-1.048961 0.58906,-2.734466 0.84284,-3.745568 0.43999,-1.753057 0.3748,-1.805441 -1.40486,-1.12882 -3.21525,1.222439 -10.99341,1.605741 -16.18984,0.797821 -6.16203,-0.958051 -10.76579,-2.882972 -14.79869,-6.187649 l -3.09018,-2.532158 0.5109,2.723227 c 1.0274,5.476602 5.30312,9.351747 13.10649,11.878644 5.64984,1.829534 11.76215,2.151391 17.16643,0.903937 z m 2.52847,-10.987616 c 3.26693,-1.149727 3.50302,-1.402441 4.32672,-4.631273 0.47917,-1.878352 0.79574,-3.490656 0.7035,-3.582896 -0.0923,-0.09224 -1.56831,0.363846 -3.28014,1.013522 -2.31479,0.878506 -5.34756,1.183502 -11.8338,1.190089 -8.3168,0.0084 -8.93323,-0.09156 -13.28948,-2.155873 -2.51249,-1.190606 -5.78404,-3.2314 -7.2701,-4.535101 l -2.70195,-2.370368 0.4341,2.681263 c 0.87293,5.391674 6.26532,10.175355 13.94684,12.372513 5.66629,1.62073 14.38684,1.629065 18.96431,0.0182 z m 2.22394,-11.032329 4.7862,-1.946448 -8.54693,-0.195903 c -4.70081,-0.107748 -8.54878,-0.421715 -8.55105,-0.697707 -0.002,-0.275994 0.98669,-4.504904 2.19766,-9.39758 l 2.20174,-8.895773 7.39585,-0.02215 7.39585,-0.02215 -1.88443,-1.659262 c -6.62215,-5.830962 -21.11324,-6.659108 -31.03687,-1.773718 -9.75803,4.803856 -11.96251,13.075405 -5.28796,19.841231 2.7688,2.80667 8.3972,5.68623 13.08374,6.693809 4.93782,1.061603 12.9925,0.212015 18.2462,-1.924553 z M 47.576586,-0.14997246 c 0,-0.72726501 0.623124,-1.47698674 1.395424,-1.67894974 1.808195,-0.4728573 1.759647,-1.4548122 -0.34885,-7.0566293 -2.174421,-5.7768565 -2.189769,-6.6953645 -0.112072,-6.6953645 1.627164,0 3.251665,2.302683 3.251665,4.609106 0,1.9049143 1.331345,0.279311 1.794904,-2.191602 0.393125,-2.095613 0.72188,-2.417504 2.469002,-2.417504 1.108518,0 2.015463,0.288952 2.015463,0.642116 0,1.186125 -4.296262,12.9460697 -5.309347,14.53302746 C 51.4249,1.6429249 47.576507,1.8338431 47.576507,-0.14998301 Z M -135.92055,-9.6503991 v -6.6282239 h -2.09312 c -1.77576,0 -2.09312,-0.268421 -2.09312,-1.770451 v -1.770451 l 6.4538,0.200597 c 6.09109,0.189337 6.46634,0.288836 6.67674,1.770453 0.19541,1.376433 -0.0839,1.569841 -2.26753,1.569841 h -2.49052 v 6.6282244 6.6282213 h -2.09312 -2.09313 z m 9.76792,-2.0931229 v -8.721347 h 1.74427 c 1.55668,0 1.74428,0.287138 1.74428,2.669992 0,2.577488 0.0736,2.659211 2.12065,2.358748 3.64482,-0.534945 4.85641,1.283618 4.85641,7.2892819 0,4.9745842 -0.0501,5.1246694 -1.71096,5.1246694 -1.6115,0 -1.72305,-0.2535217 -1.91871,-4.3606709 -0.18644,-3.9165964 -0.36758,-4.3833784 -1.77756,-4.5836274 -1.4913,-0.211804 -1.56983,0.0063 -1.56983,4.3606738 0,4.4240619 -0.0606,4.5836245 -1.74428,4.5836245 h -1.74427 z m 13.57359,7.0087912 c -3.88982,-3.889823 -1.19833,-10.8461852 4.1965,-10.8461852 2.05368,0 2.72345,0.3928 3.86649,2.26755 0.7604,1.247153 1.38374,2.973981 1.38516,3.8373943 0.002,1.4190201 -0.33255,1.569841 -3.48593,1.569841 -2.13115,0 -3.48852,0.3072243 -3.48852,0.7895748 0,0.5205106 0.96638,0.6599528 2.83588,0.4092026 3.27714,-0.4395572 4.61532,1.1027535 2.37692,2.7395085 -2.09953,1.5352277 -5.74843,1.1711759 -7.6865,-0.766886 z m 5.26452,-6.6599392 c 0,-0.383737 -0.60941,-0.697707 -1.35424,-0.697707 -0.74482,0 -1.54829,0.31397 -1.78543,0.697707 -0.24445,0.395712 0.34159,0.697709 1.35423,0.697709 0.98199,0 1.78544,-0.313969 1.78544,-0.697709 z m 11.163312,3.837394 c 0,-2.558262 -0.304126,-4.535101 -0.697699,-4.535101 -0.383737,0 -0.697699,-0.78492 -0.697699,-1.744268 0,-0.959348 0.313962,-1.744271 0.697699,-1.744271 0.383737,0 0.697699,-0.470951 0.697699,-1.046562 0,-1.631879 2.606521,-3.837391 4.535122,-3.837391 1.395397,0 1.744247,0.348854 1.744247,1.744268 0,1.085326 -0.395366,1.744271 -1.046548,1.744271 -0.575606,0 -1.046575,0.313967 -1.046575,0.697707 0,0.38374 0.470969,0.697707 1.046575,0.697707 0.651182,0 1.046548,0.658945 1.046548,1.744271 0,1.085323 -0.395366,1.744268 -1.046548,1.744268 -0.822931,0 -1.046575,0.969039 -1.046575,4.535101 v 4.5350983 h -2.093123 -2.093123 z m 8.098534,3.2224233 c -0.812673,-0.8979979 -1.12144,-2.6295216 -1.12144,-6.2889623 v -5.049787 l 1.918685,0.22077 c 1.838811,0.211567 1.927361,0.402323 2.126429,4.581444 0.180371,3.7890736 0.386268,4.3606736 1.569836,4.3606736 1.211308,0 1.362118,-0.5020885 1.362118,-4.5351006 0,-4.372303 0.0625,-4.535101 1.744274,-4.535101 1.730166,0 1.744274,0.05029 1.744274,6.2229556 v 6.2229558 l -4.111382,0.019778 c -3.070292,0.014767 -4.395334,-0.2941105 -5.232794,-1.2195122 z m 12.895431,0.6684994 c -0.578005,-0.3659004 -1.117299,-2.2321988 -1.307375,-4.5244158 -0.177998,-2.1458839 -0.598653,-3.9016079 -0.934871,-3.9016079 -0.336218,0 -0.61131,-0.78492 -0.61131,-1.744268 0,-0.959348 0.313961,-1.744271 0.697725,-1.744271 0.383737,0 0.697699,-0.627937 0.697699,-1.395414 0,-1.085325 0.465141,-1.395416 2.093123,-1.395416 1.588558,0 2.093123,0.318387 2.093123,1.320768 0,0.726424 0.470943,1.50149 1.046548,1.722373 0.575606,0.220876 1.046575,0.892263 1.046575,1.49196 0,0.599694 -0.470969,1.271076 -1.046575,1.491959 -0.682272,0.261829 -1.046548,1.34703 -1.046548,3.1177874 0,1.949248 0.295503,2.7161842 1.046548,2.7161842 0.651209,0 1.046575,0.6589454 1.046575,1.7442683 0,1.4402902 -0.334372,1.7424067 -1.918712,1.7335859 -1.055276,-0.0058 -2.361412,-0.2909488 -2.902525,-0.6334931 z m 6.640375,-0.6684994 c -0.810642,-0.8957723 -1.121439,-2.6257454 -1.121439,-6.2426203 0,-4.845903 0.05379,-5.003443 1.710968,-5.003443 1.611184,0 1.723099,0.253943 1.918712,4.353667 0.164285,3.4415767 0.456307,4.4010037 1.394264,4.5796239 0.998686,0.1901808 1.219615,-0.4714201 1.395424,-4.1792399 0.200412,-4.227394 0.286299,-4.414107 2.127562,-4.625967 l 1.918685,-0.22077 v 6.2692988 6.2692986 l -4.111355,0.019778 c -3.070318,0.014767 -4.395334,-0.2941105 -5.232821,-1.2195122 z m 10.886851,-4.7922669 0.201467,-6.1049424 3.70465,-0.126259 c 3.633187,-0.123834 3.70051,-0.09019 3.488547,1.744271 -0.15321,1.325403 -0.673623,1.935514 -1.785964,2.093492 -1.426436,0.202575 -1.569836,0.600902 -1.569836,4.3606708 v 4.13772 h -2.120284 -2.120285 z m 9.240093,4.3923888 c -3.837054,-3.8370381 -1.20163,-10.8461852 4.078103,-10.8461852 2.885886,0 4.5857,1.700256 5.144929,5.146274 l 0.410319,2.5285113 h -3.579841 c -2.199078,0 -3.579814,0.3045398 -3.579814,0.7895748 0,0.5205106 0.966384,0.6599528 2.835889,0.4092026 3.277138,-0.4395572 4.615313,1.1027535 2.376917,2.7395085 -2.099557,1.5352277 -5.748461,1.1711759 -7.686502,-0.766886 z m 5.264518,-6.6599392 c 0,-0.383737 -0.62795,-0.697707 -1.395424,-0.697707 -0.767474,0 -1.395398,0.31397 -1.395398,0.697707 0,0.38374 0.627924,0.697709 1.395398,0.697709 0.767474,0 1.395424,-0.313969 1.395424,-0.697709 z m 12.23676,6.8283199 c -4.09461,-3.5220346 -1.709702,-11.0145659 3.505978,-11.0145659 3.703226,0 5.537342,2.051239 5.537342,6.1928067 0,4.1179609 -1.074026,5.5339643 -4.635829,6.1119695 -1.939913,0.3148031 -2.851921,0.047835 -4.407491,-1.2902103 z m 5.408103,-3.3397806 c 0.630429,-2.4108453 -0.230211,-4.2814003 -1.862965,-4.0484283 -1.512297,0.215812 -2.307591,2.4892962 -1.555965,4.4480243 0.572098,1.4908337 2.998723,1.2072132 3.41893,-0.399596 z m 6.07719,0.4235004 c 0,-3.3212187 -0.267287,-4.5630237 -1.046548,-4.8620557 -0.575606,-0.220875 -1.046575,-0.892265 -1.046575,-1.491959 0,-0.599697 0.470969,-1.271079 1.046575,-1.49196 0.575605,-0.220875 1.046548,-0.838966 1.046548,-1.373518 0,-1.567724 2.645576,-3.762746 4.535096,-3.762746 2.367582,0 2.510112,3.098526 0.174306,3.791644 l -1.569836,0.465854 1.569836,0.639598 c 1.945793,0.79277 2.051801,2.782291 0.174569,3.273235 -1.211572,0.316834 -1.395424,0.951685 -1.395424,4.8186347 0,4.2855031 -0.06593,4.4537256 -1.744273,4.4537256 -1.678665,0 -1.744274,-0.1677663 -1.744274,-4.4604526 z m 12.5587385,-1.7690799 v -6.2295328 h 4.00039 c 2.2002119,0 4.3700191,0.30679 4.8218436,0.681751 0.5391094,0.447426 0.9768523,0.430296 1.2735946,-0.04984 0.6871508,-1.11184 4.314431,-0.873532 5.5527687,0.364811 0.7999356,0.799936 1.0963878,2.497854 1.0963878,6.2793697 0,5.0633643 -0.040346,5.1829709 -1.7442736,5.1829709 -1.6816448,0 -1.7442473,-0.1628087 -1.7442473,-4.5350982 0,-4.0330124 -0.1508367,-4.5351014 -1.3621188,-4.5351014 -1.1835935,0 -1.3893591,0.571598 -1.5698621,4.360674 -0.1990939,4.179121 -0.2875918,4.3698635 -2.1264021,4.5814437 l -1.91871154,0.22077 v -4.5814436 c 0,-4.1163051 -0.1416072,-4.5814441 -1.39539786,-4.5814441 -1.2523138,0 -1.3954241,0.465139 -1.3954241,4.5351014 0,4.3723001 -0.062497,4.5350982 -1.7442737,4.5350982 -1.7303238,0 -1.7442736,-0.049839 -1.7442736,-6.2295298 z m 19.8529595,4.5169794 c -3.8309626,-3.8309783 -1.202,-10.8461852 4.064627,-10.8461852 4.353327,0 7.163689,4.958171 5.086837,8.9743728 -2.027251,3.9203147 -6.24108,4.7821936 -9.151464,1.8718124 z m 5.613367,-4.5668162 c 0,-1.95641 -0.294052,-2.483938 -1.478885,-2.653012 -1.009182,-0.144007 -1.597815,0.243791 -1.853367,1.220989 -0.63921,2.4443615 0.211488,4.319333 1.853367,4.0850351 1.184833,-0.1690848 1.478885,-0.6965993 1.478885,-2.6530121 z m 5.232821,0.124704 v -6.247345 l 4.538471,-0.02611 c 5.519595,-0.03183 5.927144,0.483759 5.927144,7.4983701 0,4.7933375 -0.04826,4.929821 -1.744273,4.929821 -1.681645,0 -1.744274,-0.1628087 -1.744274,-4.5350982 0,-4.0330129 -0.150837,-4.5351009 -1.362119,-4.5351009 -1.183567,0 -1.389359,0.571597 -1.569835,4.3606735 -0.199094,4.179121 -0.287592,4.3698635 -2.126429,4.5814436 l -1.918685,0.2207701 z m 13.488837,4.3573456 c -1.560818,-1.5608118 -1.749363,-2.2228031 -1.43287,-5.0308473 0.430096,-3.8157263 2.336308,-5.7305773 5.704739,-5.7305773 2.77028,0 4.485177,1.752483 5.035916,5.146275 l 0.410318,2.528511 h -3.57984 c -2.199078,0 -3.579814,0.3045399 -3.579814,0.7895748 0,0.5205106 0.966383,0.6599528 2.835888,0.4092026 3.277139,-0.4395571 4.615313,1.1027535 2.376918,2.7395085 -2.141512,1.5659224 -5.749041,1.1705773 -7.771255,-0.8516473 z m 5.69812,-6.5751776 c -0.237067,-0.383737 -1.040615,-0.697707 -1.785437,-0.697707 -0.744849,0 -1.354234,0.31397 -1.354234,0.697707 0,0.383739 0.803443,0.697709 1.785437,0.697709 1.012636,0 1.59879,-0.301998 1.354234,-0.697709 z m -179.71414,-26.358249 c -3.71791,-3.32196 -4.05226,-11.526691 -0.61864,-15.181603 3.18163,-3.386693 9.76684,-2.833333 12.03806,1.011571 1.68734,2.856448 1.49893,3.549775 -0.96472,3.549775 -1.57165,0 -2.25764,-0.379347 -2.52335,-1.395417 -0.27485,-1.051076 -0.95169,-1.395417 -2.74278,-1.395417 -2.71672,0 -3.73874,1.686522 -3.73874,6.169547 0,5.068301 4.60323,7.904556 6.40631,3.947217 0.57611,-1.264433 1.33973,-1.744271 2.77587,-1.744271 2.68186,0 2.6556,2.223713 -0.0583,4.937624 -2.84892,2.848931 -7.44902,2.892859 -10.57368,0.100971 z m 18.11212,0.889765 c -2.35118,-1.277732 -4.10355,-5.001134 -4.10355,-8.719193 0,-7.856803 6.67099,-12.208521 12.56728,-8.198066 6.97303,4.742835 4.04867,18.021228 -3.9506,17.938039 -1.47739,-0.0153 -3.5083,-0.474714 -4.51313,-1.02078 z m 6.67136,-3.990483 c 1.23446,-1.762445 1.44473,-6.94117 0.36385,-8.960824 -0.88656,-1.656568 -4.30401,-1.812876 -5.59615,-0.255948 -0.49916,0.601475 -0.93007,2.608853 -0.95755,4.460841 -0.0802,5.397333 3.70407,8.304874 6.18985,4.755939 z m 8.21793,-4.554282 0.19409,-9.593482 1.91868,-0.220771 1.918714,-0.22077 v 9.814253 9.814251 h -2.112824 -2.11279 z m 7.126722,8.682644 c -0.192237,-0.50096 -0.2608,-4.818026 -0.152419,-9.593482 0.191974,-8.467605 0.236803,-8.68829 1.805242,-8.910629 2.168198,-0.307367 3.002336,0.50612 6.533075,6.371272 l 3.022008,5.020036 0.203314,-5.79964 0.203313,-5.799644 1.889783,0.217975 1.889784,0.217975 0.194347,9.639179 0.194347,9.639175 -2.252398,-0.220111 c -1.993945,-0.194874 -2.636451,-0.860584 -5.599444,-5.801786 l -3.347045,-5.58166 -0.0021,5.756087 -0.0023,5.75609 h -2.11501 c -1.163263,0 -2.272308,-0.409878 -2.464546,-0.910837 z m 22.719965,-6.763948 v -7.674787 h -2.790822 c -2.635793,0 -2.790822,-0.116292 -2.790822,-2.093123 v -2.093123 h 7.674767 7.674793 v 2.093123 c 0,1.976839 -0.155056,2.093123 -2.790822,2.093123 h -2.790848 v 7.674787 7.674785 h -2.093123 -2.093123 z m 11.861039,-2.093124 v -9.767909 h 6.27937 6.279369 v 2.093123 2.093123 h -4.186246 c -4.000179,0 -4.186246,0.07753 -4.186246,1.744272 0,1.627984 0.232583,1.744268 3.488547,1.744268 3.255963,0 3.488521,0.116292 3.488521,1.744269 0,1.627984 -0.232584,1.744271 -3.488521,1.744271 h -3.488547 v 2.441975 2.441978 h 4.186246 c 4.000179,0 4.186246,0.07753 4.186246,1.744268 0,1.73135 -0.04668,1.744271 -6.279369,1.744271 h -6.27937 z m 14.651862,-0.01925 v -9.841419 l 1.918685,0.220771 1.918712,0.22077 0.197248,7.849211 0.197248,7.849213 h 4.21193 c 3.968825,0 4.199036,0.09061 3.988946,1.569841 -0.209115,1.473123 -0.599075,1.582264 -6.32789,1.771435 l -6.104932,0.201599 v -9.841415 z m 13.954163,0.01925 v -9.820272 l 6.45378,0.200597 c 6.365415,0.197854 6.453808,0.224488 6.453808,1.944878 0,1.652343 -0.229947,1.755218 -4.360684,1.951991 -4.080107,0.194347 -4.360658,0.315458 -4.360658,1.882235 0,1.528131 0.320211,1.692949 3.662959,1.885403 3.191093,0.18372 3.691675,0.413116 3.885917,1.780731 0.208324,1.466765 -0.03217,1.569843 -3.662959,1.569843 h -3.885917 v 2.441975 2.441978 h 4.583616 c 4.354303,0 4.572462,0.07853 4.360658,1.569844 -0.210433,1.481615 -0.585652,1.581114 -6.67674,1.770451 l -6.45378,0.200597 z m 17.204746,8.335084 c -3.345384,-2.631473 -4.160957,-10.813924 -1.48495,-14.898032 2.352551,-3.590454 8.6314987,-4.125727 11.9397012,-1.017847 2.2614432,2.124516 2.2194357,4.789966 -0.075418,4.789966 -1.0056484,0 -2.029835,-0.579414 -2.4665231,-1.395417 -0.842075,-1.573425 -4.0933971,-1.906896 -5.4421201,-0.558167 -1.286833,1.286819 -1.068884,8.599378 0.297006,9.965265 1.640639,1.640626 4.7394635,1.109557 5.0191971,-0.860178 0.1816897,-1.278536 -0.1096994,-1.569844 -1.5698357,-1.569844 -1.4471894,0 -1.7927944,-0.336263 -1.7927944,-1.744268 0,-1.666746 0.186172,-1.744268 4.186246,-1.744268 h 4.1862462 v 3.786753 c 0,3.259868 -0.2557896,3.987954 -1.838362,5.232807 -2.5431545,2.000443 -8.4229652,2.007539 -10.9583142,0.01319 z m 15.0442219,-8.11496 0.1943473,-9.639178 3.1239813,-0.2223 c 4.5310082,-0.322421 7.6159354,0.433173 9.5127075,2.329947 2.18141,2.181395 2.198867,5.446876 0.04061,7.605059 l -1.625634,1.62564 1.86874,3.68781 1.868767,3.687813 1.842713,-4.821883 c 1.013506,-2.652037 2.584133,-6.862681 3.490261,-9.356985 1.507286,-4.149036 1.818426,-4.535101 3.65489,-4.535101 1.927229,0 2.139824,0.348079 5.326751,8.721348 1.825678,4.796739 3.323945,9.113804 3.329483,9.593481 0.0053,0.498062 -0.85141,0.872134 -1.998402,0.872134 -1.533524,0 -2.196177,-0.453723 -2.802161,-1.918696 -0.689155,-1.666025 -1.182671,-1.918698 -3.747607,-1.918698 -2.554072,0 -3.067444,0.259719 -3.792409,1.918698 -0.791682,1.811697 -1.092564,1.918696 -5.395472,1.918696 H 9.2260088 l -1.7677694,-3.488539 c -2.2866793,-4.512563 -3.6912802,-4.574219 -3.973598,-0.174438 -0.2043679,3.184176 -0.3023327,3.322743 -2.50019764,3.534236 l -2.28752316,0.220111 z m 25.6607531,1.220713 c 0,-0.35876 -0.336034,-1.536141 -0.746774,-2.616403 -0.791101,-2.08074 -1.314758,-1.703063 -2.355531,1.698849 -0.411479,1.345057 -0.223882,1.569841 1.311013,1.569841 0.985212,0 1.791292,-0.293531 1.791292,-0.652287 z M 8.1560966,-48.722036 c 0,-1.851487 -0.2618547,-2.118362 -2.2675347,-2.311756 -2.181621,-0.210354 -2.267561,-0.122752 -2.267561,2.311756 0,2.434507 0.085966,2.522103 2.267561,2.311754 2.0057855,-0.193398 2.2675347,-0.460268 2.2675347,-2.311754 z m 24.9230774,3.359808 0.194347,-9.639178 3.488547,-0.225913 c 6.965439,-0.451089 11.099182,2.213843 10.96132,7.066509 -0.08307,2.926519 -2.588142,5.053815 -6.672336,5.666278 -3.131998,0.46967 -3.168072,0.506015 -3.378531,3.402993 -0.199622,2.747678 -0.353807,2.941825 -2.500277,3.148376 l -2.28755,0.220111 z m 9.98684,-1.655192 c 0.250516,-0.405551 0.263173,-1.504441 0.02795,-2.441978 -0.351223,-1.399277 -0.862881,-1.704617 -2.856537,-1.704617 -2.310517,0 -2.428682,0.118823 -2.428682,2.441979 0,2.317714 0.122094,2.441978 2.400783,2.441978 1.320454,0 2.605889,-0.331815 2.856536,-0.737362 z m 6.758144,1.655192 0.194348,-9.639178 h 2.093123 c 2.033131,0 2.099188,0.105005 2.30403,3.662966 l 0.210961,3.662965 h 3.066758 3.066758 l 0.210961,-3.662965 c 0.204895,-3.557961 0.270873,-3.662966 2.304004,-3.662966 h 2.093123 l 0.194084,9.593482 0.194083,9.593481 h -2.46167 -2.461645 v -3.837394 -3.837391 H 57.729848 54.62662 l -0.210961,3.662966 c -0.20595,3.579134 -0.263173,3.668004 -2.49843,3.883088 l -2.287524,0.220111 z"
       id="path4778"
       inkscape:connector-curvature="0" />
  </g>
</svg>
