<?xml version="1.0" encoding="UTF-8" standalone="no"?>
<!-- Created with Inkscape (http://www.inkscape.org/) -->

<svg
   xmlns:dc="http://purl.org/dc/elements/1.1/"
   xmlns:cc="http://creativecommons.org/ns#"
   xmlns:rdf="http://www.w3.org/1999/02/22-rdf-syntax-ns#"
   xmlns:svg="http://www.w3.org/2000/svg"
   xmlns="http://www.w3.org/2000/svg"
   xmlns:sodipodi="http://sodipodi.sourceforge.net/DTD/sodipodi-0.dtd"
   xmlns:inkscape="http://www.inkscape.org/namespaces/inkscape"
   width="295.05811mm"
   height="79.375008mm"
   viewBox="0 0 295.05809 79.375012"
   version="1.1"
   id="svg8"
   inkscape:version="0.92.1 r15371"
   sodipodi:docname="22.svg">
  <defs
     id="defs2" />
  <sodipodi:namedview
     id="base"
     pagecolor="#ffffff"
     bordercolor="#666666"
     borderopacity="1.0"
     inkscape:pageopacity="0.0"
     inkscape:pageshadow="2"
     inkscape:zoom="0.12374369"
     inkscape:cx="-1446.2339"
     inkscape:cy="387.36223"
     inkscape:document-units="mm"
     inkscape:current-layer="layer1"
     showgrid="false"
     inkscape:window-width="958"
     inkscape:window-height="1008"
     inkscape:window-x="-7"
     inkscape:window-y="0"
     inkscape:window-maximized="0"
     showguides="false" />
  <metadata
     id="metadata5">
    <rdf:RDF>
      <cc:Work
         rdf:about="">
        <dc:format>image/svg+xml</dc:format>
        <dc:type
           rdf:resource="http://purl.org/dc/dcmitype/StillImage" />
        <dc:title />
      </cc:Work>
    </rdf:RDF>
  </metadata>
  <g
     inkscape:label="Layer 1"
     inkscape:groupmode="layer"
     id="layer1"
     transform="translate(140.10327,-117.03065)">
    <path
       style="fill:#000000;stroke-width:0.26458335"
       d=""
       id="path4498"
       inkscape:connector-curvature="0" />
    <path
       style="fill:#000000;stroke-width:0.26458335"
       d=""
       id="path4496"
       inkscape:connector-curvature="0" />
    <path
       style="fill:#f7f7f7;stroke-width:0.25242394;fill-opacity:1"
       d="m -58.343415,196.12792 c -0.208248,-0.12056 -5.774194,-2.45536 -12.36877,-5.18843 -14.573997,-6.04009 -14.388226,-5.96061 -14.387911,-6.15649 1.43e-4,-0.087 1.33484,-0.9215 2.965987,-1.85438 2.677878,-1.53153 5.668737,-2.66169 6.399372,-2.41814 0.141075,0.047 0.527987,0.75345 0.859793,1.56985 0.732419,1.80207 1.933588,3.09954 3.180274,3.43524 1.52501,0.41064 1.739756,0.18732 1.739756,-1.80922 0,-2.3009 0.283284,-2.39744 2.530094,-0.86226 3.19842,2.18539 6.199411,5.96474 8.675755,10.926 1.393485,2.7918 1.419845,2.94498 0.40565,2.35783 z M -7.8586202,187.149 c 0,-0.49909 0.1276033,-0.63106 0.6101774,-0.63106 0.4875448,0 0.6944959,-0.22077 1.0296703,-1.09839 l 0.4194833,-1.0984 -1.282091,-4.02678 c -0.705143,-2.21474 -1.2820911,-4.11341 -1.2820911,-4.21928 0,-0.10587 0.3107605,-0.15655 0.6905842,-0.11261 0.6445994,0.0745 0.742551,0.25632 1.4711825,2.73032 0.4293385,1.45775 0.833624,2.80777 0.8984321,3.00005 0.06478,0.19229 0.515336,-1.00042 1.0011921,-2.65044 0.8286916,-2.81434 0.925651,-3.00501 1.5662911,-3.07993 0.3756068,-0.0439 0.6829232,0.0279 0.6829232,0.15954 0,0.69545 -3.1597627,10.37294 -3.5797803,10.96388 -0.3742712,0.52658 -0.7025193,0.69416 -1.3596739,0.69416 -0.755774,0 -0.8662999,-0.0805 -0.8662999,-0.63106 z m -88.2460128,-0.48351 c -1.532403,-0.47968 -15.699597,-8.71703 -16.712187,-9.71709 -0.47944,-0.47351 -1.11282,-1.38223 -1.40753,-2.0194 -0.50331,-1.08817 -0.54067,-1.63306 -0.61576,-8.97941 -0.044,-4.30151 7.6e-4,-7.74026 0.0994,-7.64164 0.0986,0.0986 0.43669,0.81261 0.75128,1.58664 1.93238,4.75452 5.61087,8.30074 12.3842,11.93893 8.573715,4.60523 15.91298,7.1117 20.824006,7.1117 1.664415,0 2.225602,0.26414 1.308709,0.61599 -0.236708,0.0908 -3.048085,1.68064 -6.247498,3.53289 -7.013268,4.06025 -7.875532,4.3568 -10.38459,3.57139 z m 45.127453,-2.41205 c -1.443658,-0.90601 -1.880467,-2.33133 -1.771763,-5.78128 0.101644,-3.22579 0.426448,-4.14633 1.735882,-4.91984 0.90387,-0.53392 2.85465,-0.53219 3.671874,0.003 0.804306,0.527 1.366552,1.60413 1.366552,2.61799 0,0.65712 -0.08768,0.77402 -0.529932,0.7067 -0.358206,-0.0545 -0.639085,-0.39969 -0.866758,-1.06513 -0.416927,-1.21855 -0.737113,-1.43675 -1.985803,-1.35321 -1.379547,0.0922 -1.898928,0.87138 -2.088525,3.13291 -0.331225,3.95085 0.422403,5.89399 2.285926,5.89399 1.003129,0 1.922969,-0.92186 1.922969,-1.92722 0,-0.4765 0.134101,-0.59702 0.664301,-0.59702 0.633466,0 0.657765,0.0487 0.52356,1.04923 -0.204309,1.52325 -1.282387,2.52296 -2.868274,2.65977 -0.931872,0.0804 -1.421553,-0.0195 -2.060009,-0.42017 z m 7.406639,-0.10451 c -0.876899,-0.8769 -1.168369,-2.32124 -1.087457,-5.38877 0.07155,-2.7116 0.07318,-2.71781 0.702749,-2.71781 h 0.631061 l 0.126211,3.30712 c 0.134787,3.53179 0.340421,4.13938 1.400917,4.13938 0.327914,0 0.810154,-0.29026 1.105001,-0.6651 0.465211,-0.59141 0.523168,-1.01088 0.523168,-3.78636 v -3.12126 h 0.631062 0.631061 v 4.29121 4.29121 h -0.631061 c -0.347081,0 -0.631062,-0.11651 -0.631062,-0.25891 0,-0.14841 -0.317849,-0.0945 -0.744736,0.12621 -1.063777,0.5501 -1.963335,0.47666 -2.656914,-0.21692 z m 16.376564,0.12318 c -1.014816,-0.61882 -1.615835,-2.14191 -1.615835,-4.09483 0,-3.32498 2.110754,-5.1406 4.524884,-3.89221 0.817033,0.42251 1.533291,1.96234 1.533291,3.29632 v 0.87837 h -2.398026 c -2.619831,0 -2.578865,-0.0302 -2.133145,1.57469 0.413635,1.4894 1.84552,1.92492 3.095651,0.94158 0.646335,-0.50841 0.654235,-0.50855 0.917522,-0.0166 0.373985,0.69879 0.35976,0.73184 -0.554805,1.28947 -1.033591,0.63019 -2.359167,0.63932 -3.369537,0.0232 z m 2.927796,-5.49633 c 0,-0.89859 -0.673478,-1.59753 -1.539349,-1.59753 -0.796053,0 -1.489738,0.79016 -1.489738,1.69693 0,0.53436 0.106776,0.57489 1.514544,0.57489 1.473127,0 1.514542,-0.0184 1.514543,-0.67429 z m 11.366663,5.66587 c -0.342921,-0.181 -0.88248,-0.7134 -1.199013,-1.18312 -0.479235,-0.71113 -0.575536,-1.18987 -0.575536,-2.86105 0,-3.15353 0.938683,-4.48135 3.168006,-4.48135 1.223408,0 2.6377481,1.33994 2.6377481,2.499 0,0.6664 -0.093687,0.78252 -0.6310614,0.78252 -0.493727,0 -0.6310617,-0.12883 -0.6310617,-0.59194 0,-1.3054 -1.767947,-1.89777 -2.674431,-0.8961 -0.391473,0.43256 -0.480867,0.92036 -0.480867,2.62394 0,1.70358 0.08939,2.19138 0.480867,2.62395 0.893643,0.98748 2.4677,0.49062 2.71494,-0.85698 0.05581,-0.30432 0.2917749,-0.50485 0.5940063,-0.50485 0.8208779,0 0.7919418,1.19646 -0.051805,2.14066 -0.8225283,0.9205 -2.3394373,1.2397 -3.3518203,0.70532 z m 16.2269885,-0.0601 C 1.3972407,183.54204 1.1847657,180.45784 2.9472749,178.8628 l 0.50819,-0.45992 -0.5096879,-1.15223 c -0.9734676,-2.20069 -1.91e-5,-4.11114 2.0947736,-4.11114 1.3913481,0 2.2462663,0.86243 2.2462663,2.26598 0,0.84344 -0.1765361,1.21834 -0.9885319,2.09925 l -0.9885415,1.07243 1.0917022,1.45935 c 0.6004367,0.80264 1.1439551,1.36822 1.2078092,1.25685 0.063826,-0.11138 0.1929648,-0.62847 0.2869095,-1.14909 0.1453199,-0.80539 0.2680385,-0.94659 0.8226811,-0.94659 0.6255471,0 0.6449523,0.0433 0.4803798,1.0728 -0.094355,0.59004 -0.3242697,1.37905 -0.510976,1.75335 -0.3070493,0.61558 -0.2804601,0.76019 0.2784566,1.51454 l 0.6179148,0.834 -0.6780958,0.0832 c -0.3729451,0.0457 -0.8411705,-0.0799 -1.0404892,-0.27924 -0.3149201,-0.31492 -0.4828222,-0.30101 -1.2814519,0.10616 -1.0813699,0.55131 -2.1430865,0.58362 -3.2571133,0.0991 z m 2.7138238,-1.15397 c 0.2685346,-0.14371 0.4882508,-0.38393 0.4882508,-0.53381 0,-0.34692 -2.0808352,-3.22648 -2.3386368,-3.23631 -0.3124301,-0.0119 -1.1933267,1.58659 -1.1943571,2.16731 -5.056e-4,0.29366 0.2344846,0.83322 0.522224,1.19902 0.5612732,0.71354 1.6254513,0.88389 2.5225191,0.40379 z m -0.0166,-7.59041 c 0,-0.85971 -0.3071352,-1.23555 -1.0096927,-1.23555 -0.9861468,0 -1.377172,1.36595 -0.7346906,2.56644 0.2694514,0.50348 0.2898298,0.49963 1.0096936,-0.19004 0.4040851,-0.38713 0.7346897,-0.90052 0.7346897,-1.14085 z m 20.4539247,8.79092 c -0.342921,-0.17353 -0.891582,-0.71141 -1.219258,-1.1953 -0.539883,-0.79727 -0.587948,-1.10071 -0.512426,-3.23444 l 0.08338,-2.35464 0.942881,-0.86377 c 0.7733,-0.70842 1.141733,-0.86377 2.048465,-0.86377 1.311781,0 2.327045,0.68783 2.844995,1.92745 0.487278,1.16623 0.446588,3.97298 -0.07346,5.06897 -0.747655,1.57557 -2.627464,2.26795 -4.114512,1.5155 z m 2.489546,-1.4731 c 0.980585,-1.05253 0.986081,-4.31287 0.0086,-5.29004 -0.643941,-0.64394 -1.80007,-0.62245 -2.403817,0.0447 -0.391473,0.43257 -0.480867,0.92037 -0.480867,2.62395 0,1.70357 0.08939,2.19138 0.480867,2.62395 0.620433,0.68558 1.754934,0.68436 2.394897,-0.003 z m 4.540827,1.41661 c -1.05812,-0.57502 -1.590457,-1.98504 -1.581957,-4.19013 0.01135,-2.93282 0.998111,-4.25294 3.185541,-4.26158 1.258126,-0.005 2.426142,1.02913 2.633122,2.3312 0.141809,0.8921 0.112243,0.9466 -0.513619,0.9466 -0.468092,0 -0.664081,-0.13243 -0.664081,-0.44869 0,-1.16287 -1.482631,-2.00566 -2.423346,-1.37752 -0.848307,0.56643 -1.199432,3.83012 -0.562466,5.2281 0.586326,1.28687 2.148534,1.18512 2.81728,-0.18349 0.727611,-1.48908 1.766049,-1.07516 1.245685,0.49652 -0.4947,1.49413 -2.663651,2.25921 -4.136159,1.45899 z m 13.126042,0 c -1.05811,-0.57502 -1.590457,-1.98504 -1.581947,-4.19013 0.01135,-2.93282 0.998101,-4.25294 3.185532,-4.26158 1.258125,-0.005 2.426142,1.02913 2.633121,2.3312 0.141809,0.8921 0.112243,0.9466 -0.513609,0.9466 -0.468101,0 -0.66409,-0.13243 -0.66409,-0.44869 0,-1.16287 -1.482622,-2.00566 -2.423347,-1.37752 -0.848306,0.56643 -1.199432,3.83012 -0.562466,5.2281 0.586336,1.28687 2.148544,1.18512 2.817281,-0.18349 0.72761,-1.48908 1.766058,-1.07516 1.245685,0.49652 -0.494691,1.49413 -2.663651,2.25921 -4.13616,1.45899 z m 13.471799,-0.009 c -0.30458,-0.21333 -0.675349,-0.83937 -0.823931,-1.39118 -0.527586,-1.95928 0.918733,-3.52186 3.259803,-3.52186 0.908392,0 1.03465,-0.0701 1.03465,-0.57488 0,-1.67801 -1.927291,-2.34365 -2.725292,-0.94125 -0.276929,0.48666 -0.632187,0.75624 -0.997957,0.75727 -0.858687,0.003 -0.721218,-0.90532 0.290286,-1.91683 0.714627,-0.71463 1.043142,-0.85825 1.963222,-0.85825 2.23371,0 2.683371,0.86606 2.785204,5.36437 l 0.07289,3.21876 -0.694161,-2.6e-4 c -0.462844,-2.3e-4 -0.694171,-0.13263 -0.694171,-0.3973 0,-0.32907 -0.11376,-0.30748 -0.665102,0.12621 -0.785902,0.61819 -2.030309,0.6782 -2.805421,0.1353 z m 2.850939,-1.49383 c 0.386568,-0.38658 0.619583,-0.90871 0.619583,-1.38834 0,-0.73385 -0.0478,-0.76874 -1.05292,-0.76874 -1.24621,0 -1.976168,0.55524 -1.976168,1.50318 0,1.35653 1.34253,1.72087 2.409504,0.65389 z m 26.493043,1.58871 c -0.755407,-0.41542 -1.376395,-1.27579 -1.38272,-1.91572 -0.0048,-0.43903 0.13764,-0.56796 0.625451,-0.56796 0.360329,0 0.631049,0.14565 0.631049,0.33951 0,0.53525 0.860012,1.17503 1.579495,1.17503 0.705066,0 1.449592,-0.58114 1.449592,-1.13149 0,-0.39354 -1.411297,-1.64516 -1.855032,-1.64516 -0.165966,0 -0.725207,-0.34905 -1.242756,-0.77565 -0.788208,-0.64972 -0.940988,-0.93296 -0.940988,-1.74454 0,-1.29992 1.097871,-2.27588 2.5602,-2.27588 1.269431,0 1.876708,0.32356 2.359454,1.25707 0.542144,1.04841 0.484158,1.5199 -0.186706,1.51801 -0.368423,-9.6e-4 -0.722288,-0.27277 -1.007241,-0.77345 -0.366401,-0.64379 -0.571587,-0.7587 -1.23666,-0.69257 -0.948777,0.0943 -1.476926,0.76244 -1.088945,1.37751 0.143889,0.22811 0.881651,0.74183 1.639466,1.14159 0.757816,0.39977 1.576633,0.96406 1.81959,1.25398 0.492515,0.58772 0.57795,1.76442 0.181831,2.50457 -0.56756,1.06049 -2.74505,1.5931 -3.90508,0.95515 z m 6.280467,-0.18903 c -0.743257,-0.45323 -1.490693,-1.82559 -1.169314,-2.14697 0.303758,-0.30376 1.325653,-0.13962 1.325653,0.21293 0,0.98648 1.863284,1.5717 2.512711,0.78919 0.634229,-0.7642 0.194654,-1.4741 -1.503019,-2.42725 -1.765962,-0.9915 -2.42098,-1.8802 -2.158027,-2.92789 0.470477,-1.87456 2.934075,-2.51961 4.425149,-1.15866 0.4183,0.38179 0.789261,0.97814 0.82436,1.32522 0.05259,0.51999 -0.05839,0.64511 -0.630346,0.71093 -0.537842,0.0619 -0.694162,-0.0262 -0.694162,-0.39126 0,-0.6315 -0.482183,-1.07694 -1.165745,-1.07694 -0.980528,0 -1.358501,0.27865 -1.358501,1.00153 0,0.59099 0.225107,0.81508 1.503048,1.49621 2.350457,1.25278 2.946281,2.28676 2.176039,3.77625 -0.673774,1.30292 -2.644713,1.6967 -4.087846,0.81671 z m 6.608068,-0.29603 c -1.47125,-1.29176 -1.87257,-4.15125 -0.87255,-6.21701 0.59073,-1.2203 1.53634,-1.83979 2.80832,-1.83979 1.61571,0 2.71916,1.4308 2.71916,3.52583 v 1.01781 h -2.27182 -2.27181 v 0.84944 c 0,1.82198 1.67623,2.74692 3.18572,1.75786 0.54859,-0.35944 0.67726,-0.36878 0.87074,-0.0631 0.35758,0.56496 0.28841,0.71201 -0.58563,1.24492 -1.24011,0.75611 -2.51887,0.65759 -3.58212,-0.27596 z m 3.24868,-4.74628 c 0.24883,-0.40264 -0.39151,-1.77172 -0.90488,-1.93466 -0.79992,-0.25388 -1.6168,0.0733 -1.93681,0.77558 -0.55891,1.22669 -0.42322,1.3825 1.20395,1.3825 0.82481,0 1.56179,-0.10053 1.63774,-0.22342 z m 3.65865,5.05509 c -0.58191,-0.47065 -0.61568,-0.65534 -0.69482,-3.7991 -0.0771,-3.06165 -0.11877,-3.30438 -0.56795,-3.30438 -0.34882,0 -0.48479,-0.17699 -0.48479,-0.63106 0,-0.46278 0.13462,-0.63107 0.50485,-0.63107 0.42208,0 0.50485,-0.16828 0.50485,-1.02645 0,-0.97086 0.0376,-1.02213 0.69416,-0.94659 0.60266,0.0694 0.7045,0.20465 0.77252,1.02646 0.0674,0.81376 0.16476,0.94658 0.69417,0.94658 0.48859,0 0.61581,0.13038 0.61581,0.63107 0,0.5069 -0.12568,0.63106 -0.63883,0.63106 h -0.63884 l 0.0709,3.09219 0.0709,3.09219 0.70933,0.0814 c 0.56561,0.0649 0.69346,0.19271 0.63106,0.63106 -0.10807,0.7589 -1.41201,0.87904 -2.24329,0.2067 z m 8.20178,0.11044 c -1.08199,-0.4711 -1.87177,-1.55892 -1.87177,-2.57812 0,-0.73779 0.0829,-0.84944 0.63106,-0.84944 0.50785,0 0.63106,0.12544 0.63106,0.64253 0,1.65571 2.56907,2.5464 3.74236,1.29749 1.19705,-1.27421 0.49788,-2.66507 -1.7521,-3.48545 -0.8419,-0.30698 -1.86132,-0.88871 -2.26536,-1.29274 -0.61618,-0.61619 -0.7346,-0.93898 -0.7346,-2.00254 0,-1.10542 0.11001,-1.37797 0.85825,-2.12619 0.76666,-0.76665 1.00545,-0.85824 2.23775,-0.85824 1.53792,0 2.44367,0.52022 3.09344,1.77671 0.57288,1.10786 0.48786,1.75722 -0.23011,1.75722 -0.44831,0 -0.6483,-0.17869 -0.77694,-0.69417 -0.28443,-1.13965 -0.85408,-1.57765 -2.0519,-1.57765 -0.83245,0 -1.17324,0.12959 -1.47542,0.56102 -0.9189,1.31192 -0.24437,2.47143 1.89056,3.24987 2.07576,0.75686 3.0174,1.84328 3.0174,3.48133 0,0.94266 -0.13988,1.3674 -0.62139,1.88697 -1.08831,1.1743 -2.76564,1.48917 -4.32229,0.8114 z m 7.72791,0.0359 c -0.34291,-0.17352 -0.89158,-0.7114 -1.21926,-1.19529 -0.53988,-0.79728 -0.58794,-1.10071 -0.51242,-3.23445 l 0.0834,-2.35463 0.94288,-0.86377 c 0.7733,-0.70842 1.14174,-0.86378 2.04847,-0.86378 1.31177,0 2.32705,0.68784 2.845,1.92746 0.48728,1.16623 0.44659,3.97298 -0.0735,5.06896 -0.74766,1.57558 -2.62746,2.26796 -4.11452,1.5155 z m 2.48956,-1.47309 c 0.98059,-1.05254 0.98609,-4.31288 0.009,-5.29004 -0.64394,-0.64395 -1.80006,-0.62245 -2.40382,0.0447 -0.39148,0.43256 -0.48086,0.92037 -0.48086,2.62394 0,1.70358 0.0894,2.19138 0.48086,2.62396 0.62045,0.68557 1.75494,0.68436 2.39491,-0.003 z m 4.2592,1.06008 -0.82436,-0.73593 -0.0818,-3.68148 -0.0818,-3.6815 h 0.64967 0.64968 l 0.004,3.0922 c 0.003,1.9751 0.11849,3.32017 0.32139,3.72325 0.37553,0.74602 1.3491,0.93878 2.07315,0.41048 0.44846,-0.32723 0.51869,-0.74282 0.63084,-3.73396 0.12202,-3.25426 0.14501,-3.36843 0.69417,-3.44641 l 0.56795,-0.0807 v 4.30876 4.30877 h -0.63106 c -0.34708,0 -0.63106,-0.12004 -0.63106,-0.26674 0,-0.14951 -0.24657,-0.0941 -0.56102,0.12621 -0.86318,0.6046 -1.85531,0.48218 -2.77961,-0.34299 z m 11.85489,0.23342 c -1.10963,-0.87563 -1.44639,-1.79001 -1.44639,-3.92733 0,-3.07161 0.95896,-4.405 3.168,-4.405 1.22342,0 2.63775,1.33995 2.63775,2.49901 0,0.6664 -0.0937,0.78251 -0.63106,0.78251 -0.49371,0 -0.63105,-0.12882 -0.63105,-0.59193 0,-1.20934 -1.75675,-1.90648 -2.62252,-1.04071 -0.85286,0.85286 -0.87397,4.48415 -0.0315,5.41509 0.87503,0.96691 2.45005,0.45278 2.6945,-0.87957 0.0558,-0.30432 0.29178,-0.50485 0.594,-0.50485 0.82483,0 0.79143,1.19701 -0.06,2.14989 -0.97087,1.08661 -2.64199,1.31549 -3.67178,0.50289 z m 7.26224,0.2752 c -1.59961,-0.7044 -2.42366,-3.14933 -1.90444,-5.65038 0.87745,-4.22664 5.81701,-3.85467 5.81701,0.43805 v 1.14844 h -2.27182 -2.27181 v 0.84944 c 0,1.80292 1.78829,2.79325 3.22578,1.78639 0.99775,-0.69885 1.4925,0.18094 0.57082,1.01505 -0.56007,0.50686 -2.40562,0.74764 -3.16554,0.41301 z m 2.5543,-5.86991 c -0.21734,-1.08665 -0.59446,-1.47549 -1.43099,-1.47549 -0.78131,0 -1.75437,0.99892 -1.75437,1.80101 0,0.41208 0.20858,0.4708 1.67231,0.4708 h 1.6723 z m -190.93178,1.6167 c 0.06821,-4.16859 0.07718,-4.22923 0.637158,-4.30876 0.38923,-0.0552 0.567961,0.0485 0.567961,0.32984 0,0.3738 0.05018,0.37536 0.561015,0.0176 0.308548,-0.21612 0.884408,-0.39296 1.279668,-0.39296 0.595075,0 0.70479,0.0947 0.638008,0.55096 -0.05228,0.35728 -0.330366,0.61734 -0.790969,0.73977 -1.377629,0.36618 -1.4353,0.52855 -1.4353,4.0411 v 3.2506 h -0.763378 -0.763378 z m 4.543556,0.0174 c 0.06831,-4.18657 0.07718,-4.24658 0.637234,-4.32613 0.38923,-0.0552 0.567961,0.0485 0.567961,0.32984 0,0.3738 0.05018,0.37537 0.561016,0.0176 0.308547,-0.21612 0.884407,-0.39296 1.279667,-0.39296 0.600895,0 0.705449,0.0931 0.638007,0.56797 -0.05686,0.40021 -0.277932,0.59079 -0.74859,0.64528 -1.2983,0.15034 -1.512139,0.71625 -1.560109,4.12889 l -0.04379,3.11408 -0.700354,0.0804 -0.700344,0.0805 0.06926,-4.24546 z m 11.106724,-0.0174 c 0.06821,-4.16859 0.07718,-4.22923 0.637166,-4.30876 0.389232,-0.0552 0.567953,0.0485 0.567953,0.32984 0,0.3738 0.05018,0.37536 0.561015,0.0176 0.631233,-0.44214 2.015617,-0.51777 2.706736,-0.14789 0.889635,0.47612 1.27588,2.08465 1.27588,5.31338 v 3.02398 h -0.757272 -0.757272 v -3.17189 c 0,-1.74455 -0.117586,-3.39161 -0.261303,-3.66015 -0.336357,-0.6285 -1.539101,-0.64376 -2.097598,-0.0266 -0.342463,0.37841 -0.417756,1.03811 -0.417756,3.66014 v 3.19853 h -0.763378 -0.763378 z m 35.593056,-1.38833 0.06793,-5.61643 1.831658,-0.0742 c 1.331444,-0.0539 2.080978,0.0441 2.744611,0.35903 1.514362,0.71861 2.057537,2.76146 1.136036,4.27258 -0.466832,0.76552 -0.465916,0.77603 0.127155,1.46551 0.472853,0.54972 0.597346,0.98615 0.597346,2.09397 0,1.25501 -0.08863,1.48809 -0.858238,2.25773 -0.857075,0.85708 -0.86154,0.85825 -3.286336,0.85825 h -2.428107 z m 4.849679,3.7933 c 0.528959,-0.7552 0.496245,-2.03214 -0.06993,-2.73139 -0.353368,-0.43639 -0.801396,-0.59975 -1.893184,-0.69029 l -1.430264,-0.11861 v 2.05065 2.05065 h 1.500224 c 1.264145,0 1.562074,-0.0883 1.893184,-0.56101 z m -0.672916,-4.88041 c 0.434758,-0.30451 0.561016,-0.64216 0.561016,-1.50023 0,-1.36023 -0.619823,-1.89319 -2.20177,-1.89319 h -1.079738 v 1.89319 1.89317 h 1.079738 c 0.593864,0 1.332198,-0.17682 1.640754,-0.39294 z m 3.842524,0.64537 v -6.05817 h 0.631062 0.631061 v 6.05817 6.05818 h -0.631061 -0.631062 z m 17.164832,0 v -6.05817 h 0.631062 0.631061 v 3.53392 c 0,1.94368 0.0935,3.53394 0.207867,3.53394 0.114323,0 0.751157,-0.79513 1.41518,-1.76696 1.026561,-1.50243 1.316676,-1.76698 1.937739,-1.76698 0.401728,0 0.730415,0.0694 0.730415,0.15406 0,0.0847 -0.567951,0.93493 -1.262113,1.88932 -0.694172,0.95439 -1.262123,1.85571 -1.262123,2.00295 0,0.14723 0.547869,1.08609 1.217483,2.08636 1.748246,2.61154 1.694782,2.44974 0.80943,2.44974 -0.695765,0 -0.907591,-0.20331 -1.971178,-1.89191 -0.655399,-1.04054 -1.333628,-1.89247 -1.507169,-1.89318 -0.224496,-9.5e-4 -0.315531,0.54496 -0.315531,1.8919 0,1.85111 -0.01402,1.89319 -0.631061,1.89319 h -0.631062 z m 13.126043,0 v -6.05817 h 0.631061 c 0.623964,0 0.631062,0.0243 0.631062,2.15991 v 2.15992 l 0.561015,-0.39295 c 0.833195,-0.58359 2.073089,-0.49126 2.895741,0.21565 0.707614,0.60805 0.708311,0.61184 0.789967,4.2912 l 0.08176,3.68262 h -0.649685 -0.649684 v -3.09914 c 0,-2.39642 -0.08911,-3.22634 -0.392951,-3.66015 -0.502094,-0.71684 -1.458008,-0.7207 -2.121459,-0.009 -0.460173,0.49394 -0.514678,0.88157 -0.514678,3.66015 v 3.10772 h -0.631061 -0.631062 z m 14.388165,1.76696 v -4.29121 h 0.631062 0.631061 v 4.29121 4.29122 h -0.631061 -0.631062 z m 3.029088,0 c 0,-4.14502 0.01746,-4.29121 0.512769,-4.29121 0.282025,0 0.577531,0.16877 0.656678,0.37502 0.127298,0.33173 0.205692,0.33173 0.679307,0 0.879781,-0.61623 2.131066,-0.47281 2.940953,0.33707 0.606858,0.60687 0.737304,0.98918 0.882758,2.58735 0.09388,1.0314 0.133861,2.6136 0.08892,3.51601 -0.07814,1.56649 -0.112329,1.64429 -0.756136,1.71872 l -0.674327,0.078 -0.08291,-3.43227 c -0.06554,-2.71117 -0.162483,-3.48246 -0.461576,-3.67114 -0.676035,-0.42648 -1.466431,-0.26117 -2.001067,0.41851 -0.462511,0.58799 -0.52317,1.01236 -0.52317,3.66015 v 2.99505 h -0.631061 -0.631062 z m 9.849018,3.97568 c 0.0029,-0.17354 0.774588,-2.70093 1.715837,-5.61643 1.574601,-4.87728 1.757997,-5.3009 2.294875,-5.3009 0.539407,0 0.714817,0.41973 2.320711,5.55332 0.955455,3.05433 1.7382,5.58173 1.73943,5.61644 9.54e-4,0.0347 -0.31014,0.063 -0.691929,0.0628 -0.631147,-2.5e-4 -0.734861,-0.13881 -1.142352,-1.52547 l -0.448181,-1.52512 -1.803447,0.074 -1.803438,0.074 -0.482965,1.45143 c -0.410401,1.23334 -0.57464,1.45144 -1.093,1.45144 -0.335508,0 -0.608012,-0.14199 -0.605541,-0.31553 z m 5.296419,-4.13778 c 0,-0.36008 -1.069482,-3.76394 -1.239111,-3.94373 -0.10028,-0.10629 -0.472366,0.77405 -0.826851,1.9563 l -0.644513,2.14953 h 1.355238 c 0.745384,0 1.355237,-0.073 1.355237,-0.1621 z m 53.513882,0.1621 c 0,-4.08648 0.0235,-4.29121 0.4923,-4.29121 0.27078,0 0.59168,0.17757 0.71312,0.3946 0.20025,0.35783 0.25134,0.35783 0.54832,0 0.1801,-0.21703 0.65433,-0.3946 1.05381,-0.3946 0.60653,0 0.72638,0.10414 0.72638,0.63107 0,0.50485 -0.12621,0.63106 -0.63106,0.63106 -0.34708,0 -0.85824,0.22718 -1.1359,0.50485 -0.45102,0.45099 -0.50485,0.84141 -0.50485,3.66015 v 3.1553 h -0.63106 -0.63106 z m -276.78287,-1.17084 c -0.69417,-0.0584 -1.41535,-0.16028 -1.60263,-0.22651 -0.19403,-0.0686 1.86908,-1.78637 4.79605,-3.99323 2.82512,-2.13004 8.14672,-6.15962 11.8258,-8.95461 3.67909,-2.795 6.78657,-5.08396 6.90553,-5.08659 0.11896,-0.003 0.16703,1.7275 0.10682,3.8447 -0.092,3.2325 -0.20134,4.0849 -0.68272,5.31844 -0.44735,1.1463 -0.66419,1.43407 -0.98721,1.31012 -0.22766,-0.0874 -1.10453,-0.22333 -1.9486,-0.30215 -1.94372,-0.18151 -3.63485,0.48477 -4.39246,1.73056 l -0.50727,0.83413 0.94228,0.44562 c 1.37989,0.65256 2.44398,1.57157 2.22672,1.92312 -0.36088,0.58392 -3.29691,1.86253 -5.68219,2.47454 -1.88925,0.48475 -3.21773,0.63866 -6.07786,0.70414 -2.01307,0.0461 -4.2281,0.0361 -4.92226,-0.0223 z m 58.436151,-1.25448 c -2.326876,-0.42008 -4.697397,-1.0112 -6.436818,-1.60509 -2.660655,-0.90844 -5.932947,-2.28454 -5.92812,-2.49296 0.0019,-0.0912 1.59206,-1.07449 3.533223,-2.18515 l 3.529388,-2.0194 7.63e-4,-5.2047 7.54e-4,-5.20471 -3.665721,-2.09739 c -2.016151,-1.15357 -3.578025,-2.18325 -3.470828,-2.28818 0.107187,-0.10494 1.557981,-0.69663 3.223979,-1.31487 4.27004,-1.58459 8.139891,-2.50838 10.648271,-2.5419 1.965396,-0.0262 2.105049,0.01 2.871699,0.72965 0.44321,0.41651 1.074339,1.32523 1.402501,2.01939 0.594235,1.25697 0.596668,1.3008 0.596668,10.72802 0,9.42722 -0.0029,9.47106 -0.596668,10.72802 -0.929849,1.9669 -1.786437,2.62698 -3.575707,2.75539 -0.82622,0.0593 -1.786207,0.0566 -2.133288,-0.006 z M 66.606443,173.2653 c 0,-0.7741 0.07814,-0.88348 0.631062,-0.88348 0.552935,0 0.631061,0.10938 0.631061,0.88348 0,0.7741 -0.07814,0.88349 -0.631061,0.88349 -0.552926,0 -0.631062,-0.10939 -0.631062,-0.88349 z m -75.8320165,-3.173 c -1.1815345,-0.29145 -3.8240055,-1.57662 -4.6534225,-2.26318 l -0.593262,-0.4911 1.027228,-1.22691 c 1.613268,-1.92687 1.622093,-1.93076 2.728325,-1.20374 0.530696,0.34877 1.489109,0.77286 2.1297968,0.94241 1.0691104,0.28293 1.2648515,0.25802 2.3807482,-0.30291 1.7158755,-0.86252 2.1338991,-1.76956 2.1338991,-4.63014 v -2.25987 l -0.6941619,0.64744 c -1.0970639,1.02321 -1.8466462,1.30464 -3.4708286,1.30313 -2.8127586,-0.003 -5.4225816,-1.75064 -6.7284576,-4.50658 l -0.71766,-1.51454 -1.9e-4,-9.02416 -2.01e-4,-9.02416 h 2.00995 2.009959 l 0.07251,8.69053 c 0.06984,8.36316 0.09245,8.71736 0.600599,9.40279 0.827394,1.11604 2.0809112,1.84818 3.1643037,1.84818 1.2678758,0 2.9322997,-0.67965 3.3197653,-1.35558 0.2198784,-0.38359 0.3443238,-3.13009 0.434376,-9.58716 l 0.1262103,-9.04955 2.0193949,2.5e-4 2.0193948,2.5e-4 v 13.71914 c 0,15.67478 0.06678303,15.1426 -2.2024757,17.54204 -1.8966477,2.00543 -4.7185837,2.93476 -7.1158369,2.34342 z M 4.7625806,153.3344 v -17.04883 h 1.6079445 1.6079541 l 0.3104267,1.10874 0.3104266,1.10874 0.8749435,-0.96844 c 1.115811,-1.23508 2.222415,-1.59693 4.405925,-1.4407 3.167252,0.22662 5.811631,2.12381 6.521153,4.67857 0.148611,0.53511 0.260663,3.71351 0.260062,7.37702 -9.54e-4,6.2323 -0.01994,6.47744 -0.596458,7.71544 -1.29935,2.7904 -3.983198,4.65463 -6.697174,4.65192 -1.802464,-0.002 -3.100698,-0.36476 -3.7082041,-1.03676 -0.4730338,-0.52324 -0.4813053,-0.4534 -0.6057985,5.11301 l -0.1262103,5.64349 -2.0824953,0.0734 -2.0824952,0.0733 z m 10.1227334,2.31968 c 1.590218,-1.06233 1.740356,-1.70484 1.740795,-7.44959 5.06e-4,-5.73014 -0.164553,-6.51765 -1.540914,-7.35466 -1.929638,-1.17348 -4.461955,-0.69858 -5.5188824,1.035 -0.4721847,0.77447 -0.5107089,1.26153 -0.5115867,6.46652 -9.54e-4,6.15499 0.1154679,6.75447 1.4536661,7.48058 1.098171,0.59585 3.356096,0.50411 4.376922,-0.17785 z m 92.220906,14.3839 c -0.0752,-0.19598 -0.10276,-1.14018 -0.0612,-2.09824 l 0.0755,-1.74192 1.16205,-0.28688 c 1.45517,-0.35923 1.95636,-0.62839 2.75051,-1.47709 l 0.63106,-0.67442 0.12621,-13.67382 0.12621,-13.67383 2.09061,-0.0735 2.09062,-0.0735 -0.0713,14.08298 -0.0712,14.08297 -0.68221,1.29327 c -1.26695,2.40172 -3.77082,4.04987 -6.82926,4.4953 -0.92175,0.13424 -1.23268,0.0921 -1.33763,-0.18143 z m -202.051108,-2.42722 v -2.54169 l -1.009693,-0.66819 c -1.23331,-0.81616 -1.347443,-1.10343 -0.142543,-0.35876 l 0.867149,0.53593 2.53599,-1.27262 c 1.394792,-0.69994 2.594836,-1.27261 2.66678,-1.27261 0.07193,0 0.130799,1.16783 0.130799,2.59517 v 2.59519 l -2.315167,1.38049 c -1.273333,0.75928 -2.409246,1.41836 -2.524236,1.46464 -0.114991,0.0463 -0.209079,-1.05962 -0.209079,-2.45755 z m -10.601812,-0.70872 c -4.82919,-3.28946 -7.82192,-7.32902 -8.61728,-11.63152 -0.22557,-1.22022 -0.19125,-1.44202 0.37187,-2.40289 0.3412,-0.58224 0.83293,-1.25096 1.09273,-1.48608 0.57194,-0.5176 12.17713,-7.27084 12.49466,-7.27084 0.12338,0 0.0368,0.36253 -0.19228,0.80561 -1.81979,3.51909 -2.63273,8.32934 -2.84107,16.81103 l -0.16302,6.6362 z m 58.773484,-6.60117 c -2.797217,-0.92301 -4.591219,-2.55416 -5.510001,-5.00984 -0.478959,-1.28013 -0.506864,-1.95822 -0.506864,-12.31622 0,-10.60435 0.01774,-11.00885 0.543661,-12.41459 0.730645,-1.95282 2.613249,-3.83565 4.638845,-4.63941 1.222788,-0.4852 1.982407,-0.59955 4.030966,-0.60677 2.21673,-0.008 2.69876,0.0729 3.956781,0.66264 1.956036,0.91696 3.59264,2.4966 4.502683,4.34599 0.731284,1.48612 1.388,4.28761 1.110383,4.73681 -0.07356,0.11902 -1.092561,0.2164 -2.264451,0.2164 h -2.130703 l -0.0029,-0.82038 c -0.0038,-1.33749 -1.092561,-3.35309 -2.210356,-4.09282 -2.027323,-1.34161 -4.893298,-1.07649 -6.713526,0.62104 l -1.044401,0.97401 -0.07127,10.54813 c -0.05104,7.55161 0.01154,10.74819 0.220422,11.25235 0.420113,1.01423 1.820286,2.14953 3.064101,2.48446 3.294378,0.88709 6.131703,-0.94718 6.708145,-4.33665 l 0.188099,-1.10607 1.98918,-0.0744 c 1.094049,-0.0409 2.092866,0.0293 2.219591,0.156 0.348379,0.34838 -0.255111,3.26108 -0.976807,4.71449 -0.8881,1.78852 -2.660664,3.49824 -4.478756,4.31994 -2.04087,0.92238 -5.137161,1.08648 -7.263256,0.38492 z m 90.228864,0.10362 c -2.675004,-0.836 -4.536724,-2.62203 -5.255262,-5.04162 -0.450909,-1.51835 -0.526508,-12.04439 -0.09805,-13.65018 0.603547,-2.26197 2.7382,-4.41588 5.154887,-5.20139 0.555339,-0.18051 1.880734,-0.32531 2.945332,-0.32178 1.662411,0.006 2.168636,0.12111 3.586439,0.8191 1.945323,0.95768 3.235457,2.34757 3.872233,4.17163 0.382667,1.09616 0.450232,2.17991 0.450232,7.22167 0,7.1276 -0.177547,7.90941 -2.271882,10.00375 -1.055334,1.05532 -1.644236,1.41411 -3.017114,1.83815 -1.925307,0.59467 -3.798695,0.65075 -5.366818,0.16067 z m 4.597639,-4.50091 c 1.739078,-0.97763 1.892336,-1.58061 1.892784,-7.44666 5.06e-4,-5.72286 -0.14053,-6.39654 -1.548698,-7.40087 -1.147476,-0.81841 -3.621606,-0.86352 -4.664289,-0.085 -1.718757,1.28324 -1.737972,1.36491 -1.737972,7.38631 0,4.99498 0.04322,5.54326 0.496618,6.29287 1.038371,1.71691 3.678562,2.31192 5.561557,1.25339 z m 76.808943,4.46587 c -1.6243,-0.49966 -3.98482,-2.70663 -4.76526,-4.45528 -0.49179,-1.10195 -0.59368,-1.7573 -0.59883,-3.8521 -0.006,-2.20932 0.0772,-2.70234 0.66174,-3.9518 1.30785,-2.79531 3.94581,-4.5044 6.95251,-4.5044 1.49163,0 3.28459,0.79202 3.86827,1.70875 0.21439,0.33671 0.2498,0.10454 0.15443,-1.01286 -0.19845,-2.32565 -1.57716,-3.74775 -3.64992,-3.76475 -1.11852,-0.01 -1.90504,0.28693 -3.05388,1.14969 l -0.86372,0.64864 -1.11399,-1.66058 -1.114,-1.66058 0.5365,-0.57108 c 0.29508,-0.31409 1.18506,-0.89963 1.97772,-1.3012 1.25329,-0.6349 1.721,-0.73012 3.58682,-0.73012 1.73233,0 2.37387,0.11244 3.33071,0.58373 1.51257,0.74505 3.03944,2.27191 3.78449,3.7845 0.5734,1.16414 0.58499,1.3492 0.65572,10.46168 l 0.072,9.27658 h -1.64666 -1.64667 l -0.15816,-0.98913 -0.15817,-0.98913 -0.80948,0.80946 c -1.37316,1.37317 -3.61536,1.75419 -6.00216,1.01998 z m 4.62355,-4.46295 c 1.18915,-0.79439 1.74042,-2.01211 1.74042,-3.84443 0,-2.83634 -1.28345,-4.29121 -3.78558,-4.29121 -2.50213,0 -3.78558,1.45487 -3.78558,4.29121 0,2.73537 1.44147,4.41742 3.78558,4.41742 0.81434,0 1.45697,-0.18004 2.04516,-0.57299 z m 14.3624,4.32134 c -0.9836,-0.38694 -1.89157,-1.04861 -3.11451,-2.26966 -0.94939,-0.94793 -1.68031,-1.86107 -1.62425,-2.02922 0.056,-0.16815 0.82174,-0.70072 1.70154,-1.1835 l 1.59964,-0.87778 0.52996,0.61175 c 1.49715,1.72814 3.19887,2.4208 4.9698,2.0229 2.36122,-0.53052 3.52293,-3.1082 2.14096,-4.75056 -0.75707,-0.89975 -1.60983,-1.2186 -3.87381,-1.44847 -4.45828,-0.45265 -6.61257,-2.59912 -6.61807,-6.59401 -0.006,-4.29282 3.26069,-7.4891 7.6828,-7.5174 2.35454,-0.0151 4.20423,0.82011 6.08672,2.74827 0.75539,0.77373 1.37345,1.5118 1.37345,1.64015 0,0.21775 -2.46838,1.9134 -3.18653,2.18899 -0.17791,0.0683 -0.68649,-0.28933 -1.13018,-0.79467 -1.00805,-1.14811 -1.96042,-1.65028 -3.1298,-1.65028 -2.2985,0 -4.07864,2.25815 -3.37385,4.27985 0.31914,0.91554 1.18482,1.29221 3.53252,1.53708 2.52215,0.26307 4.22727,1.0213 5.60217,2.49117 1.3693,1.46389 1.80332,2.66258 1.79019,4.94416 -0.0169,2.95975 -1.4242,5.17721 -4.09976,6.46044 -1.74526,0.83706 -4.98697,0.92723 -6.85899,0.19079 z M -29.819505,148.52813 v -11.99014 h 1.739966 c 1.866919,0 2.046394,0.12726 2.046394,1.45098 0,0.63697 0.02242,0.62835 0.946592,-0.36363 1.11126,-1.19278 2.478595,-1.71447 3.898517,-1.48742 1.033238,0.16523 2.834558,0.97018 3.087732,1.37981 0.121641,0.19683 -0.978295,3.5076 -1.258889,3.78918 -0.05429,0.0545 -0.244979,-0.0223 -0.423719,-0.17064 -0.17874,-0.14833 -0.854994,-0.40317 -1.50278,-0.56628 -1.488041,-0.37469 -2.700191,-0.0205 -3.603288,1.0527 l -0.639314,0.75979 v 9.0679 9.06789 h -2.145606 -2.145606 z m 61.970083,11.63447 c -2.793372,-0.69215 -4.989808,-2.36354 -6.113767,-4.65228 l -0.70168,-1.42885 -0.07337,-13.69401 -0.07336,-13.694 h 2.155832 2.155823 v 4.78691 4.78692 l 2.461136,0.0722 2.461136,0.0722 v 2.01939 2.01939 l -2.461136,0.0722 -2.461136,0.0722 v 6.33477 c 0,5.93354 0.03263,6.38749 0.514439,7.16713 0.606858,0.98192 2.737379,2.1301 3.952544,2.1301 h 0.83392 v 2.1456 2.14561 l -0.694162,-0.0215 c -0.381789,-0.0118 -1.262123,-0.16221 -1.956285,-0.33421 z m 26.378305,-15.95064 c 0,-14.56933 0.04398,-16.39893 0.412672,-17.17594 0.762337,-1.6065 2.830131,-2.09078 4.402604,-1.03108 0.810966,0.5465 1.05999,1.16509 5.275125,13.10374 l 4.423975,12.53017 0.12621,-13.04065 0.126211,-13.04064 h 2.019395 2.019394 v 16.70281 16.70283 l -0.608326,0.64746 c -1.181487,1.25749 -3.185236,1.09085 -4.411859,-0.3669 -0.558802,-0.6641 -2.561291,-5.85054 -7.130691,-18.46842 l -1.984868,-5.48098 -0.06545,12.61196 -0.06545,12.61195 h -2.269478 -2.269478 z m 23.98027,4.35825 c 0,-6.57145 0.04684,-11.9954 0.104057,-12.05325 0.05724,-0.0578 0.965959,-0.0678 2.019395,-0.0221 l 1.915337,0.0831 v 11.9702 11.97019 h -2.019395 -2.019394 v -11.94807 z m 8.582425,-0.16829 v -12.11635 h 1.505662 c 1.598881,0 2.028267,0.31712 2.028267,1.49796 0,0.60688 0.452551,0.69902 0.668565,0.13611 0.08128,-0.21193 0.667191,-0.68968 1.301945,-1.06167 1.604853,-0.94051 3.917823,-0.9441 5.738563,-0.009 1.53788,0.7899 3.24701,2.58483 3.98802,4.18824 0.52226,1.13004 0.54864,1.56954 0.62032,10.33062 l 0.0749,9.15038 h -2.14815 -2.14815 l -0.0723,-8.89795 c -0.0714,-8.78159 -0.0798,-8.90842 -0.64345,-9.69867 -0.72759,-1.02005 -2.476565,-1.72103 -3.714569,-1.48878 -1.197621,0.22468 -2.581966,1.47777 -2.900826,2.6258 -0.150358,0.54132 -0.257735,4.35909 -0.258556,9.19271 l -9.54e-4,8.26689 H 93.11145 91.092065 Z m -193.356768,9.38486 c 0,-1.10275 1.63675,-6.88352 2.546365,-8.99338 1.622083,-3.76247 3.234187,-5.76102 5.436568,-6.73986 0.860471,-0.38244 1.189186,-0.41376 1.893175,-0.18039 0.468559,0.15532 3.554965,1.82982 6.858703,3.72112 l 6.006783,3.43871 -2.094213,0.18632 c -6.270107,0.55783 -13.376727,3.50008 -19.195931,7.94741 -1.22264,0.93439 -1.45145,1.03214 -1.45145,0.62007 z M -82.952125,144.74 c -2.745508,-1.63559 -4.564859,-3.14505 -5.183126,-4.30028 -0.286614,-0.53556 -0.238063,-0.68951 0.4727,-1.49904 1.709998,-1.94757 2.218904,-3.89902 1.419807,-5.44431 -0.211817,-0.4096 -0.420848,-0.74474 -0.464514,-0.74474 -0.0437,0 -0.693905,0.33872 -1.444956,0.75271 -2.233225,1.23095 -2.342176,1.15899 -2.190531,-1.44687 0.222339,-3.82067 2.011008,-8.25079 5.237869,-12.973 0.792762,-1.16014 1.542764,-2.08401 1.666676,-2.05306 0.123901,0.0309 0.592594,3.32509 1.041538,7.3203 0.448944,3.99521 1.169011,10.35224 1.600153,14.12674 0.431151,3.7745 0.746663,7.09928 0.701165,7.38843 -0.07556,0.47999 -0.323955,0.382 -2.856781,-1.12688 z M 82.742159,133.02348 c -1.570403,-1.57041 -0.437114,-4.29095 1.793324,-4.30502 1.125867,-0.007 1.964519,0.57528 2.42889,1.68667 1.048426,2.50925 -2.272112,4.56844 -4.222214,2.61835 z m 29.533611,0 c -1.62599,-1.626 -0.51346,-4.31063 1.78638,-4.31063 0.82234,0 1.20769,0.15918 1.78637,0.73786 1.62599,1.626 0.51346,4.31063 -1.78637,4.31063 -0.82235,0 -1.2077,-0.15919 -1.78638,-0.73786 z"
       id="path4713"
       inkscape:connector-curvature="0" />
  </g>
</svg>
