<?xml version="1.0" encoding="UTF-8" standalone="no"?>
<!-- Created with Inkscape (http://www.inkscape.org/) -->

<svg
   xmlns:dc="http://purl.org/dc/elements/1.1/"
   xmlns:cc="http://creativecommons.org/ns#"
   xmlns:rdf="http://www.w3.org/1999/02/22-rdf-syntax-ns#"
   xmlns:svg="http://www.w3.org/2000/svg"
   xmlns="http://www.w3.org/2000/svg"
   xmlns:sodipodi="http://sodipodi.sourceforge.net/DTD/sodipodi-0.dtd"
   xmlns:inkscape="http://www.inkscape.org/namespaces/inkscape"
   width="345.40524mm"
   height="84.666656mm"
   viewBox="0 0 1223.8769 299.99995"
   id="svg2"
   version="1.1"
   inkscape:version="0.91 r13725"
   sodipodi:docname="forklog.svg">
  <defs
     id="defs4" />
  <sodipodi:namedview
     id="base"
     pagecolor="#ffffff"
     bordercolor="#666666"
     borderopacity="1.0"
     inkscape:pageopacity="0.0"
     inkscape:pageshadow="2"
     inkscape:zoom="0.16"
     inkscape:cx="201.6242"
     inkscape:cy="-706.60957"
     inkscape:document-units="px"
     inkscape:current-layer="layer1"
     showgrid="false"
     fit-margin-top="0"
     fit-margin-left="0"
     fit-margin-right="0"
     fit-margin-bottom="0"
     inkscape:window-width="1025"
     inkscape:window-height="1047"
     inkscape:window-x="-4"
     inkscape:window-y="24"
     inkscape:window-maximized="0"
     borderlayer="false" />
  <metadata
     id="metadata7">
    <rdf:RDF>
      <cc:Work
         rdf:about="">
        <dc:format>image/svg+xml</dc:format>
        <dc:type
           rdf:resource="http://purl.org/dc/dcmitype/StillImage" />
        <dc:title></dc:title>
      </cc:Work>
    </rdf:RDF>
  </metadata>
  <g
     inkscape:label="Layer 1"
     inkscape:groupmode="layer"
     id="layer1"
     transform="translate(-445.70783,-494.57531)">
    <path
       style="opacity:1;fill:#ffffff;fill-opacity:1;stroke:#fabf2c;stroke-width:1.17059314;stroke-linecap:square;stroke-linejoin:round;stroke-miterlimit:4;stroke-dasharray:none;stroke-opacity:1"
       d=""
       id="path4797"
       inkscape:connector-curvature="0"
       transform="translate(697.33569,111.27954)" />
    <path
       style="opacity:1;fill:#ffffff;fill-opacity:1;stroke:#3c3b40;stroke-width:1.17059314;stroke-linecap:square;stroke-linejoin:round;stroke-miterlimit:4;stroke-dasharray:none;stroke-opacity:1"
       d=""
       id="path4799"
       inkscape:connector-curvature="0"
       transform="translate(697.33569,111.27954)" />
    <g
       id="g4842"
       transform="matrix(1.0521262,0,0,1.0521262,-23.233077,310.20944)">
      <g
         inkscape:label="Layer 1"
         id="layer1-6"
         transform="translate(432.475,-585.57324)">
        <path
           style="opacity:1;fill:#ffffff;fill-opacity:1;stroke:none;stroke-width:5.86999989;stroke-linejoin:miter;stroke-miterlimit:4;stroke-dasharray:none;stroke-opacity:1"
           d="m 402.84074,977.84172 c -3.6497,-1.14062 -6.60449,-3.74804 -8.26816,-7.29615 -0.80985,-1.72717 -0.94114,-2.48043 -0.94114,-5.40001 0,-3.05581 0.11032,-3.62566 1.11049,-5.73634 1.37071,-2.89263 4.04101,-5.63287 6.81781,-6.99638 1.81141,-0.88946 2.47556,-1.01728 5.28599,-1.01728 3.89565,0 5.59214,0.70513 8.76585,3.64342 2.76678,2.56155 3.96784,5.00817 4.19483,8.54507 0.42866,6.67944 -3.27661,12.55083 -8.99149,14.24796 -2.16309,0.64237 -5.93511,0.64697 -7.97418,0.01 z"
           id="path4159"
           inkscape:connector-curvature="0" />
      </g>
      <g
         inkscape:label="Layer 1"
         id="layer1-64"
         transform="matrix(3.5433071,0,0,3.5433071,346.13967,-212.50884)">
        <g
           id="g4531" />
      </g>
    </g>
    <path
       sodipodi:nodetypes="sssscscssscssscscsscsccccccssscsccccccsccccccssssscscssscccccc"
       style="fill:#11a7df;fill-opacity:1;stroke-width:1.09807217"
       d="m 876.86432,719.09369 c -13.05451,-5.19027 -31.77485,-22.9156 -39.18756,-37.10486 -8.35459,-15.99176 -7.37164,-55.54443 1.8093,-72.80394 35.72605,-67.16294 139.54333,-40.14779 139.54333,36.31191 0,47.08852 -30.2627,78.59306 -74.84657,77.91778 -9.40613,-0.1392 -21.69946,-2.08683 -27.3185,-4.32089 z m 59.53893,-32.46553 c 25.46811,-23.92606 20.58304,-71.57786 -8.70598,-84.92288 -16.1944,-7.37859 -40.24171,-5.75141 -52.02938,3.52064 -27.93554,21.97422 -21.33168,76.30404 10.95577,90.132 13.53192,5.79545 39.08902,1.31288 49.77959,-8.72976 z M 746.09287,660.33124 c 0,-56.5314 -0.37532,-59.25582 -8.17308,-59.25582 -10.71838,0 -10.83978,-13.67987 -0.21624,-24.30401 4.37663,-4.37677 9.86424,-15.03845 12.19467,-23.6927 7.05671,-26.20688 33.78117,-45.99512 62.11723,-45.99512 10.93441,0 12.12496,1.2032 10.97212,11.09276 -1.05028,9.00623 -3.97134,11.63644 -15.53146,13.98276 -15.60594,3.16739 -32.75762,19.99042 -32.75762,32.12976 0,6.1496 3.516,7.96475 17.36809,8.96699 16.29432,1.1785 17.36808,2.01471 17.36808,13.51646 0,11.50176 -1.07346,12.33752 -17.36808,13.51647 l -17.36809,1.25726 0,59.02073 0,59.02089 -14.30311,0 -14.30307,0 z m 262.18123,2.2351 c 1.3685,-49.84784 2.633,-58.45851 10.049,-68.45063 10.6493,-14.34882 34.0384,-22.36825 60.6871,-20.80779 19.8679,1.16304 20.5741,1.62533 20.5741,13.4644 0,12.21719 -0.093,12.26693 -27.7379,14.3031 -18.4405,1.3592 -29.0352,4.09799 -31.6086,8.17326 -2.1288,3.37144 -3.8988,29.57679 -3.9332,58.2341 l -0.062,52.10425 -14.7669,0 -14.7668,0 z m 109.7,-49.2311 0,-106.25165 14.3031,0 14.3031,0 0,61.29909 0,61.29908 14.0802,0 c 13.2767,0 14.9382,-1.63273 29.1125,-28.60634 14.0832,-26.80015 15.9033,-28.60619 28.8291,-28.60619 7.5883,0 13.7969,1.05802 13.7969,2.35188 0,1.29433 -7.5125,15.21531 -16.6947,30.93722 l -16.6945,28.58517 14.9071,12.99378 c 15.2511,13.29359 22.2711,31.71568 22.4712,58.96823 0.093,12.47297 -0.7738,13.28152 -14.2057,13.28152 -13.9917,0 -14.303,-0.35988 -14.303,-16.54932 0,-31.51705 -17.6075,-48.8363 -49.6491,-48.8363 l -11.65,0 0,32.69274 0,32.69288 -14.3031,0 -14.3031,0 z"
       id="path4531"
       inkscape:connector-curvature="0" />
    <path
       sodipodi:nodetypes="cssssscccssscssssssscsscsccssssssscc"
       inkscape:connector-curvature="0"
       id="path4919"
       d="m 619.75566,719.93245 c -1.18776,-1.92095 2.38232,-7.75842 7.93203,-12.97219 5.54986,-5.21376 10.09065,-10.77688 10.09065,-12.36265 0,-1.58564 -10.70754,-3.6575 -23.79447,-4.60417 -24.99025,-1.8077 -36.70221,-7.52623 -84.39586,-41.20859 -22.36749,-15.79619 -26.90827,-17.36807 -54.14754,-18.74364 l -29.73264,-1.5013 0,-19.9864 0,-19.98623 24.25368,0 c 29.66881,0 41.19838,-4.16519 68.43084,-24.72074 31.54023,-23.80715 53.16134,-33.75723 77.79125,-35.79976 l 22.11293,-1.83369 -10.92209,-11.40024 c -13.57051,-14.16455 -10.2851,-20.23756 10.94836,-20.23756 14.36225,0 19.42898,2.8809 40.62489,23.09833 13.31893,12.70419 24.21627,26.2165 24.21627,30.02751 0,3.81101 -10.99868,17.4201 -24.44147,30.24246 -22.64023,21.59506 -25.64824,23.20075 -40.81501,21.78717 -22.31033,-2.07927 -23.94106,-5.14626 -10.30491,-19.3794 l 11.70486,-12.21717 -16.67504,0 c -13.03318,0 -23.01801,4.2007 -45.71724,19.23328 -15.97322,10.57829 -29.00283,20.23275 -28.95497,21.45464 0.1083,2.83223 30.17406,24.57988 46.61479,33.7214 6.90457,3.83912 19.79394,7.05735 28.64309,7.15155 l 16.08937,0.17156 -10.98108,-11.46192 c -6.03962,-6.30419 -10.98107,-12.74062 -10.98107,-14.30338 0,-1.56278 9.71748,-2.84134 21.59424,-2.84134 20.65163,0 22.52486,0.94217 42.90944,21.58331 11.72324,11.87073 21.315,24.34121 21.315,27.71252 0,3.3711 -10.62738,16.64567 -23.61653,29.49922 -21.12982,20.90942 -25.40727,23.37019 -40.62474,23.37019 -9.35469,0 -17.97973,-1.57172 -19.16703,-3.49267 z"
       style="fill:#e9a41d;fill-opacity:1;stroke-width:1.09807217" />
    <path
       sodipodi:nodetypes="ccsscscsscssccsssccsscsssscssssscsscccscssccc"
       style="fill:#dde0f3;fill-opacity:1;stroke-width:1.09807217"
       d="m 1551.0736,779.68784 0,-14.88691 28.4142,0 c 56.5611,0 61.4913,-7.84752 61.4913,-97.87558 l 0,-65.58879 -32.4651,0 c -27.7848,0 -34.0014,1.32522 -43.1231,9.19499 -22.4238,19.34465 -20.5909,62.09409 3.3016,77.01145 13.1072,8.18346 36.8225,9.04175 52.8753,1.91355 10.7626,-4.77916 10.0384,20.3858 -0.7538,26.1613 -11.9573,6.39935 -44.2586,5.07059 -60.1591,-2.47466 -43.4869,-20.63589 -51.4472,-87.86249 -14.3738,-121.39006 14.7158,-13.30825 37.8247,-18.65671 81.4158,-18.84345 l 41.8878,-0.17901 0,76.65082 c 0,83.97593 -2.4488,98.73341 -19.3309,116.49859 -17.3456,18.25268 -32.16,24.10153 -67.1154,26.49744 l -32.0653,2.19773 z m -165.5073,-62.55801 c -18.9316,-10.00293 -27.067,-18.34177 -35.2237,-36.10435 -23.7772,-51.77962 10.4678,-108.71196 65.8935,-109.54802 38.6719,-0.58385 71.5485,29.15154 75.9676,68.7081 3.2605,29.18712 -13.4667,61.23841 -38.8296,74.40162 -21.2243,11.0154 -49.7482,12.08499 -67.8078,2.54265 z m 55.3028,-23.91371 c 30.7287,-15.89045 32.5448,-68.94103 3.067,-89.58805 -5.0082,-3.508 -17.156,-6.37808 -26.9951,-6.37808 -14.8956,0 -20.2141,2.32501 -31.7835,13.89444 -12.2152,12.21532 -13.8943,16.44583 -13.8943,35.00495 0,25.39569 4.5113,34.80583 21.7154,45.29608 15.6569,9.54665 31.7059,10.14006 47.8905,1.77066 z m -149.2948,22.76872 c -4.4953,-1.83987 -11.8512,-7.42924 -16.3465,-12.42075 -7.5865,-8.42411 -8.2619,-15.79266 -9.4083,-102.64748 l -1.2357,-93.57187 14.5167,0 14.5167,0 0,87.6303 c 0,85.92194 0.1776,87.75423 9.0826,93.99189 4.9951,3.49884 12.351,6.36166 16.3463,6.36166 5.3466,0 7.2639,3.23594 7.2639,12.25979 0,11.16028 -1.1909,12.23668 -13.2814,12.0008 -7.3049,-0.13918 -16.9594,-1.76449 -21.4546,-3.60434 z"
       id="path4921"
       inkscape:connector-curvature="0" />
  </g>
</svg>
