<?xml version="1.0" encoding="UTF-8" standalone="no"?>
<!-- Created with Inkscape (http://www.inkscape.org/) -->

<svg
   xmlns:dc="http://purl.org/dc/elements/1.1/"
   xmlns:cc="http://creativecommons.org/ns#"
   xmlns:rdf="http://www.w3.org/1999/02/22-rdf-syntax-ns#"
   xmlns:svg="http://www.w3.org/2000/svg"
   xmlns="http://www.w3.org/2000/svg"
   xmlns:sodipodi="http://sodipodi.sourceforge.net/DTD/sodipodi-0.dtd"
   xmlns:inkscape="http://www.inkscape.org/namespaces/inkscape"
   width="329.57736mm"
   height="79.374969mm"
   viewBox="0 0 329.57733 79.374973"
   version="1.1"
   id="svg8"
   inkscape:version="0.92.1 r15371"
   sodipodi:docname="66.svg">
  <defs
     id="defs2" />
  <sodipodi:namedview
     id="base"
     pagecolor="#ffffff"
     bordercolor="#666666"
     borderopacity="1.0"
     inkscape:pageopacity="0.0"
     inkscape:pageshadow="2"
     inkscape:zoom="0.7"
     inkscape:cx="89.707056"
     inkscape:cy="216.91026"
     inkscape:document-units="mm"
     inkscape:current-layer="layer1"
     showgrid="false"
     inkscape:window-width="958"
     inkscape:window-height="1008"
     inkscape:window-x="-7"
     inkscape:window-y="0"
     inkscape:window-maximized="0"
     showguides="false" />
  <metadata
     id="metadata5">
    <rdf:RDF>
      <cc:Work
         rdf:about="">
        <dc:format>image/svg+xml</dc:format>
        <dc:type
           rdf:resource="http://purl.org/dc/dcmitype/StillImage" />
        <dc:title></dc:title>
      </cc:Work>
    </rdf:RDF>
  </metadata>
  <g
     inkscape:label="Layer 1"
     inkscape:groupmode="layer"
     id="layer1"
     transform="translate(242.71687,27.663327)">
    <path
       style="fill:#000000;stroke-width:0.26458335"
       d=""
       id="path4498"
       inkscape:connector-curvature="0" />
    <path
       style="fill:#000000;stroke-width:0.26458335"
       d=""
       id="path4496"
       inkscape:connector-curvature="0" />
    <path
       style="fill:#f7f7f7;fill-opacity:1;stroke-width:1.09859025"
       d="m 54.097256,48.003024 0.354594,-3.708619 9.170402,-0.681298 c 7.966361,-0.591847 9.553023,-1.063528 12.084508,-3.592504 2.892265,-2.889404 2.916679,-3.050911 3.261059,-21.565155 l 0.34712,-18.65394741 h -8.421604 c -8.112766,0 -8.558624,0.13697951 -12.156838,3.73520571 -9.812491,9.8124707 0.435603,25.3274157 13.205257,19.9919167 2.31059,-0.965425 4.38787,-1.755319 4.616197,-1.755319 0.228368,0 0.415215,1.755506 0.415215,3.901126 0,3.413136 -0.476542,4.100242 -3.809766,5.492949 -4.884841,2.041016 -8.437257,2.011672 -13.528335,-0.111734 C 46.15697,25.434104 42.46388,9.9457612 52.009305,-0.92586102 57.135801,-6.7646344 60.805349,-7.8886304 74.740678,-7.8886304 H 86.860479 V 14.374962 c 0,25.384437 -0.526285,27.405651 -8.632034,33.151728 -4.052252,2.872579 -5.668394,3.285295 -14.522568,3.708619 l -9.962924,0.476335 z M -196.35381,33.640617 c -1.02197,-1.021969 -0.6572,-2.003198 1.6337,-4.39436 l 2.94949,-3.078588 -3.22668,-0.0062 c -6.07373,-0.01163 -11.39177,-2.276604 -22.00467,-9.37228 -10.49265,-7.0152979 -10.71052,-7.1004461 -18.16745,-7.1004461 h -7.54745 v -6.591542 -6.591542 h 7.19539 c 7.97417,0 11.00777,-1.2086749 19.91775,-7.9357889 6.44219,-4.863889 15.1794,-8.543066 20.28783,-8.543066 h 3.43379 l -2.8791,-2.879132 c -1.58355,-1.583523 -2.6105,-3.313803 -2.28219,-3.845067 0.32843,-0.531264 3.17872,-0.965932 6.33415,-0.965932 5.53054,0 5.9634,0.228617 12.01965,6.348749 3.45538,3.491815 6.2825,7.061628 6.2825,7.932924 0,0.871296 -2.82712,4.4411131 -6.2825,7.9329239 -6.05625,6.12012732 -6.48911,6.34874899 -12.01965,6.34874899 -3.15543,0 -6.0168,-0.45250572 -6.35865,-1.00556828 -0.34172,-0.55306255 0.66169,-2.53052511 2.23004,-4.39435991 3.16269,-3.7586488 2.22431,-4.2503509 -4.04611,-2.1201555 -3.65319,1.2410576 -15.2308,8.6217494 -15.25654,9.7259936 -0.0374,1.5391198 14.29308,9.8553412 18.11372,10.5128182 l 4.39439,0.756202 -2.47186,-2.688556 c -4.22544,-4.5959176 -3.32712,-6.39201 3.19691,-6.39201 5.44642,0 5.92035,0.2516204 12.08451,6.415765 3.52866,3.528673 6.41574,7.158053 6.41574,8.065294 0,0.907237 -3.17059,4.694079 -7.04575,8.415201 -6.16445,5.919412 -7.57979,6.765675 -11.31549,6.765675 -2.34833,0 -4.86179,-0.592097 -5.58547,-1.315772 z m 68.99677,-1.532854 c -19.47239,-8.44432 -16.3995,-38.0068895 4.23835,-40.7750091 9.81673,-1.3166974 18.17962,3.3042206 22.26829,12.3043889 7.775817,17.1163852 -9.61502,35.7957722 -26.50664,28.4706202 z m 16.03159,-10.773893 c 3.10523,-3.105233 3.73449,-4.541205 3.73108,-8.514076 -0.004,-6.7656293 -3.16826,-11.4653842 -8.8631,-13.17159918 -4.05308,-1.21433432 -5.03216,-1.12673642 -8.54036,0.76410401 -4.79133,2.58241457 -6.72366,6.09445047 -6.74521,12.25941317 -0.0125,3.626743 0.72306,5.472748 3.39335,8.514071 2.95367,3.364041 4.0701,3.883292 8.34931,3.883292 4.1529,0 5.53465,-0.594937 8.67493,-3.735205 z M 14.180414,32.811229 C 2.9035001,29.310935 -2.944599,19.470471 -0.80395683,7.5974907 1.0633076,-2.7590737 10.734418,-9.8519798 21.284539,-8.6024726 38.524608,-6.5606433 45.674988,13.958098 33.724762,27.09599 29.217019,32.051713 20.214613,34.684227 14.180414,32.811229 Z M 26.75936,22.854716 C 33.937186,17.208665 32.727622,3.6180844 24.722771,-0.02917878 15.241621,-4.3490865 5.7518767,3.0407151 6.9645543,13.799432 c 0.808341,7.17183 5.1137497,11.269643 11.8404437,11.269643 3.489096,0 6.043209,-0.711018 7.954362,-2.214359 z M -162.83369,32.0791 c -0.43158,-0.431574 -0.78468,-7.870587 -0.78468,-16.531138 0,-15.01406739 -0.10214,-15.74646141 -2.19719,-15.74646141 -1.20844,0 -2.19715,-0.52686662 -2.19715,-1.17081149 0,-1.8357745 2.36519,-5.8798174 4.00541,-6.8485561 0.81814,-0.4831943 1.48751,-2.016775 1.48751,-3.407958 0,-6.32497 10.3078,-14.938842 17.87655,-14.938842 2.94434,0 3.10918,0.243565 2.78834,4.119715 -0.30394,3.672135 -0.69902,4.159108 -3.6367,4.482332 -4.15677,0.457347 -8.23945,4.183061 -8.23945,7.519012 0,2.2484118 0.52728,2.5549776 4.39434,2.5549776 4.28976,0 4.39439,0.091555 4.39439,3.8450634 0,3.74920685 -0.10878,3.84506759 -4.36499,3.84506759 h -4.36499 l -0.30394,16.20420641 -0.30394,16.204207 -3.88433,0.326941 c -2.13637,0.179829 -4.23744,-0.02616 -4.66902,-0.457746 z m 70.62371,-14.186144 c 0,-22.3294453 2.346298,-25.7815864 17.522872,-25.7815864 h 7.744678 v 3.8450634 3.84506759 l -6.316878,0.0170238 c -3.474313,0.009135 -6.943893,0.41480003 -7.710214,0.90118316 -2.412982,1.53157545 -3.55034,8.00990075 -3.55034,20.22260545 v 11.817101 h -3.845059 -3.845059 z M -62.548041,3.0972716 V -26.564667 h 4.394347 4.394348 V -9.4635459 7.6375755 l 2.965093,-0.3476182 c 2.411653,-0.28272 3.693257,-1.7285867 6.866207,-7.74619742 3.88247,-7.36321118 3.923535,-7.39865818 8.598485,-7.41548678 l 4.697413,-0.017024 -4.536766,8.26626704 -4.536808,8.26627116 2.993619,2.3547937 c 4.029664,3.169716 6.023154,8.36038 6.023154,15.682975 v 6.077534 h -3.84506 c -3.629355,0 -3.845059,-0.206528 -3.845059,-3.681132 0,-8.752551 -4.255458,-13.896316 -11.496563,-13.896316 h -3.883715 v 8.788724 8.788724 h -4.394348 -4.394347 z M -13.09412,31.653771 c -8.898063,-2.13747 -10.206323,-7.253985 -9.689131,-37.8945159 l 0.333833,-19.7746261 4.119724,-0.340975 4.119683,-0.340974 v 23.2089332 c 0,13.5575248 0.462425,24.0729388 1.111946,25.2866208 0.611571,1.142722 2.863075,2.406189 5.0033022,2.807706 3.5720552,0.670116 3.8639515,1.012063 3.5570659,4.166988 -0.3741089,3.847551 -2.1054319,4.430434 -8.5563401,2.880822 z"
       id="path4765"
       inkscape:connector-curvature="0" />
  </g>
</svg>
