<?xml version="1.0" encoding="UTF-8" standalone="no"?>
<!-- Created with Inkscape (http://www.inkscape.org/) -->

<svg
   xmlns:dc="http://purl.org/dc/elements/1.1/"
   xmlns:cc="http://creativecommons.org/ns#"
   xmlns:rdf="http://www.w3.org/1999/02/22-rdf-syntax-ns#"
   xmlns:svg="http://www.w3.org/2000/svg"
   xmlns="http://www.w3.org/2000/svg"
   xmlns:sodipodi="http://sodipodi.sourceforge.net/DTD/sodipodi-0.dtd"
   xmlns:inkscape="http://www.inkscape.org/namespaces/inkscape"
   width="329.42151mm"
   height="79.375mm"
   viewBox="0 0 329.42151 79.375"
   version="1.1"
   id="svg8"
   inkscape:version="0.92.1 r15371"
   sodipodi:docname="forklog.svg">
  <defs
     id="defs2" />
  <sodipodi:namedview
     id="base"
     pagecolor="#ffffff"
     bordercolor="#666666"
     borderopacity="1.0"
     inkscape:pageopacity="0.0"
     inkscape:pageshadow="2"
     inkscape:zoom="0.7"
     inkscape:cx="252.92596"
     inkscape:cy="-235.20315"
     inkscape:document-units="mm"
     inkscape:current-layer="layer1"
     showgrid="false"
     inkscape:window-width="1920"
     inkscape:window-height="1017"
     inkscape:window-x="-8"
     inkscape:window-y="-8"
     inkscape:window-maximized="1" />
  <metadata
     id="metadata5">
    <rdf:RDF>
      <cc:Work
         rdf:about="">
        <dc:format>image/svg+xml</dc:format>
        <dc:type
           rdf:resource="http://purl.org/dc/dcmitype/StillImage" />
        <dc:title></dc:title>
      </cc:Work>
    </rdf:RDF>
  </metadata>
  <g
     inkscape:label="Layer 1"
     inkscape:groupmode="layer"
     id="layer1"
     transform="translate(-56.696421,-35.591687)">
    <path
       style="fill:#f7f7f7;fill-opacity:1;stroke-width:1.09807217"
       d="m 354.27399,110.96648 v -4.00012 h 7.63487 c 15.19801,0 16.52275,-2.10863 16.52275,-26.299203 V 63.043439 h -8.72338 c -7.46578,0 -9.13619,0.356086 -11.58721,2.470693 -6.02526,5.197911 -5.53275,16.684695 0.88718,20.692995 3.5219,2.1989 9.89419,2.42952 14.20757,0.51417 2.89194,-1.28416 2.69734,5.47767 -0.20253,7.02955 -3.21291,1.71951 -11.8923,1.36247 -16.16476,-0.66494 -11.68495,-5.54487 -13.82388,-23.608671 -3.86225,-32.61754 3.95414,-3.575932 10.16349,-5.013061 21.87646,-5.063237 l 11.25525,-0.04814 v 20.596087 c 0,22.56436 -0.65798,26.529703 -5.19422,31.303213 -4.66075,4.9045 -8.64141,6.47609 -18.03392,7.11987 l -8.61597,0.59053 z M 103.46313,96.145227 c -0.31915,-0.51616 0.64013,-2.08469 2.13134,-3.48563 1.49125,-1.40094 2.71136,-2.89575 2.71136,-3.32185 0,-0.42606 -2.87712,-0.98277 -6.39358,-1.23714 -6.714889,-0.48573 -9.861899,-2.0223 -22.677199,-11.07276 -6.01015,-4.244442 -7.23026,-4.666807 -14.54946,-5.036423 l -7.98917,-0.403399 v -5.370352 -5.37031 h 6.51697 c 7.97202,0 11.07002,-1.119183 18.38739,-6.642469 8.47487,-6.396985 14.28447,-9.070582 20.902539,-9.619404 l 5.94175,-0.492711 -2.93477,-3.063258 c -3.6464,-3.806019 -2.76361,-5.437834 2.94183,-5.437834 3.85914,0 5.22057,0.774094 10.91592,6.206533 3.5788,3.413618 6.50692,7.044374 6.50692,8.068393 0,1.024019 -2.95535,4.680797 -6.56743,8.126163 -6.08344,5.802595 -6.89169,6.234049 -10.96701,5.854223 -5.99479,-0.558699 -6.43297,-1.382803 -2.76893,-5.207249 l 3.1451,-3.282762 h -4.48059 c -3.50202,0 -6.184949,1.128728 -12.284239,5.167988 -4.29201,2.842385 -7.79307,5.436547 -7.78021,5.764869 0.0291,0.761021 8.10778,6.60462 12.52541,9.060952 1.85526,1.03157 5.318639,1.89631 7.696409,1.92162 l 4.32322,0.0461 -2.95062,-3.07982 c -1.62285,-1.693939 -2.95062,-3.423408 -2.95062,-3.843325 0,-0.419917 2.61109,-0.76347 5.80238,-0.76347 5.5491,0 6.05244,0.253162 11.52978,5.799445 3.15004,3.18967 5.72735,6.54049 5.72735,7.44636 0,0.90582 -2.85558,4.4727 -6.34577,7.92645 -5.67759,5.61837 -6.82694,6.27958 -10.91588,6.27958 -2.51361,0 -4.83116,-0.42232 -5.15019,-0.93848 z m 68.53088,-1.39024 c -3.50775,-1.39463 -8.53791,-6.15743 -10.52971,-9.97009 -2.24488,-4.29699 -1.98076,-14.924806 0.48616,-19.56244 9.5996,-18.046706 37.49534,-10.787725 37.49534,9.75702 0,12.6527 -8.1316,21.11798 -20.1113,20.93653 -2.52743,-0.0374 -5.83065,-0.56073 -7.34049,-1.16102 z m 15.99813,-8.7235 c 6.84329,-6.42894 5.53067,-19.232994 -2.3393,-22.818804 -4.35144,-1.98263 -10.81296,-1.545407 -13.98031,0.945996 -7.50629,5.904481 -5.73183,20.502918 2.94382,24.218498 3.63603,1.55724 10.50323,0.35277 13.37579,-2.34569 z m 121.80995,8.12563 c -5.0869,-2.68779 -7.27289,-4.92844 -9.46461,-9.70125 -6.38893,-13.913193 2.81272,-29.210934 17.70561,-29.435584 10.39117,-0.156878 19.22511,7.833035 20.41252,18.461891 0.87611,7.842583 -3.61851,16.454773 -10.43351,19.991733 -5.70299,2.95984 -13.36736,3.24724 -18.22001,0.68321 z m 14.85989,-6.42562 c 8.25681,-4.26977 8.74479,-18.52448 0.82411,-24.072336 -1.3457,-0.942592 -4.60983,-1.713781 -7.25359,-1.713781 -4.00245,0 -5.43152,0.624729 -8.54023,3.733432 -3.28222,3.282264 -3.73343,4.419003 -3.73343,9.405835 0,6.82383 1.21219,9.35234 5.83497,12.17107 4.20701,2.56519 8.51939,2.72464 12.86817,0.47578 z m -187.8063,-8.766 c 0,-15.190006 -0.10085,-15.922058 -2.19611,-15.922058 -2.88003,0 -2.91265,-3.675786 -0.0581,-6.530497 1.176,-1.176041 2.65052,-4.040837 3.27671,-6.366233 1.89614,-7.041801 9.07701,-12.358905 16.69092,-12.358905 2.93808,0 3.25798,0.3233 2.94821,2.980628 -0.28221,2.419978 -1.0671,3.126715 -4.17331,3.757171 -4.19332,0.85108 -8.80198,5.371431 -8.80198,8.633276 0,1.6524 0.94475,2.140131 4.66681,2.409437 4.37829,0.31666 4.66681,0.541351 4.66681,3.631876 0,3.090526 -0.28844,3.315093 -4.66681,3.631877 l -4.66681,0.337826 v 15.858892 15.85893 h -3.84325 -3.84324 z m 70.44818,0.60057 c 0.36771,-13.394129 0.70749,-15.707821 2.70016,-18.392706 2.86148,-3.855531 9.14612,-6.010353 16.30665,-5.591059 5.33852,0.31251 5.52827,0.436725 5.52827,3.61789 0,3.282763 -0.0249,3.296126 -7.45317,3.843247 -4.95496,0.365217 -7.80178,1.101129 -8.49325,2.196158 -0.57202,0.905904 -1.04763,7.94729 -1.05688,15.64752 l -0.0166,14.00043 h -3.96788 -3.96784 z M 236.78029,66.337655 V 37.787804 h 3.84324 3.84325 v 16.471084 16.471084 h 3.78336 c 3.56746,0 4.0139,-0.438717 7.82253,-7.686533 3.78415,-7.20121 4.27321,-7.686493 7.74638,-7.686493 2.03899,0 3.70725,0.284289 3.70725,0.631951 0,0.347786 -2.01862,4.088356 -4.48587,8.312839 l -4.48582,7.680848 4.00556,3.491433 c 4.09795,3.57199 5.98425,8.52201 6.038,15.84478 0.0249,3.35149 -0.20793,3.56875 -3.81706,3.56875 -3.75958,0 -3.84325,-0.0967 -3.84325,-4.44681 0,-8.46864 -4.73114,-13.12233 -13.34071,-13.12233 h -3.13037 v 8.78455 8.78459 h -3.84325 -3.84324 z m 47.76612,27.511802 c -1.20787,-0.49437 -3.1844,-1.99624 -4.39228,-3.33746 -2.03849,-2.26356 -2.21998,-4.24349 -2.52804,-27.581402 l -0.33202,-25.142791 h 3.90064 3.90065 v 23.546294 c 0,23.087239 0.0477,23.579579 2.44048,25.255639 1.34221,0.94014 3.31874,1.70938 4.39227,1.70938 1.43663,0 1.9518,0.8695 1.9518,3.29421 0,2.99877 -0.31998,3.288 -3.56871,3.22462 -1.96284,-0.0374 -4.557,-0.47412 -5.76487,-0.96849 z"
       id="path4531"
       inkscape:connector-curvature="0" />
  </g>
</svg>
