<?xml version="1.0" encoding="UTF-8" standalone="no"?>
<!-- Created with Inkscape (http://www.inkscape.org/) -->

<svg
   xmlns:dc="http://purl.org/dc/elements/1.1/"
   xmlns:cc="http://creativecommons.org/ns#"
   xmlns:rdf="http://www.w3.org/1999/02/22-rdf-syntax-ns#"
   xmlns:svg="http://www.w3.org/2000/svg"
   xmlns="http://www.w3.org/2000/svg"
   xmlns:sodipodi="http://sodipodi.sourceforge.net/DTD/sodipodi-0.dtd"
   xmlns:inkscape="http://www.inkscape.org/namespaces/inkscape"
   width="428.40857mm"
   height="168.1936mm"
   viewBox="0 0 1517.9832 595.9616"
   id="svg2"
   version="1.1"
   inkscape:version="0.91 r13725"
   sodipodi:docname="itmo.svg">
  <defs
     id="defs4" />
  <sodipodi:namedview
     id="base"
     pagecolor="#ffffff"
     bordercolor="#666666"
     borderopacity="1.0"
     inkscape:pageopacity="0.0"
     inkscape:pageshadow="2"
     inkscape:zoom="0.22627417"
     inkscape:cx="776.04102"
     inkscape:cy="214.83174"
     inkscape:document-units="px"
     inkscape:current-layer="layer1"
     showgrid="false"
     fit-margin-top="0"
     fit-margin-left="0"
     fit-margin-right="0"
     fit-margin-bottom="0"
     inkscape:window-width="952"
     inkscape:window-height="1047"
     inkscape:window-x="-4"
     inkscape:window-y="0"
     inkscape:window-maximized="0" />
  <metadata
     id="metadata7">
    <rdf:RDF>
      <cc:Work
         rdf:about="">
        <dc:format>image/svg+xml</dc:format>
        <dc:type
           rdf:resource="http://purl.org/dc/dcmitype/StillImage" />
        <dc:title></dc:title>
      </cc:Work>
    </rdf:RDF>
  </metadata>
  <g
     inkscape:label="Layer 1"
     inkscape:groupmode="layer"
     id="layer1"
     transform="translate(-374.82587,308.8692)">
    <g
       id="g4444"
       transform="translate(-101.6466,393.32815)">
      <path
         inkscape:connector-curvature="0"
         id="path4440"
         d="m 500.90458,-106.23671 c -3.90296,-0.022 -8.46119,-0.7013 -10.42714,-1.55384 -1.92107,-0.83309 -4.50857,-2.46891 -5.75,-3.63518 -1.5329,-1.44008 -2.25714,-3.27661 -2.25714,-5.72365 0,-1.98175 0.72841,-4.64313 1.6187,-5.91419 1.41253,-2.01667 2.20856,-2.241 6.25,-1.76126 2.54721,0.30237 6.49395,0.83471 8.77052,1.18298 2.42014,0.37023 5.01451,0.16478 6.24673,-0.49468 1.15914,-0.62035 3.00899,-2.89494 4.11078,-5.05464 1.1018,-2.1597 2.00327,-4.31681 2.00327,-4.79358 0,-0.47678 -7.87405,-14.55721 -17.49789,-31.28984 -15.06976,-26.20129 -17.49817,-31.00733 -17.5,-34.63402 -0.002,-3.04607 0.60335,-4.77512 2.18645,-6.25 1.3097,-1.22017 3.54923,-2.03896 5.57692,-2.03896 2.37087,0 4.20449,0.8258 6.10616,2.75 1.49479,1.5125 8.70204,13.55 16.01612,26.75 7.31408,13.2 13.62298,24.34402 14.01978,24.7645 0.3968,0.42047 5.19243,-10.13508 10.65696,-23.45678 5.46452,-13.32171 10.85043,-25.59073 11.96868,-27.2645 1.70148,-2.54673 2.78443,-3.0922 6.63793,-3.34343 4.02242,-0.26225 4.88061,0.0505 6.78624,2.47312 1.59043,2.0219 2.02757,3.59349 1.61335,5.80022 -0.31249,1.66478 -7.09954,18.30078 -15.08234,36.96888 -7.98279,18.66811 -15.91852,36.44311 -17.63494,39.5 -1.71643,3.0569 -4.42038,7.21007 -6.00879,9.22929 -1.58841,2.01921 -4.82033,4.60671 -7.18205,5.75 -3.12074,1.51072 -6.18873,2.068 -11.2283,2.03956 z m 322.06572,-0.11974 c -1.65,-0.0784 -7.05,-0.4538 -12,-0.83433 -4.95,-0.38053 -10.46194,-1.02336 -12.24876,-1.42851 -1.78681,-0.40516 -3.92431,-1.70114 -4.75,-2.87997 -1.27984,-1.82722 -1.50124,-8.64058 -1.50124,-46.19831 0,-37.58192 0.22085,-44.3703 1.5031,-46.20097 0.82671,-1.18028 3.18921,-2.74291 5.25,-3.4725 2.59866,-0.92001 9.41623,-1.32505 22.2469,-1.32169 16.9367,0.004 18.978,0.19768 24.15669,2.28694 3.56931,1.43997 7.13915,3.89037 9.67408,6.64046 2.20957,2.3971 4.49906,6.09298 5.08774,8.21306 0.58869,2.12009 1.07034,5.8797 1.07034,8.3547 0,2.475 -0.45863,6.15121 -1.01917,8.16936 -0.56053,2.01815 -3.05598,5.9348 -5.54542,8.70366 l -4.52627,5.03429 4.06441,2.07351 c 2.23542,1.14043 5.40971,3.93063 7.05396,6.20046 1.64425,2.26983 3.48943,5.9701 4.10039,8.22284 0.61097,2.25273 0.8547,6.87481 0.54164,10.27127 -0.31306,3.39647 -1.28624,7.89647 -2.16262,10 -0.87638,2.10354 -3.2022,5.47567 -5.16848,7.49364 -1.96628,2.01797 -6.12957,4.81543 -9.25175,6.21658 -3.51263,1.57638 -9.0884,2.93838 -14.62612,3.57277 -4.92218,0.56386 -10.29942,0.9611 -11.94942,0.88274 z m 2,-16.23694 c 8.06856,-0.17636 11.98375,-0.7116 14.69144,-2.00846 2.03029,-0.97241 4.48085,-2.96676 5.44568,-4.43187 1.07591,-1.6338 1.77524,-4.66452 1.80856,-7.83786 0.039,-3.71205 -0.52903,-5.97253 -2.01021,-8 -1.1355,-1.5543 -3.8355,-3.72599 -6,-4.82599 -3.31257,-1.68344 -5.91396,-2 -16.43547,-2 l -12.5,0 -0.27701,14.17691 c -0.27437,14.04187 -0.25532,14.18163 2,14.6723 1.25236,0.27247 7.22701,0.3872 13.27701,0.25497 z m -3.40324,-43.8161 c 8.15495,-0.32706 11.38098,-0.87791 14,-2.39055 1.87178,-1.08106 4.21529,-3.52526 5.20779,-5.43155 1.22351,-2.34997 1.66329,-4.85449 1.36582,-7.77825 -0.26824,-2.63654 -1.31807,-5.24827 -2.7016,-6.72097 -1.24458,-1.3248 -3.8842,-2.96012 -5.86582,-3.63406 -1.98162,-0.67394 -7.71212,-1.19651 -12.73445,-1.16128 -5.02232,0.0352 -9.63482,0.37514 -10.25,0.75534 -0.72637,0.44893 -1.1185,4.99443 -1.1185,12.96559 0,6.75087 0.3375,12.62226 0.75,13.04752 0.4125,0.42525 5.51854,0.58195 11.34676,0.34821 z m 284.40324,60.13424 c -5.5,-0.0297 -12.4641,-0.7161 -15.4758,-1.52541 -3.0116,-0.80931 -7.3021,-2.54181 -9.5344,-3.85 -2.2322,-1.30819 -6.0961,-4.55672 -8.5863,-7.21895 -2.4902,-2.66224 -5.7689,-7.46424 -7.286,-10.67111 -1.5171,-3.20688 -3.3938,-8.82907 -4.1705,-12.49377 -0.7768,-3.66469 -1.4123,-10.71308 -1.4123,-15.66308 0,-4.95 0.6365,-12.00315 1.4145,-15.67367 0.7779,-3.67052 2.6826,-9.268 4.2326,-12.43884 1.55,-3.17085 4.9797,-8.13209 7.6216,-11.02497 2.8396,-3.10943 7.247,-6.48088 10.7805,-8.24659 3.2874,-1.64275 8.5509,-3.52297 11.6966,-4.17827 3.4388,-0.71635 9.7072,-0.98188 15.7195,-0.66587 6.7285,0.35365 11.8654,1.23067 15.7019,2.68075 3.136,1.18534 7.0735,3.43647 8.75,5.00252 1.9224,1.79582 3.0481,3.83138 3.0481,5.51189 0,1.46549 -0.5174,3.64745 -1.1497,4.84879 -0.6323,1.20134 -1.6448,2.51487 -2.25,2.91895 -0.6052,0.40408 -2.2253,0.73583 -3.6003,0.73723 -1.375,0.001 -6.0046,-1.11671 -10.2881,-2.48469 -4.588,-1.46525 -10.1646,-2.48723 -13.5719,-2.48723 -3.181,0 -7.8622,0.7082 -10.4025,1.57378 -2.9532,1.00627 -6.1147,3.1967 -8.7673,6.07433 -2.2816,2.4753 -5.0172,6.46458 -6.079,8.86506 -1.0619,2.40048 -2.3289,7.53605 -2.8156,11.41238 -0.4868,3.87634 -0.5175,9.86636 -0.068,13.31117 0.4491,3.4448 1.5401,8.25738 2.4243,10.69461 0.8842,2.43723 2.7368,5.91174 4.1169,7.72113 1.3801,1.80939 3.9763,4.40878 5.7694,5.77642 1.793,1.36764 5.8325,3.15664 8.9765,3.97556 4.2421,1.10492 7.1368,1.25777 11.2236,0.59263 3.0289,-0.49297 9.1899,-2.55915 13.6912,-4.59151 7.5435,-3.40598 8.3828,-3.58367 10.723,-2.27016 1.3964,0.78378 3.062,2.47436 3.7014,3.75685 0.7595,1.52331 0.8617,3.38091 0.2948,5.35757 -0.4773,1.66417 -1.6689,3.9124 -2.6481,4.99606 -0.9792,1.08366 -4.0303,3.11438 -6.7803,4.51272 -2.75,1.39834 -7.25,3.14436 -10,3.88005 -2.75,0.73569 -9.5,1.31334 -15,1.28367 z m 840.1609,-0.0117 c -5.5885,-0.0492 -12.2343,-0.6612 -14.7684,-1.36004 -2.5342,-0.69885 -6.9619,-2.55201 -9.8394,-4.11815 -2.8775,-1.56614 -7.4297,-5.25237 -10.116,-8.19164 -2.6864,-2.93927 -6.1989,-8.13336 -7.8056,-11.54244 -1.6067,-3.40907 -3.4186,-8.58296 -4.0264,-11.49753 -0.6078,-2.91457 -1.1051,-9.90753 -1.1051,-15.5399 0,-5.85123 0.6394,-12.6954 1.4917,-15.96758 0.8204,-3.1498 2.6736,-8.08184 4.1181,-10.9601 1.4446,-2.87826 4.2295,-7.20796 6.1887,-9.62156 1.9592,-2.41359 6.2025,-6.09492 9.4297,-8.18073 3.6416,-2.35369 8.485,-4.3877 12.7671,-5.36164 3.7947,-0.8631 10.051,-1.56927 13.9029,-1.56927 3.8518,0 9.388,0.50217 12.3026,1.11594 2.9146,0.61376 7.7742,2.29967 10.7992,3.74645 3.025,1.44678 7.7553,4.88211 10.5118,7.63406 2.7564,2.75195 6.4577,7.74543 8.225,11.09662 1.7672,3.35119 3.8928,8.97619 4.7234,12.5 0.8306,3.52381 1.5169,10.50801 1.525,15.52044 0.01,5.01243 -0.442,11.53743 -1.0004,14.5 -0.5583,2.96257 -2.5474,8.62009 -4.4202,12.57228 -1.8728,3.95218 -5.3275,9.27147 -7.6773,11.82064 -2.3497,2.54918 -6.2268,5.78027 -8.6156,7.18022 -2.3888,1.39995 -7.0673,3.39316 -10.3966,4.42935 -4.379,1.36292 -8.8636,1.85927 -16.2142,1.79458 z m 3.3391,-16.62031 c 2.475,-0.28157 6.3051,-1.28925 8.5112,-2.23928 2.2062,-0.95003 5.5438,-3.25992 7.417,-5.13309 1.8732,-1.87317 4.4348,-5.65851 5.6924,-8.41185 1.2577,-2.75335 2.8235,-8.26859 3.4796,-12.25609 0.9185,-5.58236 0.9223,-8.91764 0.016,-14.5 -0.6471,-3.9875 -2.3133,-9.5965 -3.7027,-12.46444 -1.3893,-2.86794 -4.4992,-6.95123 -6.9108,-9.07398 -2.4115,-2.12275 -6.151,-4.38875 -8.3098,-5.03556 -2.1589,-0.64681 -6.3804,-1.17602 -9.3811,-1.17602 -3.0007,0 -7.5287,0.70629 -10.0622,1.56954 -2.9705,1.01216 -6.1778,3.24962 -9.0316,6.30058 -2.5626,2.73956 -5.3982,7.23538 -6.7365,10.68046 -1.8364,4.72737 -2.3259,8.00349 -2.3828,15.94942 -0.051,7.12798 0.4363,11.46617 1.6969,15.105 0.9727,2.80776 3.0691,7.15582 4.6587,9.66238 1.6665,2.6277 4.7847,5.66762 7.3646,7.17951 2.4609,1.44219 6.4333,3.01213 8.8276,3.48876 2.3942,0.47663 6.3782,0.63623 8.8532,0.35466 z m -1365.5,15.70969 c -2.71344,0 -4.41375,-0.7599 -6.60637,-2.95252 l -2.95253,-2.95253 0.27945,-45.52045 0.27945,-45.52044 2.27778,-2.27703 c 1.6867,-1.68615 3.43109,-2.27703 6.72222,-2.27703 3.28965,0 5.03627,0.59119 6.72222,2.27532 2.18056,2.1782 2.2911,3.06469 2.58982,20.76896 l 0.31205,18.49365 22.18795,-0.26896 22.18796,-0.26897 0.5,-18.14841 c 0.43312,-15.72071 0.74394,-18.41751 2.3236,-20.16006 1.00297,-1.10641 2.96078,-2.29707 4.35068,-2.64592 1.3899,-0.34884 4.06024,-0.12827 5.93408,0.49015 1.87385,0.61843 3.85354,1.95879 4.39932,2.97858 0.61482,1.14882 0.99232,19.20549 0.99232,47.46537 l 0,45.6112 -2.45455,2.45454 c -1.51457,1.51457 -3.60279,2.45455 -5.45294,2.45455 -1.64912,0 -4.09514,-0.49971 -5.43559,-1.11046 -1.34046,-0.61075 -2.9376,-2.07325 -3.54921,-3.25 -0.66894,-1.28706 -1.21077,-9.51072 -1.35986,-20.63954 l -0.24785,-18.5 -22.25,-0.26913 -22.25,-0.26913 0,19.09605 0,19.09606 -2.92308,2.92307 c -2.1641,2.16411 -3.87179,2.92308 -6.57692,2.92308 z m 107.00421,0 c -1.42732,0 -3.69966,-1.10455 -5.04966,-2.45455 l -2.45455,-2.45454 0,-45.4106 c 0,-43.77574 0.0714,-45.50141 1.98418,-47.93307 1.09131,-1.38737 3.16161,-2.818 4.60069,-3.17919 1.43908,-0.36118 4.14965,-0.15071 6.02349,0.46771 1.87385,0.61843 3.96604,2.10087 4.64932,3.29433 0.88206,1.54065 1.38732,11.01314 1.74232,32.66463 l 0.5,30.49472 23,-31.89685 c 13.18577,-18.28629 24.28012,-32.69937 26,-33.77758 2.12871,-1.33451 4.01651,-1.71123 6.5,-1.29712 1.925,0.32099 4.2875,1.51063 5.25,2.64365 1.61118,1.89662 1.75,5.69139 1.75,47.83846 0,43.5832 -0.0917,45.89164 -1.91165,48.13922 -1.56349,1.93083 -2.85444,2.36078 -7.08835,2.36078 -4.23391,0 -5.52486,-0.42995 -7.08835,-2.36078 -1.78999,-2.21054 -1.91165,-4.32664 -1.91165,-33.25 0,-16.98907 -0.3375,-30.88068 -0.75,-30.87025 -0.4125,0.0104 -11.27194,14.42962 -24.1321,32.04263 -14.6148,20.01615 -24.43882,32.57011 -26.20034,33.48103 -1.55003,0.80155 -3.98604,1.45737 -5.41335,1.45737 z m 231.46853,0 -28.12659,0 -2.92307,-2.92308 -2.92308,-2.92307 0,-45.02116 0,-45.02116 2.41342,-2.80577 2.41341,-2.80576 29.17494,0 29.17494,0 1.91164,2.36078 c 1.14243,1.41085 1.91165,3.91007 1.91165,6.21105 0,2.67308 -0.66913,4.47365 -2.18856,5.88921 -2.06381,1.92273 -3.43191,2.03896 -24,2.03896 l -21.81144,0 0,11.93688 0,11.93687 17.89783,0.31313 c 15.93528,0.27879 18.12833,0.52201 20,2.21811 1.4957,1.3554 2.10217,3.10821 2.10217,6.07568 0,3.06662 -0.61269,4.7463 -2.31445,6.34502 -2.19619,2.06321 -3.21814,2.17431 -20,2.17431 l -17.68555,0 0,13.5 0,13.5 21.54966,0 c 16.95727,0 22.15257,0.31178 24.37882,1.46301 1.55604,0.80466 3.10869,2.19147 3.45034,3.08179 0.34165,0.89033 0.62118,2.67017 0.62118,3.9552 0,1.28503 -0.27953,3.06487 -0.62118,3.9552 -0.34165,0.89032 -1.8943,2.27713 -3.45034,3.08179 -2.28629,1.18228 -8.22621,1.46301 -30.95574,1.46301 z m 62.65995,0 c -2.28001,0 -4.51015,-0.85045 -6.32693,-2.41273 l -2.80576,-2.41273 -0.25176,-43.83727 c -0.19339,-33.67475 0.0403,-44.41683 1.0079,-46.33727 0.6928,-1.375 3.05152,-3.37612 5.24158,-4.44694 3.21408,-1.57149 6.75699,-2.03042 18.37278,-2.37988 9.3921,-0.28256 16.3428,6.5e-4 20.0102,0.81531 3.0906,0.68654 7.4193,2.14349 9.6193,3.23768 2.2,1.09419 5.5019,3.40342 7.3376,5.13163 1.8357,1.72821 4.2759,4.9422 5.4227,7.1422 1.4526,2.78672 2.2243,6.53942 2.5442,12.37208 0.255,4.65066 -0.066,10.72018 -0.7231,13.65459 -0.6501,2.90539 -2.5292,7.31619 -4.1756,9.80179 -1.6464,2.4856 -5.1304,5.89058 -7.7423,7.56662 -2.6119,1.67604 -6.7547,3.79701 -9.2062,4.71325 -3.1828,1.18955 -7.9585,1.69818 -16.7017,1.77878 l -12.24448,0.11289 -0.006,14.82692 -0.006,14.82693 -2.92308,2.92307 c -2.12302,2.12391 -3.88488,2.92308 -6.44335,2.92308 z m 20.99051,-51.55008 c 3.9177,-0.22163 8.4177,-0.89216 10,-1.49006 1.5822,-0.5979 4.0972,-2.25128 5.5888,-3.67417 1.7388,-1.65869 3.1415,-4.50611 3.9088,-7.93477 0.9135,-4.08207 0.9226,-6.26271 0.038,-9.21391 -0.6371,-2.12642 -2.0833,-5.04205 -3.2137,-6.47919 -1.23,-1.56367 -4.1141,-3.22434 -7.1819,-4.1354 -2.8196,-0.83733 -7.2387,-1.52242 -9.8201,-1.52242 -2.5814,0 -6.09975,0.28125 -7.8185,0.625 l -3.125,0.625 0,16.30545 c 0,16.09573 0.0289,16.31183 2.25,16.80144 1.2375,0.2728 5.4554,0.31466 9.3732,0.093 z m 163.1074,51.55008 c -1.3535,0 -3.6466,-0.93266 -5.0957,-2.07258 l -2.6349,-2.07258 0,-45.99316 c 0,-28.51256 0.3772,-46.69788 0.9923,-47.84734 0.5458,-1.01979 2.5255,-2.36015 4.3993,-2.97858 1.8739,-0.61842 4.5442,-0.83899 5.9341,-0.49015 1.3899,0.34885 3.3478,1.54032 4.3507,2.64773 1.6597,1.83254 1.8686,4.85067 2.3236,33.58558 l 0.5,31.57211 22.6741,-31.42987 c 12.4707,-17.28643 23.8586,-32.54268 25.3064,-33.90279 1.9055,-1.79014 3.7504,-2.47292 6.682,-2.47292 3.1895,0 4.5583,0.59121 6.4437,2.78304 l 2.3938,2.78304 0,45.02116 0,45.02116 -2.9231,2.92307 c -2.1239,2.12391 -3.8857,2.92308 -6.4442,2.92308 -2.2796,0 -4.5105,-0.85053 -6.3269,-2.41215 l -2.8058,-2.41216 -0.5,-31.29995 -0.5,-31.29995 -23.5,32.13754 c -12.925,17.67565 -24.6944,32.84609 -26.1543,33.71211 -1.4598,0.86601 -3.7617,1.57456 -5.1151,1.57456 z m 133.6367,0 c -2.5584,0 -4.3203,-0.79917 -6.4442,-2.92308 l -2.9231,-2.92307 0,-39.57693 0,-39.57692 -14.5454,0 c -14.11,0 -14.619,-0.0735 -17,-2.45455 -1.683,-1.68298 -2.4546,-3.56902 -2.4546,-6 0,-2.17821 0.7498,-4.2952 1.9443,-5.48967 1.0693,-1.06933 3.4318,-2.21709 5.25,-2.5506 1.8181,-0.3335 19.4326,-0.4711 39.1433,-0.30577 l 35.8375,0.30059 2.4125,2.80576 c 1.3863,1.61236 2.4124,4.07741 2.4124,5.79546 0,1.8409 -0.9431,3.93284 -2.4545,5.44423 -2.3806,2.38056 -2.8921,2.45455 -16.9671,2.45455 l -14.5126,0 -0.2829,40.08738 -0.2829,40.08738 -2.8057,2.41262 c -1.8167,1.56215 -4.047,2.41262 -6.327,2.41262 z m 95.1881,-0.20718 -29.6236,0.29282 -2.9659,-2.9659 -2.9659,-2.96589 0,-45.02116 0,-45.02116 2.4134,-2.80577 2.4134,-2.80576 28.9816,0 c 27.0965,0 29.1185,0.12391 31.0866,1.90499 1.5247,1.37985 2.105,3.10274 2.105,6.25 0,3.01168 -0.6137,4.95874 -2,6.34501 -1.8788,1.87879 -3.3333,2 -24,2 l -22,0 0,11.93688 0,11.93687 17.8978,0.31313 c 15.9353,0.27879 18.1284,0.52201 20,2.21811 1.5159,1.37365 2.1022,3.10602 2.1022,6.21104 0,3.14197 -0.5917,4.85727 -2.1886,6.34501 -2.0326,1.89371 -3.4573,2.03896 -20,2.03896 l -17.8114,0 0,13.5 0,13.5 22.5455,0 22.5454,0 2.4546,2.45455 c 1.6532,1.65321 2.4545,3.57586 2.4545,5.88921 0,1.89054 -0.8589,4.49602 -1.9105,5.79546 l -1.9104,2.36078 -29.6237,0.29282 z m 84.0838,0.14379 c -1.7266,-0.0349 -4.1057,-0.45332 -5.2869,-0.92992 -1.1812,-0.47659 -2.5312,-1.46057 -3,-2.18661 -0.4688,-0.72605 -1.0773,-19.32008 -1.3523,-41.32008 l -0.5,-40 -14.6493,-0.5 c -12.5667,-0.42892 -14.9479,-0.77081 -16.75,-2.40499 -1.4191,-1.28693 -2.1007,-3.11651 -2.1007,-5.63921 0,-2.18674 0.7922,-4.71256 1.9116,-6.09502 l 1.9117,-2.36078 38.9834,0 c 36.2147,0 39.1254,0.12854 40.9832,1.80984 1.0999,0.99541 2.2235,2.98015 2.497,4.41054 0.2734,1.43038 0.074,3.81393 -0.4427,5.29678 -0.517,1.48285 -1.9309,3.20998 -3.142,3.83806 -1.2625,0.65469 -8.176,1.24925 -16.2022,1.39338 l -14,0.2514 -0.5,40.33916 -0.5,40.33916 -2.3608,1.91084 c -1.2984,1.05096 -3.7734,1.88232 -5.5,1.84745 z m 108.3398,0.0634 c -1.589,0 -4.1185,-1.07568 -5.6732,-2.41258 l -2.8058,-2.41258 -0.3114,-43.33742 c -0.2157,-30.02398 0.034,-44.51324 0.8134,-47.16492 0.8706,-2.96272 1.9246,-4.16171 4.665,-5.3067 2.0245,-0.8459 4.7358,-1.21659 6.3329,-0.86582 1.536,0.33736 3.6269,1.53441 4.6464,2.66011 1.6983,1.87514 1.8956,4.68876 2.3537,33.56258 l 0.5,31.51586 23.5,-32.6005 c 17.7161,-24.57672 24.3114,-32.99134 26.7969,-34.18843 2.0243,-0.97499 4.3967,-1.34635 6.1463,-0.96208 1.5672,0.34421 3.6836,1.54758 4.7031,2.67415 1.7484,1.9319 1.8537,4.66137 1.8537,48.0299 l 0,45.9816 -2.8058,2.41341 c -1.7722,1.52438 -4.054,2.41342 -6.1942,2.41342 -2.1393,0 -4.4228,-0.88922 -6.1942,-2.41215 l -2.8058,-2.41216 -0.5,-31.33784 -0.5,-31.33785 -22.8352,31.23281 c -12.5594,17.17804 -24.1814,32.36554 -25.8267,33.75 -1.6744,1.40887 -4.2541,2.51719 -5.8591,2.51719 z m 133.7152,-0.0677 c -1.7568,-0.0372 -4.1554,-0.53308 -5.3301,-1.10191 -1.1748,-0.56883 -2.6373,-2.13454 -3.25,-3.47937 -0.7579,-1.66331 -1.1141,-14.9001 -1.1141,-41.39807 l 0,-38.95295 -14.5455,0 c -14.1099,0 -14.6189,-0.0735 -17,-2.45455 -1.6829,-1.68298 -2.4545,-3.56902 -2.4545,-6 0,-2.17821 0.7498,-4.2952 1.9442,-5.48967 1.0693,-1.06933 3.4318,-2.21709 5.25,-2.5506 1.8182,-0.3335 19.4327,-0.4711 39.1433,-0.30577 l 35.8376,0.30059 2.5149,2.92488 c 2.0259,2.35611 2.4037,3.62011 1.9429,6.5 -0.3146,1.96632 -1.5356,4.36262 -2.7133,5.32512 -1.818,1.48584 -4.3067,1.75 -16.4873,1.75 l -14.3462,0 -0.293,40.08751 -0.2931,40.08751 -2.8058,2.41249 c -1.7641,1.5169 -3.9915,2.38737 -6,2.34481 z m 66.8058,0.0677 c -2.4792,0 -4.3508,-0.75988 -6.0455,-2.45455 l -2.4545,-2.45454 0,-45.6112 c 0,-28.98331 0.3705,-46.30349 1.0163,-47.5102 0.559,-1.04445 2.7753,-2.42599 4.9251,-3.07009 3.3882,-1.01515 4.3464,-0.91543 7.1962,0.74891 2.4246,1.41604 7.3298,8.29003 18.6883,26.1891 8.4705,13.34801 15.5013,24.13264 15.624,23.96584 0.1227,-0.1668 6.4388,-10.42827 14.0358,-22.80327 7.597,-12.375 14.9338,-23.71564 16.304,-25.20141 1.3703,-1.48578 3.7,-2.96686 5.1771,-3.2913 1.4772,-0.32444 3.9107,-0.12417 5.4078,0.44505 1.6487,0.62681 3.2946,2.405 4.1738,4.50918 1.1907,2.84992 1.4516,11.0332 1.4516,45.53848 0,34.00996 -0.271,42.71284 -1.4153,45.45163 -0.7785,1.86306 -2.3239,3.87361 -3.4343,4.46788 -1.1104,0.59427 -3.1523,1.08049 -4.5376,1.08049 -1.3853,0 -3.6401,-0.51095 -5.0107,-1.13545 -1.3707,-0.6245 -2.8543,-1.862 -3.2971,-2.75 -0.4427,-0.888 -1.03,-15.11455 -1.305,-31.61455 l -0.5,-30 -9.8722,16 c -5.4298,8.8 -10.9674,17.0125 -12.3058,18.25 -1.6245,1.50196 -3.6821,2.25 -6.1892,2.25 -2.323,0 -4.5429,-0.7334 -5.8193,-1.92252 -1.1349,-1.05738 -6.5073,-8.92697 -11.9385,-17.48797 -5.4313,-8.56099 -10.2125,-15.57086 -10.625,-15.57748 -0.4125,-0.007 -0.75,13.28342 -0.75,29.53342 l 0,29.54546 -2.4545,2.45454 c -1.6947,1.69467 -3.5663,2.45455 -6.0455,2.45455 z m -597.0146,-228.75848 c -1.642,0.2771 -3.9941,0.30531 -5.2269,0.0627 -1.2328,-0.24261 -3.5953,-1.79493 -5.25,-3.44959 -2.5461,-2.54607 -3.0085,-3.78055 -3.0085,-8.03156 0,-4.37919 0.4359,-5.45891 3.4,-8.42308 2.9022,-2.90213 4.0883,-3.4 8.1,-3.4 4.0118,0 5.1979,0.49787 8.1,3.4 2.7482,2.74814 3.4,4.17705 3.4,7.45295 0,2.22912 -0.5193,5.19281 -1.1541,6.58597 -0.6348,1.39317 -2.1039,3.15533 -3.2647,3.91591 -1.1608,0.76059 -3.4539,1.6096 -5.0958,1.8867 z m -84.9918,-34.70996 c -3.101,0.30742 -6.5096,-0.0629 -8.9936,-0.97712 -2.2,-0.80969 -5.6565,-3.24004 -7.6812,-5.40078 -2.0542,-2.19237 -4.1895,-5.81651 -4.8314,-8.20037 -0.6326,-2.34947 -0.851,-5.86667 -0.4853,-7.81601 0.3657,-1.94935 1.5362,-5.25219 2.6011,-7.33966 1.065,-2.08747 3.8071,-5.0334 6.0935,-6.54651 3.573,-2.3645 5.1733,-2.75112 11.3875,-2.75112 6.5736,0 7.5733,0.27769 11.0083,3.05788 2.0779,1.68184 4.6933,4.28373 5.8119,5.78197 1.4613,1.95721 2.124,4.61531 2.3542,9.44212 0.2654,5.56503 -0.074,7.3974 -1.9776,10.67644 -1.2639,2.17712 -4.097,5.22284 -6.2959,6.76827 -2.6113,1.83526 -5.73,2.98156 -8.9915,3.30489 z m 171.4255,-0.0747 c -2.4305,0.25575 -5.9941,-0.006 -7.9191,-0.58072 -1.925,-0.57514 -4.9164,-2.12033 -6.6476,-3.43376 -1.7312,-1.31343 -4.0937,-4.34236 -5.25,-6.73097 -1.2269,-2.53446 -2.1024,-6.31001 -2.1024,-9.06698 0,-2.67693 0.8246,-6.33191 1.9027,-8.43428 1.0465,-2.04059 2.959,-4.67002 4.25,-5.84319 1.291,-1.17316 3.7875,-2.86066 5.5477,-3.75 1.7602,-0.88933 5.3773,-1.61697 8.0381,-1.61697 3.0322,0 6.498,0.83975 9.2863,2.25 2.4726,1.25061 5.684,4.02955 7.2301,6.25643 1.7622,2.53802 3.0077,5.91502 3.3984,9.21389 0.5211,4.40001 0.1967,6.06609 -2.0925,10.74491 -2.0011,4.09014 -3.8217,6.18944 -6.9659,8.03206 -2.3413,1.37205 -6.2454,2.70388 -8.6758,2.95962 z m 169.9309,-8.52455 c -2.3925,-0.0372 -5.2859,-0.52182 -6.4298,-1.07687 -1.1439,-0.55505 -2.8314,-2.28153 -3.75,-3.83661 -0.9186,-1.55508 -1.6702,-4.57036 -1.6702,-6.70063 0,-2.13026 0.7023,-4.8759 1.5607,-6.10142 0.8584,-1.22551 2.861,-2.90064 4.4503,-3.7225 1.5893,-0.82186 4.0594,-1.49429 5.489,-1.49429 1.4296,0 3.9194,0.68262 5.5327,1.51693 1.6134,0.83431 3.6161,2.83696 4.4504,4.45034 0.8343,1.61337 1.5169,4.57576 1.5169,6.58307 0,2.81726 -0.7755,4.42512 -3.4,7.04966 -2.8609,2.86091 -4.0897,3.38927 -7.75,3.33232 z m -255.9045,-34.32779 c -4.3966,0.404 -6.4277,0.031 -10.545,-1.93634 -2.8047,-1.3402 -6.0164,-3.7263 -7.1371,-5.30246 -1.1207,-1.57615 -2.5962,-4.73344 -3.2789,-7.0162 -0.7477,-2.49982 -0.972,-5.9469 -0.564,-8.66746 0.3856,-2.57194 1.9747,-6.30791 3.6901,-8.67605 1.7386,-2.40004 4.7842,-4.96327 7.2011,-6.06057 2.3036,-1.04584 6.1153,-1.91141 8.4704,-1.92349 2.3552,-0.0121 5.9491,0.67452 7.9864,1.52577 2.0373,0.85125 4.7822,2.53875 6.0998,3.75 1.3176,1.21125 3.2263,4.00227 4.2417,6.20227 1.0153,2.2 1.856,6.06672 1.8681,8.59272 0.014,2.91364 -0.8287,6.20399 -2.3048,9 -1.2798,2.424 -4.1168,5.66822 -6.3046,7.20936 -2.7603,1.94444 -5.6444,2.95523 -9.4232,3.30245 z m 169.8366,0.35158 c -1.8051,-0.0241 -5.0123,-0.66078 -7.1269,-1.41476 -2.1146,-0.75397 -4.9709,-2.42172 -6.3473,-3.70611 -1.3764,-1.28438 -3.3587,-4.00481 -4.4052,-6.0454 -1.118,-2.18019 -1.9027,-5.76162 -1.9027,-8.6849 0,-2.73611 0.4787,-6.24154 1.0637,-7.78984 0.5849,-1.54831 2.2724,-4.09381 3.75,-5.65668 1.4775,-1.56287 4.3559,-3.70037 6.3965,-4.75 2.1594,-1.11073 5.751,-1.90842 8.5927,-1.90842 3.1827,0 6.4169,0.81038 9.2898,2.32764 2.8551,1.50786 5.4345,3.98618 7.324,7.03679 2.3352,3.77041 2.9156,5.84805 2.9115,10.42236 0,3.24659 -0.684,7.00843 -1.5774,8.71321 -0.8647,1.65 -2.8499,4.21363 -4.4115,5.69695 -1.5616,1.48333 -4.5123,3.39583 -6.5572,4.25 -2.0448,0.85418 -5.1948,1.5333 -7,1.50916 z m -512.7821,-8.65559 c -1.375,0.29614 -4.05942,0.0122 -5.96537,-0.63104 -2.02648,-0.68389 -4.44973,-2.62275 -5.83607,-4.66948 -1.83607,-2.71072 -2.25525,-4.38098 -1.85877,-7.40662 0.32923,-2.51252 1.55305,-4.94775 3.42944,-6.82415 1.8764,-1.87639 4.31163,-3.10021 6.82415,-3.42944 3.02455,-0.39633 4.69688,0.0229 7.40662,1.85675 2.20506,1.4923 4.00896,3.83653 4.87564,6.33606 1.19327,3.44144 1.1712,4.45423 -0.16647,7.63962 -0.84817,2.01972 -2.59221,4.32868 -3.87564,5.13103 -1.28344,0.80235 -3.45853,1.70112 -4.83353,1.99727 z m 686,-0.0538 c -1.375,0.28788 -3.9342,0.1196 -5.6871,-0.37395 -1.7529,-0.49355 -4.1154,-2.07753 -5.25,-3.51994 -1.4111,-1.79388 -2.0629,-4.08957 -2.0629,-7.2652 0,-2.58858 0.6905,-5.62848 1.5607,-6.87086 0.8584,-1.22551 2.861,-2.90064 4.4503,-3.7225 1.5893,-0.82186 3.8565,-1.49429 5.0382,-1.49429 1.1817,0 3.5863,0.68227 5.3436,1.51616 1.7573,0.83389 4.0158,2.90553 5.0189,4.60365 1.2899,2.1836 1.6678,4.25092 1.2908,7.06146 -0.2931,2.18568 -1.3536,4.88072 -2.3566,5.98897 -1.0029,1.10825 -2.5036,2.36108 -3.3347,2.78405 -0.8312,0.42298 -2.6362,1.00458 -4.0112,1.29245 z m -516.7003,-0.25048 c -1.5398,-0.002 -4.2335,-0.87797 -5.9859,-1.94649 -1.7524,-1.06851 -3.6649,-2.83724 -4.25,-3.93052 -0.5851,-1.09325 -1.0638,-3.86233 -1.0638,-6.15349 0,-3.40418 0.6216,-4.78731 3.4,-7.56574 2.9021,-2.90213 4.0882,-3.4 8.1,-3.4 4.0118,0 5.1979,0.49787 8.1,3.4 2.6245,2.62454 3.4,4.2324 3.4,7.04966 0,2.00731 -0.6826,4.9697 -1.5169,6.58307 -0.8343,1.61338 -2.837,3.61603 -4.4504,4.45034 -1.6133,0.83431 -4.1932,1.51525 -5.733,1.51319 z m 87.8526,-24.43261 c -4.1638,0.26971 -8.2708,-0.0982 -10.979,-0.98352 -2.3797,-0.77793 -6.1313,-2.66504 -8.337,-4.19358 -2.2057,-1.52854 -5.2401,-4.60333 -6.7431,-6.83286 -1.5031,-2.22953 -3.3651,-5.62869 -4.1379,-7.55369 -0.7784,-1.93882 -1.3695,-6.62236 -1.3253,-10.5 0.059,-5.15552 0.6998,-8.30637 2.4327,-11.95781 1.2941,-2.72679 4.1048,-6.70967 6.2459,-8.85083 2.1412,-2.14117 5.9852,-4.85342 8.5422,-6.02724 3.5192,-1.6155 6.5936,-2.13315 12.6492,-2.12983 6.7343,0.004 8.8106,0.4289 13.1234,2.68771 2.8178,1.47583 6.9465,4.7546 9.1749,7.28614 2.2283,2.53154 4.7603,6.683 5.6266,9.22547 0.8663,2.54249 1.5751,7.16236 1.5751,10.26641 0,3.10405 -0.7088,7.72392 -1.5751,10.26639 -0.8663,2.54247 -3.3983,6.69393 -5.6266,9.22547 -2.2284,2.53154 -6.2886,5.73638 -9.0227,7.12185 -3.3236,1.68419 -7.1758,2.66185 -11.6233,2.94994 z m 171.6031,0.008 c -3.4404,0.1881 -7.6054,-0.0132 -9.2554,-0.44743 -1.65,-0.4342 -4.4564,-1.54814 -6.2365,-2.47544 -1.78,-0.92729 -4.8464,-3.09957 -6.8142,-4.82727 -1.9677,-1.7277 -4.78,-5.43179 -6.2495,-8.2313 -2.2869,-4.35683 -2.6717,-6.3144 -2.6717,-13.59002 0,-7.26618 0.3842,-9.22578 2.6467,-13.5 1.4556,-2.75 4.1493,-6.41399 5.9859,-8.1422 1.8367,-1.72821 5.3643,-4.19542 7.8393,-5.48269 3.6095,-1.87733 6.0832,-2.34392 12.5,-2.3578 6.7523,-0.0146 8.8862,0.41785 13.6816,2.77278 3.1249,1.53454 7.1274,4.43668 8.8944,6.44919 1.767,2.01251 4.1381,5.70697 5.269,8.20991 1.4878,3.2926 2.0563,6.62441 2.0563,12.05081 0,5.4264 -0.5685,8.75821 -2.0563,12.05081 -1.1309,2.50294 -3.502,6.1974 -5.269,8.20991 -1.767,2.01251 -5.6546,4.85377 -8.639,6.31392 -3.6353,1.77857 -7.4908,2.76769 -11.6816,2.99682 z m -345.20174,-9.6106 c -2.22951,-0.0215 -5.62545,-0.72076 -7.54652,-1.55384 -1.92107,-0.83309 -4.55237,-2.50297 -5.84732,-3.71086 -1.29495,-1.20789 -3.21066,-3.86573 -4.25714,-5.90632 -1.1336,-2.21066 -1.90268,-5.76358 -1.90268,-8.79001 0,-3.06828 0.77458,-6.59797 1.95615,-8.91405 1.07588,-2.1089 3.31445,-4.9773 4.9746,-6.37422 1.66014,-1.39692 4.66682,-3.08387 6.68151,-3.74878 2.10492,-0.69469 5.76068,-0.96049 8.59435,-0.62489 2.7122,0.32122 6.47924,1.54073 8.37118,2.71002 1.89195,1.16929 4.66592,4.21802 6.16439,6.77496 2.07675,3.54371 2.72449,5.96324 2.72449,10.17696 0,4.21091 -0.64778,6.63332 -2.71884,10.16732 -2.01899,3.44514 -4.06013,5.30773 -7.92967,7.23601 -3.12034,1.55493 -6.83711,2.58097 -9.2645,2.55753 z m 514.94634,-0.0221 c -2.2,-0.009 -5.575,-0.69939 -7.5,-1.5332 -1.925,-0.83382 -4.7777,-2.7287 -6.3393,-4.21086 -1.5616,-1.48216 -3.4741,-3.90999 -4.25,-5.39518 -0.7826,-1.49812 -1.4107,-5.5272 -1.4107,-9.04983 0,-5.22877 0.4844,-7.09656 2.7444,-10.58201 1.8026,-2.77998 4.4439,-5.07938 7.6964,-6.70017 2.8639,-1.42717 6.6611,-2.45839 9.0055,-2.44569 2.2296,0.0121 5.8537,0.85534 8.0537,1.8739 2.2,1.01857 5.2089,3.14619 6.6864,4.72804 1.4775,1.58186 3.165,4.14289 3.75,5.6912 0.585,1.5483 1.0636,5.00651 1.0636,7.6849 0,2.67839 -0.4786,6.1366 -1.0636,7.6849 -0.585,1.54831 -2.2725,4.10934 -3.75,5.6912 -1.4775,1.58185 -4.4864,3.70947 -6.6864,4.72804 -2.2,1.01856 -5.8,1.84421 -8,1.83476 z m -427.3574,-33.30427 c -3.7884,0.20089 -8.3617,-0.21252 -10.6435,-0.96214 -2.2004,-0.72292 -5.8764,-2.55562 -8.1688,-4.07267 -2.2925,-1.51705 -5.30876,-4.41013 -6.70292,-6.42906 -1.39416,-2.01894 -3.23066,-5.34384 -4.08111,-7.38867 -0.92337,-2.22016 -1.53742,-6.65143 -1.52431,-11 0.0155,-5.14103 0.61963,-8.60521 2.05472,-11.78212 1.11801,-2.475 3.69563,-6.22638 5.72803,-8.3364 2.03239,-2.11002 5.94529,-5.01379 8.69529,-6.45282 4.1797,-2.1872 6.3124,-2.61642 13,-2.61642 6.6876,0 8.8203,0.42922 13,2.61642 2.75,1.43903 6.6629,4.3428 8.6953,6.45282 2.0324,2.11002 4.61,5.8614 5.728,8.3364 1.4574,3.22629 2.0362,6.62285 2.045,12 0.01,5.81501 -0.5216,8.64628 -2.3636,12.60217 -1.3066,2.8062 -3.9535,6.67996 -5.8819,8.60837 -1.9284,1.92841 -5.6283,4.53347 -8.2219,5.78903 -3.0296,1.46661 -7.0908,2.40879 -11.3583,2.63509 z m 171.3574,0.0383 c -4.4286,0.22819 -8.3949,-0.1592 -10.7973,-1.05458 -2.0885,-0.77841 -5.5795,-2.59466 -7.7577,-4.03613 -2.1782,-1.44147 -5.3187,-4.49596 -6.9789,-6.78777 -1.6602,-2.2918 -3.7365,-6.63689 -4.6141,-9.65574 -1.0224,-3.51689 -1.401,-7.37492 -1.0538,-10.73873 0.298,-2.88746 1.4128,-7.21906 2.4775,-9.62579 1.0646,-2.40673 3.3814,-6.02247 5.1484,-8.03498 1.767,-2.01251 5.7694,-4.91465 8.8943,-6.44919 4.6845,-2.30041 6.9979,-2.79009 13.1816,-2.79009 6.1837,0 8.4972,0.48968 13.1816,2.79009 3.1249,1.53454 7.0597,4.35955 8.7439,6.2778 1.6842,1.91824 4.0721,5.38771 5.3064,7.70991 1.8184,3.42112 2.2441,5.83491 2.2441,12.7222 0,6.97212 -0.4216,9.30888 -2.3458,13 -1.2902,2.475 -3.7598,6.00268 -5.488,7.83929 -1.7282,1.83661 -5.3922,4.49438 -8.1422,5.90615 -3.5884,1.84219 -6.9762,2.66869 -12,2.92756 z m 169.5685,0.25735 c -2.5127,-0.0383 -6.6344,-0.70605 -9.1593,-1.48386 -2.525,-0.77782 -6.6946,-3.26598 -9.2659,-5.52925 -2.5712,-2.26327 -5.8634,-6.1431 -7.316,-8.62185 -1.9883,-3.39276 -2.7565,-6.30271 -3.1075,-11.77206 -0.3325,-5.18125 0.015,-8.7137 1.211,-12.31481 0.9224,-2.77726 3.5099,-7.13163 5.7498,-9.67637 2.24,-2.54475 6.3782,-5.82179 9.1961,-7.28231 4.2713,-2.2139 6.4537,-2.66037 13.1233,-2.68486 6.3197,-0.0232 8.9719,0.44571 12.6273,2.23262 2.545,1.2441 6.3202,3.90613 8.3893,5.91562 2.0691,2.00949 4.8905,6.11858 6.2698,9.1313 1.8963,4.1421 2.5077,7.1403 2.5077,12.29671 0,5.65556 -0.5479,7.93201 -3.2113,13.34217 -2.2386,4.54727 -4.6011,7.58427 -7.7994,10.02636 -2.5234,1.92677 -6.8511,4.1753 -9.6172,4.99673 -2.7661,0.82143 -7.085,1.46217 -9.5977,1.42386 z m 171.6209,-9.93035 c -2.6477,0 -6.1148,-0.91767 -8.7821,-2.32448 -2.424,-1.27847 -5.4208,-3.82144 -6.6594,-5.65104 -1.2387,-1.82961 -2.7378,-5.13024 -3.3314,-7.33475 -0.5937,-2.2045 -0.7842,-5.62403 -0.4234,-7.59896 0.3607,-1.97492 1.7408,-5.45977 3.0669,-7.7441 1.7129,-2.95067 3.9199,-4.90523 7.6218,-6.75 2.866,-1.42817 6.585,-2.59416 8.2645,-2.59109 1.6796,0.003 4.7272,0.47036 6.7726,1.03843 2.0455,0.56807 5.1027,2.19716 6.7939,3.62021 1.6912,1.42305 3.9552,4.31283 5.031,6.42173 1.1816,2.31608 1.9562,5.84577 1.9562,8.91405 0,3.02643 -0.7691,6.57935 -1.9027,8.78984 -1.0465,2.04059 -2.9651,4.70118 -4.2636,5.91243 -1.2986,1.21125 -4.0279,2.89875 -6.0652,3.75 -2.0374,0.85125 -5.6729,1.54773 -8.0791,1.54773 z M 849.57242,-507.261 c -1.43117,-0.0349 -3.50212,-0.43565 -4.60212,-0.89064 -1.1,-0.45499 -3.04939,-1.95723 -4.33197,-3.33832 -1.28259,-1.38108 -2.55882,-4.2428 -2.83607,-6.35936 -0.38754,-2.95856 0.0436,-4.65749 1.86458,-7.34829 1.50665,-2.22627 3.84292,-4.0138 6.41968,-4.91184 3.67865,-1.28207 4.41103,-1.23611 7.9674,0.5 2.61682,1.27744 4.55078,3.2114 5.82822,5.82822 1.73611,3.55637 1.78207,4.28875 0.5,7.9674 -0.88756,2.54669 -2.67363,4.89866 -4.80972,6.33362 -1.86884,1.25543 -4.56884,2.25408 -6,2.21921 z m 87.54072,-25.28656 c -4.24019,0.19941 -8.83092,-0.2164 -11.29687,-1.02323 -2.28472,-0.74753 -5.91596,-2.62564 -8.06941,-4.17357 -2.15346,-1.54794 -5.13272,-4.50796 -6.62057,-6.57784 -1.48786,-2.06988 -3.36912,-5.64519 -4.18059,-7.94514 -0.81147,-2.29995 -1.47504,-6.93765 -1.47461,-10.306 6e-4,-4.6525 0.68397,-7.56836 2.8436,-12.13336 1.56355,-3.305 4.57784,-7.53246 6.69841,-9.39434 2.12057,-1.86189 5.90345,-4.30701 8.40639,-5.4336 3.1903,-1.43598 6.64353,-2.04835 11.55081,-2.04835 5.09609,0 8.35994,0.60939 12,2.24053 2.75,1.2323 6.88635,4.08704 9.19189,6.34387 2.30554,2.25684 5.1545,6.34098 6.33102,9.07587 1.20802,2.80811 2.21268,7.42151 2.30811,10.59882 0.0929,3.09446 -0.43295,7.69575 -1.16865,10.22509 -0.73569,2.52935 -2.98569,6.75989 -5,9.40122 -2.09173,2.74286 -5.95983,6.0915 -9.01953,7.80826 -4.26663,2.39396 -6.8112,3.07423 -12.5,3.34177 z m 169.42906,0.30606 c -3.0646,-0.0241 -7.2807,-0.65344 -9.3692,-1.39843 -2.0885,-0.745 -5.5396,-2.50754 -7.6691,-3.91676 -2.1295,-1.40922 -5.0193,-4.06664 -6.4217,-5.90539 -1.4025,-1.83875 -3.3031,-5.11896 -4.2235,-7.28936 -0.9958,-2.34827 -1.7,-6.78064 -1.739,-10.94617 -0.051,-5.48114 0.4857,-8.19471 2.4755,-12.50609 1.3976,-3.02834 4.0211,-6.98604 5.8299,-8.79487 1.8088,-1.80883 5.5965,-4.48157 8.417,-5.93941 4.2056,-2.17377 6.4775,-2.65155 12.6282,-2.65578 5.435,-0.004 8.753,0.56101 12.0508,2.05115 2.503,1.13097 6.2858,3.57968 8.4064,5.44157 2.1206,1.86188 5.1349,6.08934 6.6984,9.39434 2.1513,4.5474 2.843,7.48604 2.8436,12.08095 4e-4,3.33952 -0.7533,8.28952 -1.6751,11 -1.1404,3.35359 -3.4568,6.70908 -7.25,10.50224 -3.7932,3.79317 -7.1486,6.10956 -10.5022,7.25 -2.7105,0.92175 -7.4355,1.65615 -10.5,1.63201 z m 172.9281,-0.30962 c -5.1579,0.21675 -8.9036,-0.19879 -11.995,-1.33066 -2.7532,-1.0081 -6.697,-3.84782 -10.1778,-7.32866 -4.5316,-4.53159 -6.0262,-6.86387 -7.3776,-11.51278 -1.135,-3.90427 -1.5331,-7.84536 -1.2051,-11.93158 0.2694,-3.3559 1.4524,-7.98839 2.6288,-10.29442 1.1765,-2.30603 3.517,-5.76226 5.2013,-7.6805 1.6842,-1.91825 5.6164,-4.73734 8.7381,-6.26465 4.7198,-2.3092 6.94,-2.76826 13.1816,-2.7255 5.795,0.0397 8.6357,0.5969 12.4635,2.44465 2.7268,1.31627 6.5865,4.0219 8.5771,6.01251 1.9906,1.9906 4.6954,5.83459 6.0107,8.54219 1.8573,3.82355 2.3984,6.59777 2.4229,12.42291 0.026,6.22358 -0.4433,8.46695 -2.7586,13.1816 -1.5345,3.12489 -4.3595,7.05962 -6.2778,8.74386 -1.9182,1.68425 -5.3877,4.03958 -7.7099,5.23407 -2.9557,1.52035 -6.4719,2.26634 -11.7222,2.48696 z m 172,0.0353 c -4.6906,0.21918 -8.8551,-0.15628 -11.1177,-1.00235 -1.9898,-0.74405 -5.2619,-2.36896 -7.2714,-3.61092 -2.0096,-1.24195 -4.7464,-3.69074 -6.082,-5.44175 -1.3356,-1.75101 -3.341,-5.19585 -4.4566,-7.65521 -1.4545,-3.20641 -2.0318,-6.59356 -2.0406,-11.97156 -0.01,-5.8359 0.5138,-8.6094 2.3585,-12.5 1.3039,-2.75 4.112,-6.66529 6.2403,-8.70065 2.1282,-2.03536 6.1195,-4.72562 8.8695,-5.97837 3.7285,-1.69851 6.78,-2.26718 12,-2.23628 5.023,0.0297 8.4122,0.67356 12,2.27959 2.75,1.23099 6.5008,3.67761 8.3351,5.43693 1.8343,1.75933 4.5062,5.18233 5.9376,7.60667 2.0772,3.5184 2.6897,6.07069 3.0349,12.64792 0.3783,7.20671 0.1203,8.92202 -2.0574,13.67859 -1.3694,2.99121 -4.1354,7.0841 -6.1466,9.09531 -2.0112,2.01121 -5.5573,4.63434 -7.8802,5.82918 -2.9233,1.50372 -6.5321,2.28033 -11.7234,2.5229 z m 171.3616,-18.13007 c -2.1239,0.21523 -4.5366,0.12187 -5.3616,-0.20747 -0.825,-0.32935 -2.4994,-1.50771 -3.721,-2.61858 -1.2215,-1.11087 -2.7189,-3.5286 -3.3275,-5.37272 -0.8172,-2.4761 -0.8059,-4.26417 0.043,-6.83731 0.6325,-1.9164 2.3031,-4.3914 3.7125,-5.5 1.7491,-1.37563 4.0647,-2.01564 7.293,-2.01564 3.2283,0 5.5439,0.64001 7.2927,2.01564 1.4094,1.1086 3.0805,3.58516 3.7136,5.50346 0.6331,1.9183 0.8688,4.77302 0.5238,6.34382 -0.345,1.5708 -1.9052,4.08033 -3.4671,5.57673 -1.8089,1.73303 -4.2417,2.8628 -6.7014,3.11207 z m -600.3233,-24.85793 c -4.6965,0.21089 -8.9021,-0.17149 -11.156,-1.01431 -1.9898,-0.74405 -5.2619,-2.36896 -7.2714,-3.61092 -2.0096,-1.24195 -4.74645,-3.69074 -6.08201,-5.44175 -1.33555,-1.75101 -3.34104,-5.19585 -4.45662,-7.65521 -1.45418,-3.20578 -2.03456,-6.6098 -2.05031,-12.02522 -0.0178,-6.12655 0.46117,-8.52317 2.53526,-12.68533 1.40648,-2.82243 4.3889,-6.78648 6.62758,-8.80902 2.2387,-2.02253 6.1505,-4.61334 8.6928,-5.75735 3.2631,-1.46837 6.6808,-2.08002 11.6224,-2.08002 4.9073,0 8.3605,0.61237 11.5508,2.04835 2.503,1.12659 6.2327,3.52502 8.2882,5.32984 2.0556,1.80482 4.9296,5.31583 6.3868,7.80223 2.1246,3.62535 2.735,6.1528 3.0818,12.76077 0.3773,7.1878 0.1183,8.92346 -2.0277,13.5921 -1.3531,2.94365 -3.6199,6.72281 -5.0373,8.39814 -1.4175,1.67533 -4.9596,4.34276 -7.8716,5.92763 -4.2162,2.29478 -6.8294,2.9505 -12.8327,3.22007 z m 342.9617,-0.012 c -4.8268,0.22554 -8.8551,-0.1543 -11.302,-1.06571 -2.0911,-0.77889 -5.5751,-2.64495 -7.7423,-4.1468 -2.1672,-1.50185 -5.2995,-4.78271 -6.9608,-7.29079 -1.6613,-2.50809 -3.5098,-6.37691 -4.1077,-8.5974 -0.5979,-2.22049 -0.9139,-6.97211 -0.7023,-10.55917 0.2535,-4.29714 1.2144,-8.16947 2.817,-11.35169 1.3378,-2.65637 4.192,-6.41957 6.3428,-8.36267 2.1508,-1.9431 5.9906,-4.45451 8.5329,-5.58092 3.1854,-1.41132 6.7986,-2.05843 11.6224,-2.0815 5.153,-0.0247 8.3193,0.55809 12,2.20853 2.75,1.23311 6.8864,4.08852 9.1919,6.34535 2.3055,2.25684 5.1853,6.39781 6.3994,9.20216 1.6232,3.7493 2.1983,7.01924 2.1726,12.35463 -0.028,5.77584 -0.5763,8.36251 -2.6895,12.6816 -1.46,2.98419 -4.224,6.80381 -6.1423,8.48805 -1.9182,1.68425 -5.3877,4.03958 -7.7099,5.23407 -2.9221,1.50306 -6.5316,2.27972 -11.7222,2.52226 z m 171.5,0.0518 c -7.2198,0.35039 -8.5861,0.10498 -14.0091,-2.51626 -3.305,-1.59749 -7.5324,-4.63955 -9.3943,-6.76012 -1.8619,-2.12057 -4.307,-5.90345 -5.4336,-8.40639 -1.4412,-3.20177 -2.0453,-6.62589 -2.0382,-11.55081 0.01,-5.04946 0.6346,-8.42078 2.2508,-12.09882 1.2324,-2.80435 4.127,-6.94532 6.4325,-9.20216 2.3055,-2.25683 6.4419,-5.11224 9.1919,-6.34535 3.712,-1.66449 6.844,-2.23374 12.1586,-2.20991 5.7063,0.0256 8.2791,0.58032 12.6816,2.73426 3.0377,1.48618 6.901,4.27162 8.5853,6.18987 1.6842,1.91824 4.0361,5.38771 5.2264,7.70991 1.3845,2.70098 2.323,6.74425 2.6048,11.2222 0.3436,5.45979 -0.02,8.22104 -1.6549,12.54943 -1.2422,3.28989 -3.8272,7.30151 -6.3486,9.85257 -2.3393,2.36674 -6.0532,5.23469 -8.2532,6.37324 -2.7643,1.43056 -6.4715,2.19002 -12,2.45834 z m -344.7101,-9.77362 c -2.9094,-0.022 -6.6399,-0.75174 -8.2899,-1.62159 -1.65,-0.86986 -4.0718,-2.53934 -5.3819,-3.70997 -1.31,-1.17062 -3.2127,-3.9284 -4.228,-6.1284 -1.0154,-2.2 -1.856,-5.82415 -1.8681,-8.05366 -0.013,-2.39798 1.0386,-6.18197 2.5747,-9.2645 1.9283,-3.86954 3.7909,-5.91068 7.236,-7.92967 3.5586,-2.08549 5.9484,-2.71884 10.2587,-2.71884 4.4937,0 6.5843,0.59763 10.4364,2.98334 3.1552,1.95414 5.6199,4.50375 7.1446,7.39061 1.4105,2.6708 2.3276,6.13099 2.3276,8.78212 0,2.40616 -0.6965,6.04174 -1.5477,8.07907 -0.8513,2.03733 -2.5388,4.76667 -3.75,6.0652 -1.2113,1.29853 -3.8718,3.21717 -5.9124,4.26365 -2.3163,1.18782 -5.6976,1.88764 -9,1.86264 z m 257.6222,-43 c -3.3935,-0.023 -7.1901,-0.7153 -8.9121,-1.62516 -1.65,-0.87181 -3.8354,-2.3163 -4.8564,-3.20996 -1.021,-0.89366 -2.7552,-3.38581 -3.8536,-5.53812 -1.5735,-3.08294 -1.9159,-5.35194 -1.6141,-10.69363 0.3243,-5.74036 0.8469,-7.35339 3.4069,-10.51634 1.6631,-2.05479 4.7262,-4.61944 6.8068,-5.69922 2.3326,-1.2105 5.7667,-1.96324 8.9566,-1.96324 3.2314,0 6.6713,0.76446 9.1636,2.03644 2.1946,1.12005 4.7234,2.87184 5.6196,3.89286 0.8962,1.02103 2.3587,3.29656 3.25,5.05675 0.9314,1.83939 1.6206,5.62929 1.6206,8.91214 0,4.30437 -0.6226,6.77414 -2.5266,10.02308 -1.4812,2.52746 -4.3104,5.35667 -6.8378,6.83786 -3.3308,1.95194 -5.656,2.51747 -10.2235,2.48654 z m -514.0621,-7.96371 c -2.1175,-0.002 -5.23586,-0.84883 -6.92969,-1.88173 -1.69383,-1.03289 -3.664,-3.28864 -4.37816,-5.01278 -0.754,-1.82031 -1.04964,-4.70031 -0.70504,-6.86827 0.3806,-2.39451 1.68746,-4.71973 3.64394,-6.48348 2.3921,-2.15645 4.03994,-2.75 7.63473,-2.75 3.88009,0 5.10645,0.52223 7.98422,3.4 2.90213,2.90213 3.4,4.08824 3.4,8.1 0,4.01176 -0.49787,5.19787 -3.4,8.1 -2.69161,2.69161 -4.20214,3.39922 -7.25,3.39626 z m 170.0997,0.004 c -2.8173,0 -4.4252,-0.77546 -7.0497,-3.4 -2.7481,-2.74814 -3.4,-4.17705 -3.4,-7.45295 0,-2.22912 0.4884,-5.12475 1.0852,-6.43473 0.5969,-1.30998 2.3538,-3.13115 3.9043,-4.04705 1.5505,-0.9159 4.562,-1.66527 6.6923,-1.66527 2.1303,0 4.8759,0.70232 6.1014,1.5607 1.2255,0.85839 2.9007,2.86104 3.7225,4.45034 0.8219,1.5893 1.4943,4.05933 1.4943,5.48896 0,1.42963 -0.6826,3.91936 -1.5169,5.53273 -0.8343,1.61338 -2.837,3.61603 -4.4504,4.45034 -1.6133,0.83431 -4.5757,1.51693 -6.583,1.51693 z m 172.9003,-0.004 c -2.1175,-0.002 -5.288,-0.88053 -7.0455,-1.95217 -2.1404,-1.30506 -3.587,-3.25513 -4.3811,-5.90567 -0.6521,-2.17648 -0.8786,-5.18066 -0.5033,-6.67596 0.3753,-1.4953 1.9747,-4.01107 3.5542,-5.59059 2.2346,-2.23457 3.7876,-2.87187 6.9985,-2.87187 2.2696,0 5.3576,0.63661 6.8623,1.41469 1.5046,0.77807 3.263,2.46557 3.9075,3.75 0.6445,1.28442 1.2429,3.23531 1.3298,4.33531 0.087,1.1 0.1061,3.0575 0.043,4.35 -0.063,1.2925 -1.6452,3.88 -3.5152,5.75 -2.6916,2.69161 -4.2021,3.39922 -7.25,3.39626 z m 342.4222,0.004 c -1.83,0 -4.4398,-0.76685 -5.7997,-1.70411 -1.3599,-0.93726 -3.0208,-2.39976 -3.691,-3.25 -0.6701,-0.85024 -1.4941,-2.93564 -1.8309,-4.63423 -0.3647,-1.83861 0,-4.5432 0.8897,-6.68359 0.8659,-2.07239 2.7852,-4.25873 4.5313,-5.16165 1.666,-0.86153 4.8038,-1.56642 6.973,-1.56642 2.9488,0 4.708,0.71379 6.9722,2.8289 1.7531,1.63761 3.3107,4.3339 3.6988,6.40277 0.4649,2.47773 0.1405,4.69072 -1.0574,7.21516 -0.9503,2.0027 -2.9949,4.29645 -4.5434,5.09722 -1.5485,0.80077 -4.3127,1.45595 -6.1426,1.45595 z m -600.2722,-43 c -4.0118,0 -5.1979,-0.49787 -8.1,-3.4 -2.9021,-2.90213 -3.4,-4.08824 -3.4,-8.1 0,-4.01176 0.4979,-5.19787 3.4,-8.1 2.9021,-2.90213 4.0882,-3.4 8.1,-3.4 4.0118,0 5.1979,0.49787 8.1,3.4 2.9021,2.90213 3.4,4.08824 3.4,8.1 0,4.01176 -0.4979,5.19787 -3.4,8.1 -2.9021,2.90213 -4.0882,3.4 -8.1,3.4 z m 513.9497,0 c -2.8173,0 -4.4252,-0.77546 -7.0497,-3.4 -2.9021,-2.90213 -3.4,-4.08824 -3.4,-8.1 0,-4.01176 0.4979,-5.19787 3.4,-8.1 2.6245,-2.62454 4.2324,-3.4 7.0497,-3.4 2.0073,0 4.9697,0.68262 6.583,1.51693 1.6134,0.83431 3.6161,2.83696 4.4504,4.45034 0.8343,1.61337 1.5169,4.1031 1.5169,5.53273 0,1.42963 -0.6826,3.91936 -1.5169,5.53273 -0.8343,1.61338 -2.837,3.61603 -4.4504,4.45034 -1.6133,0.83431 -4.5757,1.51693 -6.583,1.51693 z"
         style="fill:#f7f7f7;fill-opacity:1" />
      <path
         d="m 928.41257,-576.84168 a 16.046047,16.046047 0 0 1 20.99462,8.59239 16.046047,16.046047 0 0 1 -8.57819,21.00042 16.046047,16.046047 0 0 1 -21.00622,-8.56398 16.046047,16.046047 0 0 1 8.54977,-21.01201"
         sodipodi:open="true"
         sodipodi:end="4.3130926"
         sodipodi:start="4.3157978"
         sodipodi:ry="16.046047"
         sodipodi:rx="16.046047"
         sodipodi:cy="-562.04108"
         sodipodi:cx="934.61078"
         sodipodi:type="arc"
         id="path4442"
         style="opacity:1;fill:#ffffff;fill-opacity:1;stroke:none;stroke-width:5.86999989;stroke-linejoin:miter;stroke-miterlimit:4;stroke-dasharray:none;stroke-opacity:1" />
    </g>
  </g>
</svg>
