<?xml version="1.0" standalone="no"?>
<!DOCTYPE svg PUBLIC "-//W3C//DTD SVG 20010904//EN"
 "http://www.w3.org/TR/2001/REC-SVG-20010904/DTD/svg10.dtd">
<svg version="1.0" xmlns="http://www.w3.org/2000/svg"
 width="1500.000000pt" height="715.000000pt" viewBox="0 0 1500.000000 715.000000"
 preserveAspectRatio="xMidYMid meet">
<metadata>
Created by potrace 1.15, written by Peter Selinger 2001-2017
</metadata>
<g transform="translate(0.000000,715.000000) scale(0.100000,-0.100000)"
fill="#ffffff" stroke="none">
<path d="M4863 7135 c-64 -27 -95 -114 -68 -183 33 -81 127 -115 202 -72 51
28 73 66 73 125 0 111 -103 175 -207 130z"/>
<path d="M11030 7132 c-97 -49 -97 -201 0 -253 67 -36 152 -15 190 46 26 42
27 119 1 161 -36 59 -123 80 -191 46z"/>
<path d="M10017 6729 c-53 -12 -87 -32 -124 -71 -44 -46 -63 -96 -63 -170 0
-167 152 -275 321 -228 48 13 118 75 140 124 23 51 25 153 3 204 -43 104 -167
167 -277 141z"/>
<path d="M3854 6629 c-18 -5 -46 -25 -63 -44 -26 -30 -31 -44 -31 -88 0 -91
54 -147 140 -147 49 0 90 20 119 56 16 20 21 41 21 85 0 51 -4 63 -31 93 -17
20 -47 40 -67 46 -42 11 -46 11 -88 -1z"/>
<path d="M5890 6618 c-36 -18 -49 -33 -64 -69 -26 -64 -16 -112 34 -161 34
-34 43 -38 89 -38 94 0 151 52 151 140 0 114 -109 180 -210 128z"/>
<path d="M7966 6630 c-82 -25 -119 -123 -79 -207 23 -49 66 -73 130 -73 44 0
58 5 87 30 85 75 67 203 -34 244 -44 18 -61 19 -104 6z"/>
<path d="M12060 6618 c-36 -18 -49 -33 -64 -69 -24 -60 -16 -109 28 -156 28
-31 40 -37 88 -41 96 -8 158 46 158 138 0 114 -109 180 -210 128z"/>
<path d="M4819 6325 c-107 -34 -205 -132 -235 -233 -24 -80 -16 -201 17 -272
83 -178 298 -253 484 -171 63 28 140 104 172 170 25 50 28 67 28 156 0 87 -3
107 -27 157 -34 73 -104 143 -176 176 -70 32 -192 40 -263 17z"/>
<path d="M8925 6323 c-115 -42 -208 -142 -235 -254 -31 -128 12 -272 107 -359
72 -66 144 -93 249 -93 70 0 91 4 147 31 283 132 282 530 -1 660 -75 34 -194
41 -267 15z"/>
<path d="M10989 6325 c-107 -34 -202 -128 -234 -232 -25 -79 -18 -201 16 -273
68 -144 232 -228 391 -200 34 7 80 21 101 32 61 31 134 105 164 167 25 50 28
67 28 156 0 87 -3 107 -27 157 -34 73 -104 143 -176 176 -70 32 -192 40 -263
17z"/>
<path d="M6895 6206 c-59 -22 -130 -103 -145 -166 -32 -133 38 -258 164 -295
62 -19 80 -19 144 0 206 61 231 352 39 451 -44 23 -152 28 -202 10z"/>
<path d="M3815 5816 c-76 -19 -125 -49 -178 -105 -74 -79 -92 -126 -92 -246 0
-93 2 -105 33 -167 37 -77 90 -128 172 -167 47 -22 68 -26 150 -26 82 0 103 4
151 26 76 36 129 86 170 161 33 60 34 68 34 168 0 94 -3 111 -27 160 -75 153
-254 238 -413 196z m163 -197 c75 -37 117 -129 92 -204 -25 -77 -88 -125 -165
-125 -87 0 -153 49 -175 131 -21 78 18 161 92 198 54 27 100 27 156 0z"/>
<path d="M5884 5820 c-114 -24 -198 -90 -251 -197 -34 -68 -37 -82 -36 -156 1
-152 70 -265 201 -329 61 -30 74 -33 162 -33 83 1 102 4 152 29 73 35 139 101
174 174 25 50 28 69 29 152 0 88 -3 101 -33 162 -40 81 -111 149 -186 177 -64
24 -156 33 -212 21z"/>
<path d="M7940 5820 c-158 -33 -273 -165 -287 -328 -19 -222 163 -406 386
-390 171 12 303 134 333 305 36 210 -115 399 -332 417 -30 3 -75 1 -100 -4z"/>
<path d="M9984 5816 c-103 -26 -203 -109 -247 -204 -18 -38 -22 -66 -22 -147
0 -88 3 -107 27 -157 34 -73 103 -142 176 -176 49 -23 70 -27 152 -27 82 0
103 4 151 26 76 36 129 86 170 161 33 60 34 68 34 168 0 92 -3 112 -26 160
-71 151 -254 237 -415 196z"/>
<path d="M12082 5603 c-13 -3 -38 -20 -57 -38 -91 -91 -26 -245 103 -245 91 0
149 66 140 159 -9 94 -84 143 -186 124z"/>
<path d="M4811 5294 c-153 -55 -241 -181 -241 -344 0 -113 26 -178 104 -256
78 -78 143 -104 256 -104 144 0 251 64 321 192 32 60 34 68 34 163 0 87 -3
107 -26 156 -37 79 -90 133 -167 171 -57 28 -79 33 -152 35 -58 2 -99 -2 -129
-13z"/>
<path d="M6863 5291 c-128 -44 -225 -168 -239 -306 -12 -114 42 -248 125 -314
83 -65 117 -76 236 -76 107 0 112 1 175 36 150 83 222 255 174 420 -32 112
-129 211 -239 244 -65 20 -169 18 -232 -4z"/>
<path d="M8923 5292 c-100 -36 -171 -101 -216 -199 -18 -39 -22 -66 -22 -143
0 -88 3 -101 33 -162 36 -74 96 -133 170 -170 40 -20 63 -23 152 -23 92 0 112
3 160 26 178 84 253 298 171 484 -28 63 -104 140 -170 172 -75 36 -201 43
-278 15z"/>
<path d="M11004 5176 c-47 -21 -105 -77 -125 -121 -25 -54 -25 -157 0 -210 39
-85 124 -137 221 -137 140 0 239 99 240 240 0 146 -100 243 -251 242 -30 -1
-68 -7 -85 -14z"/>
<path d="M2793 5070 c-102 -62 -77 -229 39 -260 77 -21 156 23 180 101 15 53
-2 108 -47 148 -30 26 -44 31 -88 31 -34 0 -63 -7 -84 -20z"/>
<path d="M5862 4785 c-75 -21 -109 -41 -161 -94 -177 -176 -127 -473 97 -583
61 -30 75 -33 157 -33 78 0 99 4 153 29 281 129 281 533 0 661 -72 33 -172 41
-246 20z"/>
<path d="M7919 4786 c-102 -27 -190 -103 -238 -205 -22 -47 -26 -70 -26 -146
0 -78 4 -98 28 -151 36 -77 104 -145 182 -181 52 -24 73 -28 150 -28 82 0 97
3 157 33 82 40 148 111 179 190 31 79 31 195 0 273 -65 167 -256 263 -432 215z"/>
<path d="M3816 4664 c-138 -50 -198 -212 -128 -345 87 -168 333 -171 424 -4
23 41 28 63 28 120 0 113 -56 193 -161 230 -51 18 -112 18 -163 -1z"/>
<path d="M9986 4664 c-61 -22 -102 -59 -131 -119 -23 -47 -27 -65 -23 -124 5
-88 42 -152 112 -196 44 -27 58 -30 126 -30 68 0 82 3 125 30 27 17 63 50 80
74 26 37 30 53 33 120 4 68 1 84 -22 129 -55 109 -184 159 -300 116z"/>
<path d="M6863 4130 c-165 -95 -161 -335 7 -423 49 -25 63 -28 126 -25 58 3
80 9 120 33 156 97 147 338 -16 421 -70 36 -168 33 -237 -6z"/>
<path d="M8932 4139 c-182 -91 -173 -366 15 -444 46 -20 144 -19 191 1 157 65
197 285 74 402 -68 64 -196 82 -280 41z"/>
<path d="M2832 4060 c-62 -15 -102 -70 -102 -142 0 -85 58 -138 149 -138 42 0
56 5 86 31 45 40 62 95 46 148 -12 43 -70 101 -101 101 -10 0 -24 2 -32 4 -7
2 -28 0 -46 -4z"/>
<path d="M4853 4050 c-46 -28 -67 -65 -67 -119 0 -66 32 -115 89 -137 58 -22
106 -12 152 30 31 28 37 40 41 88 5 66 -14 110 -61 138 -42 26 -112 26 -154 0z"/>
<path d="M11062 4060 c-111 -26 -144 -173 -57 -249 30 -26 44 -31 88 -31 99 0
153 59 145 158 -4 48 -10 60 -41 89 -20 18 -45 33 -56 33 -11 0 -25 2 -33 4
-7 2 -28 0 -46 -4z"/>
<path d="M5860 3630 c-160 -75 -198 -273 -75 -395 163 -164 436 -32 412 199
-6 63 -25 102 -68 145 -46 46 -86 64 -159 68 -51 3 -75 -1 -110 -17z"/>
<path d="M7924 3634 c-47 -17 -106 -69 -130 -116 -22 -43 -29 -129 -14 -182
15 -56 69 -120 124 -149 56 -30 164 -30 221 0 47 25 85 64 111 113 27 51 25
162 -3 216 -59 111 -189 161 -309 118z"/>
<path d="M10003 3535 c-66 -29 -96 -138 -56 -206 20 -34 86 -69 129 -69 73 0
137 68 137 144 0 112 -105 177 -210 131z"/>
<path d="M6912 3020 c-78 -35 -104 -147 -50 -215 63 -80 198 -71 244 16 24 46
15 131 -17 165 -27 30 -77 54 -111 54 -13 0 -42 -9 -66 -20z"/>
<path d="M3480 1235 c-205 -46 -355 -196 -411 -412 -28 -108 -28 -297 0 -404
51 -199 165 -333 335 -395 60 -21 83 -24 220 -24 219 0 307 31 417 147 67 70
103 130 136 226 37 106 44 318 15 436 -31 121 -76 205 -152 282 -105 107 -207
147 -385 154 -75 3 -131 0 -175 -10z m296 -230 c258 -126 258 -641 0 -772 -67
-34 -170 -42 -248 -19 -142 41 -237 203 -238 403 0 213 92 365 250 410 67 19
172 9 236 -22z"/>
<path d="M11604 1236 c-112 -26 -189 -81 -236 -169 -20 -37 -23 -57 -23 -157
0 -132 12 -164 86 -239 53 -52 100 -77 254 -131 193 -67 255 -114 255 -191 0
-93 -68 -142 -195 -142 -73 0 -131 14 -250 57 -92 34 -119 33 -156 -3 -22 -22
-29 -39 -29 -68 0 -79 60 -132 197 -173 64 -19 91 -21 245 -18 152 3 179 6
220 25 71 32 141 103 174 176 25 55 28 74 28 162 0 114 -19 167 -84 236 -41
43 -170 108 -315 159 -167 58 -219 107 -199 186 16 63 49 79 162 79 84 0 110
-5 189 -33 50 -17 102 -32 116 -32 53 0 108 79 92 132 -16 52 -85 99 -195 132
-76 24 -258 30 -336 12z"/>
<path d="M10395 1229 c-91 -13 -125 -28 -146 -63 -18 -30 -19 -56 -19 -564 l0
-534 29 -29 c25 -24 37 -29 81 -29 111 0 120 21 120 277 l0 198 78 -3 c42 -2
80 -7 84 -10 4 -4 61 -97 128 -207 67 -110 131 -210 142 -222 71 -76 198 -27
198 77 0 40 -10 59 -135 250 l-104 160 37 19 c50 25 118 101 145 159 30 64 31
231 3 312 -38 110 -144 185 -298 210 -74 12 -258 11 -343 -1z m295 -215 c29
-9 66 -28 81 -43 73 -73 54 -220 -36 -272 -41 -24 -157 -41 -222 -33 l-53 6 0
173 0 174 28 4 c64 10 152 6 202 -9z"/>
<path d="M51 1214 c-50 -35 -51 -46 -51 -587 0 -278 3 -518 6 -536 4 -17 18
-42 32 -56 21 -21 34 -25 81 -25 51 0 61 3 87 31 l29 30 3 522 c2 352 0 534
-8 559 -15 52 -52 78 -109 78 -27 0 -56 -7 -70 -16z"/>
<path d="M455 1207 c-20 -17 -28 -35 -32 -70 -5 -43 -3 -49 30 -82 l35 -35
171 0 171 0 0 -465 c0 -396 2 -470 15 -495 20 -39 43 -50 105 -50 44 0 56 5
81 29 l29 29 0 476 0 476 165 0 c215 0 245 13 245 110 0 33 -6 48 -29 71 l-29
29 -466 0 -465 0 -26 -23z"/>
<path d="M1689 1201 l-29 -29 0 -557 0 -556 25 -24 c19 -20 34 -25 75 -25 28
0 60 5 70 10 43 23 45 41 50 400 l5 345 114 -180 c133 -210 155 -235 211 -235
73 0 84 11 218 228 l127 205 5 -362 5 -363 28 -24 c22 -18 40 -24 78 -24 61 0
84 11 104 50 13 25 15 106 15 560 0 568 0 573 -49 600 -31 16 -93 12 -126 -9
-21 -13 -84 -106 -204 -300 -95 -154 -176 -283 -180 -285 -3 -2 -87 125 -186
282 -123 195 -189 291 -210 304 -17 10 -49 18 -73 18 -35 0 -49 -6 -73 -29z"/>
<path d="M4989 1201 l-29 -29 0 -394 c0 -323 3 -405 15 -453 38 -145 110 -241
218 -291 61 -28 65 -29 237 -29 168 0 177 1 231 26 104 49 164 120 210 249 23
63 24 77 27 464 3 296 0 406 -9 428 -24 59 -124 79 -176 34 l-28 -24 -6 -394
c-6 -421 -8 -436 -60 -510 -46 -64 -171 -95 -272 -67 -50 14 -106 64 -131 119
-20 43 -21 67 -26 443 l-5 399 -33 29 c-27 24 -41 29 -83 29 -43 0 -55 -5 -80
-29z"/>
<path d="M6245 1206 c-13 -13 -26 -39 -30 -57 -3 -19 -5 -271 -3 -561 l3 -526
24 -26 c20 -21 34 -26 73 -26 27 0 58 5 68 10 43 23 45 40 50 412 l5 357 279
-370 c154 -204 291 -379 304 -390 30 -23 108 -26 138 -4 44 30 45 43 42 614
l-3 543 -28 24 c-44 38 -142 29 -164 -15 -4 -9 -10 -184 -13 -388 l-5 -373
-278 375 c-153 206 -292 386 -308 400 -42 35 -119 36 -154 1z"/>
<path d="M7548 1201 l-33 -29 -3 -538 c-2 -393 1 -546 9 -567 17 -41 47 -57
107 -57 46 0 58 4 83 29 l29 29 0 549 c0 504 -2 550 -18 569 -43 54 -123 60
-174 15z"/>
<path d="M8005 1216 c-36 -15 -55 -52 -55 -105 0 -42 414 -1057 445 -1091 24
-27 132 -29 164 -2 14 11 91 196 226 541 113 288 207 538 210 555 13 66 -34
116 -107 116 -41 0 -73 -21 -94 -61 -8 -17 -75 -193 -149 -392 -73 -199 -139
-375 -145 -392 -11 -29 -19 -12 -169 365 -86 217 -165 409 -176 427 -30 52
-87 66 -150 39z"/>
<path d="M9214 1196 l-34 -34 0 -537 c0 -375 3 -543 11 -558 29 -57 24 -57
409 -57 395 0 391 -1 409 66 15 54 -5 105 -49 126 -31 16 -67 18 -292 18
l-258 0 0 154 0 155 221 3 221 3 24 28 c17 20 24 40 24 72 0 32 -7 52 -24 72
l-24 28 -221 3 -221 3 0 140 0 139 256 0 c221 0 260 2 284 17 47 27 63 84 38
138 -24 53 -38 55 -404 55 l-336 0 -34 -34z"/>
<path d="M12429 1202 l-34 -30 -3 -538 c-2 -393 1 -546 9 -567 17 -41 47 -57
107 -57 46 0 58 4 83 29 l29 29 0 551 0 550 -23 27 c-19 22 -34 28 -79 32 -50
4 -58 2 -89 -26z"/>
<path d="M12839 1201 c-31 -31 -38 -76 -19 -125 18 -47 53 -56 235 -56 l165 0
0 -476 0 -476 29 -29 c25 -24 37 -29 81 -29 62 0 85 11 105 50 13 25 15 99 15
495 l0 465 165 0 c185 0 213 7 235 60 18 43 6 100 -25 128 l-26 22 -465 0
-466 0 -29 -29z"/>
<path d="M14054 1196 c-27 -27 -34 -42 -34 -73 0 -52 11 -71 209 -353 l171
-244 0 -229 0 -229 29 -29 c25 -24 37 -29 80 -29 42 0 56 5 83 29 l33 29 3
237 3 237 171 256 c175 262 203 314 192 357 -9 36 -60 75 -97 75 -62 0 -88
-29 -233 -254 -76 -119 -142 -216 -145 -216 -3 0 -71 97 -150 216 -79 119
-154 225 -168 235 -15 12 -40 19 -68 19 -38 0 -50 -5 -79 -34z"/>
</g>
</svg>
