<?xml version="1.0" encoding="UTF-8" standalone="no"?>
<!-- Created with Inkscape (http://www.inkscape.org/) -->

<svg
   xmlns:dc="http://purl.org/dc/elements/1.1/"
   xmlns:cc="http://creativecommons.org/ns#"
   xmlns:rdf="http://www.w3.org/1999/02/22-rdf-syntax-ns#"
   xmlns:svg="http://www.w3.org/2000/svg"
   xmlns="http://www.w3.org/2000/svg"
   xmlns:sodipodi="http://sodipodi.sourceforge.net/DTD/sodipodi-0.dtd"
   xmlns:inkscape="http://www.inkscape.org/namespaces/inkscape"
   width="431.06018mm"
   height="84.666664mm"
   viewBox="0 0 1527.3788 300.00001"
   id="svg2"
   version="1.1"
   inkscape:version="0.91 r13725"
   sodipodi:docname="medium.svg">
  <defs
     id="defs4" />
  <sodipodi:namedview
     id="base"
     pagecolor="#fffffff"
     bordercolor="#666666"
     borderopacity="1.0"
     inkscape:pageopacity="0.0"
     inkscape:pageshadow="2"
     inkscape:zoom="0.175"
     inkscape:cx="636.48481"
     inkscape:cy="51.459926"
     inkscape:document-units="px"
     inkscape:current-layer="layer1"
     showgrid="false"
     fit-margin-top="0"
     fit-margin-left="0"
     fit-margin-right="0"
     fit-margin-bottom="0"
     inkscape:window-width="952"
     inkscape:window-height="1047"
     inkscape:window-x="0"
     inkscape:window-y="0"
     inkscape:window-maximized="0" />
  <metadata
     id="metadata7">
    <rdf:RDF>
      <cc:Work
         rdf:about="">
        <dc:format>image/svg+xml</dc:format>
        <dc:type
           rdf:resource="http://purl.org/dc/dcmitype/StillImage" />
        <dc:title></dc:title>
      </cc:Work>
    </rdf:RDF>
  </metadata>
  <g
     inkscape:label="Layer 1"
     inkscape:groupmode="layer"
     id="layer1"
     transform="translate(-467.03144,41.353528)">
    <path
       style="fill:#3c3b40"
       d="M 613.09187,239.0867 C 607.7483,227.13837 586.64414,180.15665 566.19373,134.6829 l -37.18255,-82.679584 -1.07641,74.290354 c -1.19835,82.70061 -4.38068,69.96941 28.4411,113.7805 l 11.09663,14.81198 -50.22053,0 -50.22053,0 14.34535,-18.76185 c 7.88997,-10.31901 17.11515,-22.70503 20.50046,-27.5245 5.19197,-7.39157 6.07252,-23.37461 5.62752,-102.14874 L 506.97723,13.064978 493.30759,-4.837656 c -7.51833,-9.846415 -13.66969,-19.480841 -13.66969,-21.409796 0,-1.928994 20.84599,-3.006438 46.32442,-2.394406 l 46.32443,1.112834 32.48485,71.097527 c 17.86665,39.103641 35.8221,78.092097 39.90104,86.640987 l 7.41622,15.54346 34.98141,-87.628452 34.9814,-87.628453 46.6623,0 c 25.6643,0 46.6623,0.780611 46.6623,1.7347 0,0.95409 -7.1891,10.041065 -15.9758,20.193278 l -15.9758,18.458617 1.1638,107.898 1.1638,107.89796 15.7995,13.93934 15.7994,13.93938 -66.9618,0.16432 -66.96182,0.16471 14.62612,-14.97851 14.6262,-14.97855 -0.179,-92.65521 -0.1793,-92.655242 -41.2294,102.696422 c -22.6762,56.48304 -42.81687,106.25131 -44.75708,110.59616 -3.06427,6.86209 -4.80379,5.04622 -13.24322,-13.82452 z m 275.5852,13.85564 c -20.826,-7.41894 -33.4607,-17.25011 -47.2839,-36.79206 -9.8007,-13.85529 -11.7794,-20.97677 -13.3455,-48.03084 -1.0955,-18.92379 0.1232,-38.77197 3.0154,-49.10102 19.4222,-69.369577 122.1839,-89.927309 167.1,-33.428826 8.81613,11.08943 11.92573,19.885496 13.61473,38.511156 l 2.1888,24.13911 -59.79653,0 c -59.3845,0 -59.7964,0.0612 -59.7745,8.88719 0.047,18.8709 8.5614,38.29317 21.9356,50.03579 11.5587,10.14878 17.1725,12.17455 33.7375,12.17455 22.7305,0 31.8234,-3.84038 50.22063,-21.21073 l 13.0939,-12.36311 -4.1192,10.88895 c -16.69613,44.13576 -42.35923,62.37026 -87.24143,61.98811 -9.7759,-0.0833 -24.7814,-2.64747 -33.3455,-5.69827 z m 62.7009,-135.31392 c -5.0136,-44.956456 -10.5247,-56.285535 -27.3805,-56.285535 -16.3244,0 -29.5524,26.916969 -29.6019,60.235405 l -0.024,14.81198 29.5484,0 29.5484,0 -2.0924,-18.76185 z m 129.88783,133.53119 c -30.693,-13.93507 -46.4976,-50.24383 -44.1552,-101.44009 2.6851,-58.686466 30.8874,-92.407193 79.8947,-95.527743 23.5217,-1.497748 25.8169,-0.852025 39.4173,11.089277 l 14.4413,12.67961 0,-41.194219 c 0,-38.83343 -0.5659,-41.725835 -9.8746,-50.47095 -5.4311,-5.102235 -9.8747,-10.459473 -9.8747,-11.904965 0,-2.325995 64.818,-11.794211 80.7415,-11.794211 5.4524,0 6.1555,15.206379 6.1555,133.119815 l 0,133.119846 12.6245,13.02506 12.6244,13.02511 -46.1983,0 -46.1983,0 0,-14.3572 0,-14.3572 -7.7923,9.9063 c -17.559,22.32269 -51.9086,28.65534 -81.8058,15.08156 z m 80.8195,-30.07125 c 8.4651,-5.92918 8.7786,-8.46361 8.7786,-70.95857 0,-60.033006 -0.5631,-65.111156 -7.64,-68.898636 -39.7301,-21.2629 -69.991,37.486916 -55.0921,106.958126 7.3305,34.18085 31.2768,48.78251 53.9535,32.89908 z m 285.269,30.82927 c -9.4832,-4.7375 -16.9251,-13.10774 -23.6992,-26.65545 -9.2738,-18.54753 -9.8746,-23.51906 -9.8746,-81.69868 l 0,-61.949326 -11.6012,-12.1106 -11.6011,-12.110551 43.8107,0 43.8111,0 1.3639,72.266717 c 1.5708,83.21468 4.7398,93.62751 28.4923,93.62751 24.0839,0 26.1951,-6.37405 26.1951,-79.09213 l 0,-64.645576 -10.6137,-11.07826 -10.6137,-11.078261 44.1875,0 44.1876,0 0,85.721457 0,85.7215 12.6245,13.02506 12.6242,13.02511 -46.198,0 -46.1984,0 0,-16.10252 0,-16.10249 -10.6777,12.68973 c -19.3456,22.99104 -49.9985,29.64557 -76.2193,16.54676 z m -150.0947,-82.75294 0,-85.721496 -12.6245,-13.02506 -12.6244,-13.025111 46.1983,0 46.1982,0 0,87.668307 0,87.6683 10.6137,11.07826 10.6137,11.07826 -44.1876,0 -44.1874,0 0,-85.72146 z m 355.4876,-1.94685 0,-87.668296 -10.6137,-11.07826 -10.6137,-11.078261 44.1875,0 44.1875,0 0,18.358491 0,18.35852 8.8872,-13.01985 c 25.998,-38.086946 86.3405,-36.361527 106.1427,3.03496 l 6.4087,12.75015 9.3232,-13.60585 c 26.3227,-38.415655 84.0535,-39.894128 107.1554,-2.74421 8.1794,13.1534 9.1191,20.428446 10.9242,84.564776 l 1.9749,70.1733 11.8496,9.66938 11.8496,9.66935 -46.2888,0.14219 -46.2889,0.1422 0.8654,-70.11007 c 0.7501,-60.76891 -0.067,-71.82043 -6.1483,-82.94711 -6.0014,-10.984766 -9.1696,-12.837046 -21.9565,-12.837046 -29.0232,0 -29.8325,2.18281 -28.723,77.482276 0.9716,65.91286 1.1032,66.8139 11.3151,77.54982 l 10.3325,10.86213 -44.1875,0 -44.1875,0 0,-68.13513 c 0,-56.95469 -1.1392,-70.40362 -6.9123,-81.95965 -5.51,-11.030146 -9.5575,-14.078926 -20.0226,-15.083106 -7.3543,-0.70564 -17.332,1.50344 -22.7117,5.02842 -9.5236,6.240816 -9.5935,6.766696 -9.5935,72.139686 l 0,65.85298 10.6137,11.07826 10.6137,11.07826 -44.1875,0 -44.1875,0 0,-87.66831 z M 1303.5355,17.591323 c -13.8508,-16.460736 -13.3991,-32.680018 1.32,-47.399141 7.8799,-7.879937 15.5009,-11.545725 24.0029,-11.545725 17.5935,0 35.5488,18.527107 35.5488,36.681229 0,32.084299 -40.2278,46.797498 -60.8717,22.263637 z"
       id="path4180"
       inkscape:connector-curvature="0" />
  </g>
</svg>
