<?xml version="1.0" encoding="UTF-8" standalone="no"?>
<!-- Created with Inkscape (http://www.inkscape.org/) -->

<svg
   xmlns:dc="http://purl.org/dc/elements/1.1/"
   xmlns:cc="http://creativecommons.org/ns#"
   xmlns:rdf="http://www.w3.org/1999/02/22-rdf-syntax-ns#"
   xmlns:svg="http://www.w3.org/2000/svg"
   xmlns="http://www.w3.org/2000/svg"
   xmlns:sodipodi="http://sodipodi.sourceforge.net/DTD/sodipodi-0.dtd"
   xmlns:inkscape="http://www.inkscape.org/namespaces/inkscape"
   width="55.29792mm"
   height="15.875001mm"
   viewBox="0 0 55.29792 15.875001"
   version="1.1"
   id="svg8"
   sodipodi:docname="nasdaq-logo.svg"
   inkscape:version="0.92.1 r15371">
  <defs
     id="defs2" />
  <sodipodi:namedview
     id="base"
     pagecolor="#ffffff"
     bordercolor="#666666"
     borderopacity="1.0"
     inkscape:pageopacity="0.0"
     inkscape:pageshadow="2"
     inkscape:zoom="0.98994949"
     inkscape:cx="306.19117"
     inkscape:cy="-53.056095"
     inkscape:document-units="mm"
     inkscape:current-layer="layer1"
     showgrid="false"
     inkscape:window-width="1920"
     inkscape:window-height="1043"
     inkscape:window-x="0"
     inkscape:window-y="0"
     inkscape:window-maximized="1" />
  <metadata
     id="metadata5">
    <rdf:RDF>
      <cc:Work
         rdf:about="">
        <dc:format>image/svg+xml</dc:format>
        <dc:type
           rdf:resource="http://purl.org/dc/dcmitype/StillImage" />
        <dc:title></dc:title>
      </cc:Work>
    </rdf:RDF>
  </metadata>
  <g
     inkscape:label="Layer 1"
     inkscape:groupmode="layer"
     id="layer1"
     transform="translate(-38.098207,-47.140127)">
    <g
       id="g4597"
       transform="matrix(0.0483634,0,0,0.04915199,56.60537,126.51277)">
      <path
         style="fill:#ffffff;stroke-width:1.99598026"
         d="m -382.42866,-1295.3561 c 0.78177,-1.9211 3.49847,-9.3312 6.03713,-16.4669 2.53866,-7.1355 8.33989,-22.8539 12.89163,-34.9296 4.55174,-12.0756 9.17749,-24.9422 10.27942,-28.5923 1.10193,-3.65 5.19916,-14.8774 9.10506,-24.9497 3.90584,-10.0723 10.09528,-26.8461 13.7542,-37.2751 3.65899,-10.4289 8.80964,-24.8 11.44592,-31.9357 2.63636,-7.1355 7.69889,-21.0575 11.25017,-30.9376 9.65086,-26.8499 11.65782,-30.4052 18.51263,-32.7948 3.63675,-1.2678 24.04161,-2.1319 50.23699,-2.1274 44.06408,0.01 44.10595,0.015 37.9445,3.7687 -5.27927,3.2194 -7.54356,7.6047 -15.71258,30.4312 -5.24939,14.6685 -11.99173,33.4064 -14.98287,41.6398 -2.99114,8.2334 -10.11074,27.9937 -15.82128,43.9116 -5.71049,15.9179 -11.66546,32.0854 -13.23322,35.9277 -1.56769,3.8422 -4.0838,10.5786 -5.59122,14.9698 -7.01389,20.4313 -21.71078,60.5332 -24.32254,66.3663 l -2.90453,6.487 h -45.15537 c -42.21598,0 -45.06289,-0.2271 -43.73404,-3.493 z m 194.4159,-80.8667 c 2.63673,-1.3559 5.55439,-3.8128 6.48379,-5.4595 0.9294,-1.6466 10.71915,-28.1432 21.75502,-58.8814 11.03585,-30.738 20.92193,-57.6838 21.96895,-59.8793 1.70861,-3.5828 6.95807,-18.3523 18.0904,-50.8976 2.06528,-6.0378 4.60175,-12.7743 5.6367,-14.9698 1.03479,-2.1955 5.44395,-13.8721 9.79804,-25.9477 l 7.916523,-21.9558 45.090353,-0.5363 c 24.799688,-0.295 45.0860331,0.1538 45.0806711,0.9979 -0.0062,0.8439 -3.188416,10.0672 -7.0733491,20.4962 -3.885016,10.4291 -8.326681,22.5546 -9.870386,26.9458 -1.543623,4.3911 -5.440407,15.1694 -8.659447,23.9517 -3.219039,8.7824 -10.51282,28.9916 -16.208362,44.9095 -5.69554,15.918 -11.639494,31.7721 -13.208844,35.2314 -1.569349,3.4593 -2.853319,6.9277 -2.853319,7.7077 0,1.4881 -9.390373,27.3256 -21.099055,58.0537 -5.283722,13.8666 -8.112442,18.703 -11.965925,20.4588 -7.51263,3.4229 -97.54157,3.1999 -90.88176,-0.2248 z m -22.32252,-4.3113 c -1.56407,-1.564 -4.70254,-7.6268 -6.97445,-13.4728 -2.27191,-5.846 -6.44555,-16.6205 -9.27473,-23.9435 -2.82918,-7.3227 -5.14394,-15.1092 -5.14394,-17.3032 0,-3.2988 11.22482,-35.987 27.38816,-79.7582 5.38608,-14.5857 16.71689,-20.2467 25.68352,-12.8317 2.35874,1.9506 8.31892,14.6242 13.72093,29.1755 l 9.55064,25.7269 -6.49747,18.1848 c -3.57355,10.0015 -9.07121,25.8039 -12.217,35.1164 -3.1458,9.3122 -7.06996,19.7772 -8.7204,23.2553 -1.65045,3.4781 -3.00087,7.3108 -3.00087,8.5171 0,8.1678 -18.22726,13.6206 -24.51439,7.3334 z"
         id="path4576"
         inkscape:connector-curvature="0" />
      <path
         sodipodi:nodetypes="ccccccccccccccccccccccsscccccccccccccccccccccccscccccccccccccccccccccccccccccccccccccscccccccccccccccccccccccccccsccccccccccccccccccccccccccscccccccccsccccscccccccccsscccccccscscccccccccccccccscccc"
         inkscape:connector-curvature="0"
         id="path4578"
         d="m 734.25653,-1346.2204 v -25.2756 l -0.7276,0.1451 c -3.82439,0.7628 -8.95924,1.0776 -17.52865,1.0748 -8.02396,0 -9.56058,-0.071 -12.70333,-0.5686 -7.3443,-1.1621 -13.68126,-2.9052 -19.41695,-5.341 -16.82589,-7.1454 -27.81454,-23.5882 -30.43365,-45.5391 -0.6183,-5.1821 -0.76837,-10.3146 -0.43325,-14.8167 0.55261,-7.4235 1.46055,-12.2224 3.46882,-18.3346 6.26589,-19.0701 20.67031,-31.1103 41.83211,-34.9663 5.82273,-1.0609 10.70226,-1.4876 18.89976,-1.6526 6.58408,-0.1325 17.02893,0.1322 22.86358,0.5794 0.80036,0.061 5.38427,0.3015 10.18645,0.5337 4.80219,0.2321 9.11821,0.4808 9.59115,0.5526 l 0.8599,0.1305 v 78.5178 78.5177 l -10.3849,4.5942 c -5.71169,2.5269 -11.66482,5.1635 -13.22917,5.8593 l -2.84427,1.2651 z m -5.49034,-45.0953 c 2.87391,-0.2812 5.34482,-0.5112 5.49095,-0.5112 0.17701,0 0.24334,-13.1408 0.1987,-39.3568 l -0.067,-39.3567 -4.7625,-0.3036 c -10.62251,-0.6771 -18.4895,-0.3272 -24.35333,1.0831 -11.77806,2.8328 -19.59763,9.8471 -23.27278,20.8762 -3.03276,9.1014 -3.34235,22.5512 -0.75612,32.8484 3.41569,13.5998 11.9771,21.8797 25.35311,24.5196 5.45987,1.0775 12.55207,1.1418 22.16899,0.201 z m -273.10016,21.4332 c -15.8477,-1.4131 -29.23649,-6.9859 -38.73707,-16.1236 -4.92582,-4.7376 -7.96716,-8.9103 -10.89591,-14.9489 -2.71703,-5.6022 -4.40502,-11.3995 -5.4697,-18.7854 -0.53669,-3.723 -0.44244,-17.1527 0.14853,-21.1667 1.19245,-8.0995 3.05187,-14.4505 5.9953,-20.4776 2.88235,-5.902 5.78157,-10.0585 9.9074,-14.2038 9.31331,-9.3574 21.31238,-14.4879 36.81971,-15.7433 4.79113,-0.3878 16.90227,-0.1712 22.85349,0.4089 2.25558,0.2198 4.36894,0.4012 4.69636,0.403 h 0.59531 v -23.0187 -23.0188 h 12.96458 12.96459 v 81.3438 c 0,47.4601 -0.0985,81.4046 -0.23633,81.4898 -0.70964,0.4386 -18.53575,2.6839 -27.54492,3.4695 -5.5798,0.4866 -20.22182,0.7107 -24.06134,0.3684 z m 17.04988,-20.0868 c 2.18281,-0.1366 5.07008,-0.3269 6.41614,-0.4229 l 2.4474,-0.1747 v -39.4907 -39.4907 l -0.79468,-0.1589 c -0.43706,-0.087 -2.96714,-0.4204 -5.62239,-0.7399 -6.76736,-0.8144 -16.16739,-0.8227 -20.5758,-0.018 -15.88646,2.8997 -24.48274,12.3908 -27.13085,29.9551 -0.50017,3.3173 -0.73123,13.791 -0.36775,16.6685 1.98345,15.7019 9.49315,26.3493 22.08001,31.3055 3.54822,1.3971 6.23528,2.0093 11.64167,2.6521 1.66978,0.1985 8.10382,0.1524 11.90625,-0.085 z m -265.77396,18.7595 c -25.83342,-1.9999 -37.95147,-12.0208 -39.96955,-33.0525 -0.37661,-3.9251 -0.19005,-9.971 0.41233,-13.3615 1.87356,-10.5456 7.71046,-18.1906 17.49292,-22.9117 10.83525,-5.2292 26.13002,-7.0258 51.23197,-6.018 4.32778,0.1737 7.93802,0.2466 8.02274,0.1619 0.28975,-0.2898 -0.40219,-11.9695 -0.82716,-13.9624 -1.1244,-5.2728 -4.03858,-8.3071 -9.38504,-9.772 -4.41669,-1.2101 -6.72835,-1.4057 -17.5855,-1.4875 -10.92645,-0.082 -13.9531,0.1079 -23.41563,1.4713 -3.50591,0.5052 -16.5154,2.7147 -17.92552,3.0445 l -0.59531,0.1392 v -10.3136 -10.3136 l 0.99218,-0.2645 c 1.37615,-0.3669 11.19548,-2.027 14.88282,-2.5162 11.86584,-1.5743 25.35772,-2.1045 37.17396,-1.4611 16.78268,0.9138 26.15776,3.9043 33.00272,10.5273 5.89224,5.7012 8.81758,13.299 9.4788,24.6189 0.17135,2.9333 0.24339,19.1803 0.19434,43.82 l -0.0779,39.1584 -3.96875,0.4389 c -4.78666,0.5294 -15.7362,1.4366 -22.09271,1.8305 -5.94474,0.3684 -33.05754,0.5321 -37.04167,0.2237 z m 32.27917,-18.2313 c 2.25557,-0.1538 4.60705,-0.3441 5.22552,-0.4229 l 1.12448,-0.1432 v -18.8607 -18.8606 l -3.50573,-0.1756 c -8.16489,-0.4088 -20.76813,-0.5037 -24.93698,-0.1876 -10.63374,0.8062 -16.74832,2.7422 -20.83417,6.5966 -3.16966,2.9901 -4.68439,6.9969 -4.69352,12.4153 -0.0206,12.2918 7.70503,18.6787 24.07213,19.9004 3.72468,0.278 17.9536,0.1199 23.54827,-0.2617 z m 82.68229,18.2278 c -6.82956,-0.4937 -16.39462,-1.7567 -24.47396,-3.2318 l -4.63021,-0.8453 -0.0691,-10.8113 -0.0691,-10.8112 0.71009,0.1783 c 2.6571,0.6669 18.497,3.6826 22.18235,4.2232 11.39407,1.6716 21.55775,1.538 29.78081,-0.3912 6.83461,-1.6035 11.68024,-4.6036 13.35932,-8.2712 2.43041,-5.3087 0.72538,-10.7349 -4.48493,-14.2732 -3.69885,-2.5118 -8.05968,-3.9075 -19.60279,-6.2737 -17.4588,-3.579 -27.20216,-7.5345 -33.76883,-13.7093 -5.70994,-5.3692 -8.32458,-11.5294 -8.62951,-20.3317 -0.48126,-13.8912 5.42583,-24.0101 17.65657,-30.2456 11.31638,-5.7695 27.27899,-7.3637 50.27165,-5.0207 4.43,0.4514 14.69424,1.7908 17.39635,2.27 l 0.8599,0.1525 v 10.4562 10.4562 l -0.8599,-0.1503 c -0.47294,-0.083 -3.65786,-0.6271 -7.0776,-1.2099 -26.02595,-4.4355 -43.72388,-3.1582 -50.05737,3.6128 -1.55739,1.665 -2.22514,2.9852 -2.60066,5.1414 -0.94309,5.4157 2.25268,9.2904 10.06011,12.1974 2.90881,1.083 6.45076,2.0028 14.94896,3.8821 16.34739,3.615 23.58157,6.1105 30.11043,10.3867 2.94857,1.9312 6.80628,5.7155 8.49466,8.3331 5.73717,8.8945 6.09672,22.6429 0.86429,33.0483 -3.50293,6.966 -10.21197,12.8376 -18.5673,16.2498 -5.32929,2.1765 -11.45444,3.721 -18.38854,4.6371 -3.84423,0.5078 -18.25807,0.7241 -23.41562,0.3513 z m 248.04687,0.1174 c -25.66511,-1.7362 -38.05314,-10.9441 -41.06166,-30.5206 -0.54571,-3.5509 -0.45826,-12.7625 0.15195,-16.0073 2.02843,-10.786 7.92609,-18.4471 17.72171,-23.0205 11.55414,-5.3945 26.75141,-6.9941 54.90636,-5.7794 l 4.0694,0.1756 -0.14494,-6.0607 c -0.20132,-8.4181 -0.91853,-11.3008 -3.50727,-14.097 -1.76069,-1.9017 -3.85884,-3.0463 -7.08429,-3.8645 -4.45585,-1.1303 -7.23924,-1.3288 -18.56896,-1.3241 -11.17119,0 -13.68923,0.1885 -23.8125,1.7392 -3.42739,0.525 -14.80664,2.494 -15.94422,2.7589 l -0.59841,0.1394 0.0692,-10.3873 0.0692,-10.3873 3.04271,-0.5838 c 14.46424,-2.7754 28.81849,-3.9977 43.39166,-3.6949 13.22057,0.2747 21.08618,1.3057 27.64896,3.6241 11.70834,4.1361 18.4241,12.2962 20.62406,25.0593 0.85074,4.9357 0.93819,9.5456 0.93885,49.4816 0,31.7842 -0.0675,40.0502 -0.3301,40.1413 -0.86505,0.2999 -17.06575,1.7215 -25.86302,2.2694 -4.42838,0.2758 -32.68712,0.5436 -35.71875,0.3386 z m 30.95625,-18.3452 c 2.25558,-0.1538 4.60706,-0.3441 5.22552,-0.4229 l 1.12448,-0.1432 v -18.8613 -18.8613 l -3.37343,-0.1711 c -13.88931,-0.7044 -25.78111,-0.4736 -32.21302,0.6252 -12.65018,2.1612 -18.38855,7.7907 -18.38855,18.0398 0,3.7261 0.55409,6.4308 1.87206,9.1381 3.22461,6.6238 10.16064,9.9982 22.46961,10.9315 3.49594,0.2651 17.8517,0.096 23.28333,-0.2748 z m -583.670837,-60.8607 v -76.9957 l 16.961488,0.068 16.961458,0.068 2.83869,4.8948 c 1.56128,2.6921 6.2103,10.7289 10.33116,17.8594 4.12086,7.1305 10.0747,17.4294 13.23078,22.8864 3.15606,5.4571 8.42076,14.5654 11.69932,20.2407 3.27856,5.6753 9.91754,17.1648 14.753271,25.5323 4.83574,8.3674 10.53629,18.2443 12.66794,21.9486 l 3.87569,6.7352 0.0667,-60.1148 0.0667,-60.1149 h 12.30257 12.30254 v 76.9938 76.9937 h -17.15172 -17.15169 l -2.0012,-3.5057 c -1.10064,-1.9282 -8.03932,-14.0428 -15.419261,-26.9214 -7.37994,-12.8785 -16.3146,-28.4757 -19.85478,-34.6604 -22.42018,-39.1676 -31.531228,-55.0318 -31.925698,-55.5893 -0.42304,-0.5977 -0.44995,2.8926 -0.46302,60.0211 l -0.0139,60.6557 H 29.274191 17.235653 Z"
         style="fill:#ffffff;stroke-width:0.26458332" />
    </g>
  </g>
</svg>
