<?xml version="1.0" encoding="UTF-8" standalone="no"?>
<!-- Created with Inkscape (http://www.inkscape.org/) -->

<svg
   xmlns:dc="http://purl.org/dc/elements/1.1/"
   xmlns:cc="http://creativecommons.org/ns#"
   xmlns:rdf="http://www.w3.org/1999/02/22-rdf-syntax-ns#"
   xmlns:svg="http://www.w3.org/2000/svg"
   xmlns="http://www.w3.org/2000/svg"
   xmlns:sodipodi="http://sodipodi.sourceforge.net/DTD/sodipodi-0.dtd"
   xmlns:inkscape="http://www.inkscape.org/namespaces/inkscape"
   width="79.868896mm"
   height="31.891098mm"
   viewBox="0 0 283.00003 112.99995"
   id="svg2"
   version="1.1"
   inkscape:version="0.91 r13725"
   sodipodi:docname="serokell.svg">
  <defs
     id="defs4" />
  <sodipodi:namedview
     id="base"
     pagecolor="#ffffff"
     bordercolor="#666666"
     borderopacity="1.0"
     inkscape:pageopacity="0.0"
     inkscape:pageshadow="2"
     inkscape:zoom="0.45254834"
     inkscape:cx="102.22524"
     inkscape:cy="-290.42426"
     inkscape:document-units="px"
     inkscape:current-layer="layer1"
     showgrid="false"
     fit-margin-top="0"
     fit-margin-left="0"
     fit-margin-right="0"
     fit-margin-bottom="0"
     inkscape:window-width="952"
     inkscape:window-height="1047"
     inkscape:window-x="73"
     inkscape:window-y="24"
     inkscape:window-maximized="0"
     borderlayer="false" />
  <metadata
     id="metadata7">
    <rdf:RDF>
      <cc:Work
         rdf:about="">
        <dc:format>image/svg+xml</dc:format>
        <dc:type
           rdf:resource="http://purl.org/dc/dcmitype/StillImage" />
        <dc:title></dc:title>
      </cc:Work>
    </rdf:RDF>
  </metadata>
  <g
     inkscape:label="Layer 1"
     inkscape:groupmode="layer"
     id="layer1"
     transform="translate(-794.50106,109.93727)">
    <path
       style="fill:#3c3b40"
       d="m 810.78318,2.9265054 c -3.73017,-0.0749 -7.77926,-0.32919 -8.99799,-0.56508 -1.21872,-0.23589 -3.35622,-1.78414004 -4.75,-3.44054 -2.27325,-2.70161 -2.53413,-3.8788 -2.53413,-11.4349204 l 0,-8.42328 5,0 5,0 0,7.5 0,7.5000004 6,0 6,0 0,-7.5030504 0,-7.50305 -11,-19.27196 -11,-19.27196 0,-8.70921 c 0,-8.16055 0.1794,-8.90999 2.84762,-11.89626 2.69083,-3.01155 3.31095,-3.21136 11.2619,-3.62868 6.21486,-0.3262 9.40079,-0.0295 12.18837,1.13528 2.68954,1.12376 4.20745,2.61408 5.28212,5.18614 0.97193,2.32615 1.40351,5.98281 1.21401,10.28599 l -0.29402,6.67676 -5.25,0.30226 -5.25,0.30226 0,-7.55226 0,-7.55226 -6,0 -6,0 0,6.2951 c 0,6.14884 0.22333,6.67744 9.61152,22.75 5.28633,9.0502 10.45145,18.2549 11.47803,20.4549 1.27511,2.73258 1.87348,6.30738 1.88849,11.28212 0.0126,4.1811104 -0.60147,8.7742004 -1.44205,10.7859904 -0.99508,2.38155996 -2.58632,3.97279996 -4.96788,4.96788 -2.06485,0.86275 -6.28925,1.40808 -10.28599,1.32783 z m 146.21788,0.13618 -120.5,0 0,-4.5 0,-4.5 120.5,0 120.50004,0 0,4.5 0,4.5 -120.50004,0 z M 854.30072,-13.976455 c -4.70711,-0.0222 -9.6509,-0.62723 -11.42136,-1.39778 -1.71693,-0.74725 -3.85443,-2.40476 -4.75,-3.68336 -1.40785,-2.01 -1.6263,-5.98385 -1.61356,-29.35222 0.0107,-19.58571 0.35869,-27.71585 1.26391,-29.5275 0.68705,-1.375 2.81791,-3.2868 4.73526,-4.24844 2.40231,-1.20488 5.84907,-1.74893 11.08687,-1.75 4.18042,-8.6e-4 8.98823,0.48211 10.68401,1.07327 1.69578,0.59115 3.90043,2.27865 4.89923,3.75 1.53818,2.26594 1.81598,4.79113 1.81598,16.5072 l 0,13.83203 -3.26578,2.91797 c -3.09468,2.7651 -3.73645,2.91797 -12.25,2.91797 l -8.98422,0 0,10 0,10 7,0 7,0 0,-5 0,-5 5.5,0 5.5,0 0,4.53212 c 0,2.49267 -0.63955,6.06278 -1.42122,7.93358 -0.79018,1.89116 -2.7662,4.09698 -4.45034,4.96788 -2.05994,1.06524 -5.68465,1.5539 -11.32878,1.52728 z m -0.79966,-37.96086 7,0 0,-11.5 0,-11.5 -7,0 -7,0 0,11.5 0,11.5 7,0 z m 32.98534,38 -4.98534,0 0,-35 0,-35 5,0 c 4.75357,0 5,0.13181 5,2.67432 l 0,2.67431 2.53725,-2.38362 c 1.98633,-1.86606 3.66913,-2.39246 7.75,-2.42432 l 5.21275,-0.0407 0.30539,4.20694 0.3054,4.20694 -7.8054,0.29306 -7.80539,0.29306 -0.26466,30.25 -0.26467,30.25 -4.98533,0 z m 43.69956,-0.0391 c -4.68771,-0.0224 -9.54589,-0.63107 -11.37019,-1.42451 -1.7519,-0.76196 -3.8894,-2.747 -4.75,-4.4112 -1.30184,-2.51749 -1.56471,-7.39122 -1.56471,-29.01039 0,-14.46008 0.43246,-27.12201 0.97507,-28.5492 0.5363,-1.41055 2.4488,-3.46316 4.25,-4.56136 2.57534,-1.57018 5.04416,-1.99752 11.55705,-2.00046 4.90401,-0.002 9.66951,0.57595 11.68358,1.41748 1.89116,0.79018 4.09698,2.76621 4.96788,4.45034 1.30571,2.52497 1.5658,7.40635 1.56268,29.32878 -0.003,24.52146 -0.13874,26.52109 -2.00046,29.57459 -1.09819,1.80121 -3.15081,3.71371 -4.56136,4.25 -1.41055,0.53629 -6.24784,0.95746 -10.74954,0.93593 z m -0.1849,-8.96086 6.5,0 0,-26 0,-26 -6.5,0 -6.5,0 0,26 0,26 6.5,0 z m 33.46277,8.7961 c -2.49548,0.16286 -4.85798,-0.0247 -5.25,-0.41666 -0.39202,-0.39203 -0.71277,-22.01277 -0.71277,-48.0461 l 0,-47.333335 5.5,0 5.5,0 0,27.499995 c 0,22.78109 0.23799,27.5 1.3869,27.5 0.83628,0 3.77476,-5.65754 7.40135,-14.25 l 6.01444,-14.25 5.09865,-0.30226 c 2.80427,-0.16624 5.09866,-0.0948 5.09866,0.1588 0,0.25358 -2.65966,6.67403 -5.91036,14.26767 l -5.91036,13.8066 2.74005,1.66633 c 1.50703,0.91648 3.25421,2.95704 3.88263,4.53459 0.62842,1.57755 1.83006,9.26133 2.67031,17.07508 0.84025,7.81374 1.52773,15.12624 1.52773,16.25 0,1.78516 -0.63143,2.04319 -5,2.04319 -3.32273,0 -5.00667,-0.41931 -5.01988,-1.25 -0.0109,-0.6875 -0.67699,-7.325 -1.48012,-14.75 -0.80313,-7.425 -1.46919,-14.0625 -1.48012,-14.75 -0.0135,-0.84536 -1.79207,-1.25 -5.49449,-1.25 l -5.4746,0 -0.2754,15.75 -0.27539,15.75 -4.53723,0.2961 z m 55.03727,0.18761 c -6.1177,0.01 -9.4771,-0.47687 -11.9861,-1.73526 -1.9174,-0.96165 -4.0482,-2.87345 -4.7353,-4.24845 -0.9026,-1.80645 -1.2533,-9.79603 -1.2639,-28.79966 -0.012,-21.93773 0.2451,-26.80205 1.5517,-29.32878 0.8709,-1.68413 3.0767,-3.66016 4.9679,-4.45034 1.9224,-0.80325 6.6905,-1.42122 10.9657,-1.42122 4.3789,0 9.0397,0.6165 11.0681,1.46401 2.4397,1.01936 3.9723,2.58511 5.0461,5.15518 1.1802,2.82464 1.4652,6.5845 1.2141,16.01607 -0.3178,11.93229 -0.4165,12.41314 -3.0965,15.09482 -2.5259,2.52742 -3.5765,2.8137 -12,3.26992 l -9.2318,0.5 -0.2863,9.75 -0.2862,9.75 7.0363,0 7.0362,0 0,-5 0,-5 5.5,0 5.5,0 0,4.75 c -9e-4,2.6125 -0.7884,6.31874 -1.75,8.23609 -0.9617,1.91735 -2.8735,4.04822 -4.2485,4.73526 -1.4025,0.70081 -6.2313,1.25496 -11,1.26236 z m -1.0327,-37.98371 7.0327,0 0,-11.54569 0,-11.54569 -6.75,0.29569 -6.75,0.29569 -0.2828,11.25 -0.2827,11.25 7.0328,0 z m 33.0327,38 -5,0 0,-48 0,-47.999995 5,0 5,0 0,47.999995 0,48 -5,0 z m 22,0 -5,0 0,-48 0,-47.999995 5,0 5,0 0,47.999995 0,48 -5,0 z"
       id="path4561"
       inkscape:connector-curvature="0" />
  </g>
</svg>
