<?xml version="1.0" encoding="UTF-8" standalone="no"?>
<!-- Created with Inkscape (http://www.inkscape.org/) -->

<svg
   xmlns:dc="http://purl.org/dc/elements/1.1/"
   xmlns:cc="http://creativecommons.org/ns#"
   xmlns:rdf="http://www.w3.org/1999/02/22-rdf-syntax-ns#"
   xmlns:svg="http://www.w3.org/2000/svg"
   xmlns="http://www.w3.org/2000/svg"
   xmlns:sodipodi="http://sodipodi.sourceforge.net/DTD/sodipodi-0.dtd"
   xmlns:inkscape="http://www.inkscape.org/namespaces/inkscape"
   width="45.35487mm"
   height="15.875134mm"
   viewBox="0 0 45.35487 15.875133"
   version="1.1"
   id="svg8"
   sodipodi:docname="yahoo-finance-logo.svg"
   inkscape:version="0.92.1 r15371">
  <defs
     id="defs2" />
  <sodipodi:namedview
     id="base"
     pagecolor="#ffffff"
     bordercolor="#666666"
     borderopacity="1.0"
     inkscape:pageopacity="0.0"
     inkscape:pageshadow="2"
     inkscape:zoom="0.98994949"
     inkscape:cx="27.335341"
     inkscape:cy="144.57107"
     inkscape:document-units="mm"
     inkscape:current-layer="layer1"
     showgrid="false"
     inkscape:window-width="1920"
     inkscape:window-height="1043"
     inkscape:window-x="0"
     inkscape:window-y="0"
     inkscape:window-maximized="1" />
  <metadata
     id="metadata5">
    <rdf:RDF>
      <cc:Work
         rdf:about="">
        <dc:format>image/svg+xml</dc:format>
        <dc:type
           rdf:resource="http://purl.org/dc/dcmitype/StillImage" />
        <dc:title></dc:title>
      </cc:Work>
    </rdf:RDF>
  </metadata>
  <g
     inkscape:label="Layer 1"
     inkscape:groupmode="layer"
     id="layer1"
     transform="translate(-74.756972,-154.34291)">
    <path
       style="fill:#ffffff;stroke-width:0.04731719"
       d="m 93.002051,169.09844 c -0.505472,-0.61356 -0.934548,-1.11695 -0.953503,-1.11865 -0.01896,-0.002 -0.03446,0.49024 -0.03446,1.09319 v 1.09626 h -0.206783 -0.206784 v -1.60786 -1.60786 h 0.200803 c 0.195745,0 0.211765,0.0126 0.635892,0.49942 0.239298,0.27467 0.629707,0.73326 0.867578,1.01908 0.237869,0.28582 0.448001,0.52152 0.466956,0.52377 0.01896,0.002 0.03446,-0.45633 0.03446,-1.01908 v -1.02319 h 0.206785 0.206783 v 1.63223 1.63222 l -0.149343,-0.002 c -0.136647,-0.002 -0.227483,-0.0968 -1.068382,-1.11755 z m 6.640052,-0.014 -0.942013,-1.13113 -0.01235,1.10796 -0.01235,1.10795 h -0.228897 -0.228897 v -1.60786 -1.60786 h 0.227725 0.227723 l 0.851743,0.99921 c 0.468459,0.54957 0.864353,0.99356 0.879773,0.98664 0.0154,-0.007 0.0311,-0.45107 0.0349,-0.98702 l 0.007,-0.97447 0.21827,-0.0148 0.21827,-0.0148 v 1.63489 1.63489 l -0.14934,-0.001 c -0.1367,-0.001 -0.22905,-0.0969 -1.091358,-1.13232 z m 3.025307,1.04001 c -0.47789,-0.16205 -0.828,-0.4796 -1.01845,-0.92372 -0.12639,-0.29475 -0.13425,-0.9576 -0.0148,-1.2484 0.29474,-0.71762 0.89918,-1.08062 1.72926,-1.03854 0.50123,0.0254 0.82192,0.17789 1.12445,0.53467 0.11493,0.13553 0.20896,0.26126 0.20896,0.27938 0,0.0181 -0.0645,0.0734 -0.14339,0.12276 l -0.14339,0.0898 -0.21027,-0.22936 c -0.28871,-0.31494 -0.52236,-0.43622 -0.83556,-0.4337 -0.45791,0.004 -0.84649,0.33021 -0.96954,0.81472 -0.0698,0.27495 -0.0331,0.89304 0.0658,1.10793 0.10807,0.2348 0.33886,0.47986 0.53616,0.5693 0.21091,0.0956 0.62969,0.0948 0.80478,-0.002 0.0762,-0.0419 0.2458,-0.19657 0.37697,-0.34362 l 0.23848,-0.26737 0.14939,0.11686 0.14939,0.11686 -0.29884,0.30917 c -0.37332,0.38621 -0.67272,0.51961 -1.15767,0.51577 -0.18663,-0.001 -0.44513,-0.0412 -0.59168,-0.0909 z m -15.432325,-1.56307 v -1.60786 h 1.07987 1.07987 v 0.12058 0.12057 l -0.723742,0.0134 -0.723743,0.0134 v 0.53596 0.53595 l 0.631839,0.0136 0.631838,0.0136 v 0.12043 0.12043 h -0.643326 -0.643327 v 0.80393 0.80393 h -0.344639 -0.34464 z m 2.803067,0 v -1.60786 h 0.367615 0.367616 v 1.60786 1.60786 h -0.367616 -0.367615 z m 4.68049,1.42515 c 0.04794,-0.10049 0.129686,-0.28137 0.18165,-0.40196 0.05196,-0.12059 0.341916,-0.76739 0.644333,-1.43733 l 0.549853,-1.21808 0.159649,-0.0147 c 0.09886,-0.009 0.169331,0.009 0.18508,0.0487 0.01398,0.0349 0.183642,0.42524 0.377014,0.8674 0.51571,1.17922 0.987806,2.28497 0.987806,2.31365 0,0.0138 -0.160917,0.0251 -0.35759,0.0251 h -0.357591 l -0.180881,-0.43851 -0.180882,-0.43851 h -0.61144 -0.611441 l -0.191541,0.43851 -0.191541,0.43851 h -0.244823 -0.244821 z m 1.844683,-1.02927 c 0,-0.11451 -0.421949,-0.99104 -0.458157,-0.95175 -0.02245,0.0243 -0.134134,0.25806 -0.248185,0.51933 l -0.207368,0.47505 h 0.456854 c 0.251272,0 0.456856,-0.0192 0.456856,-0.0426 z m 8.776815,-0.39588 v -1.60786 h 1.12582 1.12583 v 0.12181 0.12181 h -0.75821 -0.75821 v 0.56032 0.56031 h 0.62035 0.62035 v 0.12181 0.1218 h -0.62035 -0.62035 v 0.65776 0.65777 h 0.75821 0.75821 v 0.14617 0.14616 h -1.12583 -1.12582 z m -27.112236,-3.4663 c -3.3e-4,-0.22395 0.02323,-1.28634 0.05236,-2.36088 l 0.05297,-1.95371 -0.865426,-1.60308 c -0.972176,-1.80081 -2.081983,-3.78206 -2.467282,-4.40464 -0.140966,-0.22778 -0.250415,-0.42048 -0.243219,-0.42823 0.0072,-0.008 0.09327,0.0142 0.191268,0.0487 0.15955,0.0563 0.890656,0.0449 1.113739,-0.0173 0.03934,-0.011 0.207303,0.24418 0.453625,0.68908 0.478469,0.86418 2.234633,3.93559 2.32328,4.06326 0.07324,0.10547 0.07015,0.11054 1.861916,-3.0547 0.779722,-1.37741 1.002883,-1.73758 1.061003,-1.71239 0.138468,0.06 0.85453,0.0796 1.060321,0.029 0.113046,-0.0278 0.210641,-0.0451 0.216878,-0.0385 0.0062,0.007 -0.118984,0.21916 -0.278269,0.47231 -0.349865,0.55606 -1.538899,2.68248 -2.557858,4.57437 l -0.746269,1.3856 0.05756,2.33186 c 0.03166,1.28252 0.04993,2.33953 0.0406,2.34891 -0.0093,0.009 -0.141026,-0.004 -0.292668,-0.0305 -0.254386,-0.0439 -0.818793,-0.0195 -0.969689,0.0419 -0.05182,0.0211 -0.06435,-0.0525 -0.06483,-0.38105 z m 4.077881,-10.54664 c -0.01527,-0.0162 -0.0549,-0.0179 -0.08808,-0.004 -0.03666,0.0156 -0.02577,0.0271 0.02776,0.0294 0.04844,0.002 0.07558,-0.009 0.06031,-0.0256 z m 35.364005,10.85144 c -0.22899,-0.11349 -0.3362,-0.30638 -0.3362,-0.6049 0,-0.24359 0.14079,-0.50727 0.32305,-0.60506 0.27078,-0.14528 0.72739,-0.0395 0.91438,0.21192 0.089,0.11961 0.10143,0.18426 0.0859,0.44588 -0.0158,0.26474 -0.0376,0.32655 -0.16211,0.45858 -0.18786,0.19919 -0.53291,0.23832 -0.82498,0.0936 z m -6.9303,-0.5158 c -2.04088,-0.34507 -3.37439,-1.55521 -3.86758,-3.50976 -0.1121,-0.44424 -0.12306,-0.56776 -0.12531,-1.41255 -0.002,-0.80029 0.0113,-0.98389 0.0995,-1.35484 0.3946,-1.66124 1.41043,-2.83369 2.93426,-3.38665 0.79673,-0.28911 1.94788,-0.41072 2.87114,-0.30333 2.22974,0.25938 3.72024,1.49816 4.25259,3.53441 0.0916,0.35028 0.11984,0.59641 0.14048,1.22335 0.0302,0.91669 -0.0228,1.40353 -0.22225,2.04109 -0.54615,1.74618 -1.88432,2.86975 -3.76811,3.16384 -0.58615,0.0915 -1.78614,0.0938 -2.31467,0.004 z m 1.70022,-0.48565 c 0.72939,-0.0593 1.50028,-0.40823 2.02223,-0.91534 0.62458,-0.60684 0.9831,-1.36232 1.15064,-2.42473 0.10072,-0.63867 0.0756,-2.03721 -0.0464,-2.58264 -0.34712,-1.55183 -1.21236,-2.54479 -2.55337,-2.93025 -0.33275,-0.0956 -0.49601,-0.1115 -1.1245,-0.10918 -0.85759,0.003 -1.22164,0.0843 -1.86105,0.41483 -0.32015,0.16549 -0.46553,0.28196 -0.80618,0.64586 -0.34649,0.37015 -0.45143,0.52092 -0.63119,0.90683 -0.34337,0.73718 -0.49286,1.5135 -0.49234,2.55668 1.4e-4,0.29548 0.0313,0.75531 0.0692,1.02185 0.0379,0.26655 0.0571,0.52965 0.0427,0.58468 -0.0187,0.0712 -0.0139,0.0812 0.0167,0.0345 0.0322,-0.0493 0.0505,-0.0311 0.0736,0.0731 0.1118,0.50487 0.48996,1.22803 0.86366,1.65161 0.17512,0.19848 0.24865,0.3141 0.21045,0.33088 -0.0323,0.0142 -0.007,0.0217 0.0561,0.0167 0.0742,-0.006 0.1104,0.0138 0.10225,0.0554 -0.007,0.0355 0.009,0.0506 0.0348,0.0335 0.0261,-0.0171 0.10413,0.0113 0.17346,0.0631 0.13353,0.0997 0.50824,0.31242 0.58557,0.33234 0.0253,0.007 0.1907,0.0579 0.36762,0.11428 0.30693,0.0977 1.06589,0.19363 1.30963,0.16544 0.0632,-0.007 0.25963,-0.0251 0.43654,-0.0394 z m -3.97484,-1.19658 c 0,-0.0268 -0.0219,-0.0487 -0.0487,-0.0487 -0.0268,0 -0.0359,0.0219 -0.0203,0.0487 0.0156,0.0268 0.0375,0.0487 0.0487,0.0487 0.0112,0 0.0203,-0.0219 0.0203,-0.0487 z m 0.29177,-0.26954 c -0.0359,-0.0992 -0.0576,-0.0893 -0.0496,0.0225 0.004,0.0517 0.0222,0.0839 0.0411,0.0715 0.0189,-0.0124 0.0228,-0.0547 0.008,-0.0941 z m -8.0928,1.41746 c -1.146977,-0.23007 -1.979131,-0.7301 -2.559042,-1.5377 -0.623092,-0.86774 -0.89744,-1.90901 -0.838329,-3.18182 0.116606,-2.51079 1.704023,-4.1053 4.190741,-4.20946 1.02715,-0.043 1.84524,0.12094 2.61928,0.52498 0.16326,0.0852 0.28782,0.17042 0.2768,0.18934 -0.011,0.0189 0.007,0.0344 0.0389,0.0344 0.1727,0 1.03284,0.83569 0.9704,0.94282 -0.0161,0.0277 -0.005,0.0443 0.0248,0.0369 0.0762,-0.0188 0.46881,0.71835 0.58861,1.10527 0.1842,0.59497 0.24988,1.15597 0.22269,1.90217 -0.0497,1.36254 -0.43186,2.32468 -1.24309,3.12931 -0.48271,0.47878 -1.03797,0.78028 -1.82797,0.99256 -0.49748,0.13367 -1.94408,0.1755 -2.46387,0.0712 z m 1.84119,-0.4946 c 0.84301,-0.1976 1.50026,-0.74862 1.88739,-1.58234 0.36569,-0.78756 0.41425,-1.06134 0.41425,-2.33542 0,-1.2684 -0.0494,-1.55058 -0.40506,-2.31435 -0.50112,-1.07608 -1.30881,-1.61285 -2.50786,-1.66666 -0.65751,-0.0295 -1.07481,0.0553 -1.58534,0.32226 -0.780424,0.40805 -1.281721,1.14663 -1.550192,2.28394 -0.08625,0.36536 -0.100071,0.55748 -0.09892,1.37481 0.0014,1.01216 0.04289,1.32269 0.262162,1.96321 0.158872,0.46409 0.378547,0.83086 0.709053,1.18386 0.206555,0.22061 0.259598,0.30101 0.189078,0.28661 -0.05391,-0.011 -0.08315,-0.004 -0.06497,0.015 0.01817,0.0193 0.08818,0.035 0.155561,0.035 0.07741,0 0.117868,0.0238 0.109898,0.0645 -0.007,0.0355 0.007,0.0519 0.0304,0.0364 0.0236,-0.0155 0.14759,0.0276 0.27547,0.0957 0.56723,0.30208 1.47949,0.40152 2.17913,0.23752 z m -2.924195,-0.57809 c 0,-0.039 -0.01757,-0.0594 -0.03904,-0.0454 -0.02147,0.0141 -0.02715,0.046 -0.01261,0.0709 0.03716,0.0637 0.05165,0.0566 0.05165,-0.0256 z m -0.1962,-0.35945 c 0.01302,-0.0223 -0.0055,-0.0406 -0.04122,-0.0406 -0.03569,0 -0.05423,0.0183 -0.04122,0.0406 0.01303,0.0223 0.03157,0.0406 0.04122,0.0406 0.0097,0 0.0282,-0.0183 0.04122,-0.0406 z m -18.307107,1.37819 c 0,-0.0133 0.08025,-0.19366 0.178335,-0.40075 0.553196,-1.16796 1.462496,-3.40367 2.630205,-6.4669 0.686428,-1.80069 0.729914,-1.89894 0.83045,-1.87622 0.137045,0.031 0.626313,0.031 0.764456,0 0.100455,-0.0225 0.129228,0.0351 0.474411,0.95049 1.232052,3.26716 2.394167,6.14632 2.97653,7.3744 0.106153,0.22385 0.186529,0.41305 0.178614,0.42044 -0.0079,0.007 -0.158738,-0.009 -0.335162,-0.0364 -0.229082,-0.0356 -0.418298,-0.0338 -0.661971,0.006 -0.187661,0.0309 -0.344974,0.0505 -0.349584,0.0435 -0.0046,-0.007 -0.223682,-0.58805 -0.486826,-1.29125 l -0.478444,-1.27854 -1.701326,-3.6e-4 -1.701326,-3.7e-4 -0.48139,1.29197 -0.48139,1.29197 -0.206784,-0.0374 c -0.251385,-0.0454 -0.795301,-0.0454 -0.999454,5e-5 -0.08214,0.0183 -0.149344,0.0223 -0.149344,0.009 z m 5.469804,-3.2256 c -0.02091,-0.0737 -0.21366,-0.60538 -0.428344,-1.18153 -0.50866,-1.36511 -0.997256,-2.75036 -0.999347,-2.83332 -9.03e-4,-0.0361 -0.111994,0.25221 -0.246852,0.64078 -0.134857,0.38857 -0.464966,1.30103 -0.733574,2.0277 -0.268609,0.72667 -0.488379,1.34664 -0.488379,1.37771 0,0.0417 0.373945,0.0555 1.429643,0.0525 0.786304,-0.002 1.441119,0.008 1.455144,0.0231 0.04737,0.0502 0.04986,0.0275 0.01171,-0.10695 z m 3.155862,1.70447 c 0.04585,-1.95458 0.04598,-3.64752 4.16e-4,-5.6767 l -0.03586,-1.59698 0.127763,0.0378 c 0.141521,0.0419 0.876776,0.0513 1.092754,0.014 0.07743,-0.0134 0.134816,-0.003 0.130922,0.0244 -0.03563,0.24763 -0.106262,3.99167 -0.07591,4.02385 0.02859,0.0303 3.370043,0.0633 4.551665,0.0449 0.07332,-0.001 0.07775,-1.50898 0.0089,-3.03965 -0.02634,-0.586 -0.04172,-1.07124 -0.03416,-1.07831 0.02881,-0.0269 0.310591,0.0368 0.293323,0.0663 -0.02394,0.041 0.891726,-0.0191 0.995496,-0.0653 0.07557,-0.0336 0.07829,0.0216 0.04595,0.9317 -0.04503,1.26728 -0.04418,5.72814 0.0014,6.92463 l 0.0357,0.9387 -0.19653,-0.0373 c -0.253922,-0.0482 -0.738756,-0.0478 -0.995961,9.2e-4 l -0.202051,0.0383 0.02998,-0.37932 c 0.01648,-0.20863 0.04347,-1.13027 0.05996,-2.04809 l 0.02998,-1.66877 h -2.333996 -2.33392 l 0.02857,0.93792 c 0.01572,0.51586 0.04187,1.43675 0.05811,2.04644 l 0.02954,1.10851 -0.155406,-0.0366 c -0.195351,-0.046 -0.841303,-0.046 -1.041787,10e-5 l -0.151151,0.0347 0.03627,-1.54612 z m 28.549436,0.27092 c -0.11373,-0.0266 -0.21236,-0.0539 -0.21917,-0.0607 -0.007,-0.007 0.0607,-0.63496 0.15004,-1.39593 0.13273,-1.13057 0.30482,-3.05904 0.55392,-6.20717 0.0364,-0.46009 0.0931,-0.63173 0.25704,-0.77798 0.24916,-0.2223 0.85416,-0.14247 1.02585,0.13535 0.15494,0.25074 0.13785,0.39964 -0.24478,2.13213 -0.63667,2.88275 -0.86032,3.97749 -1.15643,5.6606 -0.0554,0.31487 -0.11399,0.57015 -0.1302,0.56728 -0.0162,-0.003 -0.12254,-0.027 -0.23627,-0.0536 z"
       id="path4496"
       inkscape:connector-curvature="0" />
  </g>
</svg>
