<?xml version="1.0" encoding="UTF-8" standalone="no"?>
<!-- Created with Inkscape (http://www.inkscape.org/) -->

<svg
   xmlns:dc="http://purl.org/dc/elements/1.1/"
   xmlns:cc="http://creativecommons.org/ns#"
   xmlns:rdf="http://www.w3.org/1999/02/22-rdf-syntax-ns#"
   xmlns:svg="http://www.w3.org/2000/svg"
   xmlns="http://www.w3.org/2000/svg"
   xmlns:sodipodi="http://sodipodi.sourceforge.net/DTD/sodipodi-0.dtd"
   xmlns:inkscape="http://www.inkscape.org/namespaces/inkscape"
   width="45.354874mm"
   height="15.875mm"
   viewBox="0 0 45.354874 15.875"
   version="1.1"
   id="svg8"
   sodipodi:docname="yahoo-finance-logo-hover.svg"
   inkscape:version="0.92.1 r15371">
  <defs
     id="defs2" />
  <sodipodi:namedview
     id="base"
     pagecolor="#ffffff"
     bordercolor="#666666"
     borderopacity="1.0"
     inkscape:pageopacity="0.0"
     inkscape:pageshadow="2"
     inkscape:zoom="0.98994949"
     inkscape:cx="165.88815"
     inkscape:cy="144.57109"
     inkscape:document-units="mm"
     inkscape:current-layer="layer1"
     showgrid="false"
     inkscape:window-width="1920"
     inkscape:window-height="1043"
     inkscape:window-x="0"
     inkscape:window-y="0"
     inkscape:window-maximized="1" />
  <metadata
     id="metadata5">
    <rdf:RDF>
      <cc:Work
         rdf:about="">
        <dc:format>image/svg+xml</dc:format>
        <dc:type
           rdf:resource="http://purl.org/dc/dcmitype/StillImage" />
        <dc:title></dc:title>
      </cc:Work>
    </rdf:RDF>
  </metadata>
  <g
     inkscape:label="Layer 1"
     inkscape:groupmode="layer"
     id="layer1"
     transform="translate(-75.220047,-127.56071)">
    <g
       id="g4498"
       transform="matrix(0.17332659,0,0,0.18332964,79.068954,124.48488)">
      <path
         style="fill:#9a97ab;stroke-width:0.26458332"
         d="m 87.776083,102.78189 c -0.372171,-0.33535 -2.678303,-2.890902 -5.124741,-5.679005 -2.446435,-2.788102 -4.567129,-5.109821 -4.71265,-5.159375 -0.168148,-0.05726 -0.312801,1.935073 -0.396875,5.466155 l -0.132291,5.556245 -1.160426,0.0831 c -0.638236,0.0457 -1.264332,-0.0208 -1.391324,-0.14778 -0.262597,-0.2626 -0.357844,-17.103352 -0.0991,-17.522004 0.179094,-0.28978 1.947334,-0.373769 2.599582,-0.123479 0.213886,0.08208 2.451692,2.459001 4.972907,5.282052 3.031064,3.393945 4.65315,5.024035 4.788077,4.811707 0.112234,-0.176612 0.205883,-2.481265 0.208111,-5.12145 0.0044,-5.222155 -0.0245,-5.126505 1.547045,-5.117486 1.414042,0.0081 1.379905,-0.234489 1.304904,9.274223 l -0.06977,8.845687 -0.828384,0.0806 c -0.573355,0.0558 -1.036709,-0.10716 -1.505059,-0.52917 z m 33.791437,-5.041496 c -2.73088,-3.092318 -5.11937,-5.660422 -5.30776,-5.706899 -0.27034,-0.06669 -0.35759,1.076219 -0.41408,5.423959 l -0.0716,5.508456 -1.14403,0.0823 c -1.96745,0.14156 -1.89868,0.46482 -1.89868,-8.925336 0,-6.166054 0.0839,-8.465275 0.3175,-8.698855 0.417,-0.416999 2.37417,-0.408135 2.92092,0.01323 0.23603,0.181901 2.34647,2.473854 4.68986,5.093229 2.34339,2.619375 4.37569,4.802187 4.51621,4.850693 0.15797,0.05453 0.25551,-1.694473 0.25551,-4.581456 0,-2.712934 0.11477,-4.884097 0.27389,-5.181423 0.18793,-0.351149 0.55482,-0.511773 1.16899,-0.511773 1.84747,0 1.73212,-0.60788 1.73212,9.128126 0,7.786685 -0.0485,8.825535 -0.41852,8.967525 -1.28042,0.49134 -1.58481,0.24023 -6.62036,-5.461796 z m 17.52107,5.342696 c -1.58284,-0.39408 -4.06091,-1.81822 -4.97465,-2.85891 -1.96908,-2.242664 -2.785,-5.75669 -1.97876,-8.522165 1.31579,-4.513215 5.17504,-7.035337 10.42962,-6.816035 2.85455,0.119139 4.65532,0.878938 6.48066,2.734403 1.41908,1.442498 1.58585,2.236763 0.60462,2.879685 -0.9381,0.614672 -1.2418,0.54061 -2.07738,-0.506606 -1.63274,-2.046298 -3.85418,-2.941518 -6.10264,-2.45931 -1.00777,0.216125 -1.59132,0.563563 -2.53004,1.506342 -1.43447,1.440678 -1.86932,2.661449 -1.86114,5.224868 0.0124,3.881985 2.28529,6.477588 5.69911,6.508268 1.70647,0.0153 3.38195,-0.865434 4.65148,-2.445195 0.46457,-0.578085 1.00752,-1.051062 1.20656,-1.051062 0.61524,0 1.6662,0.83013 1.6662,1.316096 0,0.795334 -2.00781,2.785351 -3.75154,3.718281 -1.49759,0.80125 -1.92133,0.9017 -4.05367,0.96093 -1.30968,0.0364 -2.84348,-0.0489 -3.40843,-0.18959 z m -89.406064,-0.15112 c -0.102597,-0.1026 -0.186542,-4.083022 -0.186542,-8.845387 0,-7.651658 0.04868,-8.677527 0.418516,-8.819444 0.230182,-0.08833 3.013572,-0.1606 6.18531,-0.1606 6.164416,0 6.618073,0.09537 6.232496,1.31022 -0.162711,0.512659 -0.374942,0.541864 -3.937694,0.541864 -2.576107,0 -3.866009,0.100298 -4.083211,0.3175 -0.451697,0.451697 -0.426709,4.554154 0.03005,4.93323 0.197694,0.164071 1.766329,0.320643 3.638021,0.363125 l 3.290472,0.07469 0.08283,0.718375 c 0.104783,0.908794 -0.186298,0.983141 -4.183872,1.068636 l -3.042708,0.06507 -0.132292,4.233333 -0.132292,4.233328 -1.99627,0.0763 c -1.09795,0.042 -2.080215,-0.008 -2.182814,-0.11024 z m 16.270542,-0.15126 c -0.454152,-0.45416 -0.454152,-16.902519 0,-17.356671 0.328678,-0.328678 3.279222,-0.443653 4.026484,-0.1569 0.369856,0.141925 0.418515,1.169178 0.418515,8.835234 0,7.666057 -0.04866,8.693307 -0.418515,8.835237 -0.747262,0.28675 -3.697806,0.17177 -4.026484,-0.1569 z m 26.506275,-0.0659 c -0.128923,-0.33597 6.986733,-15.714694 7.994237,-17.277561 0.43155,-0.669436 1.96578,-0.836962 2.42312,-0.264584 0.14533,0.181901 1.54099,3.128698 3.10145,6.548438 1.56047,3.419739 3.30513,7.22398 3.87703,8.453867 0.57189,1.22989 0.98049,2.39075 0.90798,2.57969 -0.14435,0.37618 -3.74068,0.4946 -4.2831,0.14104 -0.16403,-0.10691 -0.74614,-1.17665 -1.2936,-2.3772 l -0.99537,-2.182814 h -3.26751 -3.267524 l -1.094682,2.182814 c -0.602075,1.20055 -1.228481,2.27029 -1.392015,2.3772 -0.551995,0.36087 -2.553385,0.22728 -2.710016,-0.18089 z m 10.482477,-6.899269 c 0,-0.433094 -1.77481,-4.094438 -1.98475,-4.094438 -0.24019,0 -2.222234,4.171492 -2.059409,4.334317 0.08998,0.08998 1.036725,0.1636 2.103879,0.1636 1.56242,0 1.94028,-0.07858 1.94028,-0.403479 z m 51.13073,7.107419 c -0.46787,-0.18879 -0.48061,-17.031567 -0.0132,-17.498941 0.22868,-0.228679 2.03303,-0.3175 6.44989,-0.3175 6.48437,0 6.90236,0.07786 6.67889,1.244061 -0.0819,0.427527 -0.5198,0.489135 -4.32132,0.608023 l -4.23017,0.132291 v 2.645834 2.645833 l 3.43958,0.132292 3.43958,0.132292 v 0.79375 0.79375 l -3.5138,0.07388 -3.51382,0.07388 0.0742,3.233409 0.0742,3.233416 4.23333,0.13229 c 4.17391,0.13043 4.23455,0.14085 4.31979,0.74217 0.18744,1.32221 -0.078,1.3761 -6.66729,1.35361 -3.36554,-0.0115 -6.26799,-0.0809 -6.44989,-0.15434 z M -2.2828648,77.259122 c -0.091097,-0.237395 -0.037212,-5.978538 0.1197449,-12.758097 0.2280308,-9.849498 0.2181876,-12.487273 -0.048985,-13.126704 -0.8168243,-1.954938 -14.1933461,-24.91623 -17.9227381,-30.765043 -1.13919,-1.786594 -2.071255,-3.363519 -2.071255,-3.504278 0,-0.158356 1.033909,-0.196383 2.711979,-0.09975 1.497953,0.08626 3.217255,0.03808 3.840702,-0.107639 1.461976,-0.341709 1.688176,-0.13925 3.635257,3.253716 2.3057111,4.017912 13.1294778,21.911469 13.4974,22.313535 0.3544117,0.387302 1.6574611,-1.647565 10.222423,-15.963535 6.127954,-10.242614 5.838288,-9.807648 6.448722,-9.683462 0.286903,0.05837 2.09922,0.107387 4.027371,0.108934 2.17017,0.0017 3.505729,0.104099 3.505729,0.268679 0,0.146226 -0.820862,1.525955 -1.824136,3.066065 -2.371217,3.640014 -7.332519,12.01167 -13.57631,22.908534 l -5.0029166,8.73125 0.213659,8.202083 C 5.6112961,64.614556 5.707443,70.389087 5.707443,72.935702 V 77.56591 L 4.3845266,77.438147 C 2.4667872,77.252931 0.59603864,77.273619 -0.85072841,77.496041 -1.8953251,77.656635 -2.1462541,77.615124 -2.2828648,77.259122 Z m 227.3167748,0.06692 c -0.44378,-0.193296 -1.12839,-0.733552 -1.52136,-1.200568 -0.88334,-1.04979 -0.98791,-3.085068 -0.23102,-4.496371 1.26676,-2.362023 5.12783,-2.525528 7.00337,-0.296575 0.58661,0.697146 0.71525,1.110465 0.71525,2.298076 0,1.737426 -0.52343,2.852179 -1.66649,3.549145 -0.99497,0.606671 -3.07995,0.677608 -4.29975,0.146293 z M 188.53452,74.77474 c -6.97051,-0.488873 -12.44109,-2.355091 -17.02182,-5.806773 -4.54325,-3.423441 -7.78574,-8.595239 -9.20709,-14.685386 -0.76862,-3.293351 -0.6919,-11.303159 0.1394,-14.552083 2.46038,-9.615876 9.43594,-16.434984 19.48215,-19.04521 7.0862,-1.841151 16.05063,-1.471734 22.70362,0.9356 8.9065,3.222749 14.97176,10.369693 16.72058,19.702559 0.57195,3.052316 0.58164,8.791338 0.0199,11.789152 -1.32144,7.052095 -5.01571,12.979985 -10.39613,16.681812 -5.34296,3.67605 -13.91429,5.578319 -22.4406,4.980329 z m 9.39662,-4.037221 c 7.73453,-2.165377 12.37804,-6.964231 14.46095,-14.944715 0.92947,-3.561223 1.16718,-10.598928 0.49397,-14.625 -0.91656,-5.481457 -2.744,-9.258173 -6.08657,-12.578905 -2.4601,-2.444029 -5.11359,-3.93415 -8.73997,-4.908101 -3.05743,-0.821147 -9.65474,-0.821463 -12.66776,-6.06e-4 -7.85833,2.140902 -12.87604,7.74532 -14.60693,16.314889 -0.56623,2.803403 -0.76203,8.569563 -0.39719,11.6968 1.05499,9.04271 5.4279,15.423656 12.43439,18.144284 1.09444,0.424977 2.76795,0.934691 3.7189,1.1327 2.30042,0.479002 9.36547,0.335502 11.39021,-0.231346 z m -68.08238,1.116345 c -11.41031,-0.941495 -19.34217,-7.312636 -21.94111,-17.623843 -0.49513,-1.964428 -0.58694,-3.052966 -0.58694,-6.958898 0,-3.905933 0.0918,-4.994471 0.58694,-6.958899 0.68698,-2.725558 1.94667,-5.569157 3.44357,-7.773447 1.3228,-1.947909 4.77373,-5.208434 6.78678,-6.412323 1.81297,-1.084228 5.54467,-2.519007 8.01423,-3.081339 2.93586,-0.668513 9.29645,-0.797884 12.5425,-0.255107 10.31728,1.725172 17.24451,7.778261 19.86135,17.355047 0.54133,1.981073 0.60754,2.794989 0.59048,7.258359 -0.0221,5.772367 -0.37548,7.580556 -2.24955,11.509375 -3.74194,7.844647 -10.62293,12.132025 -20.79716,12.958197 -1.83533,0.149034 -3.40897,0.254309 -3.49698,0.233947 -0.088,-0.02037 -1.32736,-0.133345 -2.75411,-0.251069 z m 9.42771,-4.04496 c 5.58365,-1.898274 9.12304,-6.054556 10.79187,-12.672806 0.77984,-3.092736 0.98551,-10.222164 0.39317,-13.629367 -1.73822,-9.998391 -7.93284,-15.666859 -17.12106,-15.666859 -6.99205,0 -12.32664,3.182509 -15.1525,9.039664 -2.0092,4.164471 -2.71746,8.274609 -2.45465,14.244715 0.29725,6.752585 1.96817,11.285728 5.48101,14.86979 3.43391,3.503541 6.91053,4.76695 12.68376,4.609296 2.7283,-0.07451 3.66987,-0.21358 5.3784,-0.794433 z m -125.077762,3.31452 c -0.08193,-0.132562 0.667367,-1.951919 1.6651,-4.043016 3.732662,-7.823092 8.465915,-18.894338 14.860076,-34.758244 l 3.625895,-8.995833 h 3.103505 3.103504 l 1.314135,3.307291 c 6.662367,16.767202 14.732471,35.681709 17.979014,42.138767 0.584359,1.16223 0.963279,2.212335 0.842047,2.333567 -0.121229,0.12123 -1.052494,0.102584 -2.06947,-0.04144 -1.282737,-0.181657 -2.446031,-0.171365 -3.798226,0.03361 -1.072047,0.162504 -2.04515,0.195956 -2.162453,0.07433 -0.1173,-0.121619 -1.361996,-3.135768 -2.765988,-6.698107 -1.403993,-3.56234 -2.678213,-6.628199 -2.8316,-6.813021 -0.215961,-0.260215 -2.416533,-0.33604 -9.752431,-0.33604 h -9.473541 l -2.751579,6.945313 -2.751577,6.945312 -0.773213,-0.05572 c -2.337387,-0.168425 -5.393052,-0.164824 -6.242685,0.0074 -0.53794,0.109016 -1.038037,0.08932 -1.120513,-0.04413 z M 45.159011,53.244991 c 0.07938,-0.20687 -1.176967,-3.770874 -2.791894,-7.920003 -1.614924,-4.14913 -3.329252,-8.630986 -3.809616,-9.959679 -0.480367,-1.328693 -0.968872,-2.413664 -1.085567,-2.411047 -0.116694,0.0026 -1.012724,2.123654 -1.991175,4.713414 -0.97845,2.58976 -2.701845,7.062838 -3.829769,9.940171 -1.127922,2.877336 -1.983272,5.407414 -1.900775,5.622396 0.220171,0.573757 15.188787,0.588084 15.408796,0.01474 z m 18.604063,18.032008 c -0.01122,-0.0336 -0.04099,-10.866007 -0.06615,-24.072025 -0.03012,-15.812513 0.04461,-24.041282 0.218848,-24.099807 0.145521,-0.04888 0.681302,0.0078 1.190625,0.125981 1.2476,0.289455 3.860884,0.271602 5.159375,-0.03525 0.800222,-0.189102 1.12286,-0.165319 1.322916,0.09752 0.166886,0.219259 0.202682,1.803803 0.09694,4.291304 -0.0922,2.16903 -0.181501,6.996811 -0.198437,10.728403 -0.02706,5.96105 0.02,6.80421 0.38772,6.945313 0.546627,0.209761 24.545509,0.209761 25.092136,0 0.358452,-0.137549 0.41847,-0.792568 0.418206,-4.564062 -1.7e-4,-2.421905 -0.127889,-7.238333 -0.283822,-10.703173 -0.192958,-4.28755 -0.197236,-6.403666 -0.01339,-6.62518 0.20506,-0.247083 0.719485,-0.263362 2.135905,-0.06759 1.211524,0.167452 2.520044,0.167452 3.731574,0 1.41055,-0.19496 1.9312,-0.179061 2.13389,0.06517 0.18115,0.218272 0.17685,2.581562 -0.0133,7.286638 -0.36188,8.955733 -0.36079,24.431279 0.002,33.14712 0.23371,5.609664 0.22189,6.890011 -0.0661,7.163405 -0.26713,0.253561 -0.78426,0.272643 -2.16995,0.08008 -1.19821,-0.166513 -2.41688,-0.159772 -3.569955,0.01974 -1.385843,0.215754 -1.823821,0.199456 -2.101477,-0.0782 -0.287478,-0.287477 -0.299757,-1.435655 -0.06806,-6.364081 0.155434,-3.307318 0.282646,-8.146711 0.282646,-10.754201 V 49.123206 H 84.380775 71.375983 l 0.106355,11.046354 0.106354,11.046354 -1.322916,-0.127767 c -1.91448,-0.184901 -3.788026,-0.164624 -5.225521,0.05656 -0.691224,0.106357 -1.265954,0.165889 -1.277181,0.132292 z M 228.30831,64.542083 c -1.67158,-0.176411 -1.67098,-0.170807 -0.77732,-7.270957 1.01225,-8.042293 1.36729,-11.59738 2.54442,-25.478129 0.5183,-6.111875 1.06022,-11.479814 1.20426,-11.928754 0.14403,-0.448939 0.61838,-1.157803 1.0541,-1.575252 0.66574,-0.637817 1.05552,-0.773799 2.44128,-0.851695 1.21377,-0.06823 1.89211,0.0333 2.56983,0.384628 1.15179,0.597088 2.12194,2.016826 2.12194,3.105308 0,0.456465 -1.13454,5.707374 -2.52118,11.668685 -2.90814,12.502318 -4.81608,21.328717 -5.83173,26.978331 -0.80098,4.45552 -1.01253,5.178689 -1.49628,5.114898 -0.1855,-0.02447 -0.7747,-0.09064 -1.30932,-0.147063 z"
         id="path4512"
         inkscape:connector-curvature="0" />
      <path
         style="fill:#8d66cb;stroke-width:0.26458332"
         d="m 140.56915,102.79778 c -4.68592,-0.56001 -7.91694,-3.746643 -8.20169,-8.089003 -0.37095,-5.6569 3.60459,-9.432531 9.90147,-9.403572 2.78166,0.01281 4.82983,0.870092 6.6,2.762541 1.17751,1.258858 1.20437,1.323358 0.75689,1.817814 -0.25516,0.281956 -0.5784,0.512646 -0.71829,0.512646 -0.1399,0 -0.94993,-0.643974 -1.80007,-1.431057 -1.79512,-1.661959 -2.92996,-2.114674 -4.8929,-1.951892 -3.17953,0.26367 -5.3789,2.779408 -5.61253,6.419868 -0.28223,4.397799 2.36819,7.788045 6.10193,7.805185 1.75226,0.008 2.99701,-0.57971 4.62646,-2.18458 1.15847,-1.140994 1.47119,-1.324057 1.85208,-1.084191 0.25205,0.158726 0.49302,0.464706 0.53548,0.679953 0.12988,0.658344 -2.0166,2.602558 -3.7394,3.387038 -1.89667,0.86365 -3.11039,1.034 -5.40943,0.75925 z m -52.587023,-0.40956 c -0.244972,-0.24497 -2.586953,-2.864349 -5.204399,-5.820835 -2.617446,-2.956486 -4.923462,-5.375429 -5.124481,-5.375429 -0.297223,0 -0.378825,1.050147 -0.436896,5.622396 l -0.07141,5.622398 h -1.058333 -1.058333 v -8.334377 -8.334375 l 0.987626,-0.08185 c 0.543195,-0.04501 1.147871,0.01452 1.343723,0.132291 0.195855,0.117777 2.411744,2.506091 4.9242,5.307367 2.512455,2.801276 4.732997,5.09323 4.934535,5.09323 0.297402,0 0.379952,-0.984454 0.438176,-5.225521 l 0.07174,-5.225521 0.992187,-0.08212 0.992188,-0.08212 v 8.614929 8.614927 h -0.64256 c -0.353409,0 -0.842991,-0.20043 -1.087964,-0.4454 z m 33.506053,-5.387093 c -3.29022,-3.737859 -5.28554,-5.803173 -5.55625,-5.751145 -0.36829,0.07078 -0.43155,0.801023 -0.49381,5.70012 l -0.0714,5.618938 h -1.05307 -1.05307 v -8.481164 -8.481163 l 1.24587,0.08064 1.24587,0.08064 4.67351,5.159375 c 2.57043,2.837656 4.86475,5.19738 5.09848,5.243833 0.37687,0.0749 0.43308,-0.508913 0.49676,-5.159375 l 0.0718,-5.243833 0.99219,-0.08212 0.99218,-0.08212 v 8.614929 8.614928 l -0.7276,-8e-5 c -0.61644,-7e-5 -1.51195,-0.89114 -5.86145,-5.832413 z m -71.602927,5.246623 c -0.07295,-0.1901 -0.101079,-3.975814 -0.06251,-8.412694 l 0.07012,-8.067058 6.039639,-0.07117 c 5.655511,-0.06664 6.033936,-0.0414 5.950003,0.396875 -0.0796,0.415644 -0.533578,0.482849 -4.055261,0.600331 l -3.965631,0.132292 v 2.910417 2.910417 l 3.436573,0.132291 c 2.977287,0.114612 3.448208,0.19313 3.523628,0.587507 0.07826,0.409229 -0.26892,0.462688 -3.436575,0.529167 l -3.523626,0.07395 -0.132291,4.233334 -0.132292,4.233331 -1.78957,0.0783 c -1.287166,0.0563 -1.826808,-0.0187 -1.922203,-0.26731 z m 16.279481,-8.145377 v -8.466667 h 1.852084 1.852083 v 8.466667 8.466667 h -1.852083 -1.852084 z m 26.718871,8.268227 c -0.0021,-0.10914 1.803876,-3.97867 4.013562,-8.598956 4.005663,-8.375531 4.020073,-8.400521 4.844563,-8.400521 h 0.82696 l 3.79197,8.267819 c 2.08558,4.547301 3.84915,8.416828 3.91903,8.598958 0.0944,0.24602 -0.35706,0.33114 -1.75631,0.33114 H 106.64 l -1.12149,-2.3151 -1.12148,-2.315109 -3.3073,-0.06639 c -1.819007,-0.03652 -3.441088,0.02302 -3.604621,0.132291 -0.163534,0.109279 -0.78994,1.180952 -1.392016,2.381498 l -1.094681,2.18281 h -1.055381 c -0.580459,0 -1.057201,-0.0893 -1.059426,-0.19844 z m 10.534805,-6.2029 c 0.11756,-0.615051 -2.07834,-5.276533 -2.43692,-5.173118 -0.15875,0.04578 -0.85556,1.196385 -1.548474,2.556894 -1.590098,3.122099 -1.526061,3.24562 1.628054,3.140295 1.88766,-0.06303 2.28615,-0.151623 2.35734,-0.524071 z m 50.85257,-2.065327 v -8.466667 h 6.23711 c 5.79751,0 6.23086,0.03263 6.1484,0.463021 -0.0788,0.411215 -0.56201,0.477822 -4.31888,0.595312 l -4.23017,0.132292 v 2.910417 2.910417 l 3.43657,0.132291 c 3.00077,0.115515 3.44781,0.191011 3.52513,0.595313 0.0804,0.420542 -0.21057,0.463391 -3.17199,0.467071 -1.7933,0.0021 -3.41308,0.100846 -3.59952,0.219149 -0.25356,0.160901 -0.32023,1.076503 -0.26458,3.633968 l 0.0744,3.418873 4.23333,0.13229 c 4.14283,0.12947 4.23515,0.14502 4.31789,0.72761 l 0.0845,0.59531 h -6.23611 -6.23611 z M -2.0154983,77.088098 c -0.08407,-0.13603 -0.047676,-4.251357 0.080877,-9.145172 0.1285523,-4.893815 0.2337316,-10.624251 0.2337316,-12.734303 v -3.836459 l -4.689389,-8.120499 C -13.86997,30.299272 -18.784068,22.069445 -20.949422,18.868916 c -0.575651,-0.850849 -0.945069,-1.643672 -0.820928,-1.761829 0.124141,-0.118157 0.940085,-0.09843 1.81321,0.04383 1.078788,0.175775 2.218459,0.166146 3.556484,-0.03005 1.551277,-0.227465 2.034419,-0.217291 2.277431,0.04796 0.169645,0.185169 3.382829,5.456358 7.1404091,11.713754 C 1.9285496,43.722436 1.5774809,43.18181 2.013655,42.73668 2.2078591,42.538489 5.6435596,36.899456 9.6485469,30.205497 13.653534,23.511539 17.143626,17.762202 17.404307,17.429193 c 0.456301,-0.582901 0.547939,-0.595396 2.458344,-0.335216 1.225926,0.166961 2.591136,0.181491 3.571875,0.03802 0.873125,-0.127731 1.690537,-0.135783 1.816473,-0.01789 0.125937,0.117889 -0.06806,0.611367 -0.431093,1.09662 -1.515552,2.025762 -7.610147,12.233022 -14.81709,24.815739 L 5.2356648,51.349508 5.428583,64.114752 c 0.1061033,7.020883 0.1312016,12.8651 0.055772,12.987147 -0.075427,0.122047 -0.970833,0.106675 -1.9897857,-0.03416 -1.2066815,-0.166782 -2.4636145,-0.164756 -3.60492833,0.0058 -1.08304247,0.161857 -1.81066307,0.167413 -1.90513887,0.01455 z M 224.99843,76.919437 c -2.40925,-1.093833 -2.65847,-4.604578 -0.45018,-6.341618 0.93712,-0.73714 3.59566,-0.775018 4.67009,-0.06654 1.19002,0.784693 1.49985,1.391608 1.50782,2.953589 0.0167,3.276565 -2.61875,4.866092 -5.72773,3.454564 z m -39.90349,-2.8111 c -7.05093,-1.076674 -13.19755,-4.277688 -17.05874,-8.88378 -3.86354,-4.608899 -5.70899,-9.667497 -6.01879,-16.498226 -0.70612,-15.56933 8.78232,-26.754969 24.35853,-28.715556 3.61984,-0.455631 10.95434,-0.192428 13.95838,0.500905 5.69342,1.314044 10.15074,3.64396 13.73644,7.180276 4.7256,4.660518 7.07015,10.169691 7.56136,17.767575 0.61492,9.511157 -3.02154,18.192062 -9.74206,23.256124 -5.23059,3.941368 -11.86648,5.833949 -20.27297,5.781924 -2.2775,-0.0141 -5.21246,-0.189252 -6.52215,-0.389242 z m 12.96458,-3.27514 c 4.1995,-1.101995 7.86687,-3.322772 10.20075,-6.177071 1.74975,-2.139913 3.7863,-6.320864 4.53746,-9.315212 0.53354,-2.126871 0.59646,-3.017197 0.58902,-8.334375 -0.008,-5.61034 -0.049,-6.10352 -0.7154,-8.565038 -2.16609,-8.001523 -6.93479,-12.98609 -14.37948,-15.030401 -3.0414,-0.835169 -9.87162,-0.831106 -12.93235,0.0077 -3.73245,1.022887 -6.31501,2.494592 -8.87105,5.055288 -3.15387,3.15962 -4.96409,6.794731 -5.92039,11.888743 -1.80811,9.631451 0.29425,19.417032 5.35778,24.93824 3.05721,3.333531 6.52139,5.006562 12.74096,6.153259 1.61041,0.296912 7.33748,-0.08181 9.3927,-0.621126 z m -70.90833,0.37124 c -8.337,-1.544447 -13.78213,-5.420987 -17.07947,-12.159356 -1.98689,-4.060359 -2.48376,-6.459096 -2.46622,-11.90625 0.0128,-3.974571 0.0942,-4.796772 0.70003,-7.066442 0.72731,-2.724934 2.3233,-6.17624 3.76911,-8.150605 3.10242,-4.236613 8.31899,-7.433703 14.23586,-8.724761 2.32098,-0.506437 6.98936,-0.748797 9.90267,-0.514101 13.24131,1.066717 21.71982,9.179171 22.79422,21.810076 1.15306,13.555604 -5.82654,23.685333 -18.23016,26.458053 -2.81623,0.629547 -10.79463,0.777909 -13.62604,0.253386 z m 11.1125,-2.886888 c 2.91271,-0.771281 4.86572,-1.920748 7.17316,-4.221863 2.50514,-2.498267 3.93012,-5.11161 4.91797,-9.019355 0.53203,-2.104599 0.60171,-3.026767 0.59973,-7.9375 -0.002,-4.3996 -0.098,-5.933727 -0.46211,-7.369554 -2.35854,-9.299954 -8.2971,-14.205966 -17.17577,-14.189394 -5.18995,0.0097 -8.83651,1.430783 -12.14727,4.733892 -3.26175,3.254208 -4.91696,7.312242 -5.54972,13.606101 -0.97192,9.667271 2.04415,18.321112 7.70217,22.099389 3.08514,2.060178 6.61515,2.99171 10.70851,2.825856 1.45521,-0.05896 3.36021,-0.296368 4.23333,-0.527572 z M 14.452399,70.841214 c -0.07651,-0.12379 0.859504,-2.292781 2.080027,-4.819978 3.370834,-6.979608 8.715634,-19.510544 15.15311,-35.52663 l 2.86149,-7.119225 2.910417,-0.0032 2.910417,-0.0032 3.252044,8.048494 c 6.87779,17.021876 12.630626,30.431203 15.584717,36.326537 0.793186,1.58292 1.344245,2.969546 1.224571,3.081388 -0.119671,0.11184 -0.962848,0.08004 -1.873729,-0.07067 -1.12608,-0.186317 -2.269291,-0.188725 -3.571875,-0.0075 -1.05365,0.146568 -1.989397,0.22534 -2.079432,0.175043 -0.09004,-0.05029 -1.329499,-3.040878 -2.75436,-6.645736 -1.42486,-3.60486 -2.705227,-6.703118 -2.845255,-6.885019 -0.369199,-0.479594 -19.376146,-0.480295 -19.687211,-7.94e-4 -0.117729,0.181502 -1.411883,3.306893 -2.8759,6.945313 l -2.661845,6.615364 -1.174613,-0.131511 c -1.707771,-0.191204 -4.482864,-0.162407 -5.463833,0.0567 -0.4673,0.104373 -0.912233,0.08849 -0.98874,-0.03531 z M 45.561974,53.427633 c 0.112739,-0.112739 -1.3209,-4.133684 -3.185864,-8.935432 -1.864963,-4.80175 -3.680917,-9.50436 -4.035454,-10.450245 -0.354536,-0.945886 -0.757827,-1.70993 -0.896202,-1.697876 -0.138377,0.01206 -0.59432,0.964554 -1.013208,2.116667 -0.418888,1.152113 -2.187125,5.726157 -3.929417,10.164542 -1.742292,4.438386 -3.185504,8.248386 -3.207136,8.466667 -0.03078,0.310555 0.42105,0.433858 2.077333,0.566909 2.73054,0.219348 13.921735,0.03698 14.189948,-0.231232 z M 64.02865,70.966174 c -0.01068,-0.0082 -0.02881,-10.730468 -0.0403,-23.827343 l -0.02088,-23.8125 0.635612,0.05934 c 0.769829,0.07186 5.086731,0.06744 6.191861,-0.0063 l 0.793744,-0.05299 -0.132291,4.365625 c -0.07276,2.401094 -0.132292,7.342187 -0.132292,10.980208 v 6.614584 l 6.548438,0.231714 c 3.746373,0.132567 9.350501,0.132567 13.096874,0 l 6.548438,-0.231714 v -5.423959 c 0,-2.983177 -0.05953,-7.924271 -0.132292,-10.980208 l -0.132292,-5.55625 0.661459,0.0603 c 0.832019,0.07585 5.465211,0.07366 6.350001,-0.003 l 0.66146,-0.0573 -0.13229,7.011458 c -0.0728,3.856302 -0.13229,11.476302 -0.13229,16.933334 0,5.457031 0.0595,13.0175 0.13229,16.801041 l 0.13229,6.879167 -0.92604,-0.131606 c -0.50932,-0.07239 -1.81902,-0.131609 -2.91042,-0.131609 -1.091407,0 -2.401095,0.05922 -2.910418,0.131609 l -0.926042,0.131606 0.0114,-1.984375 c 0.0063,-1.091406 0.113853,-5.984404 0.239078,-10.87333 0.174778,-6.823422 0.154072,-8.93445 -0.0891,-9.084736 -0.425024,-0.262681 -25.548949,-0.270939 -25.973521,-0.0085 -0.263586,0.162904 -0.297164,2.23543 -0.1602,9.887916 0.09531,5.324996 0.237622,10.098529 0.316262,10.607852 0.218532,1.415386 -1.56e-4,1.539473 -2.17355,1.233287 -1.259067,-0.177377 -2.486884,-0.180097 -3.63802,-0.0081 -0.955654,0.142819 -1.746293,0.252992 -1.756971,0.244827 z M 227.759,64.014948 c -0.87982,-0.133284 -0.87367,0.01656 -0.2026,-4.939115 0.80091,-5.914456 1.49479,-12.860181 2.63304,-26.356794 0.57068,-6.766719 1.15489,-12.611338 1.29825,-12.988043 0.34285,-0.900897 1.67611,-2.003369 2.6928,-2.226672 1.36421,-0.299631 3.31898,0.32921 4.22262,1.358398 0.6321,0.719921 0.79912,1.155334 0.79912,2.08326 0,0.645212 -1.42247,7.219272 -3.16105,14.609022 -2.6044,11.069853 -5.0263,22.325212 -5.95123,27.657264 -0.18327,1.056484 -0.32755,1.106168 -2.33095,0.80268 z"
         id="path4510"
         inkscape:connector-curvature="0" />
      <path
         style="fill:#5306d0;stroke-width:0.26458332"
         d="m 140.56915,102.79778 c -4.68592,-0.56001 -7.91694,-3.746643 -8.20169,-8.089003 -0.37095,-5.6569 3.60459,-9.432531 9.90147,-9.403572 2.78166,0.01281 4.82983,0.870092 6.6,2.762541 1.17751,1.258858 1.20437,1.323358 0.75689,1.817814 -0.25516,0.281956 -0.5784,0.512646 -0.71829,0.512646 -0.1399,0 -0.94993,-0.643974 -1.80007,-1.431057 -1.79512,-1.661959 -2.92996,-2.114674 -4.8929,-1.951892 -3.17953,0.26367 -5.3789,2.779408 -5.61253,6.419868 -0.28223,4.397799 2.36819,7.788045 6.10193,7.805185 1.75226,0.008 2.99701,-0.57971 4.62646,-2.18458 1.15847,-1.140994 1.47119,-1.324057 1.85208,-1.084191 0.25205,0.158726 0.49302,0.464706 0.53548,0.679953 0.12988,0.658344 -2.0166,2.602558 -3.7394,3.387038 -1.89667,0.86365 -3.11039,1.034 -5.40943,0.75925 z m -52.587023,-0.40956 c -0.244972,-0.24497 -2.586953,-2.864349 -5.204399,-5.820835 -2.617446,-2.956486 -4.923462,-5.375429 -5.124481,-5.375429 -0.297223,0 -0.378825,1.050147 -0.436896,5.622396 l -0.07141,5.622398 h -1.058333 -1.058333 v -8.334377 -8.334375 l 0.987626,-0.08185 c 0.543195,-0.04501 1.147871,0.01452 1.343723,0.132291 0.195855,0.117777 2.411744,2.506091 4.9242,5.307367 2.512455,2.801276 4.732997,5.09323 4.934535,5.09323 0.297402,0 0.379952,-0.984454 0.438176,-5.225521 l 0.07174,-5.225521 0.992187,-0.08212 0.992188,-0.08212 v 8.614929 8.614927 h -0.64256 c -0.353409,0 -0.842991,-0.20043 -1.087964,-0.4454 z m 33.506053,-5.387093 c -3.29022,-3.737859 -5.28554,-5.803173 -5.55625,-5.751145 -0.36829,0.07078 -0.43155,0.801023 -0.49381,5.70012 l -0.0714,5.618938 h -1.05307 -1.05307 v -8.481164 -8.481163 l 1.24587,0.08064 1.24587,0.08064 4.67351,5.159375 c 2.57043,2.837656 4.86475,5.19738 5.09848,5.243833 0.37687,0.0749 0.43308,-0.508913 0.49676,-5.159375 l 0.0718,-5.243833 0.99219,-0.08212 0.99218,-0.08212 v 8.614929 8.614928 l -0.7276,-8e-5 c -0.61644,-7e-5 -1.51195,-0.89114 -5.86145,-5.832413 z m -71.602927,5.246623 c -0.07295,-0.1901 -0.101079,-3.975814 -0.06251,-8.412694 l 0.07012,-8.067058 6.039639,-0.07117 c 5.655511,-0.06664 6.033936,-0.0414 5.950003,0.396875 -0.0796,0.415644 -0.533578,0.482849 -4.055261,0.600331 l -3.965631,0.132292 v 2.910417 2.910417 l 3.436573,0.132291 c 2.977287,0.114612 3.448208,0.19313 3.523628,0.587507 0.07826,0.409229 -0.26892,0.462688 -3.436575,0.529167 l -3.523626,0.07395 -0.132291,4.233334 -0.132292,4.233331 -1.78957,0.0783 c -1.287166,0.0563 -1.826808,-0.0187 -1.922203,-0.26731 z m 16.279481,-8.145377 v -8.466667 h 1.852084 1.852083 v 8.466667 8.466667 h -1.852083 -1.852084 z m 26.718871,8.268227 c -0.0021,-0.10914 1.803876,-3.97867 4.013562,-8.598956 4.005663,-8.375531 4.020073,-8.400521 4.844563,-8.400521 h 0.82696 l 3.79197,8.267819 c 2.08558,4.547301 3.84915,8.416828 3.91903,8.598958 0.0944,0.24602 -0.35706,0.33114 -1.75631,0.33114 H 106.64 l -1.12149,-2.3151 -1.12148,-2.315109 -3.3073,-0.06639 c -1.819007,-0.03652 -3.441088,0.02302 -3.604621,0.132291 -0.163534,0.109279 -0.78994,1.180952 -1.392016,2.381498 l -1.094681,2.18281 h -1.055381 c -0.580459,0 -1.057201,-0.0893 -1.059426,-0.19844 z m 10.534805,-6.2029 c 0.11756,-0.615051 -2.07834,-5.276533 -2.43692,-5.173118 -0.15875,0.04578 -0.85556,1.196385 -1.548474,2.556894 -1.590098,3.122099 -1.526061,3.24562 1.628054,3.140295 1.88766,-0.06303 2.28615,-0.151623 2.35734,-0.524071 z m 50.85257,-2.065327 v -8.466667 h 6.23711 c 5.79751,0 6.23086,0.03263 6.1484,0.463021 -0.0788,0.411215 -0.56201,0.477822 -4.31888,0.595312 l -4.23017,0.132292 v 2.910417 2.910417 l 3.43657,0.132291 c 3.00077,0.115515 3.44781,0.191011 3.52513,0.595313 0.0804,0.420542 -0.21057,0.463391 -3.17199,0.467071 -1.7933,0.0021 -3.41308,0.100846 -3.59952,0.219149 -0.25356,0.160901 -0.32023,1.076503 -0.26458,3.633968 l 0.0744,3.418873 4.23333,0.13229 c 4.14283,0.12947 4.23515,0.14502 4.31789,0.72761 l 0.0845,0.59531 h -6.23611 -6.23611 z m 70.72745,-17.182936 c -2.39046,-1.085303 -2.63304,-4.359998 -0.45018,-6.077035 1.40979,-1.108943 4.83217,-0.526603 5.61054,0.954667 0.13791,0.262448 0.33201,0.968081 0.43134,1.568074 0.51232,3.094615 -2.45284,4.979385 -5.5917,3.554294 z M -1.8439509,76.908853 c -0.062321,-0.791072 0.041913,-11.55732 0.1703874,-17.599189 l 0.1631574,-7.672916 -5.0053813,-8.73125 C -12.440102,32.571284 -17.100236,24.677323 -19.601302,20.739493 c -0.996075,-1.568282 -1.811046,-2.963539 -1.811046,-3.100572 0,-0.147554 0.836152,-0.186706 2.050521,-0.09601 1.127786,0.08423 2.684565,0.03559 3.459509,-0.108076 1.010718,-0.187377 1.478101,-0.176914 1.653494,0.03702 0.134478,0.164028 3.141171,5.120263 6.6815393,11.013857 8.8377145,14.711997 8.9034314,14.816667 9.3027885,14.816667 0.316843,0 9.9694002,-15.59743 14.3656802,-23.213296 1.631447,-2.826229 1.750073,-2.963087 2.407997,-2.778125 0.380605,0.107 2.031465,0.182327 3.668575,0.167394 1.637109,-0.01493 2.976562,0.0094 2.976562,0.05408 0,0.04468 -0.753599,1.24752 -1.674662,2.672985 C 21.204592,23.72637 15.93419,32.63694 9.8183195,43.302381 l -5.0826061,8.863541 0.1513575,3.307292 c 0.083246,1.81901 0.2281608,7.416932 0.322035,12.439827 l 0.1706748,9.132533 H 1.7733 c -1.98356504,0 -3.6113277,-0.06151 -3.6172509,-0.136699 z M 185.09494,74.108337 c -7.05093,-1.076674 -13.19755,-4.277688 -17.05874,-8.88378 -3.86354,-4.608899 -5.70899,-9.667497 -6.01879,-16.498226 -0.38794,-8.553732 2.2084,-15.719217 7.54211,-20.815008 3.628,-3.466175 7.95646,-5.710481 13.48384,-6.991389 3.58604,-0.831021 9.86117,-1.132198 13.65093,-0.655179 10.72702,1.350217 18.70724,6.756143 22.32459,15.123024 3.18348,7.363334 3.11183,17.184562 -0.17668,24.217909 -4.70628,10.065642 -13.76035,14.980925 -27.43122,14.891891 -2.16413,-0.0141 -5.00635,-0.189252 -6.31604,-0.389242 z m 13.75833,-3.146079 c 7.59779,-2.257623 12.38247,-7.727182 14.24082,-16.279273 0.77198,-3.552608 0.76556,-10.922322 -0.0127,-14.555612 -1.79082,-8.360685 -6.18949,-13.785465 -13.1007,-16.1568 -2.85276,-0.978822 -4.97459,-1.302033 -8.53578,-1.300226 -14.16357,0.0072 -22.46042,10.007805 -21.72667,26.188276 0.2797,6.167995 1.52453,10.470702 4.17639,14.435555 2.29905,3.437366 5.73267,6.024809 9.78844,7.376184 3.03511,1.01129 4.46313,1.18763 8.82017,1.089163 3.36327,-0.07601 4.33204,-0.197644 6.35,-0.797267 z m -71.70208,0.242179 c -8.337,-1.544447 -13.78213,-5.420987 -17.07947,-12.159356 -1.95839,-4.002114 -2.47682,-6.466568 -2.47682,-11.773958 0,-3.616066 0.1,-4.765451 0.58214,-6.694316 2.16665,-8.66708 8.06387,-14.423067 17.26131,-16.847926 3.14189,-0.828343 9.92094,-1.039832 13.4868,-0.420753 9.89918,1.718625 16.65165,7.624358 19.07946,16.686953 0.85184,3.179746 0.99758,9.688711 0.29335,13.100404 -1.96988,9.543124 -8.04878,15.738195 -17.52073,17.855566 -2.81623,0.629547 -10.79463,0.777909 -13.62604,0.253386 z m 10.09704,-2.364963 c 6.04933,-1.143669 10.74555,-5.485669 12.73969,-11.778768 1.0256,-3.23659 1.22787,-4.794517 1.21953,-9.392708 -0.0122,-6.755843 -1.01366,-10.922136 -3.56732,-14.84164 -3.13231,-4.807649 -7.9894,-7.263693 -14.42471,-7.294018 -5.2398,-0.02469 -8.86875,1.389142 -12.31154,4.796547 -3.17459,3.141974 -4.89636,7.174547 -5.57059,13.04695 -0.35691,3.108618 -0.0958,8.382997 0.56183,11.350059 2.34127,10.562783 10.74711,16.118718 21.35311,14.113578 z M 20.391818,70.756172 c -0.654844,-0.128466 -2.17289,-0.166182 -3.373437,-0.08381 -1.200547,0.08237 -2.182813,0.04745 -2.182813,-0.07761 0,-0.125056 0.760384,-1.827612 1.68974,-3.78346 3.675454,-7.735062 10.015231,-22.646293 15.507367,-36.473506 1.358313,-3.41974 2.569321,-6.349344 2.69113,-6.510231 0.155792,-0.205769 0.603771,-0.216934 1.510533,-0.03764 0.836472,0.165391 1.720032,0.16296 2.516571,-0.0069 0.881864,-0.188084 1.279967,-0.177484 1.413793,0.03764 0.102454,0.164696 1.57458,3.75226 3.27139,7.972364 5.828263,14.49537 11.385558,27.509525 14.953485,35.018297 0.929357,1.955848 1.689741,3.656193 1.689741,3.778541 0,0.122352 -0.863204,0.153768 -1.91823,0.06982 -1.055026,-0.08395 -2.596753,-0.04188 -3.426063,0.09349 -0.829307,0.135372 -1.618485,0.175811 -1.753724,0.08987 -0.135242,-0.08595 -1.397855,-3.068775 -2.805808,-6.628511 -1.407954,-3.559736 -2.687185,-6.625595 -2.842734,-6.813021 -0.22121,-0.266539 -2.378144,-0.340773 -9.901613,-0.340773 h -9.618795 l -0.373523,0.595312 c -0.205435,0.327422 -1.479092,3.418274 -2.830345,6.868557 -1.351254,3.450286 -2.584897,6.31643 -2.741433,6.369209 -0.156533,0.05278 -0.820388,-0.0092 -1.475232,-0.137612 z M 44.402755,53.978845 c 0.919345,-0.110427 1.389063,-0.289547 1.389063,-0.529702 0,-0.199569 -1.129954,-3.248845 -2.51101,-6.776167 -1.381056,-3.527321 -3.202556,-8.250791 -4.047781,-10.4966 -0.845224,-2.245808 -1.658898,-4.123997 -1.808162,-4.173752 -0.149265,-0.04975 -0.819354,1.430537 -1.489083,3.289538 -0.669732,1.859001 -2.476572,6.620955 -4.015203,10.582119 -1.538631,3.961165 -2.797511,7.377026 -2.797511,7.590801 0,0.254302 0.343027,0.424564 0.992187,0.492466 1.715281,0.179425 12.833054,0.195996 14.2875,0.0213 z m 19.52634,16.583988 c -0.04334,-0.07737 0.01807,-2.224262 0.136464,-4.770877 0.255495,-5.495621 0.263562,-30.447411 0.01199,-37.041667 -0.09716,-2.546615 -0.13425,-4.770044 -0.08242,-4.940954 0.06316,-0.208288 0.414565,-0.251906 1.065781,-0.132291 1.13265,0.208045 4.008988,0.231939 5.325658,0.04424 l 0.914516,-0.130371 -0.120774,3.704167 c -0.06643,2.037291 -0.120777,6.978385 -0.120777,10.980208 v 7.276042 l 1.5875,0.169722 c 2.064993,0.220768 21.482923,0.220768 23.547916,0 l 1.5875,-0.169722 v -5.027083 c 0,-2.764896 -0.05953,-7.70599 -0.132292,-10.980209 l -0.132291,-5.953125 0.926041,0.130371 c 1.19135,0.167721 4.100323,0.167721 5.291673,0 l 0.92604,-0.130371 -0.13229,5.953125 c -0.0728,3.274219 -0.13229,11.251406 -0.13229,17.727084 0,6.475677 0.0595,14.38625 0.13229,17.579054 l 0.13229,5.805096 -3.64925,0.02561 -3.649243,0.02561 0.209661,-5.698413 c 0.115313,-3.134133 0.209661,-8.020137 0.209661,-10.857794 V 48.990914 L 92.623067,48.799512 C 89.785411,48.69424 83.724005,48.68042 79.153278,48.768799 l -8.310414,0.160692 0.178601,10.349463 c 0.09823,5.692204 0.206513,10.583013 0.240626,10.86847 0.05889,0.492815 -0.122605,0.519943 -3.596092,0.537543 -2.011958,0.01019 -3.693568,-0.04477 -3.736904,-0.122134 z M 227.89129,64.017732 c -0.7332,-0.141222 -0.7348,0.05903 0.0471,-5.898693 0.88175,-6.718324 1.56337,-13.515639 2.67787,-26.704361 0.64854,-7.674697 1.07032,-11.461503 1.33322,-11.969904 0.5924,-1.145572 1.51686,-1.613618 3.15802,-1.598871 2.35048,0.02112 3.83012,1.266575 3.83012,3.223924 0,0.418718 -0.94343,4.848194 -2.09651,9.84328 -2.66846,11.559667 -4.46705,19.990131 -5.82498,27.303214 -0.59089,3.182202 -1.07434,5.831343 -1.07434,5.88698 0,0.123203 -1.23394,0.07171 -2.05053,-0.08557 z"
         id="path4508"
         inkscape:connector-curvature="0" />
      <path
         style="fill:#54546f;stroke-width:0.26458332"
         d="m 140.56915,102.79778 c -4.68592,-0.56001 -7.91694,-3.746643 -8.20169,-8.089003 -0.37095,-5.6569 3.60459,-9.432531 9.90147,-9.403572 2.78166,0.01281 4.82983,0.870092 6.6,2.762541 1.17751,1.258858 1.20437,1.323358 0.75689,1.817814 -0.25516,0.281956 -0.5784,0.512646 -0.71829,0.512646 -0.1399,0 -0.94993,-0.643974 -1.80007,-1.431057 -1.79512,-1.661959 -2.92996,-2.114674 -4.8929,-1.951892 -3.17953,0.26367 -5.3789,2.779408 -5.61253,6.419868 -0.28223,4.397799 2.36819,7.788045 6.10193,7.805185 1.75226,0.008 2.99701,-0.57971 4.62646,-2.18458 1.15847,-1.140994 1.47119,-1.324057 1.85208,-1.084191 0.25205,0.158726 0.49302,0.464706 0.53548,0.679953 0.12988,0.658344 -2.0166,2.602558 -3.7394,3.387038 -1.89667,0.86365 -3.11039,1.034 -5.40943,0.75925 z m -52.587023,-0.40956 c -0.244972,-0.24497 -2.586953,-2.864349 -5.204399,-5.820835 -2.617446,-2.956486 -4.923462,-5.375429 -5.124481,-5.375429 -0.297223,0 -0.378825,1.050147 -0.436896,5.622396 l -0.07141,5.622398 h -1.058333 -1.058333 v -8.334377 -8.334375 l 0.987626,-0.08185 c 0.543195,-0.04501 1.147871,0.01452 1.343723,0.132291 0.195855,0.117777 2.411744,2.506091 4.9242,5.307367 2.512455,2.801276 4.732997,5.09323 4.934535,5.09323 0.297402,0 0.379952,-0.984454 0.438176,-5.225521 l 0.07174,-5.225521 0.992187,-0.08212 0.992188,-0.08212 v 8.614929 8.614927 h -0.64256 c -0.353409,0 -0.842991,-0.20043 -1.087964,-0.4454 z m 33.506053,-5.387093 c -3.29022,-3.737859 -5.28554,-5.803173 -5.55625,-5.751145 -0.36829,0.07078 -0.43155,0.801023 -0.49381,5.70012 l -0.0714,5.618938 h -1.05307 -1.05307 v -8.481164 -8.481163 l 1.24587,0.08064 1.24587,0.08064 4.67351,5.159375 c 2.57043,2.837656 4.86475,5.19738 5.09848,5.243833 0.37687,0.0749 0.43308,-0.508913 0.49676,-5.159375 l 0.0718,-5.243833 0.99219,-0.08212 0.99218,-0.08212 v 8.614929 8.614928 l -0.7276,-8e-5 c -0.61644,-7e-5 -1.51195,-0.89114 -5.86145,-5.832413 z m -71.602927,5.246623 c -0.07295,-0.1901 -0.101079,-3.975814 -0.06251,-8.412694 l 0.07012,-8.067058 6.039639,-0.07117 c 5.655511,-0.06664 6.033936,-0.0414 5.950003,0.396875 -0.0796,0.415644 -0.533578,0.482849 -4.055261,0.600331 l -3.965631,0.132292 v 2.910417 2.910417 l 3.436573,0.132291 c 2.977287,0.114612 3.448208,0.19313 3.523628,0.587507 0.07826,0.409229 -0.26892,0.462688 -3.436575,0.529167 l -3.523626,0.07395 -0.132291,4.233334 -0.132292,4.233331 -1.78957,0.0783 c -1.287166,0.0563 -1.826808,-0.0187 -1.922203,-0.26731 z m 16.279481,-8.145377 v -8.466667 h 1.852084 1.852083 v 8.466667 8.466667 h -1.852083 -1.852084 z m 26.718871,8.268227 c -0.0021,-0.10914 1.803876,-3.97867 4.013562,-8.598956 4.005663,-8.375531 4.020073,-8.400521 4.844563,-8.400521 h 0.82696 l 3.79197,8.267819 c 2.08558,4.547301 3.84915,8.416828 3.91903,8.598958 0.0944,0.24602 -0.35706,0.33114 -1.75631,0.33114 H 106.64 l -1.12149,-2.3151 -1.12148,-2.315109 -3.3073,-0.06639 c -1.819007,-0.03652 -3.441088,0.02302 -3.604621,0.132291 -0.163534,0.109279 -0.78994,1.180952 -1.392016,2.381498 l -1.094681,2.18281 h -1.055381 c -0.580459,0 -1.057201,-0.0893 -1.059426,-0.19844 z m 10.534805,-6.2029 c 0.11756,-0.615051 -2.07834,-5.276533 -2.43692,-5.173118 -0.15875,0.04578 -0.85556,1.196385 -1.548474,2.556894 -1.590098,3.122099 -1.526061,3.24562 1.628054,3.140295 1.88766,-0.06303 2.28615,-0.151623 2.35734,-0.524071 z m 50.85257,-2.065327 v -8.466667 h 6.23711 c 5.79751,0 6.23086,0.03263 6.1484,0.463021 -0.0788,0.411215 -0.56201,0.477822 -4.31888,0.595312 l -4.23017,0.132292 v 2.910417 2.910417 l 3.43657,0.132291 c 3.00077,0.115515 3.44781,0.191011 3.52513,0.595313 0.0804,0.420542 -0.21057,0.463391 -3.17199,0.467071 -1.7933,0.0021 -3.41308,0.100846 -3.59952,0.219149 -0.25356,0.160901 -0.32023,1.076503 -0.26458,3.633968 l 0.0744,3.418873 4.23333,0.13229 c 4.14283,0.12947 4.23515,0.14502 4.31789,0.72761 l 0.0845,0.59531 h -6.23611 -6.23611 z m 70.72745,-17.182936 c -1.92173,-0.87249 -2.54896,-3.260159 -1.33116,-5.06725 0.8466,-1.256276 1.51205,-1.337858 1.51205,-0.185378 0,1.204638 0.62562,2.00713 1.72565,2.213497 1.33133,0.249758 2.19262,-0.05505 2.75127,-0.973683 0.54436,-0.89513 0.6831,-0.809389 0.94444,0.583639 0.55058,2.934875 -2.53329,4.822531 -5.60225,3.429175 z M -1.8439509,76.908853 c -0.062321,-0.791072 0.041913,-11.55732 0.1703874,-17.599189 l 0.1631574,-7.672916 -5.0053813,-8.73125 C -12.440102,32.571284 -17.100236,24.677323 -19.601302,20.739493 c -1.56447,-2.463196 -2.031763,-3.366287 -1.741842,-3.366287 0.03806,0 1.19443,0.284438 2.569705,0.632086 l 2.5005,0.632085 0.828707,-0.632085 c 0.455789,-0.347648 0.900939,-0.632086 0.989222,-0.632086 0.08828,0 0.604293,0.803672 1.146691,1.785937 1.115566,2.020257 4.3657698,7.464085 8.6487392,14.485938 1.5976843,2.619375 3.565295,5.863828 4.37246865,7.209896 0.95038491,1.584891 1.62962455,2.447396 1.92737445,2.447396 0.2960532,0 0.9532377,-0.824426 1.8454658,-2.315105 C 5.4393384,37.7233 10.283505,30.12003 11.113537,29.014872 c 0.382529,-0.509322 0.860811,-1.253463 1.062852,-1.653645 0.202041,-0.400183 0.473319,-0.727605 0.602838,-0.727605 0.129518,0 0.177395,-0.09399 0.106394,-0.208878 -0.071,-0.114882 0.189862,-0.697184 0.579697,-1.294003 1.146831,-1.755742 3.24908,-5.328634 4.058496,-6.897639 0.377079,-0.730942 0.507323,-0.736723 1.290714,-0.05729 0.341189,0.295912 0.76058,0.484208 0.931979,0.418436 0.909879,-0.349154 5.167686,-1.284776 5.290019,-1.162443 0.07865,0.07865 -0.616268,1.318033 -1.544265,2.754182 C 21.262379,23.636899 16.082489,32.38936 9.8114932,43.302373 5.1595388,51.397876 4.7152029,52.280548 4.683654,53.488831 4.6210165,55.887705 5.0609604,75.165019 5.200028,76.115117 l 0.1361917,0.930449 H 1.7515193 c -1.97158556,0 -3.589547,-0.06151 -3.5954702,-0.136699 z M 15.785608,24.58505 c -0.183489,-0.183488 -0.685456,0.189321 -0.685456,0.509084 0,0.175444 0.151812,0.155372 0.403269,-0.05332 0.221798,-0.184076 0.348782,-0.389171 0.282187,-0.455766 z M 185.09494,74.108337 c -5.12974,-0.78331 -10.46411,-2.995025 -13.88374,-5.756423 -3.18523,-2.57211 -5.88002,-6.300087 -7.3969,-10.232875 -2.06943,-5.365342 -2.42543,-12.708713 -0.90921,-18.75447 2.2661,-9.035842 9.53203,-15.915214 19.15116,-18.132291 2.36191,-0.544387 8.67097,-1.057156 9.073,-0.737408 0.17363,0.138094 1.32772,0.335467 2.56465,0.438606 6.6604,0.555366 12.13829,2.612327 16.21081,6.08719 2.42738,2.071149 4.12057,4.299619 5.63999,7.422962 1.13454,2.33218 2.49087,6.857462 2.49087,8.310586 0,0.826643 0.43997,1.359527 0.95828,1.160635 0.36596,-0.140433 0.47,0.156688 0.37394,1.067932 -0.0511,0.484312 0.94121,1.626883 1.41286,1.626883 0.29081,0 0.22894,4.001466 -0.10227,6.614584 -0.62976,4.968642 -3.10594,9.894342 -6.85802,13.642215 -3.95894,3.954492 -8.90557,6.23588 -15.71251,7.246615 -3.37225,0.500732 -9.71781,0.49842 -13.01291,-0.0047 z m 10.17739,-1.454182 c 0.94089,-0.152654 1.84481,-0.388848 2.00872,-0.524872 0.16389,-0.136025 0.37575,-0.169569 0.47077,-0.07454 0.28732,0.287314 2.38138,-0.504481 3.05576,-1.155422 0.34727,-0.335195 0.77508,-0.609446 0.95069,-0.609446 0.59992,0 3.9716,-2.576 5.59378,-4.273706 2.96101,-3.098872 4.69749,-6.526208 5.74204,-11.333182 0.77198,-3.552608 0.76556,-10.922322 -0.0127,-14.555612 -1.79082,-8.360685 -6.18949,-13.785465 -13.1007,-16.1568 -2.85276,-0.978822 -4.97459,-1.302033 -8.53578,-1.300226 -9.11389,0.0046 -15.51462,3.8779 -19.54076,11.82471 -0.94762,1.870417 -1.93479,4.96826 -2.16155,6.783167 -0.10273,0.822239 -0.27824,1.494982 -0.39002,1.494982 -0.25385,0 -0.52116,-0.963957 -0.52593,-1.89659 -0.006,-1.152165 -0.23331,-1.476282 -0.94092,-1.341015 -0.47786,0.09135 -0.7126,0.374075 -0.90106,1.085255 -0.56609,2.136134 -0.85124,4.841355 -0.8544,8.105475 -0.0123,12.688231 7.20372,21.609558 19.23513,23.780946 2.53094,0.456777 7.53917,0.531027 9.9069,0.146878 z m -25.6026,-34.960949 c -0.24694,-0.246945 -0.3175,-0.176389 -0.3175,0.3175 0,0.493889 0.0706,0.564444 0.3175,0.3175 0.24695,-0.246945 0.24695,-0.388056 0,-0.635 z m -42.51854,33.511231 c -8.337,-1.544447 -13.78213,-5.420987 -17.07947,-12.159356 -1.95839,-4.002114 -2.47682,-6.466568 -2.47682,-11.773958 0,-3.616066 0.1,-4.765451 0.58214,-6.694316 2.15054,-8.602615 8.22728,-14.596178 16.80807,-16.578001 4.31709,-0.997076 7.45637,-0.957751 13.27858,0.16634 7.86927,1.519316 13.56898,6.186794 16.26135,13.316393 0.46711,1.236927 0.95822,2.455702 1.09137,2.708389 0.13314,0.252687 0.24272,0.788468 0.2435,1.190625 10e-4,0.531339 0.36875,1.085644 1.34534,2.027992 l 1.34392,1.296797 0.0197,3.730286 c 0.0218,4.118515 -0.30577,5.966296 -1.65503,9.335915 -2.74421,6.853347 -8.36186,11.441521 -16.13665,13.179508 -2.81624,0.629547 -10.79464,0.777909 -13.62605,0.253386 z m 7.71992,-1.46213 c 2.42815,-0.332002 6.25983,-1.553496 7.91397,-2.522887 2.31159,-1.354682 5.24248,-5.130168 6.60916,-8.513723 2.03073,-5.027567 2.49873,-12.209476 1.20202,-18.446033 -1.96639,-9.45745 -8.13435,-14.683752 -17.38084,-14.727324 -5.24879,-0.02473 -8.88426,1.393455 -12.29577,4.796547 -2.32119,2.315454 -3.68959,4.739726 -5.00813,8.872444 -0.74596,2.338072 -0.86154,3.11517 -0.99366,6.680729 -0.11795,3.183102 -0.22663,4.034896 -0.51483,4.034896 -0.49613,0 -0.7541,-0.75878 -0.38384,-1.129035 0.37734,-0.377341 0.39779,-1.34406 0.0235,-1.112761 -0.15189,0.09388 -0.43801,0.03637 -0.63581,-0.127791 -0.19781,-0.164161 -0.72837,-0.404225 -1.17904,-0.533474 l -0.8194,-0.235001 0.002,2.958095 c 0.004,5.932051 1.99625,10.907951 5.86228,14.639705 4.35716,4.205828 11.08299,6.25647 17.59849,5.365613 z M 20.391818,70.756172 c -0.654844,-0.128466 -2.17289,-0.166182 -3.373437,-0.08381 -1.200547,0.08237 -2.182813,0.05478 -2.182813,-0.0613 0,-0.116088 1.060403,-2.468268 2.356448,-5.227066 3.72106,-7.920736 8.191757,-18.421868 14.074825,-33.060088 1.87112,-4.65571 3.525441,-8.506061 3.676267,-8.556336 0.150825,-0.05027 0.659188,0.135672 1.129696,0.413216 1.427631,0.84213 2.093466,0.91308 2.753122,0.293365 0.323932,-0.304319 0.74975,-0.491609 0.946261,-0.416201 0.196509,0.07541 0.688539,1.013206 1.093399,2.083995 0.404857,1.070788 0.84169,2.185013 0.970737,2.476054 0.129048,0.291042 0.460796,1.12448 0.73722,1.852084 0.696002,1.832026 8.341968,20.123592 9.565134,22.88282 0.549217,1.238928 1.683986,3.800409 2.521707,5.69218 0.837721,1.891771 2.399683,5.21747 3.471031,7.390445 1.071346,2.172973 1.947903,4.046688 1.947903,4.163811 0,0.117126 -0.863204,0.144267 -1.91823,0.06032 -1.055026,-0.08395 -2.596753,-0.04188 -3.426063,0.09349 -0.829307,0.135371 -1.618485,0.17581 -1.753724,0.08987 -0.135242,-0.08595 -1.397855,-3.068775 -2.805808,-6.628511 -1.407954,-3.559736 -2.687185,-6.625596 -2.842734,-6.813021 -0.22121,-0.266539 -2.378144,-0.340773 -9.901613,-0.340773 h -9.618795 l -0.373523,0.595312 c -0.205435,0.327422 -1.479092,3.418274 -2.830345,6.868557 -1.351254,3.450286 -2.584897,6.31643 -2.741433,6.369209 -0.156533,0.05278 -0.820388,-0.0092 -1.475232,-0.137612 z M 47.643901,54.815298 c 0,-0.07081 -0.416719,-0.302858 -0.926042,-0.515665 -0.509322,-0.212809 -0.926041,-0.57287 -0.926041,-0.800134 0,-0.227267 -1.129954,-3.299201 -2.51101,-6.826523 -1.381056,-3.527321 -3.202556,-8.250791 -4.047781,-10.4966 -0.845224,-2.245808 -1.658898,-4.123997 -1.808162,-4.173752 -0.149265,-0.04975 -0.819354,1.430537 -1.489083,3.289538 -0.669732,1.859001 -2.459382,6.59469 -3.977,10.523752 -1.517618,3.929063 -2.830018,7.34618 -2.916444,7.593597 -0.08642,0.247415 -0.609631,0.688637 -1.162682,0.980493 l -1.005546,0.530649 10.384895,0.01169 c 5.711693,0.0064 10.384896,-0.04624 10.384896,-0.117045 z M 41.632404,32.443962 c -0.07762,-0.296814 -0.200245,-0.480543 -0.2725,-0.408286 -0.143139,0.143137 0.109694,0.947946 0.297799,0.947946 0.0637,0 0.05232,-0.242847 -0.02529,-0.53966 z m 22.294969,38.118871 c -0.04429,-0.07737 0.03466,-2.58145 0.175434,-5.564627 0.261588,-5.543373 0.129781,-39.762866 -0.155924,-40.48125 -0.08681,-0.218282 -0.05655,-0.555759 0.06724,-0.74995 0.178945,-0.2807 0.544459,-0.190175 1.783157,0.441623 2.746165,1.400684 2.476283,0.114997 2.492832,11.875439 0.0083,5.858431 0.118457,10.44067 0.253119,10.523898 0.35936,0.222096 23.147337,0.405635 27.328788,0.220109 L 99.517851,46.666317 98.71629,46.178859 97.91473,45.691401 V 42.09188 c 0,-1.979735 -0.128522,-6.812062 -0.285605,-10.738504 -0.15708,-3.926441 -0.219318,-7.311721 -0.138303,-7.522844 0.117626,-0.306527 0.563833,-0.174433 2.214841,0.655678 1.672877,0.841105 2.166447,0.985451 2.585707,0.756191 0.28498,-0.15584 0.57769,-0.355803 0.65045,-0.444361 0.24412,-0.297126 1.52576,-1.048374 1.62332,-0.951529 0.0531,0.05267 0.0181,1.445457 -0.0777,3.095083 -0.43409,7.47763 -0.55568,24.758032 -0.23799,33.823279 0.18104,5.165989 0.34782,9.500756 0.37064,9.632817 0.0229,0.132797 -1.58945,0.255458 -3.60778,0.274453 l -3.649244,0.03434 0.209661,-5.698413 c 0.115313,-3.134125 0.209661,-8.020129 0.209661,-10.857786 v -5.159375 l -6.538973,-0.208452 c -3.596436,-0.114646 -9.668624,-0.114646 -13.49375,0 l -6.954777,0.208452 v 6.746875 c 0,5.827065 0.244682,13.579642 0.460659,14.595587 0.05106,0.240178 -0.863323,0.328363 -3.589602,0.346196 -2.011958,0.01315 -3.694343,-0.03937 -3.738626,-0.116739 z m 5.553736,-3.163544 c 0.05106,-0.738513 -0.0079,-1.34275 -0.131019,-1.34275 -0.226039,0 -0.501375,2.596156 -0.296987,2.800303 0.2266,0.226335 0.337741,-0.152146 0.428006,-1.457553 z M 68.55938,58.384088 c 2.57e-4,-5.425411 -0.06218,-9.927031 -0.138758,-10.003605 -0.07657,-0.07657 -0.139221,4.424842 -0.139221,10.00314 0,5.578297 0.06244,10.079921 0.138758,10.003604 0.07632,-0.07632 0.138967,-4.57773 0.139221,-10.003139 z m 0.81012,2.5693 c -0.216077,-0.216077 -0.294349,-0.186467 -0.294349,0.111345 0,0.525955 0.355785,0.88174 0.487275,0.487275 0.05578,-0.167349 -0.03104,-0.436729 -0.192926,-0.59862 z m 0.352986,-5.877057 c 0.18692,-0.521647 0.183666,-0.52187 -0.22886,-0.01558 -0.230161,0.282474 -0.404783,0.937318 -0.388048,1.455208 l 0.03043,0.941618 0.198435,-0.926042 c 0.109138,-0.509323 0.28376,-1.164166 0.388046,-1.455208 z m 158.168804,8.941401 c -0.32742,-0.06307 -0.59531,-0.286695 -0.59531,-0.496954 0,-0.210259 0.35107,-3.148775 0.78016,-6.530036 0.9621,-7.581519 3.10269,-28.389244 3.43355,-33.376075 0.19687,-2.967246 0.34322,-3.81319 0.75526,-4.365625 0.28109,-0.376866 0.70837,-0.724008 0.94952,-0.771426 0.37331,-0.0734 0.3948,0.0096 0.14464,0.558638 -0.40893,0.897509 0.2957,2.242205 1.28387,2.450096 0.39754,0.08363 0.94393,0.196616 1.21421,0.251072 0.70956,0.142964 1.82007,-0.332054 2.33284,-0.997871 l 0.44301,-0.575232 0.17967,0.71586 c 0.1111,0.442671 -0.0256,1.399421 -0.35827,2.507048 -0.29586,0.985153 -0.61528,2.267437 -0.70982,2.84952 -0.26525,1.633098 -1.07132,5.423108 -2.08207,9.789584 -1.8584,8.028342 -5.72073,26.984396 -5.72073,28.07697 0,0.123203 -1.23394,0.07171 -2.05053,-0.08557 z M 68.558271,35.629456 c -0.02498,-7.66245 0.04526,-10.31875 0.272839,-10.31875 0.16856,0 0.738912,-0.380811 1.267444,-0.846245 l 0.960972,-0.846246 0.08763,1.044683 c 0.0482,0.574576 -0.0411,2.95287 -0.198437,5.285098 -0.15734,2.332229 -0.286073,6.743389 -0.286073,9.802578 v 5.562161 L 69.78397,45.63047 c -0.483275,0.174755 -0.94919,0.317736 -1.035371,0.317736 -0.08618,0 -0.171825,-4.643438 -0.190328,-10.31875 z m 0.902454,-3.685885 c 0.08373,-0.135465 0.03122,-0.321086 -0.116675,-0.41249 -0.147895,-0.0914 -0.268899,0.01943 -0.268899,0.246302 0,0.464747 0.158766,0.533177 0.385574,0.166188 z"
         id="path4506"
         inkscape:connector-curvature="0" />
      <path
         style="fill:#4805b1;stroke-width:0.26458332"
         d="m 225.53198,76.878712 c -1.95729,-0.566663 -2.77873,-2.925622 -1.74132,-5.000561 0.63959,-1.279237 1.38866,-1.393238 1.38866,-0.211342 0,1.204638 0.62562,2.00713 1.72565,2.213497 1.3226,0.248121 2.19185,-0.05379 2.73732,-0.950751 0.59393,-0.976636 0.82869,-0.771293 0.82869,0.724847 0,2.743901 -2.02721,4.067318 -4.939,3.22431 z M -1.7419887,70.819039 c 0.094353,-3.274218 0.2444226,-8.929687 0.3334877,-12.567708 l 0.1619366,-6.614583 -5.016242,-8.73125 C -12.260072,32.466682 -18.357421,22.208389 -20.154116,19.534503 c -0.716867,-1.06686 -1.25527,-1.98787 -1.196451,-2.04669 0.05882,-0.05882 1.225348,0.175771 2.592286,0.52131 l 2.485342,0.628254 0.828707,-0.632085 c 0.455789,-0.347648 0.900939,-0.632086 0.989222,-0.632086 0.08828,0 0.604293,0.803672 1.146691,1.785937 1.115566,2.020257 4.3657698,7.464085 8.6487392,14.485938 1.5976843,2.619375 3.565295,5.863828 4.37246865,7.209896 0.95038491,1.584891 1.62962455,2.447396 1.92737445,2.447396 0.2960532,0 0.9532377,-0.824426 1.8454658,-2.315105 C 5.4393384,37.7233 10.283505,30.12003 11.113537,29.014872 c 0.382529,-0.509322 0.860811,-1.253463 1.062852,-1.653645 0.202041,-0.400183 0.473319,-0.727605 0.602838,-0.727605 0.129518,0 0.177395,-0.09399 0.106394,-0.208878 -0.071,-0.114882 0.189862,-0.697184 0.579697,-1.294003 1.146831,-1.755742 3.24908,-5.328634 4.058496,-6.897639 0.377079,-0.730942 0.507323,-0.736723 1.290714,-0.05729 0.341189,0.295912 0.746358,0.489667 0.90038,0.430566 0.867627,-0.332926 4.974336,-1.257273 5.086686,-1.144922 0.07332,0.07332 -0.453223,1.006189 -1.170091,2.073049 -3.438726,5.117595 -18.2141753,30.646994 -18.7267606,32.35657 -0.2431414,0.810932 -0.2663692,3.205771 -0.096329,9.932133 0.1232349,4.874948 0.2568707,10.23276 0.2969656,11.90625 l 0.072898,3.042708 H 1.6323684 -1.9135401 Z M 15.785608,24.58505 c -0.183489,-0.183488 -0.685456,0.189321 -0.685456,0.509084 0,0.175444 0.151812,0.155372 0.403269,-0.05332 0.221798,-0.184076 0.348782,-0.389171 0.282187,-0.455766 z M 185.09494,73.843753 C 172.35079,71.897727 164.22887,63.9215 162.48228,51.636748 c -0.33752,-2.374006 -0.33703,-6.362756 0.001,-8.73125 0.84572,-5.924441 2.93392,-10.344966 6.83196,-14.462608 3.65429,-3.860154 7.39879,-5.979319 12.74095,-7.210612 2.36191,-0.544387 8.67096,-1.057156 9.07299,-0.737408 0.17364,0.138094 1.32773,0.335467 2.56465,0.438606 6.6604,0.555366 12.1383,2.612327 16.21082,6.08719 2.42737,2.071149 4.12057,4.299619 5.63999,7.422962 1.13454,2.33218 2.49087,6.857462 2.49087,8.310586 0,0.826643 0.43997,1.359527 0.95828,1.160635 0.36596,-0.140433 0.47,0.156688 0.37394,1.067932 -0.0511,0.484312 0.94121,1.626883 1.41286,1.626883 0.29081,0 0.22894,4.001466 -0.10227,6.614584 -0.79605,6.280605 -4.52415,12.295634 -9.92308,16.010194 -1.7987,1.237541 -5.79359,3.061465 -8.06557,3.682457 -4.84093,1.323153 -12.39392,1.721028 -17.59479,0.926854 z m 10.17739,-1.189598 c 0.94089,-0.152654 1.84481,-0.388848 2.00872,-0.524872 0.16389,-0.136025 0.37575,-0.169569 0.47077,-0.07454 0.28732,0.287314 2.38138,-0.504481 3.05576,-1.155422 0.34727,-0.335195 0.77508,-0.609446 0.95069,-0.609446 0.63819,0 4.01683,-2.614803 5.73615,-4.43933 3.06938,-3.257196 5.07724,-7.384698 5.92058,-12.170757 0.54322,-3.082814 0.54781,-10.034336 0.009,-13.059129 -0.93622,-5.252039 -2.86068,-9.09223 -6.21386,-12.399535 -2.61161,-2.575885 -4.70986,-3.812319 -8.3565,-4.924221 -2.18146,-0.665155 -2.75862,-0.727586 -6.87916,-0.744125 -3.90141,-0.01566 -4.79254,0.06233 -6.71947,0.588048 -3.86365,1.05411 -6.46741,2.579909 -9.19594,5.388816 -3.2195,3.314339 -5.7841,8.49082 -6.31607,12.748584 -0.10273,0.822239 -0.27824,1.494982 -0.39002,1.494982 -0.25385,0 -0.52116,-0.963957 -0.52593,-1.89659 -0.006,-1.152165 -0.23331,-1.476282 -0.94092,-1.341015 -0.47786,0.09135 -0.7126,0.374075 -0.90106,1.085255 -0.56609,2.136134 -0.85124,4.841355 -0.8544,8.105475 -0.0123,12.688231 7.20372,21.609558 19.23513,23.780946 2.53094,0.456777 7.53917,0.531027 9.9069,0.146878 z m -25.6026,-34.960949 c -0.24694,-0.246945 -0.3175,-0.176389 -0.3175,0.3175 0,0.493889 0.0706,0.564444 0.3175,0.3175 0.24695,-0.246945 0.24695,-0.388056 0,-0.635 z m -42.38625,33.249201 c -8.37333,-1.510811 -13.92012,-5.459659 -17.10565,-12.1778 -1.81711,-3.832204 -2.31835,-6.31715 -2.31835,-11.493484 0,-5.228556 0.52198,-7.779446 2.35513,-11.509376 3.0272,-6.159495 7.70255,-9.983829 14.21043,-11.623813 4.52454,-1.140184 7.78983,-1.133315 13.83865,0.02911 7.86073,1.510626 13.56872,6.184224 16.26135,13.314497 0.46711,1.236927 0.95822,2.455702 1.09137,2.708389 0.13314,0.252687 0.24272,0.788468 0.2435,1.190625 10e-4,0.531609 0.36929,1.086162 1.34913,2.031648 l 1.34769,1.300454 0.006,3.858921 c 0.007,4.528444 -0.47756,6.812383 -2.16513,10.208922 -3.36192,6.766438 -9.14864,10.850959 -17.22978,12.161528 -3.04837,0.494374 -9.14522,0.494567 -11.88415,2.64e-4 z m 7.58763,-1.2001 c 2.42815,-0.332002 6.25983,-1.553496 7.91397,-2.522887 3.66618,-2.148522 7.20292,-8.146722 8.20397,-13.913673 0.61691,-3.553952 0.40118,-11.397414 -0.39521,-14.369 -0.9789,-3.652601 -2.47471,-6.31798 -4.90537,-8.740913 -3.52853,-3.517314 -6.97796,-4.885128 -12.31957,-4.885128 -8.96074,0 -14.38332,4.315711 -17.45323,13.890625 -0.75154,2.344018 -0.86536,3.106102 -0.99781,6.680729 -0.11795,3.183102 -0.22663,4.034896 -0.51483,4.034896 -0.49613,0 -0.7541,-0.75878 -0.38384,-1.129035 0.37734,-0.377341 0.39779,-1.34406 0.0235,-1.112761 -0.15189,0.09388 -0.43801,0.03637 -0.63581,-0.127791 -0.19781,-0.164161 -0.72837,-0.404225 -1.17904,-0.533474 l -0.8194,-0.235001 0.002,2.958095 c 0.004,5.932051 1.99625,10.907951 5.86228,14.639705 4.35716,4.205828 11.08299,6.25647 17.59849,5.365613 z M 20.391818,70.495192 c -0.654844,-0.130447 -2.186292,-0.168754 -3.403216,-0.08512 -1.726264,0.118631 -2.181596,0.07852 -2.071579,-0.182507 0.07756,-0.18401 1.150763,-2.477688 2.384901,-5.097063 3.593282,-7.626496 8.101449,-18.217145 13.964917,-32.806594 1.87112,-4.65571 3.525441,-8.506061 3.676267,-8.556336 0.150825,-0.05027 0.659188,0.135672 1.129696,0.413216 1.427631,0.84213 2.093466,0.91308 2.753122,0.293365 0.323932,-0.304319 0.74975,-0.491609 0.946261,-0.416201 0.196509,0.07541 0.688539,1.013206 1.093399,2.083995 0.404857,1.070788 0.84169,2.185013 0.970737,2.476054 0.129048,0.291042 0.460796,1.12448 0.73722,1.852084 0.696002,1.832026 8.341968,20.123592 9.565134,22.88282 0.549217,1.238928 1.683986,3.800409 2.521707,5.69218 0.837721,1.891771 2.399683,5.21747 3.471031,7.390445 1.071346,2.172973 1.947903,4.024622 1.947903,4.114779 0,0.09015 -0.712116,0.04615 -1.582479,-0.0978 -1.03796,-0.171662 -2.227794,-0.172522 -3.457903,-0.0024 -1.285245,0.177641 -1.930627,0.172415 -2.05083,-0.01662 -0.09647,-0.15181 -1.36815,-3.252491 -2.825951,-6.890512 L 47.511609,56.928414 H 37.457443 27.403276 l -2.681779,6.703447 c -1.474978,3.686894 -2.784666,6.792785 -2.910417,6.901979 -0.125751,0.109193 -0.764418,0.0918 -1.419262,-0.03865 z M 47.643901,54.815298 c 0,-0.07081 -0.415507,-0.30235 -0.923351,-0.51454 -0.59555,-0.248838 -0.873318,-0.516178 -0.782423,-0.753049 0.07751,-0.201986 -1.067784,-3.453019 -2.545098,-7.22452 -1.477315,-3.7715 -3.318254,-8.583681 -4.09098,-10.693733 -0.808876,-2.208765 -1.563468,-3.869105 -1.778566,-3.913405 -0.255892,-0.0527 -0.689975,0.780953 -1.377683,2.645833 -0.552241,1.497529 -2.417802,6.340918 -4.145693,10.763087 -1.727893,4.422166 -3.141622,8.199556 -3.141622,8.3942 0,0.19464 -0.446485,0.5896 -0.992188,0.877686 l -0.992187,0.523796 10.384895,0.01169 c 5.711693,0.0064 10.384896,-0.04624 10.384896,-0.117046 z M 41.632404,32.443962 c -0.07762,-0.296814 -0.200245,-0.480543 -0.2725,-0.408286 -0.143139,0.143137 0.109694,0.947946 0.297799,0.947946 0.0637,0 0.05232,-0.242847 -0.02529,-0.53966 z m 28.368788,38.046444 c -0.582083,-0.134753 -2.159661,-0.173067 -3.505729,-0.08514 l -2.447395,0.159869 V 69.5645 c 0,-0.550347 0.129045,-5.583143 0.286768,-11.183986 0.211447,-7.508692 0.205965,-13.403498 -0.02087,-22.443556 -0.169201,-6.743113 -0.250765,-12.31708 -0.181251,-12.386595 0.06952,-0.06951 0.823048,0.228964 1.674519,0.663285 2.734519,1.394837 2.466338,0.112683 2.482885,11.870418 0.0083,5.858431 0.118456,10.44067 0.253118,10.523898 0.35936,0.222096 23.147338,0.405635 27.328789,0.220109 l 3.645831,-0.161758 -0.80156,-0.487458 -0.801558,-0.487458 v -4.744778 c 0,-2.609628 -0.126987,-7.445956 -0.282192,-10.747395 -0.155207,-3.30144 -0.217442,-6.171353 -0.138303,-6.377587 0.112927,-0.294281 0.588794,-0.151275 2.211428,0.664569 1.672878,0.841105 2.166448,0.985451 2.585708,0.756191 0.28498,-0.15584 0.57769,-0.355803 0.65045,-0.444361 0.24412,-0.297126 1.52576,-1.048374 1.62332,-0.951529 0.0531,0.05267 0.0181,1.445457 -0.0777,3.095083 -0.43409,7.47763 -0.55568,24.758032 -0.23799,33.823279 0.18104,5.165989 0.34782,9.511771 0.37064,9.657291 0.0228,0.145521 -0.13713,0.205214 -0.35541,0.132649 -0.21828,-0.07256 -1.87175,-0.121848 -3.67437,-0.109524 l -3.277505,0.02241 0.166079,-2.404017 c 0.09134,-1.32221 0.245588,-6.165591 0.342767,-10.76307 0.146945,-6.951803 0.11538,-8.396947 -0.187499,-8.584134 -0.200303,-0.123796 -6.165104,-0.222502 -13.255109,-0.219345 -10.703875,0.0048 -12.967258,0.0691 -13.340882,0.379174 -0.412699,0.342511 -0.436314,1.063866 -0.285144,8.71069 0.160727,8.130137 0.332894,11.974851 0.565499,12.628255 0.171199,0.480915 -0.144108,0.546772 -1.317379,0.275154 z m -0.520083,-3.091117 c 0.05106,-0.738513 -0.0079,-1.34275 -0.131019,-1.34275 -0.226039,0 -0.501375,2.596156 -0.296987,2.800303 0.2266,0.226335 0.337741,-0.152146 0.428006,-1.457553 z M 68.55938,58.384088 c 2.57e-4,-5.425411 -0.06218,-9.927031 -0.138758,-10.003605 -0.07657,-0.07657 -0.139221,4.424842 -0.139221,10.00314 0,5.578297 0.06244,10.079921 0.138758,10.003604 0.07632,-0.07632 0.138967,-4.57773 0.139221,-10.003139 z m 0.81012,2.5693 c -0.216077,-0.216077 -0.294349,-0.186467 -0.294349,0.111345 0,0.525955 0.355785,0.88174 0.487275,0.487275 0.05578,-0.167349 -0.03104,-0.436729 -0.192926,-0.59862 z m 0.352986,-5.877057 c 0.18692,-0.521647 0.183666,-0.52187 -0.22886,-0.01558 -0.230161,0.282474 -0.404783,0.937318 -0.388048,1.455208 l 0.03043,0.941618 0.198435,-0.926042 c 0.109138,-0.509323 0.28376,-1.164166 0.388046,-1.455208 z m 158.168804,8.676817 c -0.32742,-0.06307 -0.59531,-0.227163 -0.59531,-0.364662 0,-0.137498 0.35107,-3.016483 0.78016,-6.397744 0.9621,-7.581519 3.10269,-28.389244 3.43355,-33.376075 0.19687,-2.967246 0.34322,-3.81319 0.75526,-4.365625 0.28109,-0.376866 0.70837,-0.724008 0.94952,-0.771426 0.37331,-0.0734 0.3948,0.0096 0.14464,0.558638 -0.40893,0.897509 0.2957,2.242205 1.28387,2.450096 0.39754,0.08363 0.94393,0.196616 1.21421,0.251072 0.70956,0.142964 1.82007,-0.332054 2.33284,-0.997871 l 0.44301,-0.575232 0.17967,0.71586 c 0.1111,0.442671 -0.0256,1.399421 -0.35827,2.507048 -0.29586,0.985153 -0.61528,2.267437 -0.70982,2.84952 -0.35757,2.201505 -1.26825,6.313932 -2.90026,13.096876 -1.81668,7.550454 -3.16599,13.822788 -4.24033,19.711458 -0.37169,2.037292 -0.73454,3.972057 -0.80634,4.299479 -0.13158,0.600075 -0.50107,0.679265 -1.9064,0.408588 z M 68.558271,35.629456 c -0.02498,-7.66245 0.04526,-10.31875 0.272839,-10.31875 0.16856,0 0.738912,-0.380811 1.267444,-0.846245 l 0.960972,-0.846246 0.08763,1.044683 c 0.0482,0.574576 -0.0411,2.95287 -0.198437,5.285098 -0.15734,2.332229 -0.286073,6.743389 -0.286073,9.802578 v 5.562161 L 69.78397,45.63047 c -0.483275,0.174755 -0.94919,0.317736 -1.035371,0.317736 -0.08618,0 -0.171825,-4.643438 -0.190328,-10.31875 z m 0.902454,-3.685885 c 0.08373,-0.135465 0.03122,-0.321086 -0.116675,-0.41249 -0.147895,-0.0914 -0.268899,0.01943 -0.268899,0.246302 0,0.464747 0.158766,0.533177 0.385574,0.166188 z"
         id="path4504"
         inkscape:connector-curvature="0" />
      <path
         style="fill:#38008f;stroke-width:0.26458332"
         d="m 225.53198,76.878712 c -0.46087,-0.133429 -1.15821,-0.623207 -1.54964,-1.088393 -0.6249,-0.742651 -0.69739,-1.018312 -0.59437,-2.26051 0.0653,-0.787593 0.30026,-1.59766 0.53001,-1.827411 0.37387,-0.373866 0.42893,-0.338764 0.58529,0.373124 0.0949,0.432197 0.53181,1.129969 0.97086,1.550604 0.67616,0.6478 1.01396,0.764788 2.20832,0.764788 0.97162,0 1.56915,-0.14397 1.92169,-0.46302 0.69222,-0.626446 0.86684,-0.583825 0.86684,0.211576 0,2.254713 -2.26795,3.512553 -4.939,2.739242 z M -1.7420091,70.819733 c 0.094364,-3.2746 0.2440823,-8.930381 0.3327067,-12.568402 l 0.1611349,-6.614583 -4.5527798,-7.9375 C -11.269223,34.165635 -17.458745,23.711777 -19.631782,20.339516 c -0.871021,-1.351706 -1.52644,-2.514881 -1.456488,-2.584832 0.06995,-0.06995 1.099857,0.133148 2.288678,0.451333 l 2.161492,0.578518 0.842101,1.477148 c 0.463155,0.812431 2.045939,3.50121 3.517297,5.975064 1.471358,2.473855 5.1528746,8.69487 8.1811483,13.82448 3.0282736,5.129609 5.6100341,9.326562 5.7372455,9.326562 0.1272112,0 0.2312932,-1.254977 0.2312932,-2.788838 0,-2.286955 0.088664,-2.917851 0.4926841,-3.505729 0.2709764,-0.39429 1.2782727,-1.920485 2.238435,-3.391545 0.9601623,-1.471059 2.0572756,-2.878774 2.4380322,-3.128255 0.6771349,-0.443676 1.7033399,-1.275786 2.3877693,-1.936154 0.1885315,-0.181901 0.5001154,-0.330738 0.6924094,-0.330749 0.549574,-3.2e-5 3.432016,-4.40162 8.533421,-13.030822 l 1.525122,-2.5798 1.495544,-0.414694 c 0.822547,-0.228082 1.84227,-0.526225 2.26605,-0.662539 0.423778,-0.136314 0.820894,-0.197458 0.882478,-0.135875 0.06158,0.06158 -0.474826,0.984854 -1.192022,2.051714 -1.817404,2.703477 -8.596405,14.136726 -14.1971921,23.94454 L 4.7245453,51.725505 3.6613754,51.350397 C 1.7150819,50.663705 1.858122,49.725874 1.9343786,62.673341 l 0.068898,11.698055 1.4552083,1.01469 c 0.8003646,0.558081 1.4849448,1.098254 1.521288,1.200386 0.036343,0.102132 -1.4997933,0.186005 -3.413638,0.186386 l -3.4797153,7.93e-4 0.1715712,-5.953821 z M 185.09494,73.843753 C 172.35079,71.897727 164.22887,63.9215 162.48228,51.636748 c -0.72226,-5.08008 -0.0628,-10.883388 1.75361,-15.432376 2.63837,-6.607446 9.19189,-12.716797 13.794,-12.85909 0.82984,-0.02566 2.45126,-0.314181 3.60315,-0.641161 4.44242,-1.261046 10.12463,-1.681854 14.70669,-1.089136 11.51156,1.48909 19.152,8.599539 21.00848,19.551199 0.50673,2.989285 0.56067,9.404695 0.104,12.369648 -0.47618,3.091637 -0.44615,4.732345 0.085,4.645861 0.7898,-0.128591 1.11124,0.5965 0.75941,1.713044 -0.85413,2.710585 -3.7407,6.46769 -6.6808,8.695595 -2.04736,1.551422 -6.29491,3.610981 -8.92613,4.32811 -4.85107,1.322149 -12.39711,1.718995 -17.59479,0.925311 z m 10.31875,-0.935288 c 5.30692,-0.647047 9.74695,-2.30123 12.79362,-4.766398 1.78255,-1.442333 2.15621,-2.06565 1.36268,-2.273162 -0.29164,-0.07627 -0.53026,-0.286256 -0.53026,-0.466641 0,-0.180387 0.5874,-1.446421 1.30532,-2.813412 2.58758,-4.926984 3.474,-8.860991 3.48122,-15.450021 0.01,-8.772795 -1.91764,-14.283134 -6.6165,-18.917709 -2.61161,-2.575885 -4.70986,-3.812319 -8.3565,-4.924221 -2.18398,-0.665921 -2.75387,-0.727326 -6.87916,-0.741211 -4.82931,-0.01626 -6.48634,0.258345 -9.78959,1.622323 -2.40359,0.992494 -5.75037,3.333782 -7.37894,5.162055 -1.43268,1.608353 -1.46477,1.626845 -1.99329,1.148544 -0.29544,-0.26737 -0.47341,-0.589278 -0.39549,-0.71535 0.0779,-0.126073 0.0257,-0.229223 -0.11605,-0.229223 -0.50864,0 -2.3899,2.438192 -3.42657,4.440954 -2.04188,3.944798 -2.95732,8.351664 -2.95997,14.249089 -0.002,5.33187 1.03152,9.68761 3.22563,13.589124 4.6428,8.255736 14.69524,12.496983 26.27385,11.085259 z m -68.13021,-1.966058 c -8.37333,-1.510811 -13.92012,-5.459659 -17.10565,-12.1778 -1.81711,-3.832204 -2.31835,-6.31715 -2.31835,-11.493484 0,-3.635566 0.0991,-4.763839 0.59241,-6.746875 0.71873,-2.889039 2.4636,-6.525446 4.27751,-8.914616 2.1524,-2.834994 6.52752,-5.774061 8.49544,-5.706971 0.4946,0.01686 2.01249,-0.282618 3.37309,-0.66551 10.33104,-2.907307 20.8628,-0.39747 26.25038,6.255764 1.67486,2.068317 3.26115,5.267956 3.9528,7.972999 0.68307,2.671509 1.1609,8.085254 0.95746,10.847917 -0.13049,1.772039 -0.0719,2.288979 0.35992,3.175 0.28368,0.582083 0.51983,0.934842 0.52477,0.783907 0.005,-0.150931 0.2383,-0.291697 0.5186,-0.312811 0.44211,-0.03331 0.48982,0.09067 0.36013,0.935881 -0.0822,0.53585 -0.41708,1.696615 -0.74412,2.579479 -2.72336,7.351787 -8.86516,12.048495 -17.61023,13.466739 -3.04838,0.494374 -9.14523,0.494567 -11.88416,2.64e-4 z m 7.80521,-0.923394 c 3.06237,-0.297698 6.53008,-1.11185 8.56475,-2.010836 2.00694,-0.886737 4.69058,-2.868046 5.61708,-4.147036 l 0.78714,-1.08662 -0.73761,-0.378278 c -0.40568,-0.208052 -0.77733,-0.41221 -0.82588,-0.453689 -0.0486,-0.04148 0.32785,-1.127093 0.83646,-2.412484 1.65077,-4.171984 1.89963,-5.828228 1.88172,-12.523531 -0.0183,-6.826891 -0.30637,-8.392569 -2.28827,-12.435417 -1.35956,-2.773341 -4.45239,-6.021972 -7.00545,-7.358348 -4.91714,-2.573832 -12.10852,-2.567056 -17.28098,0.01628 -1.93423,0.96603 -5.43235,4.242193 -6.82853,6.39524 -0.46441,0.716173 -0.84439,1.11115 -0.84439,0.877726 0,-0.233424 -0.23812,-0.499985 -0.52916,-0.592358 -0.29104,-0.09237 -0.52917,-0.27899 -0.52917,-0.414705 0,-0.135714 -0.22571,-0.246753 -0.50158,-0.246753 -0.60533,0 -1.87528,1.892641 -2.80465,4.179849 -1.02797,2.529845 -1.47897,5.748482 -1.47985,10.561144 -0.001,5.244084 0.50923,7.750151 2.3316,11.452757 1.02415,2.080829 1.62659,2.903006 3.49945,4.775864 1.88825,1.888247 2.67794,2.464395 4.77586,3.484393 2.56444,1.246815 4.86306,1.930146 7.76515,2.308416 2.28043,0.297241 2.61969,0.297749 5.59631,0.0084 z M 20.391818,70.49511 c -0.654844,-0.130495 -2.113359,-0.174255 -3.241146,-0.09724 -1.127786,0.07702 -2.05052,0.04097 -2.05052,-0.0801 0,-0.121071 0.971208,-0.567367 2.158243,-0.991775 l 2.15824,-0.771646 2.739118,-6.606715 c 1.506516,-3.633692 3.323471,-8.035465 4.037676,-9.781715 2.711218,-6.628982 4.520597,-10.995516 6.358927,-15.345833 1.045385,-2.473854 2.517156,-6.07258 3.270602,-7.997167 0.753446,-1.924588 1.505164,-3.502166 1.670484,-3.505729 0.399553,-0.0086 0.360315,-0.09855 6.057675,13.884146 9.720175,23.855643 11.230488,27.528136 11.693602,28.434332 0.37947,0.742529 0.834376,1.070747 2.383604,1.719791 1.053047,0.441169 1.916251,0.884497 1.91823,0.985171 0.0019,0.100674 -0.800074,0.117626 -1.78234,0.03767 -0.982265,-0.07995 -2.41373,-0.02926 -3.181029,0.112663 -0.995074,0.184047 -1.448912,0.173246 -1.582788,-0.03767 -0.10323,-0.162639 -1.38044,-3.272268 -2.838241,-6.910289 l -2.650546,-6.61459 H 37.457443 27.403276 l -2.681779,6.703447 c -1.474978,3.686894 -2.784666,6.792785 -2.910417,6.901979 -0.125751,0.109193 -0.764418,0.09176 -1.419262,-0.03873 z M 48.333757,54.989987 c -0.07432,-0.120251 -0.617127,-0.435989 -1.206241,-0.701643 -0.589113,-0.265653 -1.071115,-0.636657 -1.071115,-0.824455 0,-0.187796 -1.203613,-3.414168 -2.674699,-7.169711 -1.471084,-3.755546 -3.306927,-8.55467 -4.079653,-10.664722 -0.829723,-2.265692 -1.561227,-3.868599 -1.786631,-3.914959 -0.270764,-0.05569 -0.773789,0.982266 -1.731044,3.571875 -0.742154,2.007707 -2.650625,6.984126 -4.241046,11.058709 l -2.891673,7.408333 -1.08721,0.508315 c -0.597967,0.279572 -1.08721,0.606994 -1.08721,0.727604 0,0.120608 4.948121,0.21929 10.995824,0.21929 6.047702,0 10.935017,-0.09839 10.860698,-0.218636 z m 15.714311,14.669355 c 0,-0.432391 0.131087,-5.497799 0.291306,-11.256463 0.215312,-7.738962 0.212116,-13.601787 -0.01225,-22.474538 -0.166958,-6.602332 -0.253027,-12.054772 -0.191265,-12.116533 0.159411,-0.159412 3.009813,1.219122 3.337703,1.614207 0.174297,0.210016 0.297479,4.134659 0.341749,10.888306 l 0.06921,10.559927 15.742708,0.06864 c 8.658489,0.03775 15.917965,0.0016 16.132169,-0.08038 0.270222,-0.103397 0.0677,-0.329367 -0.661458,-0.738064 l -1.05092,-0.589039 -0.172169,-8.987872 c -0.09469,-4.94333 -0.249664,-9.78072 -0.344382,-10.749758 -0.09471,-0.969037 -0.07677,-1.817588 0.03988,-1.885669 0.116647,-0.06808 0.985993,0.248518 1.931879,0.703553 l 1.719792,0.827335 0.13229,21.695834 0.13229,21.695833 1.256,0.661459 c 0.69081,0.363802 1.25601,0.720989 1.25602,0.79375 0,0.07276 -1.48522,0.142176 -3.30048,0.15426 -3.255569,0.02167 -3.298532,0.01418 -3.156927,-0.550008 0.07895,-0.314584 0.165531,-5.206034 0.192389,-10.869885 l 0.04883,-10.297909 -6.482291,-0.209405 c -3.565261,-0.11517 -9.696979,-0.107246 -13.626042,0.0176 -6.618401,0.210318 -7.215394,0.191945 -8.117985,-0.249835 -0.535829,-0.262266 -1.050073,-0.599554 -1.142762,-0.749528 -0.549281,-0.888743 -0.661128,0.879965 -0.661128,10.454852 v 10.423075 l 0.595313,0.429461 c 0.327422,0.236204 1.036582,0.688245 1.575911,1.004539 l 0.980599,0.575079 -3.427995,0.01167 -3.427994,0.01167 V 69.659339 Z M 227.87979,63.75164 c -0.42401,-0.08117 -0.56461,-0.249669 -0.46669,-0.559281 0.12815,-0.405215 0.62352,-3.867793 1.59509,-11.149481 0.24484,-1.835044 0.50568,-2.868496 0.77342,-3.064272 0.62321,-0.455703 0.84615,-1.250924 2.1649,-7.722043 1.3698,-6.721669 2.12726,-9.864896 2.45661,-10.194248 0.17139,-0.17139 1.09054,0.0703 1.82751,0.480536 0.12664,0.07049 -0.99511,5.651404 -2.44339,12.156397 -1.76271,7.91724 -2.33329,10.666473 -3.18489,15.345833 -0.37077,2.037292 -0.73286,3.972057 -0.80466,4.299479 -0.13183,0.601181 -0.49801,0.678905 -1.9179,0.40708 z"
         id="path4502"
         inkscape:connector-curvature="0" />
      <path
         style="fill:#21025d;stroke-width:0.26458332"
         d="m 225.53198,76.892388 c -1.20894,-0.369736 -2.20566,-1.661662 -2.2007,-2.852504 0.006,-1.499336 0.38332,-1.881275 0.88999,-0.901486 0.93085,1.800061 3.25658,2.645384 4.91653,1.786991 0.99653,-0.515324 1.19456,-0.410914 0.96388,0.50819 -0.3302,1.31563 -2.63356,2.050944 -4.5697,1.458809 z M -1.5604171,76.642585 c 0.011843,-0.195432 2.17508611,-1.795431 2.6995969,-1.996705 0.284489,-0.109167 0.970553,0.194924 1.9078067,0.845616 0.8049604,0.558845 1.4647994,1.075616 1.4663102,1.148377 0.00159,0.07276 -1.3662977,0.133511 -3.039574,0.135003 -1.67327661,0.0016 -3.0386396,-0.05804 -3.0341398,-0.132291 z M 185.09494,73.843753 c -12.89406,-1.968918 -20.97523,-10.018897 -22.64997,-22.562555 -0.5666,-4.243742 -0.0194,-9.99723 1.3169,-13.846386 1.2598,-3.628824 3.64019,-7.311826 5.56346,-8.607914 1.79146,-1.207264 1.79959,-0.08282 0.0232,3.212313 -1.48956,2.763133 -2.37426,5.17409 -3.08484,8.406702 -0.38201,1.737865 -0.47901,3.297057 -0.46574,7.486668 0.0154,4.867151 0.0732,5.501203 0.7201,7.90358 2.75368,10.22585 10.05013,16.143452 21.44634,17.393516 8.14483,0.893416 16.51577,-1.34348 22.33125,-5.9674 1.20009,-0.954198 2.28753,-1.734904 2.41653,-1.734904 0.12901,0 0.30935,0.26789 0.40076,0.595312 0.43593,1.561486 -5.58745,5.490813 -10.42323,6.799551 -4.87628,1.319697 -12.40494,1.714008 -17.59479,0.921517 z M -1.498027,72.041364 C -1.577436,71.913277 -1.559646,67.210308 -1.458495,61.590322 L -1.2745832,51.372164 -7.0650915,41.317998 C -13.53785,30.079226 -17.394509,23.541223 -19.362552,20.470716 c -0.726854,-1.134025 -1.264494,-2.118924 -1.194754,-2.188663 0.169845,-0.169846 3.400914,0.592359 3.656597,0.862586 0.110814,0.117118 1.92173,3.129973 4.024257,6.695233 C -2.0726369,44.159929 1.132838,49.543605 1.380433,49.784664 1.7508515,50.145305 1.8373917,50.01646 6.3563868,42.376331 12.301582,32.324962 20.130309,19.395167 20.478594,19.052332 c 0.35234,-0.346829 4.147161,-1.425962 4.145425,-1.178834 -5.29e-4,0.08864 -0.364789,0.696947 -0.809257,1.351791 -1.422321,2.095529 -9.522039,15.746999 -14.2462224,24.010938 -2.51646,4.402005 -4.7271199,8.003646 -4.9125796,8.003646 -0.185457,0 -0.8410918,-0.177785 -1.4569651,-0.395079 C 2.58312,50.627502 1.9913305,50.504037 1.8839059,50.570429 1.7764814,50.636821 1.6144635,55.309215 1.523866,60.953529 1.4332687,66.59784 1.2808414,71.487575 1.1851392,71.819606 1.0327636,72.34826 0.86416527,72.414035 -0.17125619,72.348773 -0.82157133,72.307784 -1.4186182,72.169449 -1.498027,72.041364 Z M 127.28348,70.942407 c -8.37333,-1.510811 -13.92012,-5.459659 -17.10565,-12.1778 -1.81711,-3.832204 -2.31835,-6.31715 -2.31835,-11.493484 0,-3.616066 0.0999,-4.765451 0.58214,-6.694316 0.71285,-2.851531 1.98801,-5.638005 3.50855,-7.66684 1.80582,-2.409491 3.43836,-2.447501 2.21248,-0.05151 -2.03995,3.987074 -2.90459,7.017782 -3.29943,11.564984 -0.53666,6.180489 0.44599,11.724571 2.8495,16.07685 1.47446,2.669953 4.95836,5.969413 7.74993,7.339637 4.18018,2.051818 8.01529,2.732408 13.49375,2.394649 6.62157,-0.408239 11.39606,-2.486052 15.50689,-6.748463 1.79558,-1.861788 1.91254,-1.935768 2.57969,-1.631794 0.38436,0.175125 0.69884,0.400497 0.69884,0.500827 0,0.409811 -1.58364,2.325971 -2.90185,3.511146 -2.76554,2.486461 -6.96472,4.314997 -11.65024,5.073102 -3.07138,0.496943 -9.16021,0.498483 -11.90625,0.003 z M 21.402968,70.683663 c -0.07931,-0.07931 -1.261993,-0.230915 -2.628193,-0.336905 l -2.483999,-0.192706 1.719792,-0.697283 1.719792,-0.697283 2.78181,-6.576994 2.781811,-6.576994 11.637981,-0.0663 c 6.40089,-0.03646 11.816514,-0.133421 12.034721,-0.215463 0.262046,-0.09853 -0.139121,-0.435325 -1.181632,-0.992037 l -1.578372,-0.84287 -2.329582,-5.953125 C 42.595826,44.261487 40.77636,39.498987 39.83384,36.952372 c -0.94252,-2.546614 -1.892551,-4.967279 -2.111181,-5.379254 -0.26283,-0.495265 -0.397508,-1.503738 -0.397508,-2.976562 0,-2.164576 0.243361,-2.73318 0.755203,-1.764496 0.595405,1.126832 11.41563,27.812519 11.41563,28.154119 0,0.209656 0.11647,0.497663 0.258821,0.640014 0.142354,0.142354 1.427369,3.112963 2.855592,6.601355 l 2.596767,6.342533 1.653942,0.819978 1.653945,0.819981 -2.328889,0.150881 c -1.280888,0.08299 -2.50185,0.190246 -2.713247,0.238355 -0.278558,0.06339 -1.151937,-1.806141 -3.172833,-6.791695 L 47.511609,56.928414 H 37.457443 27.403276 l -2.681779,6.703447 c -2.58911,6.471809 -3.008125,7.362206 -3.318529,7.051802 z m 43.071296,-0.346348 c -0.09363,-0.151503 -0.06262,-0.341979 0.06893,-0.423278 0.139954,-0.0865 0.224065,-9.533488 0.202753,-22.77246 -0.02405,-14.934326 0.05351,-22.622663 0.228163,-22.61882 0.145521,0.0032 0.770599,0.235509 1.389063,0.51624 l 1.124479,0.51042 v 21.582305 21.582306 l 1.242425,0.787921 1.242425,0.787924 -1.705446,0.0029 c -0.937995,0.0016 -2.136793,0.07425 -2.663997,0.161452 -0.554363,0.09169 -1.030335,0.04239 -1.128794,-0.116922 z m 33.705053,-0.0238 c 0,-0.100315 0.148034,-0.330423 0.328965,-0.511353 0.253949,-0.253949 0.309215,-2.66424 0.242368,-10.570104 C 98.70303,53.599431 98.604651,48.931387 98.532041,48.858627 98.233737,48.5597 86.664987,48.345679 79.187126,48.500746 c -7.345698,0.152328 -8.0993,0.12677 -9.061979,-0.307338 -0.577498,-0.260416 -1.049996,-0.574463 -1.049996,-0.69788 0,-0.123421 7.01766,-0.224401 15.594801,-0.224401 15.726258,0 16.926568,-0.07041 15.508748,-0.909675 -1.577941,-0.934053 -1.470192,-0.138488 -1.516238,-11.195025 -0.02318,-5.566178 0.03043,-10.192901 0.119134,-10.281606 0.0887,-0.08871 0.614558,0.06013 1.168564,0.330741 l 1.00728,0.492023 0.0564,10.715625 c 0.031,5.893594 0.0608,15.624532 0.0661,21.624311 l 0.01,10.908684 1.12448,0.57631 c 0.61846,0.316971 1.00541,0.607256 0.85989,0.645075 -0.69098,0.179586 -4.89479,0.29632 -4.89479,0.135925 z M 228.02359,63.757487 c -0.58985,-0.154141 -0.58212,-0.31741 0.0469,-0.991187 0.36931,-0.395552 0.73624,-1.786895 1.33028,-5.044136 0.92892,-5.093552 2.2902,-11.691776 2.71119,-13.141423 0.28394,-0.977696 1.26939,-1.628579 1.26939,-0.838417 0,0.344819 -3.24,18.081202 -3.58085,19.602236 -0.13246,0.591106 -0.64203,0.70952 -1.77696,0.412927 z m -12.97972,-8.829344 -1.00731,-0.94194 -0.0849,-5.804935 c -0.11244,-7.687945 -0.88558,-11.250723 -3.44474,-15.873952 -1.37399,-2.482189 -4.95326,-6.005971 -7.42484,-7.309748 -3.2667,-1.723211 -6.02045,-2.372566 -10.71109,-2.525759 -4.00658,-0.130851 -4.6631,-0.0669 -9.12812,0.889189 -1.41884,0.303815 -0.51581,-0.170298 1.32947,-0.698 5.59222,-1.599231 13.55122,-1.120617 19.18128,1.153465 2.43198,0.982322 4.36376,2.237411 6.50309,4.225107 4.43136,4.11727 6.703,9.447486 7.14785,16.771888 0.2042,3.362204 -0.23972,8.193289 -0.91162,9.920843 l -0.44174,1.13578 z M 25.948068,54.183698 c 0,-0.246195 1.575599,-3.897619 3.096964,-7.177159 0.506299,-1.091406 1.101095,-2.430859 1.321768,-2.976562 0.220673,-0.545703 0.510307,-0.992188 0.643628,-0.992188 0.133321,0 0.360511,-0.26789 0.504865,-0.595312 0.746744,-1.69376 2.308127,-4.052947 2.533324,-3.82775 0.125969,0.125969 -2.191832,6.558379 -4.377824,12.14943 -1.046134,2.675663 -1.147427,2.827732 -2.15105,3.2293 -1.19354,0.477563 -1.571675,0.523333 -1.571675,0.190241 z m 126.909422,-2.247215 -1.23234,-1.442466 -0.001,-3.00051 c -0.003,-9.32973 -3.24381,-16.405162 -9.12707,-19.928412 -4.22692,-2.531337 -10.74865,-3.071155 -16.1736,-1.338726 -2.37218,0.757544 -2.47952,0.774529 -2.47952,0.392376 0,-0.441407 2.04941,-1.229146 4.4653,-1.716347 3.16281,-0.637826 9.66284,-0.42352 12.46803,0.411071 7.4373,2.212719 12.23336,7.428359 13.95428,15.175042 0.80024,3.60228 0.51242,11.574533 -0.45782,12.680796 -0.10113,0.115303 -0.73842,-0.439468 -1.4162,-1.232824 z"
         id="path4500"
         inkscape:connector-curvature="0" />
    </g>
  </g>
</svg>
