<svg xmlns="http://www.w3.org/2000/svg" viewBox="0 0 101.415 120">
    <defs>
        <style>
            .cls-1{fill:#fff}
        </style>
    </defs>
    <g id="Android" transform="translate(0 .001)">
        <g id="Слой_1" data-name="Слой 1" transform="translate(0 -.001)">
            <path id="Path_6081" d="M245.421 107.09a7.432 7.432 0 0 0-7.421 7.421v30.919a7.421 7.421 0 0 0 14.841 0v-30.919a7.432 7.432 0 0 0-7.42-7.421z" class="cls-1" data-name="Path 6081" transform="translate(-151.426 -68.135)"/>
            <path id="Path_6082" d="M97.725 11.01l5.234-9.458a1.062 1.062 0 0 0-.4-1.422 1.091 1.091 0 0 0-.512-.13 1.059 1.059 0 0 0-.924.542l-5.3 9.552a35.648 35.648 0 0 0-28.649 0L61.881.541a1.055 1.055 0 1 0-1.844 1.026l5.234 9.458C55.213 16.245 48.415 26.19 48.4 37.608h66.2c-.011-11.418-6.81-21.363-16.875-26.598zm-31.5 14.485a2.765 2.765 0 1 1 2.765-2.765 2.765 2.765 0 0 1-2.766 2.765zm30.556 0a2.765 2.765 0 1 1 2.765-2.765 2.765 2.765 0 0 1-2.766 2.765z" class="cls-1" data-name="Path 6082" transform="translate(-30.794 .001)"/>
            <path id="Path_6083" d="M7.421 107.09A7.432 7.432 0 0 0 0 114.511v30.919a7.421 7.421 0 0 0 14.841 0v-30.919a7.432 7.432 0 0 0-7.42-7.421z" class="cls-1" data-name="Path 6083" transform="translate(0 -68.135)"/>
            <path id="Path_6084" d="M48.4 158.569a8 8 0 0 0 8 8h5.311v16.369a7.421 7.421 0 0 0 14.841 0v-16.366h9.894v16.369a7.421 7.421 0 0 0 14.841 0v-16.369h5.313a8 8 0 0 0 8-8V110.59H48.4z" class="cls-1" data-name="Path 6084" transform="translate(-30.794 -70.362)"/>
        </g>
    </g>
</svg>
