<svg xmlns="http://www.w3.org/2000/svg" viewBox="0 0 101.078 120">
    <defs>
        <style>
            .cls-1{fill:#fff}
        </style>
    </defs>
    <path id="Apple_logo_black" d="M115.73 97.515a65.241 65.241 0 0 1-6.452 11.6q-5.089 7.255-8.311 10.044a16.122 16.122 0 0 1-10.681 4.7 26.772 26.772 0 0 1-9.866-2.355 28.31 28.31 0 0 0-10.62-2.345 29.271 29.271 0 0 0-10.923 2.348 29.388 29.388 0 0 1-9.438 2.481q-5.477.233-10.923-4.829a61.885 61.885 0 0 1-8.692-10.4A71.925 71.925 0 0 1 20.63 90.5a66.857 66.857 0 0 1-3.86-21.76q0-12.063 5.218-20.79a30.612 30.612 0 0 1 10.93-11.056 29.4 29.4 0 0 1 14.776-4.17c2.9 0 6.7.9 11.429 2.66s7.738 2.666 9.065 2.666c.992 0 4.353-1.049 10.052-3.14Q86.322 32 91.9 32.485q15.144 1.222 22.725 11.965-13.544 8.206-13.407 22.964a25.333 25.333 0 0 0 8.32 19.086 27.335 27.335 0 0 0 8.311 5.452q-1 2.9-2.118 5.563zM92.575 6.4q0 9-6.563 16.791c-5.274 6.166-11.653 9.729-18.571 9.166a18.682 18.682 0 0 1-.139-2.274c0-5.761 2.508-11.927 6.962-16.968a26.8 26.8 0 0 1 8.481-6.368A25.288 25.288 0 0 1 92.449 4a21.8 21.8 0 0 1 .126 2.4z" class="cls-1" transform="translate(-16.77 -3.999)"/>
</svg>
