<svg xmlns="http://www.w3.org/2000/svg" viewBox="0 0 101.904 120">
    <defs>
        <style>
            .cls-1{fill:#fff}
        </style>
    </defs>
    <g id="linux.4a80189" transform="translate(-38.578 -.001)">
        <g id="Group_876" data-name="Group 876" transform="translate(38.578 .001)">
            <path id="Path_6056" d="M139.663 100.476a8.72 8.72 0 0 0-2.075-1.641c-.135-.087-.5-.3-1.1-.633s-1.082-.625-1.441-.872a10.24 10.24 0 0 1-1.406-1.272 7.792 7.792 0 0 1-1.372-1.909 15.268 15.268 0 0 1-.971-2.711 16.306 16.306 0 0 1-.535-3.784q-.938.8-1.038 3.18a10.717 10.717 0 0 0 1 4.853 5.522 5.522 0 0 0 3.315 3.213 16.383 16.383 0 0 1 3.449 1.573 3.84 3.84 0 0 1 1.674 1.908q.368 1.074-1.239 2.311a18.619 18.619 0 0 1-5.156 2.447 44.064 44.064 0 0 0-6.931 2.844 48.8 48.8 0 0 0-5.992 4.453 9.689 9.689 0 0 1-5.693 2.378 5.507 5.507 0 0 1-4.887-2.209q-1.876-2.376-1.206-6.73 1.272-8.369-.065-13.057a13.3 13.3 0 0 1-.469-6.5q.6-2.809 1.875-3.279t2.745 2.007c.087.223.29.658.6 1.306a8.785 8.785 0 0 0 .771 1.372 12.674 12.674 0 0 0 .9 1.039 3.346 3.346 0 0 0 1.507.905 9.265 9.265 0 0 0 2.109.334 7.791 7.791 0 0 0 4.084-.937 8.224 8.224 0 0 0 2.712-2.243q.9-1.24 1.808-2.377a3.181 3.181 0 0 1 1.574-1.274q.736-.131 1.339-1.473a11.719 11.719 0 0 0 .8-3.715 23.451 23.451 0 0 0-.334-5.658 58 58 0 0 0-3.985-12.79 37.674 37.674 0 0 0-6.662-10.915 37.013 37.013 0 0 1-8.906-14.6 43.25 43.25 0 0 1-1.999-14.32 20.994 20.994 0 0 0-1.975-9.877 19.389 19.389 0 0 0-6.127-8.135A17.572 17.572 0 0 0 94.4.909a25 25 0 0 0-7.1-.9 14.711 14.711 0 0 0-6.963 1.406q-5.357 2.88-7.1 7a24.648 24.648 0 0 0-1.607 10.144q.269 13.258 1.072 20.757-.938 3.482-8.3 13.057a16.465 16.465 0 0 0-2.612 3.616 37.809 37.809 0 0 0-2.009 4.084q-.737 1.807-1.975 5.223t-1.774 4.821a17.425 17.425 0 0 1-1.473 2.814 19.023 19.023 0 0 0-1.607 3.145 10.52 10.52 0 0 0-.669 3.482 11.2 11.2 0 0 0 .134 2.544q.267 1.609 1 1.006 3.015-2.277 7.567 2.679 3.214 3.482 11.316 16.2.669 1.138 1.339 2.446a18.707 18.707 0 0 1 1.273 3.48 12.176 12.176 0 0 1 .5 3.918 4.95 4.95 0 0 1-1.54 3.214 7.26 7.26 0 0 1-4.319 1.874 11.108 11.108 0 0 1-3.716-.268q-2.176-.469-5.524-1.539t-4.955-1.474q-2.342-.537-6.662-1.372t-5.659-1.239q-2.276-.6-2.477-1.741a5.894 5.894 0 0 1 .937-3.213 8.773 8.773 0 0 0 1.138-3.281 5.454 5.454 0 0 0-.068-1.473 5.726 5.726 0 0 0-.3-1.139q-.167-.4-.569-1.206a10.372 10.372 0 0 1-.536-1.2q-1.2-2.814-.335-3.818.6-.871 2.879-.669a8.687 8.687 0 0 0 5.558-1.005q3.548-2.209 2.142-7.1a5.936 5.936 0 0 1-.8 3.415 9.257 9.257 0 0 1-2.806 2.339 9.451 9.451 0 0 1-4.017.8q-2.879.134-3.817.937a2.408 2.408 0 0 0-.7 1.808 8.458 8.458 0 0 0 .3 2.445q.334 1.239.669 2.845a10.405 10.405 0 0 1 .268 2.679 19.979 19.979 0 0 1-1.206 3.648q-1.138 2.914-.468 4.453a3.279 3.279 0 0 0 1.138 1.307 7.344 7.344 0 0 0 2.243.972q1.439.4 2.645.636t3.347.6q2.143.367 3.415.636a69.033 69.033 0 0 1 9.776 2.88q5.491 2.009 7.432 2.075a7.42 7.42 0 0 0 3.582-.77 12.871 12.871 0 0 0 2.913-1.908 12.124 12.124 0 0 1 3.582-2.009 15.373 15.373 0 0 1 5.324-1q1.339-.066 3.883-.167t3.817-.1q5.758 0 8.7.066a7.749 7.749 0 0 1 3.148.637 2.979 2.979 0 0 1 1.473 1.3 8.6 8.6 0 0 0 1.107 1.708 5.757 5.757 0 0 0 1.973 1.573 11.834 11.834 0 0 0 5.96.971q3.414-.234 4.553-1.306a65.07 65.07 0 0 1 5.055-4.285 35.447 35.447 0 0 1 5.726-3.75q.535-.27 1.808-.872t2.141-1.039q.871-.436 2.108-1.105a17.24 17.24 0 0 0 2.01-1.239 19.366 19.366 0 0 0 1.573-1.306 3.53 3.53 0 0 0 1.039-1.473 3.866 3.866 0 0 0 .167-1.507 2.889 2.889 0 0 0-.804-1.6zm-35.89-64.717c.133-.089.223-.122.267-.1a1.365 1.365 0 0 1 .267.268c.135.156.256.3.369.436s.267.312.467.535a2.8 2.8 0 0 0 .635.536 2.532 2.532 0 0 0 .972.368 1.98 1.98 0 0 1 .872.334 1.337 1.337 0 0 1 .434.77 1.852 1.852 0 0 1-.232 1.339.966.966 0 0 1-.973.536 5.124 5.124 0 0 1-2.611-2.109q-1.403-1.841-.467-2.913zM95.47 9.747a2.148 2.148 0 0 0 .4-.7 1.526 1.526 0 0 0 .034-.838 1.464 1.464 0 0 1 .067-.87.839.839 0 0 1 .771-.5 2.753 2.753 0 0 1 1.607 1c.133.09.345.224.634.4a2.553 2.553 0 0 1 .6.468.58.58 0 0 1 .167.335.838.838 0 0 1-.6.469 3.66 3.66 0 0 1-1 .134 1.355 1.355 0 0 0-.6.067 3.361 3.361 0 0 0-1 .6q-.468.4-.736.6a.408.408 0 0 1-.536 0q-.267-.4-.2-.569a3.386 3.386 0 0 1 .392-.596zM63.062 59.866a6.593 6.593 0 0 0 .669-.87 3.987 3.987 0 0 0 .368-.9 5.433 5.433 0 0 1 .3-.838.326.326 0 0 1 .4-.2c.089-.022.155.022.2.134l.067.168v.2a1.448 1.448 0 0 1-.034.268 1.2 1.2 0 0 1-.1.3 2.041 2.041 0 0 0-.134.4 6.351 6.351 0 0 1-.134.468 3.361 3.361 0 0 1-.837 1.206q-.57.535-.838.469c-.263-.09-.24-.359.073-.805zm43.79 41.314a48.968 48.968 0 0 1-.9 6.027q-.77 3.882-.972 5.155-1.406-.069-1.607-1.039a4.608 4.608 0 0 1 .4-2.511 28.029 28.029 0 0 0 1.539-6.16q.136-3.081-.668-3.482-.739-.535-2.278 2.008Q99.415 106 90.512 107q-8.034 1.072-11.115-2.412a1.284 1.284 0 0 0-1.339-.166 1.9 1.9 0 0 0-.87.634c-.044.09 0 .223.134.4s.346.446.636.8a5.869 5.869 0 0 1 .7 1.073q2.612 4.552-.468 6.159a18.18 18.18 0 0 0-.468-4.719 12.225 12.225 0 0 0-1.875-3.617 30.718 30.718 0 0 1-1.941-2.979 4.2 4.2 0 0 0 3.984-4.419 3.685 3.685 0 0 0-1.172-2.545q-.6-.6-6.228-5.122a69.49 69.49 0 0 1-6.963-6.06q-.269-.268-1.607-1.34a5.431 5.431 0 0 1-1.674-1.875q-3.081-6.76-.67-11.114l.268-.335q.334-.066.067 1.206a13.313 13.313 0 0 0-.268 3.75q.267 4.219 2.41 6.293 1.407 1.409 1.942-.2.4-.537.368-3.952t.1-4.62a34.59 34.59 0 0 1 3.181-9.44q2.644-5.625 4.185-6.027a5.7 5.7 0 0 1-.77-4.219 11.709 11.709 0 0 1 1.406-3.884q.97-1.607 1.975-3.716a8.958 8.958 0 0 0 1-3.783 2.348 2.348 0 0 1 .068-.669q.2-.6 1.674 1.473 2.818 4.162 4.225 4.899a3.431 3.431 0 0 0 3.281-.068 27.718 27.718 0 0 0 4.453-2.879 30.094 30.094 0 0 1 4.519-2.945 4.783 4.783 0 0 0 .637-.3c.289-.155.512-.268.668-.335s.356-.167.6-.3.433-.246.568-.335a4.708 4.708 0 0 0 .4-.3.909.909 0 0 0 .268-.335.82.82 0 0 0 .067-.3.883.883 0 0 0-.57-.736 1.811 1.811 0 0 0-1.172.168 15.6 15.6 0 0 0-1.641.8q-.9.5-2.008 1.138t-2.237 1.169a19.272 19.272 0 0 1-2.411.938 9.989 9.989 0 0 1-2.41.469 6.133 6.133 0 0 1-4.486-1.473 5.012 5.012 0 0 1-1.138-1.273q-.068-.267.6-.134a18.04 18.04 0 0 0 5.29.134 20.646 20.646 0 0 0 4.687-1.54q.6-.267 3.048-1.306a39.9 39.9 0 0 1 3.78-1.439 1.823 1.823 0 0 0 1.106-.636.958.958 0 0 0 .2-.8.927.927 0 0 0-.434-.569q-.738-.4-1.339.536a3.369 3.369 0 0 1-1.407 1.172 13.009 13.009 0 0 1-1.975.87q-.9.3-2.31.7t-1.54.469a20.273 20.273 0 0 1-6.83 1A7.269 7.269 0 0 1 79.3 37.6a2.625 2.625 0 0 1-1.239-.87 10.161 10.161 0 0 0-1.071-1.272 7.38 7.38 0 0 0-1.674-1.306.99.99 0 0 1-.5-1.2 3.808 3.808 0 0 1 1.038-1.808q.067-.068 1.372-.837a5.585 5.585 0 0 0 1.842-1.574 7.357 7.357 0 0 1 2.075-1.942 10.071 10.071 0 0 0 .1-1.473A5.742 5.742 0 0 0 80.6 22.7a2.033 2.033 0 0 0-1.8-1.4 2.4 2.4 0 0 0-2.277.937 4.025 4.025 0 0 0-.6 2.477 4.891 4.891 0 0 0 .636 2.243q.57.972 1.038.972.736-.068.468.535a1.813 1.813 0 0 1-1.071.938q-.47.133-1.038-.9a8.925 8.925 0 0 1-.87-2.511 9.533 9.533 0 0 1-.234-2.478 10.128 10.128 0 0 1 1.1-3.984 2.893 2.893 0 0 1 2.779-1.842 3.559 3.559 0 0 1 3.014 2.277 12.782 12.782 0 0 1 1.072 6.027q.2.469 1.038.335a9.907 9.907 0 0 1 2.209-.034 3.044 3.044 0 0 1 1.975.7 2.86 2.86 0 0 0 .068-1q-1.206-8.436 5.959-8.972a9.464 9.464 0 0 1 1.806.5 6.1 6.1 0 0 1 1.574 1 5.313 5.313 0 0 1 1.406 2.042 14.948 14.948 0 0 1 .9 3.348v2.477q0 2.142-.872 2.411-1.405.468-2.007-.034t.133-1.774a5 5 0 0 0-.266-3.89 3.1 3.1 0 0 0-3.415-2 2.622 2.622 0 0 0-2.411 1.8 6.633 6.633 0 0 0-.535 3.415q.2 1.674.737 1.74a14.447 14.447 0 0 1 2.377 1.072 13.187 13.187 0 0 0 2.98 1.205q2.611.535 2.979 1.674a5.851 5.851 0 0 1-.3 3.315 6.94 6.94 0 0 0 .6 6.261 18.488 18.488 0 0 0 1.573 2.21 15.96 15.96 0 0 1 1.976 3.749 43.215 43.215 0 0 1 2.074 6.9q.066.067.5.469a6.747 6.747 0 0 1 .871 1q.437.6 1.039 1.641A18.61 18.61 0 0 1 109.1 60.6a44.359 44.359 0 0 1 1.3 4.62 32.163 32.163 0 0 1 .77 7.166 21.115 21.115 0 0 0 .536 5.591q.5 1.508 2.578 1.239a3.42 3.42 0 0 0 3.347-2.812q2.21-7.768-3.615-18.615a19.377 19.377 0 0 0-3.817-5.558 15.816 15.816 0 0 1 4.822 5.022 19.884 19.884 0 0 1 3.146 6.9q.065.336.368 1.774t.334 1.674c.022.156.112.614.267 1.373a9.65 9.65 0 0 1 .234 1.473c0 .224.022.659.067 1.306a6.214 6.214 0 0 1-.034 1.506c-.067.358-.133.838-.2 1.439a10.96 10.96 0 0 1-.335 1.742q-.231.837-.5 1.841 3.682 1.607 3.682 2.812a8.085 8.085 0 0 0-4.019-1.5 8.314 8.314 0 0 0-4.854.7 3.784 3.784 0 0 0-2.312 3.548 4.219 4.219 0 0 0-3.414 1.206 7.338 7.338 0 0 0-1.539 4.72 35.743 35.743 0 0 0 .5 6.494 22.484 22.484 0 0 1 .439 4.919zM78.8 23.573a.624.624 0 0 1-.334-.4c0-.4.2-.558.6-.468q.4.133.77 1A3.513 3.513 0 0 1 80 25.716a.177.177 0 0 1-.2.2q-.737 0-.536-1.339.201-1.004-.464-1.004zm17.343 1.072l-.133.2c-.356.223-.534.268-.534.134q-.276-1.809-1.21-2.079L94 22.769q-.47-.4.467-.469.2-.067.6.2a2.639 2.639 0 0 1 1.071 2.144z" class="cls-1" data-name="Path 6056" transform="translate(-38.578 -.001)"/>
            <path id="Path_6057" d="M217.484 121.631c0 1.143.479 1.619 1.431 1.43.76 0 1.565-.9 2.424-2.713a5.077 5.077 0 0 1 4.425-3h-2.856q-5.422.857-5.424 4.283z" class="cls-1" data-name="Path 6057" transform="translate(-178.185 -90.848)"/>
            <path id="Path_6058" d="M242.326 118.208a4.707 4.707 0 0 1 5 1.287c1.425 1.425 2.522 2.046 3.284 1.853a1.692 1.692 0 0 0 .854-2.568q-2.285-3.712-9.138-.572z" class="cls-1" data-name="Path 6058" transform="translate(-197.997 -90.196)"/>
        </g>
    </g>
</svg>
