<svg xmlns="http://www.w3.org/2000/svg" viewBox="0 0 120 120">
    <defs>
        <style>
            .cls-1{opacity:.483}.cls-2{fill:#fff}
        </style>
    </defs>
    <g id="windows-svgrepo-com" class="cls-1">
        <path id="XMLID_109_" d="M140 10.141v45.924a.983.983 0 0 0 .984.984h62.935a.983.983 0 0 0 .984-.984V.984a.983.983 0 0 0-1.127-.974l-62.935 9.158a.984.984 0 0 0-.841.973z" class="cls-2" transform="translate(-84.917)"/>
        <path id="XMLID_110_" d="M48.253 207.193a.983.983 0 0 0 .984-.984v-45.225a.983.983 0 0 0-.984-.984H1.076a.983.983 0 0 0-.984.984v38.76a.984.984 0 0 0 .85.975l47.175 6.466a1.091 1.091 0 0 0 .136.008z" class="cls-2" transform="translate(-.056 -97.049)"/>
        <path id="XMLID_138_" d="M1.026 72.929H48.2a.983.983 0 0 0 .984-.984V27.164a.983.983 0 0 0-1.116-.975L.851 32.6a.984.984 0 0 0-.851.977l.043 38.369a.984.984 0 0 0 .983.983z" class="cls-2" transform="translate(0 -15.88)"/>
        <path id="XMLID_169_" d="M203.918 217.049a.984.984 0 0 0 .984-.984l.016-55.082a.983.983 0 0 0-.984-.984h-62.951a.983.983 0 0 0-.984.984v46.228a.984.984 0 0 0 .846.974l62.936 8.854a1.012 1.012 0 0 0 .137.01z" class="cls-2" transform="translate(-84.917 -97.049)"/>
    </g>
</svg>
