<svg xmlns="http://www.w3.org/2000/svg" xmlns:xlink="http://www.w3.org/1999/xlink" viewBox="0 0 50 50" version="1.1">
                                        <g id="surface1">
                                        <path fill="#fff" style=" " d="M 37 2 C 35.355469 2 34 3.355469 34 5 L 34 6 L 28 6 L 28 19 L 30 19 L 30 16.4375 C 30.59375 16.785156 31.269531 17 32 17 L 44 17 C 44.730469 17 45.40625 16.785156 46 16.4375 L 46 21 L 33 21 L 33 23 L 48 23 L 48 6 L 42 6 L 42 5 C 42 3.355469 40.644531 2 39 2 Z M 37 4 L 39 4 C 39.566406 4 40 4.433594 40 5 L 40 6 L 36 6 L 36 5 C 36 4.433594 36.433594 4 37 4 Z M 30 8 L 46 8 L 46 13 C 46 14.105469 45.105469 15 44 15 L 32 15 C 30.894531 15 30 14.105469 30 13 Z M 38 12 C 37.449219 12 37 12.449219 37 13 C 37 13.550781 37.449219 14 38 14 C 38.550781 14 39 13.550781 39 13 C 39 12.449219 38.550781 12 38 12 Z M 25 21 L 25 23 L 27.585938 23 L 21 29.585938 L 21 27 L 19 27 L 19 33 L 25 33 L 25 31 L 22.414063 31 L 29 24.414063 L 29 27 L 31 27 L 31 21 Z M 11 27 C 9.355469 27 8 28.355469 8 30 L 8 31 L 2 31 L 2 48 L 22 48 L 22 35 L 20 35 L 20 38 C 20 39.101563 19.101563 40 18 40 L 6 40 C 4.898438 40 4 39.101563 4 38 L 4 33 L 17 33 L 17 31 L 16 31 L 16 30 C 16 28.355469 14.644531 27 13 27 Z M 11 29 L 13 29 C 13.566406 29 14 29.433594 14 30 L 14 31 L 10 31 L 10 30 C 10 29.433594 10.433594 29 11 29 Z M 12 37 C 11.449219 37 11 37.449219 11 38 C 11 38.550781 11.449219 39 12 39 C 12.550781 39 13 38.550781 13 38 C 13 37.449219 12.550781 37 12 37 Z M 4 41.441406 C 4.589844 41.789063 5.269531 42 6 42 L 18 42 C 18.730469 42 19.410156 41.789063 20 41.441406 L 20 46 L 4 46 Z "></path>
                                        </g>
                                        </svg>