<svg xmlns="http://www.w3.org/2000/svg" xmlns:xlink="http://www.w3.org/1999/xlink" viewBox="0 0 50 50" version="1.1">
                                    <g id="surface1">
                                    <path fill="#fff" style=" " d="M 19 1 C 17.707031 1 16.605469 1.84375 16.1875 3 L 11.21875 3 C 11.117188 2.972656 11.011719 2.960938 10.90625 2.96875 C 10.875 2.976563 10.84375 2.988281 10.8125 3 L 5 3 C 3.355469 3 2 4.355469 2 6 L 2 41 C 2 42.644531 3.355469 44 5 44 L 23 44 C 23 45.644531 24.355469 47 26 47 L 44 47 C 45.644531 47 47 45.644531 47 44 L 47 21 C 47 19.355469 45.644531 18 44 18 L 36 18 L 36 6 C 36 4.355469 34.644531 3 33 3 L 21.8125 3 C 21.394531 1.84375 20.292969 1 19 1 Z M 19 3 C 19.5 3 19.882813 3.34375 19.96875 3.8125 C 19.945313 3.9375 19.945313 4.0625 19.96875 4.1875 C 19.882813 4.65625 19.5 5 19 5 C 18.46875 5 18.046875 4.613281 18 4.09375 C 18 4.0625 18 4.03125 18 4 C 18 3.4375 18.4375 3 19 3 Z M 5 5 L 10 5 L 10 8 C 10 9.644531 11.355469 11 13 11 L 25 11 C 26.644531 11 28 9.644531 28 8 L 28 5 L 33 5 C 33.566406 5 34 5.433594 34 6 L 34 18 L 26 18 C 24.355469 18 23 19.355469 23 21 L 23 42 L 5 42 C 4.433594 42 4 41.566406 4 41 L 4 6 C 4 5.433594 4.433594 5 5 5 Z M 12 5 L 16.1875 5 C 16.605469 6.15625 17.707031 7 19 7 C 20.292969 7 21.394531 6.15625 21.8125 5 L 26 5 L 26 8 C 26 8.566406 25.566406 9 25 9 L 13 9 C 12.433594 9 12 8.566406 12 8 Z M 13 15 L 13 21 L 11 21 L 11 18 L 9 18 L 9 21 L 7 21 L 7 23 L 21 23 L 21 21 L 19 21 L 19 17 L 17 17 L 17 21 L 15 21 L 15 15 Z M 26 20 L 44 20 C 44.566406 20 45 20.433594 45 21 L 45 44 C 45 44.566406 44.566406 45 44 45 L 26 45 C 25.433594 45 25 44.566406 25 44 L 25 43.1875 C 25.027344 43.054688 25.027344 42.914063 25 42.78125 L 25 21 C 25 20.433594 25.433594 20 26 20 Z M 27.8125 22 C 27.335938 22.089844 26.992188 22.511719 27 23 L 27 27 C 27 27.550781 27.449219 28 28 28 L 42 28 C 42.550781 28 43 27.550781 43 27 L 43 23 C 43 22.449219 42.550781 22 42 22 L 28 22 C 27.96875 22 27.9375 22 27.90625 22 C 27.875 22 27.84375 22 27.8125 22 Z M 29 24 L 41 24 L 41 26 L 29 26 Z M 13 27 C 9.699219 27 7 29.699219 7 33 C 7 36.300781 9.699219 39 13 39 C 16.300781 39 19 36.300781 19 33 C 19 29.699219 16.300781 27 13 27 Z M 13 29 L 13 33 L 17 33 C 17 35.222656 15.222656 37 13 37 C 10.777344 37 9 35.222656 9 33 C 9 30.777344 10.777344 29 13 29 Z M 28 30 C 27.449219 30 27 30.449219 27 31 L 27 32 C 27 32.550781 27.449219 33 28 33 L 30 33 C 30.550781 33 31 32.550781 31 32 L 31 31 C 31 30.449219 30.550781 30 30 30 Z M 34 30 C 33.449219 30 33 30.449219 33 31 L 33 32 C 33 32.550781 33.449219 33 34 33 L 36 33 C 36.550781 33 37 32.550781 37 32 L 37 31 C 37 30.449219 36.550781 30 36 30 Z M 40 30 C 39.449219 30 39 30.449219 39 31 L 39 32 C 39 32.550781 39.449219 33 40 33 L 42 33 C 42.550781 33 43 32.550781 43 32 L 43 31 C 43 30.449219 42.550781 30 42 30 Z M 28 35 C 27.449219 35 27 35.449219 27 36 L 27 37 C 27 37.550781 27.449219 38 28 38 L 30 38 C 30.550781 38 31 37.550781 31 37 L 31 36 C 31 35.449219 30.550781 35 30 35 Z M 34 35 C 33.449219 35 33 35.449219 33 36 L 33 37 C 33 37.550781 33.449219 38 34 38 L 36 38 C 36.550781 38 37 37.550781 37 37 L 37 36 C 37 35.449219 36.550781 35 36 35 Z M 40 35 C 39.449219 35 39 35.449219 39 36 L 39 37 C 39 37.550781 39.449219 38 40 38 L 42 38 C 42.550781 38 43 37.550781 43 37 L 43 36 C 43 35.449219 42.550781 35 42 35 Z M 28 40 C 27.449219 40 27 40.449219 27 41 L 27 42 C 27 42.550781 27.449219 43 28 43 L 30 43 C 30.550781 43 31 42.550781 31 42 L 31 41 C 31 40.449219 30.550781 40 30 40 Z M 34 40 C 33.449219 40 33 40.449219 33 41 L 33 42 C 33 42.550781 33.449219 43 34 43 L 36 43 C 36.550781 43 37 42.550781 37 42 L 37 41 C 37 40.449219 36.550781 40 36 40 Z M 40 40 C 39.449219 40 39 40.449219 39 41 L 39 42 C 39 42.550781 39.449219 43 40 43 L 42 43 C 42.550781 43 43 42.550781 43 42 L 43 41 C 43 40.449219 42.550781 40 42 40 Z "></path>
                                    </g>
                                    </svg>