<svg xmlns="http://www.w3.org/2000/svg" width="14" height="14" viewBox="0 0 14 14">
    <path fill="#34343E" fill-rule="evenodd" d="M11.09.333H2.91A2.58 2.58 0 0 0 .333 2.91v8.18a2.58 2.58 0 0 0 2.577 2.577h8.18a2.58 2.58 0 0 0 2.577-2.577V2.91A2.58 2.58 0 0 0 11.09.333zm.74 1.538l.294-.002v2.26l-2.253.007-.008-2.26 1.966-.005zM5.096 5.63A2.344 2.344 0 0 1 7 4.653c.783 0 1.476.387 1.903.978.278.386.444.858.444 1.369A2.35 2.35 0 0 1 7 9.346 2.35 2.35 0 0 1 4.654 7c0-.511.166-.983.443-1.369zm7.27 5.459a1.28 1.28 0 0 1-1.277 1.278H2.91a1.28 1.28 0 0 1-1.278-1.278V5.63h1.992A3.62 3.62 0 0 0 3.354 7 3.65 3.65 0 0 0 7 10.646 3.65 3.65 0 0 0 10.646 7a3.65 3.65 0 0 0-.269-1.369h1.99v5.459z" opacity=".4"/>
</svg>
